<svg id="svg" version="1.1" xmlns="http://www.w3.org/2000/svg" xmlns:xlink="http://www.w3.org/1999/xlink" width="400" height="400" viewBox="0, 0, 400,400"><g id="svgg"><path id="path0" d="M125.368 30.367 C 108.694 32.799,95.986 45.153,93.078 61.759 C 92.102 67.331,92.255 224.230,93.241 228.983 C 96.274 243.601,106.784 254.634,121.497 258.645 L 125.336 259.692 204.607 259.805 C 256.777 259.880,285.124 259.784,287.524 259.526 C 303.529 257.803,315.946 247.548,320.803 232.040 L 321.881 228.599 321.998 146.641 C 322.085 85.574,322.001 63.949,321.667 61.804 C 319.208 46.003,306.513 33.353,290.257 30.506 C 286.583 29.863,129.733 29.731,125.368 30.367 M228.407 80.266 C 246.865 82.481,258.241 92.707,259.853 108.533 C 261.253 122.279,255.700 133.750,244.629 139.981 C 241.498 141.743,241.463 141.870,243.907 142.580 C 268.214 149.647,274.445 185.795,254.291 202.823 C 247.617 208.462,238.803 212.016,227.831 213.494 C 220.822 214.439,155.956 214.235,155.248 213.266 C 154.549 212.311,154.415 82.253,155.111 80.951 C 155.336 80.531,155.874 80.056,156.306 79.896 C 157.483 79.461,224.565 79.805,228.407 80.266 M181.875 99.381 C 181.604 99.468,181.255 99.729,181.100 99.962 C 180.762 100.467,180.704 134.412,181.039 135.285 C 181.369 136.146,220.599 136.192,224.635 135.336 C 234.298 133.288,239.424 125.694,238.639 114.587 C 237.845 103.362,232.878 99.804,217.658 99.560 C 202.785 99.322,182.379 99.220,181.875 99.381 M181.039 153.774 C 180.675 154.724,180.778 193.219,181.146 193.800 C 181.649 194.594,227.061 194.451,230.150 193.646 C 250.003 188.475,249.795 158.447,229.875 153.751 C 226.117 152.865,181.380 152.886,181.039 153.774 " stroke="none" fill="#543c7c" fill-rule="evenodd"></path><path id="path1" d="M155.647 80.386 C 154.672 81.099,154.481 212.051,155.452 213.222 C 156.252 214.186,225.718 213.907,230.710 212.920 C 253.421 208.429,266.088 195.366,266.130 176.392 C 266.167 159.866,257.941 147.360,244.047 142.818 C 240.974 141.813,240.953 141.884,244.995 139.549 C 254.818 133.875,259.645 124.967,259.666 112.476 C 259.697 93.820,248.177 82.525,226.791 80.244 C 220.586 79.582,156.571 79.710,155.647 80.386 M227.171 99.942 C 235.288 102.065,238.757 106.986,238.767 116.392 C 238.779 126.749,234.459 133.011,225.712 135.319 C 224.005 135.769,196.385 136.141,181.478 135.914 C 178.501 135.869,178.615 136.596,178.609 117.618 C 178.603 99.648,178.612 99.561,180.519 99.305 C 184.415 98.782,224.847 99.334,227.171 99.942 M230.660 153.649 C 249.623 159.392,250.174 186.786,231.463 193.539 C 227.723 194.888,181.386 195.165,179.258 193.850 C 178.435 193.342,178.288 155.337,179.105 154.056 C 179.862 152.868,179.641 152.877,205.374 152.955 C 225.580 153.016,228.867 153.106,230.660 153.649 " stroke="none" fill="#fbfbfb" fill-rule="evenodd"></path><path id="path2" d="M99.424 334.378 L 99.424 353.210 110.653 353.092 C 121.313 352.981,121.959 352.933,123.417 352.145 C 130.600 348.262,131.097 337.436,124.253 333.916 L 122.786 333.162 124.298 332.066 C 129.767 328.105,128.021 318.039,121.530 316.111 C 120.069 315.677,117.297 315.547,109.527 315.547 L 99.424 315.547 99.424 334.378 M193.858 321.689 L 193.858 325.912 191.555 325.912 L 189.251 325.912 189.251 328.023 L 189.251 330.134 191.537 330.134 L 193.823 330.134 193.936 340.531 L 194.050 350.928 195.304 352.047 C 196.511 353.126,196.698 353.167,200.390 353.167 L 204.223 353.167 204.223 351.074 L 204.223 348.981 201.833 348.867 C 198.473 348.706,198.477 348.720,198.470 338.484 L 198.464 330.134 201.344 330.134 L 204.223 330.134 204.223 328.023 L 204.223 325.912 201.344 325.912 L 198.464 325.912 198.464 321.689 L 198.464 317.466 196.161 317.466 L 193.858 317.466 193.858 321.689 M234.933 321.689 L 234.933 325.912 232.630 325.912 L 230.326 325.912 230.326 328.023 L 230.326 330.134 232.612 330.134 L 234.898 330.134 235.011 340.531 L 235.125 350.928 236.378 352.047 C 237.586 353.126,237.773 353.167,241.465 353.167 L 245.298 353.167 245.298 351.074 L 245.298 348.981 242.908 348.867 C 239.548 348.706,239.552 348.720,239.545 338.484 L 239.539 330.134 242.418 330.134 L 245.298 330.134 245.298 328.023 L 245.298 325.912 242.418 325.912 L 239.539 325.912 239.539 321.689 L 239.539 317.466 237.236 317.466 L 234.933 317.466 234.933 321.689 M119.233 320.779 C 121.308 321.809,122.113 323.094,122.131 325.405 C 122.168 330.212,120.144 331.322,110.847 331.590 L 104.415 331.776 104.415 325.717 L 104.415 319.658 111.101 319.859 C 116.584 320.024,118.047 320.189,119.233 320.779 M260.010 325.161 C 257.670 325.624,256.330 326.431,254.555 328.448 L 252.975 330.242 252.975 328.077 L 252.975 325.912 250.672 325.912 L 248.369 325.912 248.369 339.539 L 248.369 353.167 250.672 353.167 L 252.975 353.167 252.987 347.313 C 253.013 334.626,254.717 331.003,261.012 330.258 L 262.956 330.027 262.956 327.394 C 262.956 324.470,263.070 324.556,260.010 325.161 M140.278 325.934 C 129.582 330.049,129.658 349.150,140.387 353.164 C 150.458 356.932,158.733 350.787,158.733 339.539 C 158.733 328.287,150.307 322.075,140.278 325.934 M169.453 325.934 C 158.756 330.049,158.833 349.150,169.562 353.164 C 179.633 356.932,187.908 350.787,187.908 339.539 C 187.908 328.287,179.482 322.075,169.453 325.934 M211.643 325.947 C 207.946 327.369,205.975 330.742,206.676 334.450 C 207.320 337.858,209.740 339.530,216.260 341.071 C 222.872 342.633,224.194 343.430,224.172 345.844 C 224.149 348.411,222.045 349.718,217.959 349.704 C 213.840 349.689,212.058 348.491,210.981 345.010 C 210.588 343.741,206.142 344.053,206.142 345.349 C 206.142 354.881,224.781 357.699,228.832 348.780 C 231.570 342.752,228.531 339.098,218.902 336.840 C 212.986 335.453,210.923 333.888,212.034 331.629 C 213.895 327.849,223.417 329.211,223.417 333.257 C 223.417 333.882,223.733 333.973,225.912 333.973 C 228.715 333.973,228.833 333.794,228.000 330.796 C 226.651 325.938,218.189 323.430,211.643 325.947 M270.709 325.872 C 267.357 327.030,264.904 330.078,264.884 333.109 L 264.875 334.357 267.126 334.357 L 269.377 334.357 270.052 332.590 C 271.605 328.525,279.996 328.026,281.616 331.903 C 282.931 335.051,281.745 335.984,274.833 337.240 C 266.087 338.829,263.724 340.696,263.724 346.015 C 263.724 351.682,266.350 353.928,272.984 353.933 C 276.358 353.935,278.658 353.244,280.685 351.618 L 282.099 350.484 282.361 351.346 C 282.906 353.143,284.067 353.935,286.151 353.929 C 289.532 353.920,289.827 353.732,289.827 351.587 L 289.827 349.712 288.525 349.712 C 286.747 349.712,286.756 349.766,286.756 339.496 C 286.756 329.485,286.593 328.617,284.398 326.960 C 281.813 325.009,274.818 324.453,270.709 325.872 M301.159 325.757 C 300.319 326.065,299.066 326.864,298.376 327.533 L 297.121 328.749 297.121 327.139 L 297.121 325.528 294.818 325.528 L 292.514 325.528 292.514 344.530 L 292.514 363.532 294.818 363.532 L 297.121 363.532 297.121 356.988 L 297.121 350.444 298.560 351.598 C 304.674 356.501,314.690 353.780,317.424 346.475 C 322.218 333.662,312.696 321.534,301.159 325.757 M148.900 330.112 C 157.185 334.339,154.661 349.712,145.681 349.712 C 136.752 349.712,134.182 334.464,142.380 330.131 C 144.199 329.169,147.036 329.161,148.900 330.112 M178.075 330.112 C 186.360 334.339,183.835 349.712,174.856 349.712 C 165.927 349.712,163.356 334.464,171.555 330.131 C 173.374 329.169,176.211 329.161,178.075 330.112 M308.164 329.961 C 313.031 331.994,314.941 339.797,312.040 345.790 C 309.437 351.166,301.205 350.937,298.505 345.413 C 294.244 336.693,300.464 326.743,308.164 329.961 M120.154 336.924 C 123.089 338.243,124.223 340.531,123.523 343.724 C 122.599 347.941,120.888 348.681,111.612 348.876 L 104.415 349.027 104.415 342.409 L 104.415 335.790 111.420 335.969 C 117.375 336.121,118.685 336.264,120.154 336.924 M281.959 343.888 C 281.206 348.909,272.996 351.805,269.765 348.189 C 266.676 344.732,269.482 341.843,277.013 340.728 C 278.938 340.443,280.838 340.027,281.235 339.803 C 282.093 339.319,282.391 341.004,281.959 343.888 " stroke="none" fill="#040404" fill-rule="evenodd"></path><path id="path3" d="M204.702 99.320 C 205.494 99.403,206.790 99.403,207.582 99.320 C 208.373 99.237,207.726 99.169,206.142 99.169 C 204.559 99.169,203.911 99.237,204.702 99.320 M219.102 99.312 C 219.580 99.404,220.271 99.400,220.638 99.304 C 221.005 99.208,220.614 99.133,219.770 99.137 C 218.925 99.141,218.625 99.220,219.102 99.312 M154.887 147.793 C 154.887 167.534,154.933 175.609,154.990 165.739 C 155.047 155.869,155.047 139.717,154.990 129.846 C 154.933 119.976,154.887 128.052,154.887 147.793 M251.419 134.645 L 250.096 136.084 251.536 134.762 C 252.875 133.530,253.152 133.205,252.858 133.205 C 252.794 133.205,252.146 133.853,251.419 134.645 M183.205 136.157 C 183.575 136.254,184.179 136.254,184.549 136.157 C 184.918 136.061,184.616 135.982,183.877 135.982 C 183.138 135.982,182.836 136.061,183.205 136.157 M197.217 153.071 C 202.548 153.131,211.272 153.131,216.603 153.071 C 221.934 153.011,217.572 152.961,206.910 152.961 C 196.248 152.961,191.886 153.011,197.217 153.071 " stroke="none" fill="#ac9cbc" fill-rule="evenodd"></path><path id="path4" d="M159.981 79.748 C 161.723 79.819,164.573 79.819,166.315 79.748 C 168.057 79.677,166.631 79.619,163.148 79.619 C 159.664 79.619,158.239 79.677,159.981 79.748 M250.672 89.563 C 250.672 89.630,251.233 90.191,251.919 90.811 L 253.167 91.939 252.040 90.691 C 250.989 89.528,250.672 89.267,250.672 89.563 M190.094 99.327 C 192.352 99.394,196.152 99.395,198.539 99.327 C 200.926 99.260,199.079 99.204,194.434 99.204 C 189.789 99.204,187.836 99.259,190.094 99.327 M211.244 99.325 C 212.678 99.399,214.924 99.399,216.235 99.324 C 217.546 99.249,216.372 99.189,213.628 99.189 C 210.883 99.190,209.810 99.251,211.244 99.325 M259.982 112.284 C 259.986 113.129,260.065 113.429,260.156 112.951 C 260.248 112.474,260.245 111.783,260.149 111.416 C 260.053 111.049,259.977 111.440,259.982 112.284 M183.589 153.063 C 184.381 153.146,185.677 153.146,186.468 153.063 C 187.260 152.980,186.612 152.912,185.029 152.912 C 183.445 152.912,182.798 152.980,183.589 153.063 M195.106 194.529 C 200.753 194.589,209.995 194.589,215.643 194.529 C 221.291 194.470,216.670 194.421,205.374 194.421 C 194.079 194.421,189.458 194.470,195.106 194.529 M174.597 214.107 C 183.111 214.165,196.930 214.165,205.307 214.107 C 213.684 214.050,206.718 214.002,189.827 214.003 C 172.937 214.003,166.083 214.050,174.597 214.107 " stroke="none" fill="#87719f" fill-rule="evenodd"></path></g></svg>