<svg version="1.2" baseProfile="tiny-ps" xmlns="http://www.w3.org/2000/svg" viewBox="0 0 70 91" width="70" height="91">
	<title>bootstrap-svg</title>
	<style>
		tspan { white-space:pre }
		.shp0 { fill: #543c7c } 
		.shp1 { fill: #fbfbfb } 
		.shp2 { fill: #040404 } 
		.shp3 { fill: #ac9cbc } 
		.shp4 { fill: #87719f } 
	</style>
	<g id="svgg">
		<path id="path0" fill-rule="evenodd" class="shp0" d="M55.03 6.94C58.73 7.59 61.62 10.47 62.18 14.06C62.26 14.55 62.27 19.47 62.25 33.36L62.23 52.01L61.98 52.79C60.88 56.32 58.05 58.65 54.41 59.04C53.87 59.1 47.42 59.12 35.55 59.11L17.51 59.08L16.64 58.84C13.29 57.93 10.9 55.42 10.21 52.09C9.99 51.01 9.95 15.32 10.18 14.05C10.84 10.27 13.73 7.46 17.52 6.91C18.51 6.76 54.2 6.79 55.03 6.94ZM24.56 18.18C24.46 18.21 24.34 18.32 24.29 18.42C24.13 18.71 24.16 48.3 24.32 48.52C24.48 48.74 39.24 48.78 40.83 48.57C43.33 48.23 45.33 47.43 46.85 46.14C51.44 42.27 50.02 34.04 44.49 32.44C43.93 32.28 43.94 32.25 44.65 31.85C47.17 30.43 48.44 27.82 48.12 24.69C47.75 21.09 45.16 18.76 40.96 18.26C40.09 18.16 24.83 18.08 24.56 18.18ZM38.52 22.65C41.98 22.71 43.11 23.51 43.29 26.07C43.47 28.6 42.3 30.32 40.1 30.79C39.19 30.98 30.26 30.97 30.19 30.78C30.11 30.58 30.12 22.86 30.2 22.74C30.24 22.69 30.31 22.63 30.38 22.61C30.49 22.57 35.13 22.6 38.52 22.65ZM41.3 34.98C45.83 36.05 45.88 42.88 41.36 44.05C40.66 44.24 30.33 44.27 30.21 44.09C30.13 43.96 30.1 35.2 30.19 34.98C30.26 34.78 40.44 34.78 41.3 34.98Z" />
		<path id="path1" fill-rule="evenodd" class="shp1" d="M40.59 18.26C45.46 18.77 48.08 21.34 48.07 25.59C48.07 28.43 46.97 30.46 44.74 31.75C43.82 32.28 43.82 32.26 44.52 32.49C47.68 33.52 49.55 36.37 49.54 40.13C49.54 44.45 46.65 47.42 41.49 48.44C40.35 48.66 24.55 48.73 24.37 48.51C24.14 48.24 24.19 18.45 24.41 18.29C24.62 18.13 39.18 18.1 40.59 18.26ZM30.07 22.59C29.63 22.65 29.63 22.67 29.63 26.76C29.63 31.08 29.61 30.91 30.29 30.92C33.68 30.97 39.96 30.89 40.35 30.79C42.34 30.26 43.32 28.84 43.32 26.48C43.32 24.34 42.53 23.22 40.68 22.74C40.15 22.6 30.95 22.47 30.07 22.59ZM35.72 34.8C29.87 34.78 29.92 34.78 29.75 35.05C29.56 35.34 29.59 43.99 29.78 44.1C30.27 44.4 40.81 44.34 41.66 44.03C45.91 42.49 45.79 36.26 41.48 34.96C41.07 34.83 40.32 34.81 35.72 34.8Z" />
		<path id="path2" fill-rule="evenodd" class="shp2" d="M8.62 64.79L10.92 64.79C12.69 64.79 13.32 64.82 13.65 64.92C15.12 65.35 15.52 67.64 14.28 68.55L13.93 68.79L14.27 68.97C15.82 69.77 15.71 72.23 14.08 73.11C13.75 73.29 13.6 73.3 11.17 73.33L8.62 73.36L8.62 64.79ZM30.1 65.22L31.15 65.22L31.15 67.14L32.46 67.14L32.46 68.11L31.15 68.11L31.15 70.01C31.15 72.33 31.15 72.33 31.92 72.37L32.46 72.39L32.46 73.35L31.59 73.35C30.75 73.35 30.71 73.34 30.43 73.09L30.15 72.84L30.12 70.47L30.09 68.11L29.05 68.11L29.05 67.14L30.1 67.14L30.1 65.22ZM39.45 65.22L40.5 65.22L40.5 67.14L41.81 67.14L41.81 68.11L40.5 68.11L40.5 70.01C40.5 72.33 40.5 72.33 41.26 72.37L41.81 72.39L41.81 73.35L40.93 73.35C40.09 73.35 40.05 73.34 39.78 73.09L39.49 72.84L39.47 70.47L39.44 68.11L38.4 68.11L38.4 67.14L39.45 67.14L39.45 65.22ZM11.28 65.77L9.75 65.72L9.75 68.48L11.22 68.44C13.33 68.38 13.79 68.12 13.78 67.03C13.78 66.5 13.6 66.21 13.13 65.98C12.86 65.84 12.52 65.81 11.28 65.77ZM45.82 67.48L45.82 68.08L45.38 68.13C43.95 68.3 43.56 69.13 43.55 72.01L43.55 73.35L42.5 73.35L42.5 67.14L43.55 67.14L43.55 68.13L43.91 67.72C44.32 67.26 44.62 67.08 45.15 66.97C45.85 66.84 45.82 66.82 45.82 67.48ZM22.11 70.25C22.11 72.8 20.23 74.2 17.94 73.34C15.5 72.43 15.48 68.09 17.91 67.15C20.19 66.27 22.11 67.69 22.11 70.25ZM28.75 70.25C28.75 72.8 26.87 74.2 24.58 73.34C22.13 72.43 22.12 68.09 24.55 67.15C26.83 66.27 28.75 67.69 28.75 70.25ZM37.87 68.26C38.06 68.94 38.03 68.98 37.39 68.98C36.9 68.98 36.83 68.96 36.83 68.82C36.83 67.9 34.66 67.59 34.24 68.45C33.98 68.96 34.45 69.32 35.8 69.63C37.99 70.14 38.68 70.98 38.06 72.35C37.14 74.38 32.9 73.74 32.9 71.57C32.9 71.27 33.91 71.2 34 71.49C34.24 72.28 34.65 72.55 35.59 72.56C36.52 72.56 36.99 72.26 37 71.68C37 71.13 36.7 70.95 35.2 70.59C33.72 70.24 33.17 69.86 33.02 69.09C32.86 68.24 33.31 67.48 34.15 67.15C35.64 66.58 37.56 67.15 37.87 68.26ZM50.7 67.38C51.2 67.76 51.24 67.96 51.24 70.24C51.24 72.57 51.23 72.56 51.64 72.56L51.94 72.56L51.94 72.99C51.94 73.47 51.87 73.52 51.1 73.52C50.63 73.52 50.36 73.34 50.24 72.93L50.18 72.74L49.86 72.99C49.39 73.36 48.87 73.52 48.1 73.52C46.59 73.52 46 73.01 46 71.72C46 70.51 46.53 70.08 48.52 69.72C50.1 69.44 50.37 69.22 50.07 68.51C49.7 67.63 47.79 67.74 47.44 68.66L47.28 69.07L46.26 69.07L46.26 68.78C46.27 68.09 46.82 67.4 47.59 67.14C48.52 66.81 50.11 66.94 50.7 67.38ZM58.21 71.82C57.59 73.48 55.31 74.1 53.92 72.99L53.6 72.73L53.6 75.7L52.55 75.7L52.55 67.06L53.6 67.06L53.6 67.79L53.88 67.51C54.04 67.36 54.32 67.18 54.51 67.11C57.14 66.15 59.3 68.91 58.21 71.82ZM18.39 68.1C16.53 69.09 17.11 72.56 19.14 72.56C21.19 72.56 21.76 69.06 19.87 68.1C19.45 67.88 18.81 67.89 18.39 68.1ZM25.03 68.1C23.16 69.09 23.75 72.56 25.78 72.56C27.82 72.56 28.4 69.06 26.51 68.1C26.09 67.88 25.44 67.89 25.03 68.1ZM53.91 71.58C54.52 72.84 56.4 72.89 56.99 71.67C57.65 70.3 57.21 68.53 56.11 68.07C54.36 67.33 52.94 69.6 53.91 71.58ZM11.35 69.43L9.75 69.39L9.75 72.4L11.39 72.37C13.5 72.32 13.89 72.16 14.1 71.2C14.26 70.47 14 69.95 13.34 69.65C13 69.5 12.7 69.47 11.35 69.43ZM49.98 70.31C49.89 70.36 49.46 70.45 49.02 70.52C47.31 70.77 46.67 71.43 47.37 72.21C48.11 73.04 49.97 72.38 50.15 71.23C50.24 70.58 50.18 70.2 49.98 70.31Z" />
		<path id="path3" fill-rule="evenodd" class="shp3" d="M35.9 22.56C36.26 22.56 36.4 22.58 36.22 22.6C36.04 22.61 35.75 22.61 35.57 22.6C35.39 22.58 35.54 22.56 35.9 22.56ZM39 22.55C39.19 22.55 39.28 22.57 39.2 22.59C39.11 22.61 38.95 22.61 38.85 22.59C38.74 22.57 38.81 22.55 39 22.55ZM24.26 29.54C24.27 31.79 24.27 35.46 24.26 37.71C24.25 39.95 24.24 38.11 24.24 33.62C24.24 29.13 24.25 27.29 24.26 29.54ZM46.53 30.3C46.59 30.3 46.53 30.38 46.22 30.66L45.9 30.96L46.2 30.63C46.36 30.45 46.51 30.3 46.53 30.3ZM30.83 30.94C31 30.94 31.07 30.95 30.98 30.98C30.9 31 30.76 31 30.68 30.98C30.6 30.95 30.66 30.94 30.83 30.94ZM36.07 34.8C38.5 34.8 39.49 34.81 38.28 34.82C37.06 34.84 35.08 34.84 33.87 34.82C32.65 34.81 33.65 34.8 36.07 34.8Z" />
		<path id="path4" fill-rule="evenodd" class="shp4" d="M26.12 18.11C26.91 18.11 27.23 18.13 26.84 18.14C26.44 18.16 25.79 18.16 25.4 18.14C25 18.13 25.32 18.11 26.12 18.11ZM46.03 20.38C46.03 20.39 46.16 20.52 46.31 20.66L46.6 20.92L46.34 20.63C46.1 20.37 46.03 20.31 46.03 20.38ZM32.25 22.6C32.76 22.61 33.62 22.61 34.17 22.6C34.71 22.58 34.29 22.57 33.23 22.57C32.18 22.57 31.73 22.58 32.25 22.6ZM37.06 22.6C37.38 22.61 37.9 22.61 38.19 22.6C38.49 22.58 38.22 22.57 37.6 22.57C36.98 22.57 36.73 22.58 37.06 22.6ZM48.15 25.54C48.15 25.74 48.16 25.81 48.19 25.7C48.21 25.59 48.21 25.43 48.18 25.35C48.16 25.26 48.14 25.35 48.15 25.54ZM30.77 34.82C30.95 34.84 31.24 34.84 31.42 34.82C31.6 34.8 31.45 34.79 31.09 34.79C30.73 34.79 30.59 34.8 30.77 34.82ZM33.39 44.26C34.67 44.27 36.77 44.27 38.06 44.26C39.34 44.24 38.29 44.23 35.72 44.23C33.15 44.23 32.1 44.24 33.39 44.26ZM28.72 48.71C30.66 48.72 33.8 48.72 35.71 48.71C37.61 48.7 36.03 48.69 32.19 48.69C28.34 48.69 26.78 48.7 28.72 48.71Z" />
	</g>
</svg>