<svg version="1.2" baseProfile="tiny-ps" xmlns="http://www.w3.org/2000/svg" viewBox="0 0 70 91" width="70" height="91">
	<title>bootstrap-svg</title>
	<style>
		tspan { white-space:pre }
		.shp0 { fill: #543c7c } 
		.shp1 { fill: #fbfbfb } 
		.shp2 { fill: #040404 } 
		.shp3 { fill: #ac9cbc } 
		.shp4 { fill: #87719f } 
	</style>
	<g id="svgg">
		<path id="path0" fill-rule="evenodd" class="shp0" d="M54.03 12.94C57.73 13.59 60.62 16.47 61.18 20.06C61.26 20.55 61.27 25.47 61.25 39.36L61.23 58.01L60.98 58.79C59.88 62.32 57.05 64.65 53.41 65.04C52.87 65.1 46.42 65.12 34.55 65.11L16.51 65.08L15.64 64.84C12.29 63.93 9.9 61.42 9.21 58.09C8.99 57.01 8.95 21.32 9.18 20.05C9.84 16.27 12.73 13.46 16.52 12.91C17.51 12.76 53.2 12.79 54.03 12.94ZM23.56 24.18C23.46 24.21 23.34 24.32 23.29 24.42C23.13 24.71 23.16 54.3 23.32 54.52C23.48 54.74 38.24 54.78 39.83 54.57C42.33 54.23 44.33 53.43 45.85 52.14C50.44 48.27 49.02 40.04 43.49 38.44C42.93 38.28 42.94 38.25 43.65 37.85C46.17 36.43 47.44 33.82 47.12 30.69C46.75 27.09 44.16 24.76 39.96 24.26C39.09 24.16 23.83 24.08 23.56 24.18ZM37.52 28.65C40.98 28.71 42.11 29.51 42.29 32.07C42.47 34.6 41.3 36.32 39.1 36.79C38.19 36.98 29.26 36.97 29.19 36.78C29.11 36.58 29.12 28.86 29.2 28.74C29.24 28.69 29.31 28.63 29.38 28.61C29.49 28.57 34.13 28.6 37.52 28.65ZM40.3 40.98C44.83 42.05 44.88 48.88 40.36 50.05C39.66 50.24 29.33 50.27 29.21 50.09C29.13 49.96 29.1 41.2 29.19 40.98C29.26 40.78 39.44 40.78 40.3 40.98Z" />
		<path id="path1" fill-rule="evenodd" class="shp1" d="M38.59 24.26C43.46 24.77 46.08 27.34 46.07 31.59C46.07 34.43 44.97 36.46 42.74 37.75C41.82 38.28 41.82 38.26 42.52 38.49C45.68 39.52 47.55 42.37 47.54 46.13C47.54 50.45 44.65 53.42 39.49 54.44C38.35 54.66 22.55 54.73 22.37 54.51C22.14 54.24 22.19 24.45 22.41 24.29C22.62 24.13 37.18 24.1 38.59 24.26ZM28.07 28.59C27.63 28.65 27.63 28.67 27.63 32.76C27.63 37.08 27.61 36.91 28.29 36.92C31.68 36.97 37.96 36.89 38.35 36.79C40.34 36.26 41.32 34.84 41.32 32.48C41.32 30.34 40.53 29.22 38.68 28.74C38.15 28.6 28.95 28.47 28.07 28.59ZM33.72 40.8C27.87 40.78 27.92 40.78 27.75 41.05C27.56 41.34 27.59 49.99 27.78 50.1C28.27 50.4 38.81 50.34 39.66 50.03C43.91 48.49 43.79 42.26 39.48 40.96C39.07 40.83 38.32 40.81 33.72 40.8Z" />
		<path id="path2" fill-rule="evenodd" class="shp2" d="M11.62 74.79L13.92 74.79C15.69 74.79 16.32 74.82 16.65 74.92C18.12 75.35 18.52 77.64 17.28 78.55L16.93 78.79L17.27 78.97C18.82 79.77 18.71 82.23 17.08 83.11C16.75 83.29 16.6 83.3 14.17 83.33L11.62 83.36L11.62 74.79ZM33.1 75.22L34.15 75.22L34.15 77.14L35.46 77.14L35.46 78.11L34.15 78.11L34.15 80.01C34.15 82.33 34.15 82.33 34.92 82.37L35.46 82.39L35.46 83.35L34.59 83.35C33.75 83.35 33.71 83.34 33.43 83.09L33.15 82.84L33.12 80.47L33.09 78.11L32.05 78.11L32.05 77.14L33.1 77.14L33.1 75.22ZM42.45 75.22L43.5 75.22L43.5 77.14L44.81 77.14L44.81 78.11L43.5 78.11L43.5 80.01C43.5 82.33 43.5 82.33 44.26 82.37L44.81 82.39L44.81 83.35L43.93 83.35C43.09 83.35 43.05 83.34 42.78 83.09L42.49 82.84L42.47 80.47L42.44 78.11L41.4 78.11L41.4 77.14L42.45 77.14L42.45 75.22ZM14.28 75.77L12.75 75.72L12.75 78.48L14.22 78.44C16.33 78.38 16.79 78.12 16.78 77.03C16.78 76.5 16.6 76.21 16.13 75.98C15.86 75.84 15.52 75.81 14.28 75.77ZM48.82 77.48L48.82 78.08L48.38 78.13C46.95 78.3 46.56 79.13 46.55 82.01L46.55 83.35L45.5 83.35L45.5 77.14L46.55 77.14L46.55 78.13L46.91 77.72C47.32 77.26 47.62 77.08 48.15 76.97C48.85 76.84 48.82 76.82 48.82 77.48ZM25.11 80.25C25.11 82.8 23.23 84.2 20.94 83.34C18.5 82.43 18.48 78.09 20.91 77.15C23.19 76.27 25.11 77.69 25.11 80.25ZM31.75 80.25C31.75 82.8 29.87 84.2 27.58 83.34C25.13 82.43 25.12 78.09 27.55 77.15C29.83 76.27 31.75 77.69 31.75 80.25ZM40.87 78.26C41.06 78.94 41.03 78.98 40.39 78.98C39.9 78.98 39.83 78.96 39.83 78.82C39.83 77.9 37.66 77.59 37.24 78.45C36.98 78.96 37.45 79.32 38.8 79.63C40.99 80.14 41.68 80.98 41.06 82.35C40.14 84.38 35.9 83.74 35.9 81.57C35.9 81.27 36.91 81.2 37 81.49C37.24 82.28 37.65 82.55 38.59 82.56C39.52 82.56 39.99 82.26 40 81.68C40 81.13 39.7 80.95 38.2 80.59C36.72 80.24 36.17 79.86 36.02 79.09C35.86 78.24 36.31 77.48 37.15 77.15C38.64 76.58 40.56 77.15 40.87 78.26ZM53.7 77.38C54.2 77.76 54.24 77.96 54.24 80.24C54.24 82.57 54.23 82.56 54.64 82.56L54.94 82.56L54.94 82.99C54.94 83.47 54.87 83.52 54.1 83.52C53.63 83.52 53.36 83.34 53.24 82.93L53.18 82.74L52.86 82.99C52.39 83.36 51.87 83.52 51.1 83.52C49.59 83.52 49 83.01 49 81.72C49 80.51 49.53 80.08 51.52 79.72C53.1 79.44 53.37 79.22 53.07 78.51C52.7 77.63 50.79 77.74 50.44 78.66L50.28 79.07L49.26 79.07L49.26 78.78C49.27 78.09 49.82 77.4 50.59 77.14C51.52 76.81 53.11 76.94 53.7 77.38ZM61.21 81.82C60.59 83.48 58.31 84.1 56.92 82.99L56.6 82.73L56.6 85.7L55.55 85.7L55.55 77.06L56.6 77.06L56.6 77.79L56.88 77.51C57.04 77.36 57.32 77.18 57.51 77.11C60.14 76.15 62.3 78.91 61.21 81.82ZM21.39 78.1C19.53 79.09 20.11 82.56 22.14 82.56C24.19 82.56 24.76 79.06 22.87 78.1C22.45 77.88 21.81 77.89 21.39 78.1ZM28.03 78.1C26.16 79.09 26.75 82.56 28.78 82.56C30.82 82.56 31.4 79.06 29.51 78.1C29.09 77.88 28.44 77.89 28.03 78.1ZM56.91 81.58C57.52 82.84 59.4 82.89 59.99 81.67C60.65 80.3 60.21 78.53 59.11 78.07C57.36 77.33 55.94 79.6 56.91 81.58ZM14.35 79.43L12.75 79.39L12.75 82.4L14.39 82.37C16.5 82.32 16.89 82.16 17.1 81.2C17.26 80.47 17 79.95 16.34 79.65C16 79.5 15.7 79.47 14.35 79.43ZM52.98 80.31C52.89 80.36 52.46 80.45 52.02 80.52C50.31 80.77 49.67 81.43 50.37 82.21C51.11 83.04 52.97 82.38 53.15 81.23C53.24 80.58 53.18 80.2 52.98 80.31Z" />
		<path id="path3" fill-rule="evenodd" class="shp3" d="M35.9 22.56C36.26 22.56 36.4 22.58 36.22 22.6C36.04 22.61 35.75 22.61 35.57 22.6C35.39 22.58 35.54 22.56 35.9 22.56ZM39 22.55C39.19 22.55 39.28 22.57 39.2 22.59C39.11 22.61 38.95 22.61 38.85 22.59C38.74 22.57 38.81 22.55 39 22.55ZM24.26 29.54C24.27 31.79 24.27 35.46 24.26 37.71C24.25 39.95 24.24 38.11 24.24 33.62C24.24 29.13 24.25 27.29 24.26 29.54ZM46.53 30.3C46.59 30.3 46.53 30.38 46.22 30.66L45.9 30.96L46.2 30.63C46.36 30.45 46.51 30.3 46.53 30.3ZM30.83 30.94C31 30.94 31.07 30.95 30.98 30.98C30.9 31 30.76 31 30.68 30.98C30.6 30.95 30.66 30.94 30.83 30.94ZM36.07 34.8C38.5 34.8 39.49 34.81 38.28 34.82C37.06 34.84 35.08 34.84 33.87 34.82C32.65 34.81 33.65 34.8 36.07 34.8Z" />
		<path id="path4" fill-rule="evenodd" class="shp4" d="M26.12 18.11C26.91 18.11 27.23 18.13 26.84 18.14C26.44 18.16 25.79 18.16 25.4 18.14C25 18.13 25.32 18.11 26.12 18.11ZM46.03 20.38C46.03 20.39 46.16 20.52 46.31 20.66L46.6 20.92L46.34 20.63C46.1 20.37 46.03 20.31 46.03 20.38ZM32.25 22.6C32.76 22.61 33.62 22.61 34.17 22.6C34.71 22.58 34.29 22.57 33.23 22.57C32.18 22.57 31.73 22.58 32.25 22.6ZM37.06 22.6C37.38 22.61 37.9 22.61 38.19 22.6C38.49 22.58 38.22 22.57 37.6 22.57C36.98 22.57 36.73 22.58 37.06 22.6ZM48.15 25.54C48.15 25.74 48.16 25.81 48.19 25.7C48.21 25.59 48.21 25.43 48.18 25.35C48.16 25.26 48.14 25.35 48.15 25.54ZM30.77 34.82C30.95 34.84 31.24 34.84 31.42 34.82C31.6 34.8 31.45 34.79 31.09 34.79C30.73 34.79 30.59 34.8 30.77 34.82ZM33.39 44.26C34.67 44.27 36.77 44.27 38.06 44.26C39.34 44.24 38.29 44.23 35.72 44.23C33.15 44.23 32.1 44.24 33.39 44.26ZM28.72 48.71C30.66 48.72 33.8 48.72 35.71 48.71C37.61 48.7 36.03 48.69 32.19 48.69C28.34 48.69 26.78 48.7 28.72 48.71Z" />
		<text id="" style="transform: matrix(1,0,0,1,-60,36)" >
		</text>
	</g>
</svg>