<svg width="60" height="81" viewBox="0 0 70 91" fill="none" xmlns="http://www.w3.org/2000/svg"><mask id="a" maskUnits="userSpaceOnUse" x="17.167" y="71.766" width="36" height="15" fill="#000"><path fill="#fff" d="M17.167 71.766h36v15h-36z"/><path d="M26.706 81.613c.103 0 .194.04.273.119l.742.805c-.41.509-.917.898-1.52 1.169-.596.27-1.315.406-2.155.406-.751 0-1.428-.128-2.03-.385a4.476 4.476 0 0 1-1.533-1.071 4.732 4.732 0 0 1-.98-1.638 6.207 6.207 0 0 1-.336-2.079c0-.76.121-1.456.364-2.086a4.824 4.824 0 0 1 1.022-1.638c.443-.457.97-.812 1.582-1.064a5.193 5.193 0 0 1 2.03-.385c.737 0 1.39.121 1.96.364.574.243 1.062.56 1.463.952l-.63.875a.55.55 0 0 1-.147.147.39.39 0 0 1-.238.063.485.485 0 0 1-.217-.056 5.714 5.714 0 0 1-.245-.147 6.116 6.116 0 0 0-.308-.196 2.348 2.348 0 0 0-.406-.189 2.88 2.88 0 0 0-.54-.147 3.447 3.447 0 0 0-.7-.063c-.452 0-.867.082-1.245.245a2.653 2.653 0 0 0-.966.7c-.27.303-.48.677-.63 1.12-.15.439-.224.94-.224 1.505 0 .57.08 1.076.238 1.519.163.443.383.817.658 1.12.275.303.6.537.973.7.373.159.775.238 1.204.238.257 0 .488-.014.693-.042.21-.028.401-.072.574-.133.177-.06.343-.138.497-.231.159-.098.315-.217.469-.357a.577.577 0 0 1 .147-.098.332.332 0 0 1 .16-.042zM34.4 75.719a.67.67 0 0 1-.181.217.397.397 0 0 1-.231.063.636.636 0 0 1-.322-.105 6.141 6.141 0 0 0-.406-.245 3.153 3.153 0 0 0-.56-.238 2.24 2.24 0 0 0-.75-.112c-.26 0-.49.033-.685.098-.196.06-.362.147-.497.259-.13.112-.229.247-.294.406a1.296 1.296 0 0 0-.098.511c0 .238.065.436.196.595.135.159.313.294.532.406.22.112.469.212.749.301s.567.184.86.287c.295.098.582.215.862.35.28.13.53.299.749.504.22.2.394.448.525.742.135.294.203.651.203 1.071 0 .457-.08.887-.238 1.288a2.942 2.942 0 0 1-.686 1.043 3.264 3.264 0 0 1-1.1.7c-.433.168-.93.252-1.49.252-.322 0-.64-.033-.952-.098a4.907 4.907 0 0 1-.903-.266 4.88 4.88 0 0 1-.805-.42 3.895 3.895 0 0 1-.672-.546l.553-.903a.553.553 0 0 1 .182-.161.441.441 0 0 1 .238-.07c.117 0 .243.049.378.147.135.093.296.198.483.315.187.117.404.224.65.322.253.093.554.14.904.14.536 0 .952-.126 1.246-.378.294-.257.44-.623.44-1.099 0-.266-.067-.483-.202-.651a1.537 1.537 0 0 0-.525-.42 3.791 3.791 0 0 0-.75-.294c-.28-.08-.564-.166-.853-.259a7.355 7.355 0 0 1-.854-.336c-.28-.13-.53-.301-.75-.511a2.375 2.375 0 0 1-.531-.784c-.13-.317-.196-.707-.196-1.169 0-.369.072-.728.217-1.078.15-.35.364-.66.644-.931.28-.27.625-.488 1.036-.651.41-.163.882-.245 1.414-.245.597 0 1.148.093 1.652.28a3.73 3.73 0 0 1 1.288.784l-.47.889zM42.084 75.719a.67.67 0 0 1-.182.217.397.397 0 0 1-.23.063.636.636 0 0 1-.323-.105 6.141 6.141 0 0 0-.406-.245 3.153 3.153 0 0 0-.56-.238 2.24 2.24 0 0 0-.749-.112c-.26 0-.49.033-.686.098-.196.06-.361.147-.497.259-.13.112-.228.247-.294.406a1.296 1.296 0 0 0-.098.511c0 .238.066.436.196.595.136.159.313.294.532.406.22.112.47.212.75.301s.566.184.86.287c.294.098.581.215.861.35.28.13.53.299.75.504.219.2.394.448.524.742.136.294.203.651.203 1.071 0 .457-.079.887-.238 1.288a2.942 2.942 0 0 1-.686 1.043 3.264 3.264 0 0 1-1.099.7c-.434.168-.93.252-1.49.252-.323 0-.64-.033-.953-.098a4.907 4.907 0 0 1-.903-.266 4.88 4.88 0 0 1-.805-.42 3.895 3.895 0 0 1-.672-.546l.553-.903a.553.553 0 0 1 .182-.161.441.441 0 0 1 .238-.07c.117 0 .243.049.378.147.136.093.297.198.483.315.187.117.404.224.651.322.252.093.553.14.903.14.537 0 .952-.126 1.246-.378.294-.257.441-.623.441-1.099 0-.266-.067-.483-.203-.651a1.537 1.537 0 0 0-.525-.42 3.791 3.791 0 0 0-.749-.294c-.28-.08-.564-.166-.854-.259a7.355 7.355 0 0 1-.854-.336c-.28-.13-.53-.301-.749-.511a2.375 2.375 0 0 1-.532-.784c-.13-.317-.196-.707-.196-1.169 0-.369.073-.728.217-1.078.15-.35.364-.66.644-.931.28-.27.626-.488 1.036-.651.411-.163.882-.245 1.414-.245.598 0 1.148.093 1.652.28a3.73 3.73 0 0 1 1.288.784l-.469.889zM44.007 76.699c.07-.485.205-.91.406-1.274.2-.369.45-.674.749-.917a3.077 3.077 0 0 1 1.036-.553 4.094 4.094 0 0 1 1.26-.189c.467 0 .887.068 1.26.203.378.13.7.315.966.553a2.452 2.452 0 0 1 .826 1.855c0 .322-.037.607-.112.854a1.842 1.842 0 0 1-.812 1.099c-.2.126-.427.231-.679.315.607.191 1.06.483 1.358.875.299.392.448.884.448 1.477 0 .504-.093.95-.28 1.337a2.91 2.91 0 0 1-.756.98c-.317.261-.686.46-1.106.595a4.246 4.246 0 0 1-1.323.203c-.509 0-.952-.058-1.33-.175a2.888 2.888 0 0 1-.987-.518 3.13 3.13 0 0 1-.714-.84 5.668 5.668 0 0 1-.504-1.148l.763-.315a.887.887 0 0 1 .56-.063c.177.037.306.13.385.28.084.163.175.324.273.483.103.159.224.301.364.427.14.121.303.222.49.301.191.075.418.112.679.112.294 0 .55-.047.77-.14.22-.098.401-.224.546-.378.15-.154.259-.324.329-.511a1.57 1.57 0 0 0 .112-.574 2.6 2.6 0 0 0-.077-.658.981.981 0 0 0-.322-.511c-.163-.14-.399-.25-.707-.329-.303-.08-.712-.119-1.225-.119v-1.232a4.375 4.375 0 0 0 1.057-.119 1.8 1.8 0 0 0 .665-.308c.168-.135.285-.296.35-.483s.098-.392.098-.616c0-.476-.133-.838-.399-1.085s-.62-.371-1.064-.371c-.205 0-.394.03-.567.091a1.551 1.551 0 0 0-1.022 1.071c-.08.215-.184.357-.315.427-.126.07-.306.086-.539.049l-.91-.161z"/></mask><path d="M26.706 81.613c.103 0 .194.04.273.119l.742.805c-.41.509-.917.898-1.52 1.169-.596.27-1.315.406-2.155.406-.751 0-1.428-.128-2.03-.385a4.476 4.476 0 0 1-1.533-1.071 4.732 4.732 0 0 1-.98-1.638 6.207 6.207 0 0 1-.336-2.079c0-.76.121-1.456.364-2.086a4.824 4.824 0 0 1 1.022-1.638c.443-.457.97-.812 1.582-1.064a5.193 5.193 0 0 1 2.03-.385c.737 0 1.39.121 1.96.364.574.243 1.062.56 1.463.952l-.63.875a.55.55 0 0 1-.147.147.39.39 0 0 1-.238.063.485.485 0 0 1-.217-.056 5.714 5.714 0 0 1-.245-.147 6.116 6.116 0 0 0-.308-.196 2.348 2.348 0 0 0-.406-.189 2.88 2.88 0 0 0-.54-.147 3.447 3.447 0 0 0-.7-.063c-.452 0-.867.082-1.245.245a2.653 2.653 0 0 0-.966.7c-.27.303-.48.677-.63 1.12-.15.439-.224.94-.224 1.505 0 .57.08 1.076.238 1.519.163.443.383.817.658 1.12.275.303.6.537.973.7.373.159.775.238 1.204.238.257 0 .488-.014.693-.042.21-.028.401-.072.574-.133.177-.06.343-.138.497-.231.159-.098.315-.217.469-.357a.577.577 0 0 1 .147-.098.332.332 0 0 1 .16-.042zM34.4 75.719a.67.67 0 0 1-.181.217.397.397 0 0 1-.231.063.636.636 0 0 1-.322-.105 6.141 6.141 0 0 0-.406-.245 3.153 3.153 0 0 0-.56-.238 2.24 2.24 0 0 0-.75-.112c-.26 0-.49.033-.685.098-.196.06-.362.147-.497.259-.13.112-.229.247-.294.406a1.296 1.296 0 0 0-.098.511c0 .238.065.436.196.595.135.159.313.294.532.406.22.112.469.212.749.301s.567.184.86.287c.295.098.582.215.862.35.28.13.53.299.749.504.22.2.394.448.525.742.135.294.203.651.203 1.071 0 .457-.08.887-.238 1.288a2.942 2.942 0 0 1-.686 1.043 3.264 3.264 0 0 1-1.1.7c-.433.168-.93.252-1.49.252-.322 0-.64-.033-.952-.098a4.907 4.907 0 0 1-.903-.266 4.88 4.88 0 0 1-.805-.42 3.895 3.895 0 0 1-.672-.546l.553-.903a.553.553 0 0 1 .182-.161.441.441 0 0 1 .238-.07c.117 0 .243.049.378.147.135.093.296.198.483.315.187.117.404.224.65.322.253.093.554.14.904.14.536 0 .952-.126 1.246-.378.294-.257.44-.623.44-1.099 0-.266-.067-.483-.202-.651a1.537 1.537 0 0 0-.525-.42 3.791 3.791 0 0 0-.75-.294c-.28-.08-.564-.166-.853-.259a7.355 7.355 0 0 1-.854-.336c-.28-.13-.53-.301-.75-.511a2.375 2.375 0 0 1-.531-.784c-.13-.317-.196-.707-.196-1.169 0-.369.072-.728.217-1.078.15-.35.364-.66.644-.931.28-.27.625-.488 1.036-.651.41-.163.882-.245 1.414-.245.597 0 1.148.093 1.652.28a3.73 3.73 0 0 1 1.288.784l-.47.889zM42.084 75.719a.67.67 0 0 1-.182.217.397.397 0 0 1-.23.063.636.636 0 0 1-.323-.105 6.141 6.141 0 0 0-.406-.245 3.153 3.153 0 0 0-.56-.238 2.24 2.24 0 0 0-.749-.112c-.26 0-.49.033-.686.098-.196.06-.361.147-.497.259-.13.112-.228.247-.294.406a1.296 1.296 0 0 0-.098.511c0 .238.066.436.196.595.136.159.313.294.532.406.22.112.47.212.75.301s.566.184.86.287c.294.098.581.215.861.35.28.13.53.299.75.504.219.2.394.448.524.742.136.294.203.651.203 1.071 0 .457-.079.887-.238 1.288a2.942 2.942 0 0 1-.686 1.043 3.264 3.264 0 0 1-1.099.7c-.434.168-.93.252-1.49.252-.323 0-.64-.033-.953-.098a4.907 4.907 0 0 1-.903-.266 4.88 4.88 0 0 1-.805-.42 3.895 3.895 0 0 1-.672-.546l.553-.903a.553.553 0 0 1 .182-.161.441.441 0 0 1 .238-.07c.117 0 .243.049.378.147.136.093.297.198.483.315.187.117.404.224.651.322.252.093.553.14.903.14.537 0 .952-.126 1.246-.378.294-.257.441-.623.441-1.099 0-.266-.067-.483-.203-.651a1.537 1.537 0 0 0-.525-.42 3.791 3.791 0 0 0-.749-.294c-.28-.08-.564-.166-.854-.259a7.355 7.355 0 0 1-.854-.336c-.28-.13-.53-.301-.749-.511a2.375 2.375 0 0 1-.532-.784c-.13-.317-.196-.707-.196-1.169 0-.369.073-.728.217-1.078.15-.35.364-.66.644-.931.28-.27.626-.488 1.036-.651.411-.163.882-.245 1.414-.245.598 0 1.148.093 1.652.28a3.73 3.73 0 0 1 1.288.784l-.469.889zM44.007 76.699c.07-.485.205-.91.406-1.274.2-.369.45-.674.749-.917a3.077 3.077 0 0 1 1.036-.553 4.094 4.094 0 0 1 1.26-.189c.467 0 .887.068 1.26.203.378.13.7.315.966.553a2.452 2.452 0 0 1 .826 1.855c0 .322-.037.607-.112.854a1.842 1.842 0 0 1-.812 1.099c-.2.126-.427.231-.679.315.607.191 1.06.483 1.358.875.299.392.448.884.448 1.477 0 .504-.093.95-.28 1.337a2.91 2.91 0 0 1-.756.98c-.317.261-.686.46-1.106.595a4.246 4.246 0 0 1-1.323.203c-.509 0-.952-.058-1.33-.175a2.888 2.888 0 0 1-.987-.518 3.13 3.13 0 0 1-.714-.84 5.668 5.668 0 0 1-.504-1.148l.763-.315a.887.887 0 0 1 .56-.063c.177.037.306.13.385.28.084.163.175.324.273.483.103.159.224.301.364.427.14.121.303.222.49.301.191.075.418.112.679.112.294 0 .55-.047.77-.14.22-.098.401-.224.546-.378.15-.154.259-.324.329-.511a1.57 1.57 0 0 0 .112-.574 2.6 2.6 0 0 0-.077-.658.981.981 0 0 0-.322-.511c-.163-.14-.399-.25-.707-.329-.303-.08-.712-.119-1.225-.119v-1.232a4.375 4.375 0 0 0 1.057-.119 1.8 1.8 0 0 0 .665-.308c.168-.135.285-.296.35-.483s.098-.392.098-.616c0-.476-.133-.838-.399-1.085s-.62-.371-1.064-.371c-.205 0-.394.03-.567.091a1.551 1.551 0 0 0-1.022 1.071c-.08.215-.184.357-.315.427-.126.07-.306.086-.539.049l-.91-.161z" fill="#000"/><path d="M26.706 81.613c.103 0 .194.04.273.119l.742.805c-.41.509-.917.898-1.52 1.169-.596.27-1.315.406-2.155.406-.751 0-1.428-.128-2.03-.385a4.476 4.476 0 0 1-1.533-1.071 4.732 4.732 0 0 1-.98-1.638 6.207 6.207 0 0 1-.336-2.079c0-.76.121-1.456.364-2.086a4.824 4.824 0 0 1 1.022-1.638c.443-.457.97-.812 1.582-1.064a5.193 5.193 0 0 1 2.03-.385c.737 0 1.39.121 1.96.364.574.243 1.062.56 1.463.952l-.63.875a.55.55 0 0 1-.147.147.39.39 0 0 1-.238.063.485.485 0 0 1-.217-.056 5.714 5.714 0 0 1-.245-.147 6.116 6.116 0 0 0-.308-.196 2.348 2.348 0 0 0-.406-.189 2.88 2.88 0 0 0-.54-.147 3.447 3.447 0 0 0-.7-.063c-.452 0-.867.082-1.245.245a2.653 2.653 0 0 0-.966.7c-.27.303-.48.677-.63 1.12-.15.439-.224.94-.224 1.505 0 .57.08 1.076.238 1.519.163.443.383.817.658 1.12.275.303.6.537.973.7.373.159.775.238 1.204.238.257 0 .488-.014.693-.042.21-.028.401-.072.574-.133.177-.06.343-.138.497-.231.159-.098.315-.217.469-.357a.577.577 0 0 1 .147-.098.332.332 0 0 1 .16-.042zM34.4 75.719a.67.67 0 0 1-.181.217.397.397 0 0 1-.231.063.636.636 0 0 1-.322-.105 6.141 6.141 0 0 0-.406-.245 3.153 3.153 0 0 0-.56-.238 2.24 2.24 0 0 0-.75-.112c-.26 0-.49.033-.685.098-.196.06-.362.147-.497.259-.13.112-.229.247-.294.406a1.296 1.296 0 0 0-.098.511c0 .238.065.436.196.595.135.159.313.294.532.406.22.112.469.212.749.301s.567.184.86.287c.295.098.582.215.862.35.28.13.53.299.749.504.22.2.394.448.525.742.135.294.203.651.203 1.071 0 .457-.08.887-.238 1.288a2.942 2.942 0 0 1-.686 1.043 3.264 3.264 0 0 1-1.1.7c-.433.168-.93.252-1.49.252-.322 0-.64-.033-.952-.098a4.907 4.907 0 0 1-.903-.266 4.88 4.88 0 0 1-.805-.42 3.895 3.895 0 0 1-.672-.546l.553-.903a.553.553 0 0 1 .182-.161.441.441 0 0 1 .238-.07c.117 0 .243.049.378.147.135.093.296.198.483.315.187.117.404.224.65.322.253.093.554.14.904.14.536 0 .952-.126 1.246-.378.294-.257.44-.623.44-1.099 0-.266-.067-.483-.202-.651a1.537 1.537 0 0 0-.525-.42 3.791 3.791 0 0 0-.75-.294c-.28-.08-.564-.166-.853-.259a7.355 7.355 0 0 1-.854-.336c-.28-.13-.53-.301-.75-.511a2.375 2.375 0 0 1-.531-.784c-.13-.317-.196-.707-.196-1.169 0-.369.072-.728.217-1.078.15-.35.364-.66.644-.931.28-.27.625-.488 1.036-.651.41-.163.882-.245 1.414-.245.597 0 1.148.093 1.652.28a3.73 3.73 0 0 1 1.288.784l-.47.889zM42.084 75.719a.67.67 0 0 1-.182.217.397.397 0 0 1-.23.063.636.636 0 0 1-.323-.105 6.141 6.141 0 0 0-.406-.245 3.153 3.153 0 0 0-.56-.238 2.24 2.24 0 0 0-.749-.112c-.26 0-.49.033-.686.098-.196.06-.361.147-.497.259-.13.112-.228.247-.294.406a1.296 1.296 0 0 0-.098.511c0 .238.066.436.196.595.136.159.313.294.532.406.22.112.47.212.75.301s.566.184.86.287c.294.098.581.215.861.35.28.13.53.299.75.504.219.2.394.448.524.742.136.294.203.651.203 1.071 0 .457-.079.887-.238 1.288a2.942 2.942 0 0 1-.686 1.043 3.264 3.264 0 0 1-1.099.7c-.434.168-.93.252-1.49.252-.323 0-.64-.033-.953-.098a4.907 4.907 0 0 1-.903-.266 4.88 4.88 0 0 1-.805-.42 3.895 3.895 0 0 1-.672-.546l.553-.903a.553.553 0 0 1 .182-.161.441.441 0 0 1 .238-.07c.117 0 .243.049.378.147.136.093.297.198.483.315.187.117.404.224.651.322.252.093.553.14.903.14.537 0 .952-.126 1.246-.378.294-.257.441-.623.441-1.099 0-.266-.067-.483-.203-.651a1.537 1.537 0 0 0-.525-.42 3.791 3.791 0 0 0-.749-.294c-.28-.08-.564-.166-.854-.259a7.355 7.355 0 0 1-.854-.336c-.28-.13-.53-.301-.749-.511a2.375 2.375 0 0 1-.532-.784c-.13-.317-.196-.707-.196-1.169 0-.369.073-.728.217-1.078.15-.35.364-.66.644-.931.28-.27.626-.488 1.036-.651.411-.163.882-.245 1.414-.245.598 0 1.148.093 1.652.28a3.73 3.73 0 0 1 1.288.784l-.469.889zM44.007 76.699c.07-.485.205-.91.406-1.274.2-.369.45-.674.749-.917a3.077 3.077 0 0 1 1.036-.553 4.094 4.094 0 0 1 1.26-.189c.467 0 .887.068 1.26.203.378.13.7.315.966.553a2.452 2.452 0 0 1 .826 1.855c0 .322-.037.607-.112.854a1.842 1.842 0 0 1-.812 1.099c-.2.126-.427.231-.679.315.607.191 1.06.483 1.358.875.299.392.448.884.448 1.477 0 .504-.093.95-.28 1.337a2.91 2.91 0 0 1-.756.98c-.317.261-.686.46-1.106.595a4.246 4.246 0 0 1-1.323.203c-.509 0-.952-.058-1.33-.175a2.888 2.888 0 0 1-.987-.518 3.13 3.13 0 0 1-.714-.84 5.668 5.668 0 0 1-.504-1.148l.763-.315a.887.887 0 0 1 .56-.063c.177.037.306.13.385.28.084.163.175.324.273.483.103.159.224.301.364.427.14.121.303.222.49.301.191.075.418.112.679.112.294 0 .55-.047.77-.14.22-.098.401-.224.546-.378.15-.154.259-.324.329-.511a1.57 1.57 0 0 0 .112-.574 2.6 2.6 0 0 0-.077-.658.981.981 0 0 0-.322-.511c-.163-.14-.399-.25-.707-.329-.303-.08-.712-.119-1.225-.119v-1.232a4.375 4.375 0 0 0 1.057-.119 1.8 1.8 0 0 0 .665-.308c.168-.135.285-.296.35-.483s.098-.392.098-.616c0-.476-.133-.838-.399-1.085s-.62-.371-1.064-.371c-.205 0-.394.03-.567.091a1.551 1.551 0 0 0-1.022 1.071c-.08.215-.184.357-.315.427-.126.07-.306.086-.539.049l-.91-.161z" stroke="#fff" stroke-width="4" mask="url(#a)"/><path d="M11.701 59.736 6.517.708h56.966l-5.19 59.02-23.328 6.565-23.264-6.557z" fill="#1572B6"/><path d="m35 61.275 18.851-5.306 4.435-50.435H35.001v55.74z" fill="#33A9DC"/><path d="M35 26.92h9.438l.651-7.414H35.001v-7.24h17.882l-.17 1.943-1.754 19.95H35v-7.24z" fill="#fff"/><path d="m35.043 45.722-.032.01-7.942-2.178-.508-5.774h-7.158l1 11.368 14.607 4.115.033-.009v-7.532z" fill="#EBEBEB"/><path d="m43.831 33.853-.859 9.695-7.954 2.18v7.532l14.62-4.113.107-1.223 1.24-14.07h-7.154z" fill="#fff"/><path d="M35.025 12.267v7.24H17.799l-.143-1.627-.325-3.67-.17-1.943h17.864zM35 26.92v7.24h-7.843l-.143-1.627-.325-3.67-.17-1.943H35z" fill="#EBEBEB"/></svg>