<svg width="60" height="81" viewBox="0 0 70 91" fill="none" xmlns="http://www.w3.org/2000/svg"><mask id="a" maskUnits="userSpaceOnUse" x="3.227" y="70.619" width="65" height="17" fill="#000"><path fill="#fff" d="M3.227 70.619h65v17h-65z"/><path d="M10.246 78.583a1.98 1.98 0 0 0-.098-.63c-.061-.2-.154-.376-.28-.525a1.28 1.28 0 0 0-.483-.35 1.584 1.584 0 0 0-.672-.133c-.5 0-.894.142-1.183.427-.285.285-.467.688-.546 1.211h3.262zm-3.297 1.043c.028.369.093.688.196.959a2 2 0 0 0 .406.665c.168.173.366.303.595.392.233.084.49.126.77.126s.52-.033.72-.098c.206-.065.383-.138.533-.217.154-.08.287-.152.399-.217a.688.688 0 0 1 .336-.098c.144 0 .252.054.322.161l.497.63a2.96 2.96 0 0 1-.644.567c-.238.15-.488.27-.75.364-.256.089-.52.152-.79.189a5.594 5.594 0 0 1-.777.056c-.5 0-.964-.082-1.393-.245a3.18 3.18 0 0 1-1.12-.735 3.492 3.492 0 0 1-.75-1.204c-.181-.48-.272-1.036-.272-1.666 0-.49.079-.95.238-1.379.158-.434.385-.81.679-1.127.298-.322.66-.576 1.085-.763.429-.187.912-.28 1.449-.28.452 0 .87.072 1.253.217.382.145.711.357.987.637.275.275.49.616.644 1.022.158.401.238.861.238 1.379 0 .261-.028.439-.084.532-.056.089-.164.133-.322.133H6.949zM19.4 83h-1.666a.469.469 0 0 1-.308-.098.962.962 0 0 1-.19-.224l-1.518-2.499c-.024.08-.052.154-.084.224-.028.07-.06.135-.098.196l-1.344 2.079c-.052.08-.114.154-.19.224a.41.41 0 0 1-.28.098h-1.546l2.464-3.703-2.366-3.479h1.666c.126 0 .22.019.28.056.06.033.114.089.16.168l1.506 2.394c.051-.159.123-.315.217-.469l1.21-1.89c.104-.173.236-.259.4-.259h1.589l-2.36 3.402L19.4 83zM22.031 81.138c.196.238.409.406.637.504.234.098.486.147.756.147.262 0 .497-.049.707-.147.21-.098.388-.247.532-.448.15-.2.264-.453.343-.756.08-.308.12-.67.12-1.085a4.6 4.6 0 0 0-.106-1.064 2.018 2.018 0 0 0-.287-.714 1.141 1.141 0 0 0-.462-.399 1.406 1.406 0 0 0-.609-.126c-.36 0-.665.077-.917.231-.252.15-.49.362-.714.637v3.22zm-.09-4.34c.293-.331.627-.6 1-.805.374-.205.812-.308 1.316-.308.392 0 .75.082 1.071.245.327.163.607.401.84.714.238.308.42.69.546 1.148.13.453.196.973.196 1.561 0 .537-.072 1.034-.217 1.491a3.61 3.61 0 0 1-.623 1.19c-.266.336-.59.6-.973.791-.378.187-.802.28-1.274.28-.401 0-.744-.06-1.029-.182a2.57 2.57 0 0 1-.763-.518v2.94h-1.729v-9.527h1.057c.224 0 .371.105.441.315l.14.665zM29.89 77.064c.224-.43.49-.765.798-1.008a1.691 1.691 0 0 1 1.092-.371c.332 0 .598.072.798.217l-.112 1.295a.344.344 0 0 1-.105.182.279.279 0 0 1-.175.049 2.11 2.11 0 0 1-.315-.035 2.35 2.35 0 0 0-.399-.035c-.191 0-.361.028-.51.084-.15.056-.285.138-.407.245a1.695 1.695 0 0 0-.315.378c-.088.15-.172.32-.252.511V83H28.26v-7.182h1.015c.178 0 .301.033.371.098.07.06.117.173.14.336l.105.812zM37.904 78.583a1.98 1.98 0 0 0-.098-.63c-.06-.2-.154-.376-.28-.525a1.28 1.28 0 0 0-.483-.35 1.584 1.584 0 0 0-.672-.133c-.5 0-.894.142-1.183.427-.285.285-.467.688-.546 1.211h3.262zm-3.297 1.043c.028.369.093.688.196.959a2 2 0 0 0 .406.665c.168.173.366.303.595.392.233.084.49.126.77.126s.52-.033.72-.098c.206-.065.384-.138.533-.217.154-.08.287-.152.399-.217a.688.688 0 0 1 .336-.098c.145 0 .252.054.322.161l.497.63a2.96 2.96 0 0 1-.644.567c-.238.15-.488.27-.75.364-.256.089-.52.152-.79.189a5.594 5.594 0 0 1-.777.056c-.5 0-.964-.082-1.393-.245a3.18 3.18 0 0 1-1.12-.735 3.491 3.491 0 0 1-.75-1.204c-.181-.48-.272-1.036-.272-1.666 0-.49.08-.95.238-1.379.159-.434.385-.81.679-1.127.298-.322.66-.576 1.085-.763.43-.187.912-.28 1.449-.28.453 0 .87.072 1.253.217.383.145.712.357.987.637.275.275.49.616.644 1.022.159.401.238.861.238 1.379 0 .261-.028.439-.084.532-.056.089-.163.133-.322.133h-4.445zM45.137 77.218a.501.501 0 0 1-.147.161.407.407 0 0 1-.196.042.64.64 0 0 1-.273-.07 8.111 8.111 0 0 0-.329-.154 2.735 2.735 0 0 0-.434-.161 2.023 2.023 0 0 0-.567-.07c-.34 0-.609.072-.805.217a.678.678 0 0 0-.287.567.56.56 0 0 0 .147.392c.103.103.236.194.4.273.167.08.356.152.566.217.21.06.423.128.637.203.22.075.434.161.644.259.21.093.397.215.56.364.168.145.301.32.4.525.102.205.153.453.153.742 0 .345-.063.665-.189.959-.121.29-.303.541-.546.756-.242.21-.543.376-.903.497a3.944 3.944 0 0 1-1.232.175c-.247 0-.49-.023-.728-.07a3.952 3.952 0 0 1-1.281-.462 2.986 2.986 0 0 1-.483-.35l.4-.658a.564.564 0 0 1 .181-.182.51.51 0 0 1 .266-.063c.108 0 .208.03.301.091.098.06.21.126.336.196.126.07.273.135.441.196.173.06.39.091.651.091.206 0 .38-.023.525-.07.15-.051.271-.117.364-.196a.684.684 0 0 0 .21-.273.819.819 0 0 0 .07-.329.573.573 0 0 0-.154-.413 1.261 1.261 0 0 0-.399-.28 3.457 3.457 0 0 0-.567-.21c-.21-.065-.427-.135-.65-.21a6.99 6.99 0 0 1-.652-.259 2.383 2.383 0 0 1-.567-.385 1.796 1.796 0 0 1-.399-.567 2.02 2.02 0 0 1-.147-.812c0-.294.059-.574.175-.84.117-.266.287-.497.511-.693.229-.2.511-.36.847-.476.341-.121.733-.182 1.176-.182.495 0 .945.082 1.351.245.406.163.745.378 1.015.644l-.392.623zM51.29 77.218a.5.5 0 0 1-.147.161.406.406 0 0 1-.196.042.64.64 0 0 1-.273-.07 8.048 8.048 0 0 0-.33-.154 2.731 2.731 0 0 0-.433-.161 2.023 2.023 0 0 0-.567-.07c-.341 0-.61.072-.805.217a.678.678 0 0 0-.287.567.56.56 0 0 0 .147.392c.102.103.235.194.399.273.168.08.357.152.567.217.21.06.422.128.637.203.22.075.434.161.644.259.21.093.396.215.56.364.168.145.3.32.399.525.102.205.154.453.154.742 0 .345-.063.665-.19.959-.12.29-.303.541-.545.756-.243.21-.544.376-.903.497a3.943 3.943 0 0 1-1.232.175c-.248 0-.49-.023-.728-.07a3.956 3.956 0 0 1-1.281-.462 2.986 2.986 0 0 1-.483-.35l.399-.658a.564.564 0 0 1 .182-.182.51.51 0 0 1 .266-.063c.107 0 .207.03.3.091.099.06.21.126.337.196.126.07.273.135.44.196.173.06.39.091.652.091.205 0 .38-.023.525-.07.149-.051.27-.117.364-.196a.684.684 0 0 0 .21-.273.817.817 0 0 0 .07-.329.573.573 0 0 0-.154-.413 1.261 1.261 0 0 0-.4-.28 3.45 3.45 0 0 0-.566-.21c-.21-.065-.427-.135-.651-.21a7.012 7.012 0 0 1-.651-.259 2.383 2.383 0 0 1-.567-.385 1.8 1.8 0 0 1-.4-.567 2.02 2.02 0 0 1-.146-.812c0-.294.058-.574.175-.84.116-.266.287-.497.51-.693.23-.2.512-.36.848-.476.34-.121.732-.182 1.176-.182.494 0 .945.082 1.35.245.407.163.745.378 1.016.644l-.392.623zM52.808 82.048c0-.145.026-.282.077-.413.056-.13.13-.243.224-.336a1.06 1.06 0 0 1 .756-.308 1.061 1.061 0 0 1 .98 1.477 1.023 1.023 0 0 1-.23.329.972.972 0 0 1-.337.217 1.005 1.005 0 0 1-.413.084c-.15 0-.29-.028-.42-.084a.97.97 0 0 1-.336-.217 1.08 1.08 0 0 1-.224-.329 1.137 1.137 0 0 1-.077-.42zM58.174 75.818v7.427c0 .313-.042.607-.126.882-.079.275-.21.516-.392.721-.177.21-.413.373-.707.49-.289.121-.644.182-1.064.182-.163 0-.315-.012-.455-.035a2.617 2.617 0 0 1-.434-.098l.063-.931c.014-.093.052-.154.112-.182.061-.023.178-.035.35-.035.173 0 .318-.019.434-.056a.568.568 0 0 0 .287-.168.63.63 0 0 0 .147-.301 1.9 1.9 0 0 0 .05-.469v-7.427h1.735zm.238-2.093c0 .15-.03.29-.09.42-.061.13-.143.245-.246.343a1.139 1.139 0 0 1-.357.238 1.124 1.124 0 0 1-.854 0 1.19 1.19 0 0 1-.58-.581 1.124 1.124 0 0 1 0-.854 1.084 1.084 0 0 1 .581-.581 1.048 1.048 0 0 1 .854 0 1.1 1.1 0 0 1 .693 1.015zM64.319 77.218a.5.5 0 0 1-.147.161.407.407 0 0 1-.196.042.64.64 0 0 1-.273-.07 8.048 8.048 0 0 0-.329-.154 2.735 2.735 0 0 0-.434-.161 2.023 2.023 0 0 0-.567-.07c-.34 0-.609.072-.805.217a.678.678 0 0 0-.287.567.56.56 0 0 0 .147.392c.103.103.236.194.399.273.168.08.357.152.567.217.21.06.422.128.637.203.22.075.434.161.644.259.21.093.397.215.56.364.168.145.301.32.399.525.103.205.154.453.154.742 0 .345-.063.665-.189.959-.121.29-.303.541-.546.756-.243.21-.544.376-.903.497a3.943 3.943 0 0 1-1.232.175c-.247 0-.49-.023-.728-.07a3.956 3.956 0 0 1-1.281-.462 2.986 2.986 0 0 1-.483-.35l.399-.658a.564.564 0 0 1 .182-.182.51.51 0 0 1 .266-.063c.107 0 .208.03.301.091.098.06.21.126.336.196.126.07.273.135.441.196.173.06.39.091.651.091.205 0 .38-.023.525-.07.15-.051.27-.117.364-.196a.684.684 0 0 0 .21-.273.817.817 0 0 0 .07-.329.573.573 0 0 0-.154-.413 1.261 1.261 0 0 0-.399-.28 3.45 3.45 0 0 0-.567-.21c-.21-.065-.427-.135-.651-.21a7.012 7.012 0 0 1-.651-.259 2.383 2.383 0 0 1-.567-.385 1.8 1.8 0 0 1-.399-.567 2.02 2.02 0 0 1-.147-.812c0-.294.058-.574.175-.84.117-.266.287-.497.511-.693.229-.2.511-.36.847-.476.34-.121.733-.182 1.176-.182.495 0 .945.082 1.351.245.406.163.744.378 1.015.644l-.392.623z"/></mask><path d="M10.246 78.583a1.98 1.98 0 0 0-.098-.63c-.061-.2-.154-.376-.28-.525a1.28 1.28 0 0 0-.483-.35 1.584 1.584 0 0 0-.672-.133c-.5 0-.894.142-1.183.427-.285.285-.467.688-.546 1.211h3.262zm-3.297 1.043c.028.369.093.688.196.959a2 2 0 0 0 .406.665c.168.173.366.303.595.392.233.084.49.126.77.126s.52-.033.72-.098c.206-.065.383-.138.533-.217.154-.08.287-.152.399-.217a.688.688 0 0 1 .336-.098c.144 0 .252.054.322.161l.497.63a2.96 2.96 0 0 1-.644.567c-.238.15-.488.27-.75.364-.256.089-.52.152-.79.189a5.594 5.594 0 0 1-.777.056c-.5 0-.964-.082-1.393-.245a3.18 3.18 0 0 1-1.12-.735 3.492 3.492 0 0 1-.75-1.204c-.181-.48-.272-1.036-.272-1.666 0-.49.079-.95.238-1.379.158-.434.385-.81.679-1.127.298-.322.66-.576 1.085-.763.429-.187.912-.28 1.449-.28.452 0 .87.072 1.253.217.382.145.711.357.987.637.275.275.49.616.644 1.022.158.401.238.861.238 1.379 0 .261-.028.439-.084.532-.056.089-.164.133-.322.133H6.949zM19.4 83h-1.666a.469.469 0 0 1-.308-.098.962.962 0 0 1-.19-.224l-1.518-2.499c-.024.08-.052.154-.084.224-.028.07-.06.135-.098.196l-1.344 2.079c-.052.08-.114.154-.19.224a.41.41 0 0 1-.28.098h-1.546l2.464-3.703-2.366-3.479h1.666c.126 0 .22.019.28.056.06.033.114.089.16.168l1.506 2.394c.051-.159.123-.315.217-.469l1.21-1.89c.104-.173.236-.259.4-.259h1.589l-2.36 3.402L19.4 83zM22.031 81.138c.196.238.409.406.637.504.234.098.486.147.756.147.262 0 .497-.049.707-.147.21-.098.388-.247.532-.448.15-.2.264-.453.343-.756.08-.308.12-.67.12-1.085a4.6 4.6 0 0 0-.106-1.064 2.018 2.018 0 0 0-.287-.714 1.141 1.141 0 0 0-.462-.399 1.406 1.406 0 0 0-.609-.126c-.36 0-.665.077-.917.231-.252.15-.49.362-.714.637v3.22zm-.09-4.34c.293-.331.627-.6 1-.805.374-.205.812-.308 1.316-.308.392 0 .75.082 1.071.245.327.163.607.401.84.714.238.308.42.69.546 1.148.13.453.196.973.196 1.561 0 .537-.072 1.034-.217 1.491a3.61 3.61 0 0 1-.623 1.19c-.266.336-.59.6-.973.791-.378.187-.802.28-1.274.28-.401 0-.744-.06-1.029-.182a2.57 2.57 0 0 1-.763-.518v2.94h-1.729v-9.527h1.057c.224 0 .371.105.441.315l.14.665zM29.89 77.064c.224-.43.49-.765.798-1.008a1.691 1.691 0 0 1 1.092-.371c.332 0 .598.072.798.217l-.112 1.295a.344.344 0 0 1-.105.182.279.279 0 0 1-.175.049 2.11 2.11 0 0 1-.315-.035 2.35 2.35 0 0 0-.399-.035c-.191 0-.361.028-.51.084-.15.056-.285.138-.407.245a1.695 1.695 0 0 0-.315.378c-.088.15-.172.32-.252.511V83H28.26v-7.182h1.015c.178 0 .301.033.371.098.07.06.117.173.14.336l.105.812zM37.904 78.583a1.98 1.98 0 0 0-.098-.63c-.06-.2-.154-.376-.28-.525a1.28 1.28 0 0 0-.483-.35 1.584 1.584 0 0 0-.672-.133c-.5 0-.894.142-1.183.427-.285.285-.467.688-.546 1.211h3.262zm-3.297 1.043c.028.369.093.688.196.959a2 2 0 0 0 .406.665c.168.173.366.303.595.392.233.084.49.126.77.126s.52-.033.72-.098c.206-.065.384-.138.533-.217.154-.08.287-.152.399-.217a.688.688 0 0 1 .336-.098c.145 0 .252.054.322.161l.497.63a2.96 2.96 0 0 1-.644.567c-.238.15-.488.27-.75.364-.256.089-.52.152-.79.189a5.594 5.594 0 0 1-.777.056c-.5 0-.964-.082-1.393-.245a3.18 3.18 0 0 1-1.12-.735 3.491 3.491 0 0 1-.75-1.204c-.181-.48-.272-1.036-.272-1.666 0-.49.08-.95.238-1.379.159-.434.385-.81.679-1.127.298-.322.66-.576 1.085-.763.43-.187.912-.28 1.449-.28.453 0 .87.072 1.253.217.383.145.712.357.987.637.275.275.49.616.644 1.022.159.401.238.861.238 1.379 0 .261-.028.439-.084.532-.056.089-.163.133-.322.133h-4.445zM45.137 77.218a.501.501 0 0 1-.147.161.407.407 0 0 1-.196.042.64.64 0 0 1-.273-.07 8.111 8.111 0 0 0-.329-.154 2.735 2.735 0 0 0-.434-.161 2.023 2.023 0 0 0-.567-.07c-.34 0-.609.072-.805.217a.678.678 0 0 0-.287.567.56.56 0 0 0 .147.392c.103.103.236.194.4.273.167.08.356.152.566.217.21.06.423.128.637.203.22.075.434.161.644.259.21.093.397.215.56.364.168.145.301.32.4.525.102.205.153.453.153.742 0 .345-.063.665-.189.959-.121.29-.303.541-.546.756-.242.21-.543.376-.903.497a3.944 3.944 0 0 1-1.232.175c-.247 0-.49-.023-.728-.07a3.952 3.952 0 0 1-1.281-.462 2.986 2.986 0 0 1-.483-.35l.4-.658a.564.564 0 0 1 .181-.182.51.51 0 0 1 .266-.063c.108 0 .208.03.301.091.098.06.21.126.336.196.126.07.273.135.441.196.173.06.39.091.651.091.206 0 .38-.023.525-.07.15-.051.271-.117.364-.196a.684.684 0 0 0 .21-.273.819.819 0 0 0 .07-.329.573.573 0 0 0-.154-.413 1.261 1.261 0 0 0-.399-.28 3.457 3.457 0 0 0-.567-.21c-.21-.065-.427-.135-.65-.21a6.99 6.99 0 0 1-.652-.259 2.383 2.383 0 0 1-.567-.385 1.796 1.796 0 0 1-.399-.567 2.02 2.02 0 0 1-.147-.812c0-.294.059-.574.175-.84.117-.266.287-.497.511-.693.229-.2.511-.36.847-.476.341-.121.733-.182 1.176-.182.495 0 .945.082 1.351.245.406.163.745.378 1.015.644l-.392.623zM51.29 77.218a.5.5 0 0 1-.147.161.406.406 0 0 1-.196.042.64.64 0 0 1-.273-.07 8.048 8.048 0 0 0-.33-.154 2.731 2.731 0 0 0-.433-.161 2.023 2.023 0 0 0-.567-.07c-.341 0-.61.072-.805.217a.678.678 0 0 0-.287.567.56.56 0 0 0 .147.392c.102.103.235.194.399.273.168.08.357.152.567.217.21.06.422.128.637.203.22.075.434.161.644.259.21.093.396.215.56.364.168.145.3.32.399.525.102.205.154.453.154.742 0 .345-.063.665-.19.959-.12.29-.303.541-.545.756-.243.21-.544.376-.903.497a3.943 3.943 0 0 1-1.232.175c-.248 0-.49-.023-.728-.07a3.956 3.956 0 0 1-1.281-.462 2.986 2.986 0 0 1-.483-.35l.399-.658a.564.564 0 0 1 .182-.182.51.51 0 0 1 .266-.063c.107 0 .207.03.3.091.099.06.21.126.337.196.126.07.273.135.44.196.173.06.39.091.652.091.205 0 .38-.023.525-.07.149-.051.27-.117.364-.196a.684.684 0 0 0 .21-.273.817.817 0 0 0 .07-.329.573.573 0 0 0-.154-.413 1.261 1.261 0 0 0-.4-.28 3.45 3.45 0 0 0-.566-.21c-.21-.065-.427-.135-.651-.21a7.012 7.012 0 0 1-.651-.259 2.383 2.383 0 0 1-.567-.385 1.8 1.8 0 0 1-.4-.567 2.02 2.02 0 0 1-.146-.812c0-.294.058-.574.175-.84.116-.266.287-.497.51-.693.23-.2.512-.36.848-.476.34-.121.732-.182 1.176-.182.494 0 .945.082 1.35.245.407.163.745.378 1.016.644l-.392.623zM52.808 82.048c0-.145.026-.282.077-.413.056-.13.13-.243.224-.336a1.06 1.06 0 0 1 .756-.308 1.061 1.061 0 0 1 .98 1.477 1.023 1.023 0 0 1-.23.329.972.972 0 0 1-.337.217 1.005 1.005 0 0 1-.413.084c-.15 0-.29-.028-.42-.084a.97.97 0 0 1-.336-.217 1.08 1.08 0 0 1-.224-.329 1.137 1.137 0 0 1-.077-.42zM58.174 75.818v7.427c0 .313-.042.607-.126.882-.079.275-.21.516-.392.721-.177.21-.413.373-.707.49-.289.121-.644.182-1.064.182-.163 0-.315-.012-.455-.035a2.617 2.617 0 0 1-.434-.098l.063-.931c.014-.093.052-.154.112-.182.061-.023.178-.035.35-.035.173 0 .318-.019.434-.056a.568.568 0 0 0 .287-.168.63.63 0 0 0 .147-.301 1.9 1.9 0 0 0 .05-.469v-7.427h1.735zm.238-2.093c0 .15-.03.29-.09.42-.061.13-.143.245-.246.343a1.139 1.139 0 0 1-.357.238 1.124 1.124 0 0 1-.854 0 1.19 1.19 0 0 1-.58-.581 1.124 1.124 0 0 1 0-.854 1.084 1.084 0 0 1 .581-.581 1.048 1.048 0 0 1 .854 0 1.1 1.1 0 0 1 .693 1.015zM64.319 77.218a.5.5 0 0 1-.147.161.407.407 0 0 1-.196.042.64.64 0 0 1-.273-.07 8.048 8.048 0 0 0-.329-.154 2.735 2.735 0 0 0-.434-.161 2.023 2.023 0 0 0-.567-.07c-.34 0-.609.072-.805.217a.678.678 0 0 0-.287.567.56.56 0 0 0 .147.392c.103.103.236.194.399.273.168.08.357.152.567.217.21.06.422.128.637.203.22.075.434.161.644.259.21.093.397.215.56.364.168.145.301.32.399.525.103.205.154.453.154.742 0 .345-.063.665-.189.959-.121.29-.303.541-.546.756-.243.21-.544.376-.903.497a3.943 3.943 0 0 1-1.232.175c-.247 0-.49-.023-.728-.07a3.956 3.956 0 0 1-1.281-.462 2.986 2.986 0 0 1-.483-.35l.399-.658a.564.564 0 0 1 .182-.182.51.51 0 0 1 .266-.063c.107 0 .208.03.301.091.098.06.21.126.336.196.126.07.273.135.441.196.173.06.39.091.651.091.205 0 .38-.023.525-.07.15-.051.27-.117.364-.196a.684.684 0 0 0 .21-.273.817.817 0 0 0 .07-.329.573.573 0 0 0-.154-.413 1.261 1.261 0 0 0-.399-.28 3.45 3.45 0 0 0-.567-.21c-.21-.065-.427-.135-.651-.21a7.012 7.012 0 0 1-.651-.259 2.383 2.383 0 0 1-.567-.385 1.8 1.8 0 0 1-.399-.567 2.02 2.02 0 0 1-.147-.812c0-.294.058-.574.175-.84.117-.266.287-.497.511-.693.229-.2.511-.36.847-.476.34-.121.733-.182 1.176-.182.495 0 .945.082 1.351.245.406.163.744.378 1.015.644l-.392.623z" fill="#000"/><path d="M10.246 78.583a1.98 1.98 0 0 0-.098-.63c-.061-.2-.154-.376-.28-.525a1.28 1.28 0 0 0-.483-.35 1.584 1.584 0 0 0-.672-.133c-.5 0-.894.142-1.183.427-.285.285-.467.688-.546 1.211h3.262zm-3.297 1.043c.028.369.093.688.196.959a2 2 0 0 0 .406.665c.168.173.366.303.595.392.233.084.49.126.77.126s.52-.033.72-.098c.206-.065.383-.138.533-.217.154-.08.287-.152.399-.217a.688.688 0 0 1 .336-.098c.144 0 .252.054.322.161l.497.63a2.96 2.96 0 0 1-.644.567c-.238.15-.488.27-.75.364-.256.089-.52.152-.79.189a5.594 5.594 0 0 1-.777.056c-.5 0-.964-.082-1.393-.245a3.18 3.18 0 0 1-1.12-.735 3.492 3.492 0 0 1-.75-1.204c-.181-.48-.272-1.036-.272-1.666 0-.49.079-.95.238-1.379.158-.434.385-.81.679-1.127.298-.322.66-.576 1.085-.763.429-.187.912-.28 1.449-.28.452 0 .87.072 1.253.217.382.145.711.357.987.637.275.275.49.616.644 1.022.158.401.238.861.238 1.379 0 .261-.028.439-.084.532-.056.089-.164.133-.322.133H6.949zM19.4 83h-1.666a.469.469 0 0 1-.308-.098.962.962 0 0 1-.19-.224l-1.518-2.499c-.024.08-.052.154-.084.224-.028.07-.06.135-.098.196l-1.344 2.079c-.052.08-.114.154-.19.224a.41.41 0 0 1-.28.098h-1.546l2.464-3.703-2.366-3.479h1.666c.126 0 .22.019.28.056.06.033.114.089.16.168l1.506 2.394c.051-.159.123-.315.217-.469l1.21-1.89c.104-.173.236-.259.4-.259h1.589l-2.36 3.402L19.4 83zM22.031 81.138c.196.238.409.406.637.504.234.098.486.147.756.147.262 0 .497-.049.707-.147.21-.098.388-.247.532-.448.15-.2.264-.453.343-.756.08-.308.12-.67.12-1.085a4.6 4.6 0 0 0-.106-1.064 2.018 2.018 0 0 0-.287-.714 1.141 1.141 0 0 0-.462-.399 1.406 1.406 0 0 0-.609-.126c-.36 0-.665.077-.917.231-.252.15-.49.362-.714.637v3.22zm-.09-4.34c.293-.331.627-.6 1-.805.374-.205.812-.308 1.316-.308.392 0 .75.082 1.071.245.327.163.607.401.84.714.238.308.42.69.546 1.148.13.453.196.973.196 1.561 0 .537-.072 1.034-.217 1.491a3.61 3.61 0 0 1-.623 1.19c-.266.336-.59.6-.973.791-.378.187-.802.28-1.274.28-.401 0-.744-.06-1.029-.182a2.57 2.57 0 0 1-.763-.518v2.94h-1.729v-9.527h1.057c.224 0 .371.105.441.315l.14.665zM29.89 77.064c.224-.43.49-.765.798-1.008a1.691 1.691 0 0 1 1.092-.371c.332 0 .598.072.798.217l-.112 1.295a.344.344 0 0 1-.105.182.279.279 0 0 1-.175.049 2.11 2.11 0 0 1-.315-.035 2.35 2.35 0 0 0-.399-.035c-.191 0-.361.028-.51.084-.15.056-.285.138-.407.245a1.695 1.695 0 0 0-.315.378c-.088.15-.172.32-.252.511V83H28.26v-7.182h1.015c.178 0 .301.033.371.098.07.06.117.173.14.336l.105.812zM37.904 78.583a1.98 1.98 0 0 0-.098-.63c-.06-.2-.154-.376-.28-.525a1.28 1.28 0 0 0-.483-.35 1.584 1.584 0 0 0-.672-.133c-.5 0-.894.142-1.183.427-.285.285-.467.688-.546 1.211h3.262zm-3.297 1.043c.028.369.093.688.196.959a2 2 0 0 0 .406.665c.168.173.366.303.595.392.233.084.49.126.77.126s.52-.033.72-.098c.206-.065.384-.138.533-.217.154-.08.287-.152.399-.217a.688.688 0 0 1 .336-.098c.145 0 .252.054.322.161l.497.63a2.96 2.96 0 0 1-.644.567c-.238.15-.488.27-.75.364-.256.089-.52.152-.79.189a5.594 5.594 0 0 1-.777.056c-.5 0-.964-.082-1.393-.245a3.18 3.18 0 0 1-1.12-.735 3.491 3.491 0 0 1-.75-1.204c-.181-.48-.272-1.036-.272-1.666 0-.49.08-.95.238-1.379.159-.434.385-.81.679-1.127.298-.322.66-.576 1.085-.763.43-.187.912-.28 1.449-.28.453 0 .87.072 1.253.217.383.145.712.357.987.637.275.275.49.616.644 1.022.159.401.238.861.238 1.379 0 .261-.028.439-.084.532-.056.089-.163.133-.322.133h-4.445zM45.137 77.218a.501.501 0 0 1-.147.161.407.407 0 0 1-.196.042.64.64 0 0 1-.273-.07 8.111 8.111 0 0 0-.329-.154 2.735 2.735 0 0 0-.434-.161 2.023 2.023 0 0 0-.567-.07c-.34 0-.609.072-.805.217a.678.678 0 0 0-.287.567.56.56 0 0 0 .147.392c.103.103.236.194.4.273.167.08.356.152.566.217.21.06.423.128.637.203.22.075.434.161.644.259.21.093.397.215.56.364.168.145.301.32.4.525.102.205.153.453.153.742 0 .345-.063.665-.189.959-.121.29-.303.541-.546.756-.242.21-.543.376-.903.497a3.944 3.944 0 0 1-1.232.175c-.247 0-.49-.023-.728-.07a3.952 3.952 0 0 1-1.281-.462 2.986 2.986 0 0 1-.483-.35l.4-.658a.564.564 0 0 1 .181-.182.51.51 0 0 1 .266-.063c.108 0 .208.03.301.091.098.06.21.126.336.196.126.07.273.135.441.196.173.06.39.091.651.091.206 0 .38-.023.525-.07.15-.051.271-.117.364-.196a.684.684 0 0 0 .21-.273.819.819 0 0 0 .07-.329.573.573 0 0 0-.154-.413 1.261 1.261 0 0 0-.399-.28 3.457 3.457 0 0 0-.567-.21c-.21-.065-.427-.135-.65-.21a6.99 6.99 0 0 1-.652-.259 2.383 2.383 0 0 1-.567-.385 1.796 1.796 0 0 1-.399-.567 2.02 2.02 0 0 1-.147-.812c0-.294.059-.574.175-.84.117-.266.287-.497.511-.693.229-.2.511-.36.847-.476.341-.121.733-.182 1.176-.182.495 0 .945.082 1.351.245.406.163.745.378 1.015.644l-.392.623zM51.29 77.218a.5.5 0 0 1-.147.161.406.406 0 0 1-.196.042.64.64 0 0 1-.273-.07 8.048 8.048 0 0 0-.33-.154 2.731 2.731 0 0 0-.433-.161 2.023 2.023 0 0 0-.567-.07c-.341 0-.61.072-.805.217a.678.678 0 0 0-.287.567.56.56 0 0 0 .147.392c.102.103.235.194.399.273.168.08.357.152.567.217.21.06.422.128.637.203.22.075.434.161.644.259.21.093.396.215.56.364.168.145.3.32.399.525.102.205.154.453.154.742 0 .345-.063.665-.19.959-.12.29-.303.541-.545.756-.243.21-.544.376-.903.497a3.943 3.943 0 0 1-1.232.175c-.248 0-.49-.023-.728-.07a3.956 3.956 0 0 1-1.281-.462 2.986 2.986 0 0 1-.483-.35l.399-.658a.564.564 0 0 1 .182-.182.51.51 0 0 1 .266-.063c.107 0 .207.03.3.091.099.06.21.126.337.196.126.07.273.135.44.196.173.06.39.091.652.091.205 0 .38-.023.525-.07.149-.051.27-.117.364-.196a.684.684 0 0 0 .21-.273.817.817 0 0 0 .07-.329.573.573 0 0 0-.154-.413 1.261 1.261 0 0 0-.4-.28 3.45 3.45 0 0 0-.566-.21c-.21-.065-.427-.135-.651-.21a7.012 7.012 0 0 1-.651-.259 2.383 2.383 0 0 1-.567-.385 1.8 1.8 0 0 1-.4-.567 2.02 2.02 0 0 1-.146-.812c0-.294.058-.574.175-.84.116-.266.287-.497.51-.693.23-.2.512-.36.848-.476.34-.121.732-.182 1.176-.182.494 0 .945.082 1.35.245.407.163.745.378 1.016.644l-.392.623zM52.808 82.048c0-.145.026-.282.077-.413.056-.13.13-.243.224-.336a1.06 1.06 0 0 1 .756-.308 1.061 1.061 0 0 1 .98 1.477 1.023 1.023 0 0 1-.23.329.972.972 0 0 1-.337.217 1.005 1.005 0 0 1-.413.084c-.15 0-.29-.028-.42-.084a.97.97 0 0 1-.336-.217 1.08 1.08 0 0 1-.224-.329 1.137 1.137 0 0 1-.077-.42zM58.174 75.818v7.427c0 .313-.042.607-.126.882-.079.275-.21.516-.392.721-.177.21-.413.373-.707.49-.289.121-.644.182-1.064.182-.163 0-.315-.012-.455-.035a2.617 2.617 0 0 1-.434-.098l.063-.931c.014-.093.052-.154.112-.182.061-.023.178-.035.35-.035.173 0 .318-.019.434-.056a.568.568 0 0 0 .287-.168.63.63 0 0 0 .147-.301 1.9 1.9 0 0 0 .05-.469v-7.427h1.735zm.238-2.093c0 .15-.03.29-.09.42-.061.13-.143.245-.246.343a1.139 1.139 0 0 1-.357.238 1.124 1.124 0 0 1-.854 0 1.19 1.19 0 0 1-.58-.581 1.124 1.124 0 0 1 0-.854 1.084 1.084 0 0 1 .581-.581 1.048 1.048 0 0 1 .854 0 1.1 1.1 0 0 1 .693 1.015zM64.319 77.218a.5.5 0 0 1-.147.161.407.407 0 0 1-.196.042.64.64 0 0 1-.273-.07 8.048 8.048 0 0 0-.329-.154 2.735 2.735 0 0 0-.434-.161 2.023 2.023 0 0 0-.567-.07c-.34 0-.609.072-.805.217a.678.678 0 0 0-.287.567.56.56 0 0 0 .147.392c.103.103.236.194.399.273.168.08.357.152.567.217.21.06.422.128.637.203.22.075.434.161.644.259.21.093.397.215.56.364.168.145.301.32.399.525.103.205.154.453.154.742 0 .345-.063.665-.189.959-.121.29-.303.541-.546.756-.243.21-.544.376-.903.497a3.943 3.943 0 0 1-1.232.175c-.247 0-.49-.023-.728-.07a3.956 3.956 0 0 1-1.281-.462 2.986 2.986 0 0 1-.483-.35l.399-.658a.564.564 0 0 1 .182-.182.51.51 0 0 1 .266-.063c.107 0 .208.03.301.091.098.06.21.126.336.196.126.07.273.135.441.196.173.06.39.091.651.091.205 0 .38-.023.525-.07.15-.051.27-.117.364-.196a.684.684 0 0 0 .21-.273.817.817 0 0 0 .07-.329.573.573 0 0 0-.154-.413 1.261 1.261 0 0 0-.399-.28 3.45 3.45 0 0 0-.567-.21c-.21-.065-.427-.135-.651-.21a7.012 7.012 0 0 1-.651-.259 2.383 2.383 0 0 1-.567-.385 1.8 1.8 0 0 1-.399-.567 2.02 2.02 0 0 1-.147-.812c0-.294.058-.574.175-.84.117-.266.287-.497.511-.693.229-.2.511-.36.847-.476.34-.121.733-.182 1.176-.182.495 0 .945.082 1.351.245.406.163.744.378 1.015.644l-.392.623z" stroke="#fff" stroke-width="4" mask="url(#a)"/><path d="M67.314 50.48c-2.351.608-3.805.027-5.11-1.963-2.928-4.454-6.161-8.704-9.28-13.033-.403-.56-.82-1.11-1.341-1.806-3.692 5.056-7.38 9.872-10.839 14.881-1.237 1.79-2.537 2.57-4.847 1.937l13.88-18.912-12.92-17.08c2.222-.44 3.758-.214 5.12 1.806 3.006 4.46 6.321 8.705 9.626 13.196 3.326-4.475 6.6-8.726 9.694-13.143 1.242-1.79 2.578-2.471 4.81-1.811-1.69 2.276-3.346 4.517-5.011 6.741-2.248 3-4.455 6.036-6.786 8.972-.83 1.047-.696 1.727.047 2.717 4.31 5.752 8.57 11.563 12.957 17.498zM2.686 31.27c.371-1.89.619-3.816 1.134-5.669 3.094-11.217 15.778-15.88 24.492-8.93 5.105 4.078 6.373 9.825 6.12 16.306H5.662C5.228 44.602 13.473 51.62 23.98 48.04c3.687-1.256 5.858-4.187 6.946-7.851.551-1.838 1.464-2.126 3.166-1.602-.872 4.585-2.847 8.417-6.972 10.814-6.187 3.59-15.02 2.429-19.666-2.56-2.743-2.93-3.908-6.58-4.424-10.52-.077-.629-.237-1.246-.36-1.87.01-1.06.015-2.121.015-3.182zm3.027-.78h26.002c-.17-8.406-5.326-14.379-12.375-14.43-7.734-.064-13.292 5.767-13.627 14.43z" fill="#000"/></svg>