<svg width="60" height="81" viewBox="0 0 70 91" fill="none" xmlns="http://www.w3.org/2000/svg"><mask id="a" maskUnits="userSpaceOnUse" x="15.274" y="70.619" width="40" height="17" fill="#000"><path fill="#fff" d="M15.274 70.619h40v17h-40z"/><path d="M19.163 74.376v2.996h3.794v1.505h-3.794V83h-1.89V72.878h6.384v1.498h-4.494zM26.709 75.818V83h-1.736v-7.182h1.736zm.238-2.093c0 .15-.03.29-.091.42s-.143.245-.246.343a1.162 1.162 0 0 1-.35.238c-.135.056-.28.084-.434.084-.149 0-.291-.028-.427-.084a1.188 1.188 0 0 1-.58-.581 1.124 1.124 0 0 1 0-.854c.06-.135.14-.252.238-.35.098-.098.212-.175.343-.231.135-.06.277-.091.427-.091.153 0 .298.03.433.091.136.056.252.133.35.231a1.1 1.1 0 0 1 .245.35c.061.135.091.28.091.434zM31.096 79.234c.215 0 .401-.028.56-.084.159-.06.29-.142.392-.245a.94.94 0 0 0 .238-.371c.056-.145.084-.303.084-.476 0-.355-.107-.635-.322-.84-.21-.21-.527-.315-.952-.315-.424 0-.744.105-.959.315-.21.205-.315.485-.315.84 0 .168.026.324.077.469.056.145.136.27.238.378.107.103.24.184.4.245.163.056.35.084.56.084zm1.953 4.088a.478.478 0 0 0-.126-.343.8.8 0 0 0-.343-.203 2.377 2.377 0 0 0-.51-.112 7.863 7.863 0 0 0-.617-.049 26.652 26.652 0 0 0-.672-.035 7.81 7.81 0 0 1-.672-.056 1.667 1.667 0 0 0-.469.378.78.78 0 0 0-.084.854.813.813 0 0 0 .301.287c.14.08.32.14.54.182.219.047.487.07.804.07.322 0 .6-.026.833-.077.233-.047.425-.114.574-.203a.835.835 0 0 0 .336-.308.734.734 0 0 0 .105-.385zm1.722-7.259v.644c0 .205-.123.331-.37.378l-.645.119c.098.247.147.518.147.812a2.129 2.129 0 0 1-.805 1.694c-.252.2-.55.357-.896.469-.34.107-.71.161-1.106.161-.14 0-.275-.007-.406-.021a5.108 5.108 0 0 1-.385-.056c-.224.135-.336.287-.336.455 0 .145.066.252.196.322.136.065.313.112.532.14.22.028.47.047.75.056.28.005.566.019.86.042.294.023.581.065.861.126.28.056.53.147.75.273.218.126.394.299.524.518.136.215.203.492.203.833 0 .317-.08.625-.238.924-.154.299-.38.565-.679.798-.294.233-.658.42-1.092.56-.43.145-.92.217-1.47.217a5.512 5.512 0 0 1-1.414-.161 3.251 3.251 0 0 1-1-.42 1.783 1.783 0 0 1-.596-.602 1.42 1.42 0 0 1-.196-.714c0-.336.1-.616.301-.84.206-.229.486-.41.84-.546a1.206 1.206 0 0 1-.455-.392c-.112-.163-.168-.378-.168-.644 0-.107.019-.217.056-.329.042-.117.1-.231.175-.343.08-.112.178-.217.294-.315a1.92 1.92 0 0 1 .413-.273 2.293 2.293 0 0 1-.86-.784c-.206-.327-.309-.71-.309-1.148 0-.355.07-.674.21-.959.145-.29.343-.534.595-.735.257-.205.558-.362.903-.469.35-.107.73-.161 1.141-.161.308 0 .598.033.868.098.27.06.518.152.742.273h2.065zM35.868 83v-7.182h1.057c.224 0 .37.105.44.315l.113.532a4.34 4.34 0 0 1 .392-.385 2.352 2.352 0 0 1 1.54-.574c.452 0 .823.124 1.113.371.294.243.513.567.658.973a2.14 2.14 0 0 1 .42-.609 2.25 2.25 0 0 1 .553-.42c.2-.107.413-.187.637-.238.228-.051.457-.077.686-.077.396 0 .749.06 1.057.182.308.121.567.299.777.532.21.233.368.518.476.854.112.336.168.721.168 1.155V83h-1.73v-4.571c0-.457-.1-.8-.3-1.029-.201-.233-.495-.35-.882-.35-.178 0-.343.03-.497.091-.15.06-.283.15-.4.266-.111.112-.2.254-.265.427a1.673 1.673 0 0 0-.098.595V83h-1.736v-4.571c0-.48-.098-.83-.294-1.05-.192-.22-.474-.329-.847-.329-.252 0-.488.063-.707.189-.215.121-.416.29-.602.504V83h-1.73zM51.392 79.934c-.5.023-.92.068-1.26.133-.34.06-.613.14-.819.238-.205.098-.352.212-.44.343a.746.746 0 0 0-.134.427c0 .303.089.52.266.651.182.13.418.196.707.196.355 0 .66-.063.917-.189.262-.13.516-.327.763-.588v-1.211zm-3.962-3.115c.826-.756 1.82-1.134 2.982-1.134.42 0 .796.07 1.127.21.331.135.611.327.84.574.229.243.402.534.518.875.122.34.182.714.182 1.12V83h-.784a.826.826 0 0 1-.378-.07c-.089-.051-.159-.152-.21-.301l-.154-.518c-.182.163-.36.308-.532.434a3.27 3.27 0 0 1-.539.308 2.745 2.745 0 0 1-.602.189 3.23 3.23 0 0 1-.7.07c-.303 0-.583-.04-.84-.119a1.89 1.89 0 0 1-.665-.371 1.65 1.65 0 0 1-.434-.609 2.162 2.162 0 0 1-.154-.847 1.657 1.657 0 0 1 .385-1.057c.14-.163.32-.317.54-.462.218-.145.487-.27.804-.378a6.867 6.867 0 0 1 1.12-.259c.425-.07.91-.112 1.456-.126v-.42c0-.48-.103-.835-.308-1.064-.205-.233-.502-.35-.889-.35-.28 0-.513.033-.7.098a2.73 2.73 0 0 0-.483.224l-.385.217a.737.737 0 0 1-.378.098.512.512 0 0 1-.308-.091.836.836 0 0 1-.203-.224l-.308-.553z"/></mask><path d="M19.163 74.376v2.996h3.794v1.505h-3.794V83h-1.89V72.878h6.384v1.498h-4.494zM26.709 75.818V83h-1.736v-7.182h1.736zm.238-2.093c0 .15-.03.29-.091.42s-.143.245-.246.343a1.162 1.162 0 0 1-.35.238c-.135.056-.28.084-.434.084-.149 0-.291-.028-.427-.084a1.188 1.188 0 0 1-.58-.581 1.124 1.124 0 0 1 0-.854c.06-.135.14-.252.238-.35.098-.098.212-.175.343-.231.135-.06.277-.091.427-.091.153 0 .298.03.433.091.136.056.252.133.35.231a1.1 1.1 0 0 1 .245.35c.061.135.091.28.091.434zM31.096 79.234c.215 0 .401-.028.56-.084.159-.06.29-.142.392-.245a.94.94 0 0 0 .238-.371c.056-.145.084-.303.084-.476 0-.355-.107-.635-.322-.84-.21-.21-.527-.315-.952-.315-.424 0-.744.105-.959.315-.21.205-.315.485-.315.84 0 .168.026.324.077.469.056.145.136.27.238.378.107.103.24.184.4.245.163.056.35.084.56.084zm1.953 4.088a.478.478 0 0 0-.126-.343.8.8 0 0 0-.343-.203 2.377 2.377 0 0 0-.51-.112 7.863 7.863 0 0 0-.617-.049 26.652 26.652 0 0 0-.672-.035 7.81 7.81 0 0 1-.672-.056 1.667 1.667 0 0 0-.469.378.78.78 0 0 0-.084.854.813.813 0 0 0 .301.287c.14.08.32.14.54.182.219.047.487.07.804.07.322 0 .6-.026.833-.077.233-.047.425-.114.574-.203a.835.835 0 0 0 .336-.308.734.734 0 0 0 .105-.385zm1.722-7.259v.644c0 .205-.123.331-.37.378l-.645.119c.098.247.147.518.147.812a2.129 2.129 0 0 1-.805 1.694c-.252.2-.55.357-.896.469-.34.107-.71.161-1.106.161-.14 0-.275-.007-.406-.021a5.108 5.108 0 0 1-.385-.056c-.224.135-.336.287-.336.455 0 .145.066.252.196.322.136.065.313.112.532.14.22.028.47.047.75.056.28.005.566.019.86.042.294.023.581.065.861.126.28.056.53.147.75.273.218.126.394.299.524.518.136.215.203.492.203.833 0 .317-.08.625-.238.924-.154.299-.38.565-.679.798-.294.233-.658.42-1.092.56-.43.145-.92.217-1.47.217a5.512 5.512 0 0 1-1.414-.161 3.251 3.251 0 0 1-1-.42 1.783 1.783 0 0 1-.596-.602 1.42 1.42 0 0 1-.196-.714c0-.336.1-.616.301-.84.206-.229.486-.41.84-.546a1.206 1.206 0 0 1-.455-.392c-.112-.163-.168-.378-.168-.644 0-.107.019-.217.056-.329.042-.117.1-.231.175-.343.08-.112.178-.217.294-.315a1.92 1.92 0 0 1 .413-.273 2.293 2.293 0 0 1-.86-.784c-.206-.327-.309-.71-.309-1.148 0-.355.07-.674.21-.959.145-.29.343-.534.595-.735.257-.205.558-.362.903-.469.35-.107.73-.161 1.141-.161.308 0 .598.033.868.098.27.06.518.152.742.273h2.065zM35.868 83v-7.182h1.057c.224 0 .37.105.44.315l.113.532a4.34 4.34 0 0 1 .392-.385 2.352 2.352 0 0 1 1.54-.574c.452 0 .823.124 1.113.371.294.243.513.567.658.973a2.14 2.14 0 0 1 .42-.609 2.25 2.25 0 0 1 .553-.42c.2-.107.413-.187.637-.238.228-.051.457-.077.686-.077.396 0 .749.06 1.057.182.308.121.567.299.777.532.21.233.368.518.476.854.112.336.168.721.168 1.155V83h-1.73v-4.571c0-.457-.1-.8-.3-1.029-.201-.233-.495-.35-.882-.35-.178 0-.343.03-.497.091-.15.06-.283.15-.4.266-.111.112-.2.254-.265.427a1.673 1.673 0 0 0-.098.595V83h-1.736v-4.571c0-.48-.098-.83-.294-1.05-.192-.22-.474-.329-.847-.329-.252 0-.488.063-.707.189-.215.121-.416.29-.602.504V83h-1.73zM51.392 79.934c-.5.023-.92.068-1.26.133-.34.06-.613.14-.819.238-.205.098-.352.212-.44.343a.746.746 0 0 0-.134.427c0 .303.089.52.266.651.182.13.418.196.707.196.355 0 .66-.063.917-.189.262-.13.516-.327.763-.588v-1.211zm-3.962-3.115c.826-.756 1.82-1.134 2.982-1.134.42 0 .796.07 1.127.21.331.135.611.327.84.574.229.243.402.534.518.875.122.34.182.714.182 1.12V83h-.784a.826.826 0 0 1-.378-.07c-.089-.051-.159-.152-.21-.301l-.154-.518c-.182.163-.36.308-.532.434a3.27 3.27 0 0 1-.539.308 2.745 2.745 0 0 1-.602.189 3.23 3.23 0 0 1-.7.07c-.303 0-.583-.04-.84-.119a1.89 1.89 0 0 1-.665-.371 1.65 1.65 0 0 1-.434-.609 2.162 2.162 0 0 1-.154-.847 1.657 1.657 0 0 1 .385-1.057c.14-.163.32-.317.54-.462.218-.145.487-.27.804-.378a6.867 6.867 0 0 1 1.12-.259c.425-.07.91-.112 1.456-.126v-.42c0-.48-.103-.835-.308-1.064-.205-.233-.502-.35-.889-.35-.28 0-.513.033-.7.098a2.73 2.73 0 0 0-.483.224l-.385.217a.737.737 0 0 1-.378.098.512.512 0 0 1-.308-.091.836.836 0 0 1-.203-.224l-.308-.553z" fill="#000"/><path d="M19.163 74.376v2.996h3.794v1.505h-3.794V83h-1.89V72.878h6.384v1.498h-4.494zM26.709 75.818V83h-1.736v-7.182h1.736zm.238-2.093c0 .15-.03.29-.091.42s-.143.245-.246.343a1.162 1.162 0 0 1-.35.238c-.135.056-.28.084-.434.084-.149 0-.291-.028-.427-.084a1.188 1.188 0 0 1-.58-.581 1.124 1.124 0 0 1 0-.854c.06-.135.14-.252.238-.35.098-.098.212-.175.343-.231.135-.06.277-.091.427-.091.153 0 .298.03.433.091.136.056.252.133.35.231a1.1 1.1 0 0 1 .245.35c.061.135.091.28.091.434zM31.096 79.234c.215 0 .401-.028.56-.084.159-.06.29-.142.392-.245a.94.94 0 0 0 .238-.371c.056-.145.084-.303.084-.476 0-.355-.107-.635-.322-.84-.21-.21-.527-.315-.952-.315-.424 0-.744.105-.959.315-.21.205-.315.485-.315.84 0 .168.026.324.077.469.056.145.136.27.238.378.107.103.24.184.4.245.163.056.35.084.56.084zm1.953 4.088a.478.478 0 0 0-.126-.343.8.8 0 0 0-.343-.203 2.377 2.377 0 0 0-.51-.112 7.863 7.863 0 0 0-.617-.049 26.652 26.652 0 0 0-.672-.035 7.81 7.81 0 0 1-.672-.056 1.667 1.667 0 0 0-.469.378.78.78 0 0 0-.084.854.813.813 0 0 0 .301.287c.14.08.32.14.54.182.219.047.487.07.804.07.322 0 .6-.026.833-.077.233-.047.425-.114.574-.203a.835.835 0 0 0 .336-.308.734.734 0 0 0 .105-.385zm1.722-7.259v.644c0 .205-.123.331-.37.378l-.645.119c.098.247.147.518.147.812a2.129 2.129 0 0 1-.805 1.694c-.252.2-.55.357-.896.469-.34.107-.71.161-1.106.161-.14 0-.275-.007-.406-.021a5.108 5.108 0 0 1-.385-.056c-.224.135-.336.287-.336.455 0 .145.066.252.196.322.136.065.313.112.532.14.22.028.47.047.75.056.28.005.566.019.86.042.294.023.581.065.861.126.28.056.53.147.75.273.218.126.394.299.524.518.136.215.203.492.203.833 0 .317-.08.625-.238.924-.154.299-.38.565-.679.798-.294.233-.658.42-1.092.56-.43.145-.92.217-1.47.217a5.512 5.512 0 0 1-1.414-.161 3.251 3.251 0 0 1-1-.42 1.783 1.783 0 0 1-.596-.602 1.42 1.42 0 0 1-.196-.714c0-.336.1-.616.301-.84.206-.229.486-.41.84-.546a1.206 1.206 0 0 1-.455-.392c-.112-.163-.168-.378-.168-.644 0-.107.019-.217.056-.329.042-.117.1-.231.175-.343.08-.112.178-.217.294-.315a1.92 1.92 0 0 1 .413-.273 2.293 2.293 0 0 1-.86-.784c-.206-.327-.309-.71-.309-1.148 0-.355.07-.674.21-.959.145-.29.343-.534.595-.735.257-.205.558-.362.903-.469.35-.107.73-.161 1.141-.161.308 0 .598.033.868.098.27.06.518.152.742.273h2.065zM35.868 83v-7.182h1.057c.224 0 .37.105.44.315l.113.532a4.34 4.34 0 0 1 .392-.385 2.352 2.352 0 0 1 1.54-.574c.452 0 .823.124 1.113.371.294.243.513.567.658.973a2.14 2.14 0 0 1 .42-.609 2.25 2.25 0 0 1 .553-.42c.2-.107.413-.187.637-.238.228-.051.457-.077.686-.077.396 0 .749.06 1.057.182.308.121.567.299.777.532.21.233.368.518.476.854.112.336.168.721.168 1.155V83h-1.73v-4.571c0-.457-.1-.8-.3-1.029-.201-.233-.495-.35-.882-.35-.178 0-.343.03-.497.091-.15.06-.283.15-.4.266-.111.112-.2.254-.265.427a1.673 1.673 0 0 0-.098.595V83h-1.736v-4.571c0-.48-.098-.83-.294-1.05-.192-.22-.474-.329-.847-.329-.252 0-.488.063-.707.189-.215.121-.416.29-.602.504V83h-1.73zM51.392 79.934c-.5.023-.92.068-1.26.133-.34.06-.613.14-.819.238-.205.098-.352.212-.44.343a.746.746 0 0 0-.134.427c0 .303.089.52.266.651.182.13.418.196.707.196.355 0 .66-.063.917-.189.262-.13.516-.327.763-.588v-1.211zm-3.962-3.115c.826-.756 1.82-1.134 2.982-1.134.42 0 .796.07 1.127.21.331.135.611.327.84.574.229.243.402.534.518.875.122.34.182.714.182 1.12V83h-.784a.826.826 0 0 1-.378-.07c-.089-.051-.159-.152-.21-.301l-.154-.518c-.182.163-.36.308-.532.434a3.27 3.27 0 0 1-.539.308 2.745 2.745 0 0 1-.602.189 3.23 3.23 0 0 1-.7.07c-.303 0-.583-.04-.84-.119a1.89 1.89 0 0 1-.665-.371 1.65 1.65 0 0 1-.434-.609 2.162 2.162 0 0 1-.154-.847 1.657 1.657 0 0 1 .385-1.057c.14-.163.32-.317.54-.462.218-.145.487-.27.804-.378a6.867 6.867 0 0 1 1.12-.259c.425-.07.91-.112 1.456-.126v-.42c0-.48-.103-.835-.308-1.064-.205-.233-.502-.35-.889-.35-.28 0-.513.033-.7.098a2.73 2.73 0 0 0-.483.224l-.385.217a.737.737 0 0 1-.378.098.512.512 0 0 1-.308-.091.836.836 0 0 1-.203-.224l-.308-.553z" stroke="#fff" stroke-width="4" mask="url(#a)"/><g clip-path="url(#b)"><path d="M25.46 67.523c6.137 0 11.087-5.025 11.087-11.253V45.016H25.46c-6.136 0-11.086 5.025-11.086 11.254 0 6.228 4.95 11.253 11.086 11.253z" fill="#0ACF83"/><path d="M14.375 33.762c0-6.23 4.95-11.254 11.086-11.254h11.086v22.508H25.46c-6.136 0-11.086-5.025-11.086-11.254z" fill="#A259FF"/><path d="M14.375 11.254C14.375 5.025 19.325 0 25.461 0h11.086v22.508H25.46c-6.136 0-11.086-5.025-11.086-11.254z" fill="#F24E1E"/><path d="M36.547 0h11.086c6.136 0 11.086 5.025 11.086 11.254 0 6.229-4.95 11.254-11.086 11.254H36.547V0z" fill="#FF7262"/><path d="M58.719 33.762c0 6.229-4.95 11.254-11.086 11.254S36.547 39.99 36.547 33.762c0-6.23 4.95-11.254 11.086-11.254s11.086 5.025 11.086 11.254z" fill="#1ABCFE"/></g><defs><clipPath id="b"><path fill="#fff" transform="translate(2)" d="M0 0h66v67H0z"/></clipPath></defs></svg>