<svg width="60" height="81" viewBox="0 0 70 91" fill="none" xmlns="http://www.w3.org/2000/svg"><path d="M35.594 76.925h-4.93v2.064c0 .345.124.674.367.934l.023.025.025.024c.301.28.665.367.97.367h.274v.156a2.857 2.857 0 0 1-.862.12c-.416-.001-.764-.066-1.058-.178a2.08 2.08 0 0 1-.732-.48 2.378 2.378 0 0 1-.484-.806 3.617 3.617 0 0 1-.184-1.212c0-.447.063-.822.174-1.139.114-.325.268-.58.454-.785.183-.201.404-.358.674-.47.269-.112.589-.176.974-.176.265 0 .474.018.635.047h.003c.196.035.354.077.48.12l.008.003c.138.048.25.1.342.152l.23.133.22.126c.298.18.7.318 1.154.224l.016-.003.016-.004c.427-.103.74-.37.942-.693l.269-.425v1.876zM39.33 83v-4.974c.07.027.143.047.217.062v3.036c0 .8.218 1.558.767 2.146l.009.01c.575.599 1.348.832 2.163.832.454 0 .898-.07 1.327-.211.441-.145.843-.363 1.197-.658l.666-.555-.456-.738-.517-.84-.02-.032-.023-.031a1.508 1.508 0 0 0-.299-.313 1.188 1.188 0 0 0-1.085-.202v-2.419H45.194v-3.232H43.276V72.62H41.38c-.272 0-.59.07-.87.29l.618.787-.617-.786c-.267.21-.418.487-.486.76l-.007.03-.006.03-.236 1.27-.446.073v-.256h-.084a1.985 1.985 0 0 0 .322-1.093c0-.29-.058-.574-.179-.843l-.912.409.912-.41a2.102 2.102 0 0 0-.459-.655 2.062 2.062 0 0 0-.653-.434 2.049 2.049 0 0 0-.83-.173c-.286 0-.565.059-.828.175-.241.105-.46.252-.648.44-.19.19-.337.41-.444.648l-.006.013-.005.014c-.03.072-.056.146-.078.22-.18-.15-.37-.288-.57-.418a5.125 5.125 0 0 0-1.034-.51 6.52 6.52 0 0 0-1.164-.32 7.346 7.346 0 0 0-1.328-.115c-.912 0-1.765.142-2.546.446l.362.932-.362-.932a5.738 5.738 0 0 0-2.004 1.289l-.004.003a5.746 5.746 0 0 0-1.271 1.979 6.715 6.715 0 0 0-.44 2.456c0 .867.15 1.689.459 2.454a5.715 5.715 0 0 0 1.322 1.98l.004.004c.58.557 1.268.983 2.049 1.283l.002.001c.801.306 1.674.451 2.604.451.75 0 1.468-.098 2.148-.3l.005-.002a6.413 6.413 0 0 0 1.924-.968V84H39.33v-1z" fill="#000" stroke="#fff" stroke-width="2"/><path d="M66.317 30.557 37.898 1.71a4.148 4.148 0 0 0-5.928 0l-5.9 5.99 7.485 7.6a4.924 4.924 0 0 1 5.121 1.211c1.394 1.417 1.785 3.459 1.183 5.231l7.215 7.324a4.925 4.925 0 0 1 5.153 1.202 5.115 5.115 0 0 1 0 7.16 4.981 4.981 0 0 1-1.618 1.098 4.923 4.923 0 0 1-3.819 0 4.983 4.983 0 0 1-1.618-1.098 5.09 5.09 0 0 1-1.364-2.587 5.137 5.137 0 0 1 .278-2.92l-6.727-6.83-.002 17.975c.489.244.934.568 1.32.957 1.948 1.977 1.948 5.181 0 7.162a4.935 4.935 0 0 1-7.053 0c-1.948-1.98-1.948-5.184 0-7.162a4.97 4.97 0 0 1 1.633-1.104V24.776a4.935 4.935 0 0 1-1.633-1.105c-1.476-1.497-1.831-3.696-1.074-5.536l-7.38-7.492-19.487 19.78a4.29 4.29 0 0 0-1.228 3.01 4.29 4.29 0 0 0 1.228 3.01l28.42 28.849a4.15 4.15 0 0 0 5.929 0l28.286-28.715a4.291 4.291 0 0 0 1.227-3.01 4.291 4.291 0 0 0-1.228-3.01z" fill="#F34F29"/></svg>