<svg width="60" height="81" viewBox="0 0 70 91" fill="none" xmlns="http://www.w3.org/2000/svg"><mask id="a" maskUnits="userSpaceOnUse" x="10.222" y="71.878" width="50" height="15" fill="#000"><path fill="#fff" d="M10.222 71.878h50v15h-50z"/><path d="M20.755 73.878V84h-1.89v-4.424h-4.753V84h-1.89V73.878h1.89v4.354h4.753v-4.354h1.89zM30.079 75.425h-3.052V84h-1.883v-8.575h-3.052v-1.547h7.987v1.547zM42.38 73.878V84h-1.66v-6.538c0-.261.014-.544.042-.847l-3.059 5.747c-.144.275-.366.413-.665.413h-.266c-.298 0-.52-.138-.665-.413l-3.094-5.768c.014.154.026.306.035.455.01.15.014.287.014.413V84h-1.659V73.878h1.421c.084 0 .157.002.217.007.061.005.115.016.161.035a.325.325 0 0 1 .133.091.709.709 0 0 1 .12.168l3.03 5.621c.08.15.152.303.217.462.07.159.138.322.203.49a9.96 9.96 0 0 1 .427-.966l2.99-5.607a.706.706 0 0 1 .118-.168.399.399 0 0 1 .133-.091.63.63 0 0 1 .168-.035c.061-.005.133-.007.217-.007h1.421zM50.567 82.446V84h-5.93V73.878h1.884v8.568h4.046zM53.626 77.553c.224-.047.439-.08.644-.098a5.28 5.28 0 0 1 .595-.035c.532 0 1.001.08 1.407.238.406.159.747.378 1.022.658.276.28.483.609.623.987.14.373.21.777.21 1.211 0 .537-.096 1.027-.287 1.47a3.322 3.322 0 0 1-.784 1.141 3.568 3.568 0 0 1-1.197.728 4.207 4.207 0 0 1-1.498.259 4.03 4.03 0 0 1-.903-.098 4.776 4.776 0 0 1-.805-.259 5.174 5.174 0 0 1-.693-.378 4.74 4.74 0 0 1-.567-.455l.532-.735a.516.516 0 0 1 .441-.238c.117 0 .236.037.357.112.121.075.26.156.413.245.159.089.343.17.553.245.215.075.471.112.77.112.317 0 .597-.051.84-.154.243-.103.444-.245.602-.427.163-.187.285-.406.364-.658.084-.257.126-.534.126-.833 0-.55-.16-.98-.483-1.288-.317-.313-.788-.469-1.414-.469-.48 0-.973.089-1.477.266l-1.078-.308.84-4.914h4.998v.735a.814.814 0 0 1-.23.602c-.155.154-.416.231-.785.231h-2.779l-.357 2.107z"/></mask><path d="M20.755 73.878V84h-1.89v-4.424h-4.753V84h-1.89V73.878h1.89v4.354h4.753v-4.354h1.89zM30.079 75.425h-3.052V84h-1.883v-8.575h-3.052v-1.547h7.987v1.547zM42.38 73.878V84h-1.66v-6.538c0-.261.014-.544.042-.847l-3.059 5.747c-.144.275-.366.413-.665.413h-.266c-.298 0-.52-.138-.665-.413l-3.094-5.768c.014.154.026.306.035.455.01.15.014.287.014.413V84h-1.659V73.878h1.421c.084 0 .157.002.217.007.061.005.115.016.161.035a.325.325 0 0 1 .133.091.709.709 0 0 1 .12.168l3.03 5.621c.08.15.152.303.217.462.07.159.138.322.203.49a9.96 9.96 0 0 1 .427-.966l2.99-5.607a.706.706 0 0 1 .118-.168.399.399 0 0 1 .133-.091.63.63 0 0 1 .168-.035c.061-.005.133-.007.217-.007h1.421zM50.567 82.446V84h-5.93V73.878h1.884v8.568h4.046zM53.626 77.553c.224-.047.439-.08.644-.098a5.28 5.28 0 0 1 .595-.035c.532 0 1.001.08 1.407.238.406.159.747.378 1.022.658.276.28.483.609.623.987.14.373.21.777.21 1.211 0 .537-.096 1.027-.287 1.47a3.322 3.322 0 0 1-.784 1.141 3.568 3.568 0 0 1-1.197.728 4.207 4.207 0 0 1-1.498.259 4.03 4.03 0 0 1-.903-.098 4.776 4.776 0 0 1-.805-.259 5.174 5.174 0 0 1-.693-.378 4.74 4.74 0 0 1-.567-.455l.532-.735a.516.516 0 0 1 .441-.238c.117 0 .236.037.357.112.121.075.26.156.413.245.159.089.343.17.553.245.215.075.471.112.77.112.317 0 .597-.051.84-.154.243-.103.444-.245.602-.427.163-.187.285-.406.364-.658.084-.257.126-.534.126-.833 0-.55-.16-.98-.483-1.288-.317-.313-.788-.469-1.414-.469-.48 0-.973.089-1.477.266l-1.078-.308.84-4.914h4.998v.735a.814.814 0 0 1-.23.602c-.155.154-.416.231-.785.231h-2.779l-.357 2.107z" fill="#000"/><path d="M20.755 73.878h2v-2h-2v2zm0 10.122v2h2v-2h-2zm-1.89 0h-2v2h2v-2zm0-4.424h2v-2h-2v2zm-4.753 0v-2h-2v2h2zm0 4.424v2h2v-2h-2zm-1.89 0h-2v2h2v-2zm0-10.122v-2h-2v2h2zm1.89 0h2v-2h-2v2zm0 4.354h-2v2h2v-2zm4.753 0v2h2v-2h-2zm0-4.354v-2h-2v2h2zm11.214 1.547v2h2v-2h-2zm-3.052 0v-2h-2v2h2zm0 8.575v2h2v-2h-2zm-1.883 0h-2v2h2v-2zm0-8.575h2v-2h-2v2zm-3.052 0h-2v2h2v-2zm0-1.547v-2h-2v2h2zm7.987 0h2v-2h-2v2zm12.3 0h2v-2h-2v2zm0 10.122v2h2v-2h-2zm-1.659 0h-2v2h2v-2zm.042-7.385 1.992.184-3.757-1.124 1.765.94zm-3.059 5.747-1.765-.94-.005.01 1.77.93zm-1.596 0 1.77-.93-.003-.008-.004-.007-1.763.945zm-3.094-5.768 1.763-.945-3.754 1.126 1.991-.181zm.035.455-1.996.125 1.996-.125zM33.062 84v2h2v-2h-2zm-1.659 0h-2v2h2v-2zm0-10.122v-2h-2v2h2zm1.638.007-.153 1.994.153-1.994zm.161.035-.742 1.857.03.012.029.01.683-1.879zm.133.091-1.494 1.329.039.044.041.041 1.414-1.414zm.12.168-1.765.941.004.008 1.76-.949zm3.03 5.621 1.767-.938-.006-.011-1.76.949zm.217.462-1.849.761.01.023.01.023 1.83-.807zm.203.49-1.864.725 1.89 4.859 1.845-4.876-1.87-.708zm.203-.497 1.83.807.005-.01.004-.01-1.839-.787zm.224-.469-1.764-.94-.002.002 1.766.938zm2.99-5.607-1.765-.941 1.764.941zm.251-.259-.683-1.88-.03.011-.03.012.743 1.857zm.168-.035.154 1.994-.154-1.994zm9.826 8.561h2v-2h-2v2zm0 1.554v2h2v-2h-2zm-5.93 0h-2v2h2v-2zm0-10.122v-2h-2v2h2zm1.884 0h2v-2h-2v2zm0 8.568h-2v2h2v-2zm7.105-4.893-1.972-.334-.49 2.89 2.87-.598-.408-1.958zm.644-.098.181 1.992.023-.002.022-.003-.226-1.987zm2.002.203-.728 1.863.728-1.863zm1.022.658 1.426-1.402-1.426 1.402zm.623.987-1.875.695.002.007 1.873-.702zm-.077 2.681-1.836-.792L56 81.2l-.003.008 1.843.776zm-.784 1.141 1.363 1.464.005-.005.005-.005-1.373-1.454zm-1.197.728-.7-1.873-.006.002.706 1.871zm-2.4.161.447-1.95-.448 1.95zm-.806-.259-.825 1.822.02.01.022.008.783-1.84zm-.693-.378-1.134 1.647.02.014.022.014 1.092-1.675zm-.567-.455-1.62-1.173-1.029 1.422 1.276 1.205 1.373-1.454zm.532-.735 1.62 1.173.007-.01.007-.01-1.634-1.153zm1.211.119-.998 1.733.011.007.011.006.976-1.746zm.553.245-.67 1.885.013.004.657-1.889zm2.212-.469-1.505-1.317-.002.003 1.507 1.314zm.364-.658-1.9-.622-.004.01-.003.011 1.907.601zm-.357-2.121-1.404 1.425.011.01.01.01 1.383-1.445zm-2.89-.203-.55 1.923.612.175.601-.211-.664-1.887zm-1.079-.308-1.971-.337-.302 1.767 1.724.493.55-1.923zm.84-4.914v-2h-1.687l-.284 1.663 1.971.337zm4.998 0h2v-2h-2v2zm-.23 1.337-1.415-1.414 1.414 1.414zm-3.564.231v-2h-1.69l-.282 1.666 1.972.334zm-35.228-1.568V84h4V73.878h-4zm2 8.122h-1.89v4h1.89v-4zm.11 2v-4.424h-4V84h4zm-2-6.424h-4.753v4h4.753v-4zm-6.753 2V84h4v-4.424h-4zm2 2.424h-1.89v4h1.89v-4zm.11 2V73.878h-4V84h4zm-2-8.122h1.89v-4h-1.89v4zm-.11-2v4.354h4v-4.354h-4zm2 6.354h4.753v-4h-4.753v4zm6.753-2v-4.354h-4v4.354h4zm-2-2.354h1.89v-4h-1.89v4zm11.214-2.453h-3.052v4h3.052v-4zm-5.052 2V84h4v-8.575h-4zm2 6.575h-1.883v4h1.883v-4zm.117 2v-8.575h-4V84h4zm-2-10.575h-3.052v4h3.052v-4zm-1.052 2v-1.547h-4v1.547h4zm-2 .453h7.987v-4h-7.987v4zm5.987-2v1.547h4v-1.547h-4zm12.3 0V84h4V73.878h-4zm2 8.122H40.72v4h1.66v-4zm.341 2v-6.538h-4V84h4zm0-6.538c0-.19.01-.411.034-.663l-3.983-.368c-.033.355-.05.7-.05 1.031h4zm-3.723-1.787-3.06 5.747 3.532 1.88 3.059-5.747-3.531-1.88zm-3.064 5.757a1.23 1.23 0 0 1 .44-.46 1.28 1.28 0 0 1 .665-.197v4c.468 0 .974-.112 1.446-.404.467-.29.784-.686.99-1.079l-3.541-1.86zm1.105-.657h-.266v4h.266v-4zm-.266 0c.169 0 .416.043.665.198.246.152.38.342.44.459l-3.54 1.86c.206.392.523.789.99 1.079.471.293.978.404 1.445.404v-4zm1.098.642-3.094-5.768-3.525 1.89 3.094 5.768 3.525-1.89zm-6.848-4.642c.012.136.022.269.03.399l3.992-.25c-.01-.169-.023-.339-.039-.511l-3.983.362zm.03.399c.008.115.01.21.01.288h4c0-.174-.006-.354-.017-.538l-3.993.25zm.01.288V84h4v-6.538h-4zm2 4.538h-1.659v4h1.66v-4zm.341 2V73.878h-4V84h4zm-2-8.122h1.421v-4h-1.42v4zm1.421 0h.053l.011.001.307-3.988a4.835 4.835 0 0 0-.37-.013v4zm.064.001a1.46 1.46 0 0 1-.428-.102l1.485-3.714a2.544 2.544 0 0 0-.75-.172l-.307 3.988zm-.37-.08a1.675 1.675 0 0 1-.677-.46l2.99-2.657a2.324 2.324 0 0 0-.945-.642l-1.367 3.76zm-.597-.374a1.307 1.307 0 0 1-.231-.305l3.53-1.882a2.698 2.698 0 0 0-.47-.641l-2.829 2.828zm-.227-.297 3.031 5.621 3.52-1.898-3.03-5.621-3.521 1.898zm3.025 5.61c.048.091.093.186.134.285l3.699-1.522a7.188 7.188 0 0 0-.3-.64l-3.533 1.877zm.154.331c.057.13.113.266.168.408l3.728-1.45a13.866 13.866 0 0 0-.237-.572l-3.66 1.614zm3.903.39c.053-.14.108-.273.162-.397l-3.66-1.614c-.085.193-.166.392-.243.596l3.741 1.416zm.17-.416c.05-.115.1-.22.153-.319l-3.533-1.876c-.107.2-.205.407-.296.62l3.677 1.575zm.151-.316 2.99-5.607-3.53-1.882-2.99 5.607 3.53 1.882zm2.99-5.607a1.31 1.31 0 0 1-.232.305l-2.829-2.828c-.22.22-.368.451-.47.64l3.53 1.883zm-.232.305a1.604 1.604 0 0 1-.539.352l-1.485-3.714c-.34.136-.606.335-.805.534l2.829 2.828zm-.598.375a1.37 1.37 0 0 1-.362.08l-.307-3.99a2.63 2.63 0 0 0-.698.15l1.367 3.76zm-.362.08.01-.001.053-.001v-4c-.117 0-.243.003-.37.013l.307 3.988zm.063-.002h1.421v-4h-1.42v4zm7.609 6.568V84h4v-1.554h-4zm2-.446h-5.93v4h5.93v-4zm-3.93 2V73.878h-4V84h4zm-2-8.122h1.884v-4h-1.883v4zm-.116-2v8.568h4v-8.568h-4zm2 10.568h4.046v-4H46.52v4zm7.513-4.935a3.67 3.67 0 0 1 .417-.064l-.362-3.984c-.29.027-.58.071-.87.132l.815 3.916zm.462-.069c.136-.015.259-.022.37-.022v-4c-.273 0-.547.017-.822.048l.452 3.974zm.37-.022c.335 0 .55.05.678.1L57 75.796c-.683-.267-1.407-.375-2.135-.375v4zm.678.1c.173.068.267.14.324.198l2.852-2.804A4.878 4.878 0 0 0 57 75.795l-1.456 3.726zm.324.198c.072.073.13.16.174.28l3.75-1.39a4.754 4.754 0 0 0-1.072-1.694l-2.852 2.804zm.176.287c.05.13.083.294.083.509h4a5.42 5.42 0 0 0-.337-1.913l-3.745 1.404zm.083.509c0 .295-.051.511-.123.678l3.672 1.585c.311-.72.451-1.484.451-2.263h-4zm-.13.694a1.324 1.324 0 0 1-.314.463l2.746 2.908a5.322 5.322 0 0 0 1.255-1.819l-3.687-1.552zm-.303.453c-.13.121-.3.23-.535.319l1.4 3.746a5.567 5.567 0 0 0 1.86-1.137l-2.725-2.928zm-.541.32c-.209.08-.466.131-.792.131v4c.757 0 1.498-.121 2.205-.388l-1.413-3.742zm-.792.131c-.18 0-.33-.018-.455-.047l-.895 3.898c.443.102.895.149 1.35.149v-4zm-.455-.047a2.785 2.785 0 0 1-.47-.15l-1.566 3.68c.367.157.749.278 1.14.368l.896-3.898zm-.428-.132a3.177 3.177 0 0 1-.425-.231l-2.185 3.35c.304.199.625.373.96.525l1.65-3.644zm-.383-.203a2.76 2.76 0 0 1-.329-.262l-2.746 2.908c.25.236.52.451.806.648l2.269-3.294zm-.082 2.365.532-.735-3.24-2.346-.532.735 3.24 2.346zm.546-.755a1.49 1.49 0 0 1-1.193.609v-4c-.881 0-1.618.437-2.075 1.085l3.268 2.306zm-1.193.609a1.33 1.33 0 0 1-.691-.185l2.096-3.406a2.675 2.675 0 0 0-1.405-.409v4zm-.691-.185c.141.087.296.18.463.275l1.996-3.466a14.75 14.75 0 0 1-.363-.215l-2.096 3.406zm.486.288c.275.154.565.28.858.383l1.34-3.768a1.67 1.67 0 0 1-.247-.107l-1.952 3.492zm.871.388c.48.167.971.223 1.427.223v-4a.927.927 0 0 1-.128-.007c-.02-.003-.013-.004.015.006l-1.314 3.778zm1.427.223c.532 0 1.085-.086 1.62-.312l-1.56-3.684c.05-.02.043-.004-.06-.004v4zm1.62-.312a3.62 3.62 0 0 0 1.33-.955l-3.015-2.628a.473.473 0 0 1 .126-.1l1.558 3.683zm1.327-.952c.358-.408.61-.876.767-1.374l-3.816-1.202c-.001.006 0 0 .008-.014a.263.263 0 0 1 .031-.044l3.01 2.634zm.76-1.353a4.66 4.66 0 0 0 .225-1.455h-4c0 .11-.015.175-.027.21l3.802 1.245zm.225-1.455c0-.96-.294-1.962-1.1-2.733l-2.765 2.89a.558.558 0 0 1-.128-.19c-.019-.05-.007-.05-.007.033h4zm-1.08-2.713c-.82-.808-1.88-1.044-2.817-1.044v4c.074 0 .126.005.158.01.032.004.042.008.035.006a.606.606 0 0 1-.183-.122l2.808-2.85zm-2.817-1.044a6.43 6.43 0 0 0-2.14.38l1.327 3.773c.314-.111.582-.153.813-.153v-4zm-.927.343-1.078-.308-1.1 3.846 1.079.308 1.099-3.846zm.344 1.952.84-4.914-3.943-.674-.84 4.914 3.943.674zm-1.132-3.251h4.998v-4H52.78v4zm2.998-2v.735h4v-.735h-4zm0 .735c0-.085.014-.22.075-.38.064-.166.162-.314.28-.432l2.828 2.828a2.812 2.812 0 0 0 .817-2.016h-4zm.355-.812c.212-.212.427-.299.537-.331.105-.031.149-.024.093-.024v4c.554 0 1.48-.1 2.198-.817l-2.828-2.828zm.63-.355h-2.779v4h2.78v-4zm-4.75 1.666-.358 2.107 3.944.668.357-2.107-3.944-.668z" fill="#fff" mask="url(#a)"/><path d="M11.965 59.607 6.728.869h57.544L59.03 59.6 35.465 66.13l-23.5-6.524z" fill="#E44D26"/><path d="m35.5 61.138 19.042-5.28 4.48-50.186H35.5v55.466z" fill="#F16529"/><path d="M35.5 27.457h-9.533l-.658-7.377H35.5v-7.204H17.436l.172 1.933 1.77 19.852H35.5v-7.204zm0 18.71-.032.008-8.023-2.167-.512-5.745H19.7l1.009 11.311 14.757 4.097.033-.01v-7.495z" fill="#EBEBEB"/><path d="M35.475 27.457v7.204h8.87l-.835 9.343-8.035 2.168v7.495l14.769-4.093.108-1.217 1.693-18.965.175-1.935H35.475zm0-14.581v7.204h17.401l.145-1.619.328-3.652.172-1.933H35.475z" fill="#fff"/></svg>