<svg width="60" height="81" viewBox="0 0 70 91" fill="none" xmlns="http://www.w3.org/2000/svg"><mask id="a" maskUnits="userSpaceOnUse" x=".558" y="70.619" width="69" height="17" fill="#000"><path fill="#fff" d="M.558 70.619h69v17h-69z"/><path d="M8.388 79.402c0 .57-.07 1.083-.21 1.54-.14.457-.35.847-.63 1.169-.275.322-.62.57-1.036.742-.415.173-.898.259-1.449.259-.252 0-.499-.016-.742-.049a6.177 6.177 0 0 1-.763-.14c.014-.187.03-.373.05-.56.018-.187.034-.373.048-.56a.395.395 0 0 1 .12-.245.415.415 0 0 1 .293-.098c.08 0 .182.016.308.049.131.033.294.049.49.049.266 0 .502-.037.707-.112.206-.08.376-.203.511-.371.14-.168.245-.385.315-.651.07-.27.105-.597.105-.98v-6.566h1.883v6.524zM13.822 79.934c-.5.023-.92.068-1.26.133-.34.06-.614.14-.82.238-.205.098-.352.212-.44.343a.746.746 0 0 0-.133.427c0 .303.088.52.266.651.182.13.417.196.707.196.354 0 .66-.063.917-.189.261-.13.516-.327.763-.588v-1.211zM9.86 76.819c.826-.756 1.82-1.134 2.982-1.134.42 0 .795.07 1.127.21.331.135.611.327.84.574.229.243.401.534.518.875.121.34.182.714.182 1.12V83h-.784a.826.826 0 0 1-.378-.07c-.089-.051-.159-.152-.21-.301l-.154-.518c-.182.163-.36.308-.532.434a3.27 3.27 0 0 1-.54.308 2.745 2.745 0 0 1-.601.189 3.23 3.23 0 0 1-.7.07c-.303 0-.583-.04-.84-.119a1.89 1.89 0 0 1-.665-.371 1.65 1.65 0 0 1-.434-.609 2.16 2.16 0 0 1-.154-.847 1.655 1.655 0 0 1 .385-1.057c.14-.163.32-.317.539-.462.22-.145.487-.27.805-.378a6.867 6.867 0 0 1 1.12-.259c.425-.07.91-.112 1.456-.126v-.42c0-.48-.103-.835-.308-1.064-.205-.233-.502-.35-.89-.35-.28 0-.513.033-.7.098a2.73 2.73 0 0 0-.482.224l-.385.217a.737.737 0 0 1-.378.098.512.512 0 0 1-.308-.091.836.836 0 0 1-.203-.224l-.308-.553zM23.448 75.818 20.6 83h-1.568l-2.849-7.182h1.428c.13 0 .238.03.322.091.089.06.147.138.175.231l1.386 3.836a10.292 10.292 0 0 1 .343 1.302c.047-.215.098-.43.154-.644.056-.215.124-.434.203-.658l1.414-3.836a.473.473 0 0 1 .175-.231.5.5 0 0 1 .301-.091h1.365zM27.986 79.934c-.5.023-.92.068-1.26.133-.34.06-.614.14-.82.238-.204.098-.351.212-.44.343a.745.745 0 0 0-.133.427c0 .303.089.52.266.651.182.13.418.196.707.196.355 0 .66-.063.917-.189.261-.13.516-.327.763-.588v-1.211zm-3.962-3.115c.826-.756 1.82-1.134 2.982-1.134.42 0 .796.07 1.127.21.331.135.611.327.84.574.229.243.401.534.518.875.121.34.182.714.182 1.12V83h-.784a.826.826 0 0 1-.378-.07c-.089-.051-.159-.152-.21-.301l-.154-.518c-.182.163-.36.308-.532.434a3.273 3.273 0 0 1-.54.308 2.747 2.747 0 0 1-.601.189 3.23 3.23 0 0 1-.7.07c-.303 0-.583-.04-.84-.119a1.889 1.889 0 0 1-.665-.371 1.65 1.65 0 0 1-.434-.609 2.16 2.16 0 0 1-.154-.847 1.654 1.654 0 0 1 .385-1.057c.14-.163.32-.317.539-.462.22-.145.488-.27.805-.378a6.864 6.864 0 0 1 1.12-.259c.425-.07.91-.112 1.456-.126v-.42c0-.48-.103-.835-.308-1.064-.205-.233-.502-.35-.89-.35-.28 0-.512.033-.7.098a2.73 2.73 0 0 0-.482.224l-.385.217a.737.737 0 0 1-.378.098.512.512 0 0 1-.308-.091.835.835 0 0 1-.203-.224l-.308-.553zM36.855 74.719a.67.67 0 0 1-.182.217.397.397 0 0 1-.231.063.636.636 0 0 1-.322-.105 6.141 6.141 0 0 0-.406-.245 3.153 3.153 0 0 0-.56-.238 2.24 2.24 0 0 0-.75-.112c-.26 0-.49.033-.685.098-.196.06-.362.147-.497.259-.13.112-.229.247-.294.406a1.296 1.296 0 0 0-.098.511c0 .238.065.436.196.595.135.159.313.294.532.406.22.112.469.212.749.301s.567.184.86.287c.295.098.582.215.862.35.28.13.53.299.749.504.22.2.394.448.525.742.135.294.203.651.203 1.071 0 .457-.08.887-.238 1.288a2.942 2.942 0 0 1-.686 1.043 3.264 3.264 0 0 1-1.1.7c-.433.168-.93.252-1.49.252-.322 0-.64-.033-.952-.098a4.907 4.907 0 0 1-.903-.266 4.88 4.88 0 0 1-.805-.42 3.895 3.895 0 0 1-.672-.546l.553-.903a.553.553 0 0 1 .182-.161.441.441 0 0 1 .238-.07c.117 0 .243.049.378.147.135.093.296.198.483.315.187.117.404.224.65.322.253.093.554.14.904.14.537 0 .952-.126 1.246-.378.294-.257.44-.623.44-1.099 0-.266-.067-.483-.202-.651a1.537 1.537 0 0 0-.525-.42 3.791 3.791 0 0 0-.75-.294c-.28-.08-.564-.166-.853-.259a7.355 7.355 0 0 1-.854-.336c-.28-.13-.53-.301-.75-.511a2.375 2.375 0 0 1-.531-.784c-.13-.317-.196-.707-.196-1.169 0-.369.072-.728.217-1.078.15-.35.364-.66.644-.931.28-.27.625-.488 1.036-.651.41-.163.882-.245 1.414-.245.597 0 1.148.093 1.652.28a3.73 3.73 0 0 1 1.288.784l-.47.889zM43.993 77.337a.796.796 0 0 1-.154.154c-.047.037-.117.056-.21.056a.491.491 0 0 1-.259-.077 4.581 4.581 0 0 0-.3-.182 1.953 1.953 0 0 0-.42-.182 1.807 1.807 0 0 0-.596-.084c-.303 0-.57.056-.798.168-.228.107-.42.264-.574.469-.15.205-.261.455-.336.749-.074.29-.112.618-.112.987 0 .383.04.723.12 1.022.083.299.202.55.356.756.154.2.34.355.56.462.22.103.467.154.742.154.276 0 .497-.033.665-.098.173-.07.318-.145.434-.224.117-.084.217-.159.301-.224a.464.464 0 0 1 .294-.105c.14 0 .245.054.315.161l.497.63a3.219 3.219 0 0 1-.623.567 3.57 3.57 0 0 1-.7.364 3.6 3.6 0 0 1-.742.189 5.157 5.157 0 0 1-.756.056c-.443 0-.86-.082-1.253-.245a3 3 0 0 1-1.029-.728 3.512 3.512 0 0 1-.7-1.162c-.168-.462-.252-.987-.252-1.575 0-.527.075-1.015.224-1.463.154-.453.378-.842.672-1.169.294-.331.658-.59 1.092-.777.434-.187.934-.28 1.498-.28.537 0 1.006.086 1.407.259.406.173.77.42 1.092.742l-.455.63zM47.233 77.064c.224-.43.49-.765.798-1.008a1.691 1.691 0 0 1 1.092-.371c.331 0 .597.072.798.217l-.112 1.295a.342.342 0 0 1-.105.182.278.278 0 0 1-.175.049 2.11 2.11 0 0 1-.315-.035 2.348 2.348 0 0 0-.399-.035 1.45 1.45 0 0 0-.511.084c-.15.056-.285.138-.406.245a1.7 1.7 0 0 0-.315.378 4.03 4.03 0 0 0-.252.511V83h-1.729v-7.182h1.015c.177 0 .301.033.371.098.07.06.117.173.14.336l.105.812zM52.617 75.818V83H50.88v-7.182h1.736zm.238-2.093c0 .15-.03.29-.091.42s-.143.245-.245.343a1.162 1.162 0 0 1-.35.238c-.136.056-.28.084-.434.084-.15 0-.292-.028-.427-.084a1.188 1.188 0 0 1-.581-.581 1.124 1.124 0 0 1 0-.854c.06-.135.14-.252.238-.35.098-.098.212-.175.343-.231.135-.06.277-.091.427-.091.154 0 .298.03.434.091.135.056.252.133.35.231a1.1 1.1 0 0 1 .245.35c.06.135.09.28.09.434zM56.108 81.138c.196.238.409.406.637.504.234.098.486.147.756.147.262 0 .497-.049.707-.147.21-.098.388-.247.532-.448.15-.2.264-.453.343-.756.08-.308.12-.67.12-1.085a4.6 4.6 0 0 0-.106-1.064 2.018 2.018 0 0 0-.287-.714 1.141 1.141 0 0 0-.462-.399 1.406 1.406 0 0 0-.609-.126c-.359 0-.665.077-.917.231-.252.15-.49.362-.714.637v3.22zm-.09-4.34c.293-.331.627-.6 1-.805.374-.205.812-.308 1.316-.308.392 0 .75.082 1.071.245.327.163.607.401.84.714.238.308.42.69.546 1.148.131.453.196.973.196 1.561 0 .537-.072 1.034-.217 1.491a3.611 3.611 0 0 1-.623 1.19c-.266.336-.59.6-.973.791-.378.187-.802.28-1.274.28-.4 0-.744-.06-1.029-.182a2.568 2.568 0 0 1-.763-.518v2.94H54.38v-9.527h1.057c.224 0 .371.105.441.315l.14.665zM64.635 83.112c-.626 0-1.106-.175-1.442-.525-.332-.355-.497-.842-.497-1.463v-4.011h-.735a.337.337 0 0 1-.238-.091c-.066-.06-.098-.152-.098-.273v-.686l1.155-.189.364-1.96a.385.385 0 0 1 .133-.217.396.396 0 0 1 .252-.077h.896v2.261h1.918v1.232h-1.918v3.892c0 .224.053.399.16.525a.578.578 0 0 0 .456.189.855.855 0 0 0 .266-.035c.074-.028.137-.056.189-.084.056-.028.105-.054.147-.077a.226.226 0 0 1 .126-.042c.051 0 .093.014.126.042.032.023.067.06.105.112l.518.84c-.252.21-.542.369-.868.476a3.231 3.231 0 0 1-1.015.161z"/></mask><path d="M8.388 79.402c0 .57-.07 1.083-.21 1.54-.14.457-.35.847-.63 1.169-.275.322-.62.57-1.036.742-.415.173-.898.259-1.449.259-.252 0-.499-.016-.742-.049a6.177 6.177 0 0 1-.763-.14c.014-.187.03-.373.05-.56.018-.187.034-.373.048-.56a.395.395 0 0 1 .12-.245.415.415 0 0 1 .293-.098c.08 0 .182.016.308.049.131.033.294.049.49.049.266 0 .502-.037.707-.112.206-.08.376-.203.511-.371.14-.168.245-.385.315-.651.07-.27.105-.597.105-.98v-6.566h1.883v6.524zM13.822 79.934c-.5.023-.92.068-1.26.133-.34.06-.614.14-.82.238-.205.098-.352.212-.44.343a.746.746 0 0 0-.133.427c0 .303.088.52.266.651.182.13.417.196.707.196.354 0 .66-.063.917-.189.261-.13.516-.327.763-.588v-1.211zM9.86 76.819c.826-.756 1.82-1.134 2.982-1.134.42 0 .795.07 1.127.21.331.135.611.327.84.574.229.243.401.534.518.875.121.34.182.714.182 1.12V83h-.784a.826.826 0 0 1-.378-.07c-.089-.051-.159-.152-.21-.301l-.154-.518c-.182.163-.36.308-.532.434a3.27 3.27 0 0 1-.54.308 2.745 2.745 0 0 1-.601.189 3.23 3.23 0 0 1-.7.07c-.303 0-.583-.04-.84-.119a1.89 1.89 0 0 1-.665-.371 1.65 1.65 0 0 1-.434-.609 2.16 2.16 0 0 1-.154-.847 1.655 1.655 0 0 1 .385-1.057c.14-.163.32-.317.539-.462.22-.145.487-.27.805-.378a6.867 6.867 0 0 1 1.12-.259c.425-.07.91-.112 1.456-.126v-.42c0-.48-.103-.835-.308-1.064-.205-.233-.502-.35-.89-.35-.28 0-.513.033-.7.098a2.73 2.73 0 0 0-.482.224l-.385.217a.737.737 0 0 1-.378.098.512.512 0 0 1-.308-.091.836.836 0 0 1-.203-.224l-.308-.553zM23.448 75.818 20.6 83h-1.568l-2.849-7.182h1.428c.13 0 .238.03.322.091.089.06.147.138.175.231l1.386 3.836a10.292 10.292 0 0 1 .343 1.302c.047-.215.098-.43.154-.644.056-.215.124-.434.203-.658l1.414-3.836a.473.473 0 0 1 .175-.231.5.5 0 0 1 .301-.091h1.365zM27.986 79.934c-.5.023-.92.068-1.26.133-.34.06-.614.14-.82.238-.204.098-.351.212-.44.343a.745.745 0 0 0-.133.427c0 .303.089.52.266.651.182.13.418.196.707.196.355 0 .66-.063.917-.189.261-.13.516-.327.763-.588v-1.211zm-3.962-3.115c.826-.756 1.82-1.134 2.982-1.134.42 0 .796.07 1.127.21.331.135.611.327.84.574.229.243.401.534.518.875.121.34.182.714.182 1.12V83h-.784a.826.826 0 0 1-.378-.07c-.089-.051-.159-.152-.21-.301l-.154-.518c-.182.163-.36.308-.532.434a3.273 3.273 0 0 1-.54.308 2.747 2.747 0 0 1-.601.189 3.23 3.23 0 0 1-.7.07c-.303 0-.583-.04-.84-.119a1.889 1.889 0 0 1-.665-.371 1.65 1.65 0 0 1-.434-.609 2.16 2.16 0 0 1-.154-.847 1.654 1.654 0 0 1 .385-1.057c.14-.163.32-.317.539-.462.22-.145.488-.27.805-.378a6.864 6.864 0 0 1 1.12-.259c.425-.07.91-.112 1.456-.126v-.42c0-.48-.103-.835-.308-1.064-.205-.233-.502-.35-.89-.35-.28 0-.512.033-.7.098a2.73 2.73 0 0 0-.482.224l-.385.217a.737.737 0 0 1-.378.098.512.512 0 0 1-.308-.091.835.835 0 0 1-.203-.224l-.308-.553zM36.855 74.719a.67.67 0 0 1-.182.217.397.397 0 0 1-.231.063.636.636 0 0 1-.322-.105 6.141 6.141 0 0 0-.406-.245 3.153 3.153 0 0 0-.56-.238 2.24 2.24 0 0 0-.75-.112c-.26 0-.49.033-.685.098-.196.06-.362.147-.497.259-.13.112-.229.247-.294.406a1.296 1.296 0 0 0-.098.511c0 .238.065.436.196.595.135.159.313.294.532.406.22.112.469.212.749.301s.567.184.86.287c.295.098.582.215.862.35.28.13.53.299.749.504.22.2.394.448.525.742.135.294.203.651.203 1.071 0 .457-.08.887-.238 1.288a2.942 2.942 0 0 1-.686 1.043 3.264 3.264 0 0 1-1.1.7c-.433.168-.93.252-1.49.252-.322 0-.64-.033-.952-.098a4.907 4.907 0 0 1-.903-.266 4.88 4.88 0 0 1-.805-.42 3.895 3.895 0 0 1-.672-.546l.553-.903a.553.553 0 0 1 .182-.161.441.441 0 0 1 .238-.07c.117 0 .243.049.378.147.135.093.296.198.483.315.187.117.404.224.65.322.253.093.554.14.904.14.537 0 .952-.126 1.246-.378.294-.257.44-.623.44-1.099 0-.266-.067-.483-.202-.651a1.537 1.537 0 0 0-.525-.42 3.791 3.791 0 0 0-.75-.294c-.28-.08-.564-.166-.853-.259a7.355 7.355 0 0 1-.854-.336c-.28-.13-.53-.301-.75-.511a2.375 2.375 0 0 1-.531-.784c-.13-.317-.196-.707-.196-1.169 0-.369.072-.728.217-1.078.15-.35.364-.66.644-.931.28-.27.625-.488 1.036-.651.41-.163.882-.245 1.414-.245.597 0 1.148.093 1.652.28a3.73 3.73 0 0 1 1.288.784l-.47.889zM43.993 77.337a.796.796 0 0 1-.154.154c-.047.037-.117.056-.21.056a.491.491 0 0 1-.259-.077 4.581 4.581 0 0 0-.3-.182 1.953 1.953 0 0 0-.42-.182 1.807 1.807 0 0 0-.596-.084c-.303 0-.57.056-.798.168-.228.107-.42.264-.574.469-.15.205-.261.455-.336.749-.074.29-.112.618-.112.987 0 .383.04.723.12 1.022.083.299.202.55.356.756.154.2.34.355.56.462.22.103.467.154.742.154.276 0 .497-.033.665-.098.173-.07.318-.145.434-.224.117-.084.217-.159.301-.224a.464.464 0 0 1 .294-.105c.14 0 .245.054.315.161l.497.63a3.219 3.219 0 0 1-.623.567 3.57 3.57 0 0 1-.7.364 3.6 3.6 0 0 1-.742.189 5.157 5.157 0 0 1-.756.056c-.443 0-.86-.082-1.253-.245a3 3 0 0 1-1.029-.728 3.512 3.512 0 0 1-.7-1.162c-.168-.462-.252-.987-.252-1.575 0-.527.075-1.015.224-1.463.154-.453.378-.842.672-1.169.294-.331.658-.59 1.092-.777.434-.187.934-.28 1.498-.28.537 0 1.006.086 1.407.259.406.173.77.42 1.092.742l-.455.63zM47.233 77.064c.224-.43.49-.765.798-1.008a1.691 1.691 0 0 1 1.092-.371c.331 0 .597.072.798.217l-.112 1.295a.342.342 0 0 1-.105.182.278.278 0 0 1-.175.049 2.11 2.11 0 0 1-.315-.035 2.348 2.348 0 0 0-.399-.035 1.45 1.45 0 0 0-.511.084c-.15.056-.285.138-.406.245a1.7 1.7 0 0 0-.315.378 4.03 4.03 0 0 0-.252.511V83h-1.729v-7.182h1.015c.177 0 .301.033.371.098.07.06.117.173.14.336l.105.812zM52.617 75.818V83H50.88v-7.182h1.736zm.238-2.093c0 .15-.03.29-.091.42s-.143.245-.245.343a1.162 1.162 0 0 1-.35.238c-.136.056-.28.084-.434.084-.15 0-.292-.028-.427-.084a1.188 1.188 0 0 1-.581-.581 1.124 1.124 0 0 1 0-.854c.06-.135.14-.252.238-.35.098-.098.212-.175.343-.231.135-.06.277-.091.427-.091.154 0 .298.03.434.091.135.056.252.133.35.231a1.1 1.1 0 0 1 .245.35c.06.135.09.28.09.434zM56.108 81.138c.196.238.409.406.637.504.234.098.486.147.756.147.262 0 .497-.049.707-.147.21-.098.388-.247.532-.448.15-.2.264-.453.343-.756.08-.308.12-.67.12-1.085a4.6 4.6 0 0 0-.106-1.064 2.018 2.018 0 0 0-.287-.714 1.141 1.141 0 0 0-.462-.399 1.406 1.406 0 0 0-.609-.126c-.359 0-.665.077-.917.231-.252.15-.49.362-.714.637v3.22zm-.09-4.34c.293-.331.627-.6 1-.805.374-.205.812-.308 1.316-.308.392 0 .75.082 1.071.245.327.163.607.401.84.714.238.308.42.69.546 1.148.131.453.196.973.196 1.561 0 .537-.072 1.034-.217 1.491a3.611 3.611 0 0 1-.623 1.19c-.266.336-.59.6-.973.791-.378.187-.802.28-1.274.28-.4 0-.744-.06-1.029-.182a2.568 2.568 0 0 1-.763-.518v2.94H54.38v-9.527h1.057c.224 0 .371.105.441.315l.14.665zM64.635 83.112c-.626 0-1.106-.175-1.442-.525-.332-.355-.497-.842-.497-1.463v-4.011h-.735a.337.337 0 0 1-.238-.091c-.066-.06-.098-.152-.098-.273v-.686l1.155-.189.364-1.96a.385.385 0 0 1 .133-.217.396.396 0 0 1 .252-.077h.896v2.261h1.918v1.232h-1.918v3.892c0 .224.053.399.16.525a.578.578 0 0 0 .456.189.855.855 0 0 0 .266-.035c.074-.028.137-.056.189-.084.056-.028.105-.054.147-.077a.226.226 0 0 1 .126-.042c.051 0 .093.014.126.042.032.023.067.06.105.112l.518.84c-.252.21-.542.369-.868.476a3.231 3.231 0 0 1-1.015.161z" fill="#000"/><path d="M8.388 79.402c0 .57-.07 1.083-.21 1.54-.14.457-.35.847-.63 1.169-.275.322-.62.57-1.036.742-.415.173-.898.259-1.449.259-.252 0-.499-.016-.742-.049a6.177 6.177 0 0 1-.763-.14c.014-.187.03-.373.05-.56.018-.187.034-.373.048-.56a.395.395 0 0 1 .12-.245.415.415 0 0 1 .293-.098c.08 0 .182.016.308.049.131.033.294.049.49.049.266 0 .502-.037.707-.112.206-.08.376-.203.511-.371.14-.168.245-.385.315-.651.07-.27.105-.597.105-.98v-6.566h1.883v6.524zM13.822 79.934c-.5.023-.92.068-1.26.133-.34.06-.614.14-.82.238-.205.098-.352.212-.44.343a.746.746 0 0 0-.133.427c0 .303.088.52.266.651.182.13.417.196.707.196.354 0 .66-.063.917-.189.261-.13.516-.327.763-.588v-1.211zM9.86 76.819c.826-.756 1.82-1.134 2.982-1.134.42 0 .795.07 1.127.21.331.135.611.327.84.574.229.243.401.534.518.875.121.34.182.714.182 1.12V83h-.784a.826.826 0 0 1-.378-.07c-.089-.051-.159-.152-.21-.301l-.154-.518c-.182.163-.36.308-.532.434a3.27 3.27 0 0 1-.54.308 2.745 2.745 0 0 1-.601.189 3.23 3.23 0 0 1-.7.07c-.303 0-.583-.04-.84-.119a1.89 1.89 0 0 1-.665-.371 1.65 1.65 0 0 1-.434-.609 2.16 2.16 0 0 1-.154-.847 1.655 1.655 0 0 1 .385-1.057c.14-.163.32-.317.539-.462.22-.145.487-.27.805-.378a6.867 6.867 0 0 1 1.12-.259c.425-.07.91-.112 1.456-.126v-.42c0-.48-.103-.835-.308-1.064-.205-.233-.502-.35-.89-.35-.28 0-.513.033-.7.098a2.73 2.73 0 0 0-.482.224l-.385.217a.737.737 0 0 1-.378.098.512.512 0 0 1-.308-.091.836.836 0 0 1-.203-.224l-.308-.553zM23.448 75.818 20.6 83h-1.568l-2.849-7.182h1.428c.13 0 .238.03.322.091.089.06.147.138.175.231l1.386 3.836a10.292 10.292 0 0 1 .343 1.302c.047-.215.098-.43.154-.644.056-.215.124-.434.203-.658l1.414-3.836a.473.473 0 0 1 .175-.231.5.5 0 0 1 .301-.091h1.365zM27.986 79.934c-.5.023-.92.068-1.26.133-.34.06-.614.14-.82.238-.204.098-.351.212-.44.343a.745.745 0 0 0-.133.427c0 .303.089.52.266.651.182.13.418.196.707.196.355 0 .66-.063.917-.189.261-.13.516-.327.763-.588v-1.211zm-3.962-3.115c.826-.756 1.82-1.134 2.982-1.134.42 0 .796.07 1.127.21.331.135.611.327.84.574.229.243.401.534.518.875.121.34.182.714.182 1.12V83h-.784a.826.826 0 0 1-.378-.07c-.089-.051-.159-.152-.21-.301l-.154-.518c-.182.163-.36.308-.532.434a3.273 3.273 0 0 1-.54.308 2.747 2.747 0 0 1-.601.189 3.23 3.23 0 0 1-.7.07c-.303 0-.583-.04-.84-.119a1.889 1.889 0 0 1-.665-.371 1.65 1.65 0 0 1-.434-.609 2.16 2.16 0 0 1-.154-.847 1.654 1.654 0 0 1 .385-1.057c.14-.163.32-.317.539-.462.22-.145.488-.27.805-.378a6.864 6.864 0 0 1 1.12-.259c.425-.07.91-.112 1.456-.126v-.42c0-.48-.103-.835-.308-1.064-.205-.233-.502-.35-.89-.35-.28 0-.512.033-.7.098a2.73 2.73 0 0 0-.482.224l-.385.217a.737.737 0 0 1-.378.098.512.512 0 0 1-.308-.091.835.835 0 0 1-.203-.224l-.308-.553zM36.855 74.719a.67.67 0 0 1-.182.217.397.397 0 0 1-.231.063.636.636 0 0 1-.322-.105 6.141 6.141 0 0 0-.406-.245 3.153 3.153 0 0 0-.56-.238 2.24 2.24 0 0 0-.75-.112c-.26 0-.49.033-.685.098-.196.06-.362.147-.497.259-.13.112-.229.247-.294.406a1.296 1.296 0 0 0-.098.511c0 .238.065.436.196.595.135.159.313.294.532.406.22.112.469.212.749.301s.567.184.86.287c.295.098.582.215.862.35.28.13.53.299.749.504.22.2.394.448.525.742.135.294.203.651.203 1.071 0 .457-.08.887-.238 1.288a2.942 2.942 0 0 1-.686 1.043 3.264 3.264 0 0 1-1.1.7c-.433.168-.93.252-1.49.252-.322 0-.64-.033-.952-.098a4.907 4.907 0 0 1-.903-.266 4.88 4.88 0 0 1-.805-.42 3.895 3.895 0 0 1-.672-.546l.553-.903a.553.553 0 0 1 .182-.161.441.441 0 0 1 .238-.07c.117 0 .243.049.378.147.135.093.296.198.483.315.187.117.404.224.65.322.253.093.554.14.904.14.537 0 .952-.126 1.246-.378.294-.257.44-.623.44-1.099 0-.266-.067-.483-.202-.651a1.537 1.537 0 0 0-.525-.42 3.791 3.791 0 0 0-.75-.294c-.28-.08-.564-.166-.853-.259a7.355 7.355 0 0 1-.854-.336c-.28-.13-.53-.301-.75-.511a2.375 2.375 0 0 1-.531-.784c-.13-.317-.196-.707-.196-1.169 0-.369.072-.728.217-1.078.15-.35.364-.66.644-.931.28-.27.625-.488 1.036-.651.41-.163.882-.245 1.414-.245.597 0 1.148.093 1.652.28a3.73 3.73 0 0 1 1.288.784l-.47.889zM43.993 77.337a.796.796 0 0 1-.154.154c-.047.037-.117.056-.21.056a.491.491 0 0 1-.259-.077 4.581 4.581 0 0 0-.3-.182 1.953 1.953 0 0 0-.42-.182 1.807 1.807 0 0 0-.596-.084c-.303 0-.57.056-.798.168-.228.107-.42.264-.574.469-.15.205-.261.455-.336.749-.074.29-.112.618-.112.987 0 .383.04.723.12 1.022.083.299.202.55.356.756.154.2.34.355.56.462.22.103.467.154.742.154.276 0 .497-.033.665-.098.173-.07.318-.145.434-.224.117-.084.217-.159.301-.224a.464.464 0 0 1 .294-.105c.14 0 .245.054.315.161l.497.63a3.219 3.219 0 0 1-.623.567 3.57 3.57 0 0 1-.7.364 3.6 3.6 0 0 1-.742.189 5.157 5.157 0 0 1-.756.056c-.443 0-.86-.082-1.253-.245a3 3 0 0 1-1.029-.728 3.512 3.512 0 0 1-.7-1.162c-.168-.462-.252-.987-.252-1.575 0-.527.075-1.015.224-1.463.154-.453.378-.842.672-1.169.294-.331.658-.59 1.092-.777.434-.187.934-.28 1.498-.28.537 0 1.006.086 1.407.259.406.173.77.42 1.092.742l-.455.63zM47.233 77.064c.224-.43.49-.765.798-1.008a1.691 1.691 0 0 1 1.092-.371c.331 0 .597.072.798.217l-.112 1.295a.342.342 0 0 1-.105.182.278.278 0 0 1-.175.049 2.11 2.11 0 0 1-.315-.035 2.348 2.348 0 0 0-.399-.035 1.45 1.45 0 0 0-.511.084c-.15.056-.285.138-.406.245a1.7 1.7 0 0 0-.315.378 4.03 4.03 0 0 0-.252.511V83h-1.729v-7.182h1.015c.177 0 .301.033.371.098.07.06.117.173.14.336l.105.812zM52.617 75.818V83H50.88v-7.182h1.736zm.238-2.093c0 .15-.03.29-.091.42s-.143.245-.245.343a1.162 1.162 0 0 1-.35.238c-.136.056-.28.084-.434.084-.15 0-.292-.028-.427-.084a1.188 1.188 0 0 1-.581-.581 1.124 1.124 0 0 1 0-.854c.06-.135.14-.252.238-.35.098-.098.212-.175.343-.231.135-.06.277-.091.427-.091.154 0 .298.03.434.091.135.056.252.133.35.231a1.1 1.1 0 0 1 .245.35c.06.135.09.28.09.434zM56.108 81.138c.196.238.409.406.637.504.234.098.486.147.756.147.262 0 .497-.049.707-.147.21-.098.388-.247.532-.448.15-.2.264-.453.343-.756.08-.308.12-.67.12-1.085a4.6 4.6 0 0 0-.106-1.064 2.018 2.018 0 0 0-.287-.714 1.141 1.141 0 0 0-.462-.399 1.406 1.406 0 0 0-.609-.126c-.359 0-.665.077-.917.231-.252.15-.49.362-.714.637v3.22zm-.09-4.34c.293-.331.627-.6 1-.805.374-.205.812-.308 1.316-.308.392 0 .75.082 1.071.245.327.163.607.401.84.714.238.308.42.69.546 1.148.131.453.196.973.196 1.561 0 .537-.072 1.034-.217 1.491a3.611 3.611 0 0 1-.623 1.19c-.266.336-.59.6-.973.791-.378.187-.802.28-1.274.28-.4 0-.744-.06-1.029-.182a2.568 2.568 0 0 1-.763-.518v2.94H54.38v-9.527h1.057c.224 0 .371.105.441.315l.14.665zM64.635 83.112c-.626 0-1.106-.175-1.442-.525-.332-.355-.497-.842-.497-1.463v-4.011h-.735a.337.337 0 0 1-.238-.091c-.066-.06-.098-.152-.098-.273v-.686l1.155-.189.364-1.96a.385.385 0 0 1 .133-.217.396.396 0 0 1 .252-.077h.896v2.261h1.918v1.232h-1.918v3.892c0 .224.053.399.16.525a.578.578 0 0 0 .456.189.855.855 0 0 0 .266-.035c.074-.028.137-.056.189-.084.056-.028.105-.054.147-.077a.226.226 0 0 1 .126-.042c.051 0 .093.014.126.042.032.023.067.06.105.112l.518.84c-.252.21-.542.369-.868.476a3.231 3.231 0 0 1-1.015.161z" stroke="#fff" stroke-width="4" mask="url(#a)"/><path d="M1.748.748h66.504v66.504H1.748V.748z" fill="#F0DB4F"/><path d="M62.81 51.391c-.488-3.034-2.466-5.582-8.326-7.959-2.036-.935-4.306-1.605-4.982-3.148-.24-.898-.272-1.403-.12-1.947.436-1.764 2.541-2.314 4.21-1.808 1.075.36 2.092 1.189 2.706 2.51 2.87-1.858 2.864-1.846 4.868-3.123-.734-1.138-1.125-1.663-1.606-2.15-1.726-1.927-4.078-2.92-7.839-2.844l-1.96.253c-1.877.475-3.666 1.46-4.715 2.781-3.148 3.573-2.25 9.824 1.58 12.397 3.774 2.833 9.319 3.477 10.027 6.126.689 3.243-2.383 4.293-5.437 3.92-2.25-.468-3.502-1.612-4.855-3.692-2.49 1.441-2.49 1.441-5.051 2.914.607 1.327 1.245 1.928 2.263 3.078 4.817 4.887 16.872 4.647 19.035-2.75.087-.253.67-1.947.201-4.558zM37.901 31.314h-6.22l-.026 16.081c0 3.42.177 6.556-.38 7.517-.91 1.89-3.268 1.656-4.343 1.29-1.093-.538-1.65-1.303-2.294-2.383-.177-.31-.31-.55-.354-.57l-5.058 3.098c.841 1.726 2.08 3.224 3.667 4.197 2.37 1.423 5.556 1.86 8.888 1.094 2.169-.631 4.04-1.94 5.02-3.931 1.416-2.612 1.112-5.772 1.1-9.268.031-5.703 0-11.404 0-17.125z" fill="#323330"/></svg>