<svg width="60" height="81" viewBox="0 0 70 90" fill="none" xmlns="http://www.w3.org/2000/svg"><mask id="a" maskUnits="userSpaceOnUse" x="2.169" y="69.878" width="67" height="17" fill="#000"><path fill="#fff" d="M2.169 69.878h67v17h-67z"/><path d="M15.145 71.878V82h-1.659v-6.538c0-.261.014-.544.042-.847l-3.059 5.747c-.145.275-.366.413-.665.413h-.266c-.299 0-.52-.138-.665-.413l-3.094-5.768c.014.154.026.306.035.455.01.15.014.287.014.413V82H4.169V71.878H5.59c.084 0 .156.002.217.007.06.005.114.016.161.035a.324.324 0 0 1 .133.091.707.707 0 0 1 .119.168L9.251 77.8c.08.15.152.303.217.462.07.159.138.322.203.49a9.99 9.99 0 0 1 .203-.497c.07-.163.145-.32.224-.469l2.989-5.607a.706.706 0 0 1 .119-.168.399.399 0 0 1 .133-.091.63.63 0 0 1 .168-.035c.06-.005.133-.007.217-.007h1.421zM20.09 74.706c.532 0 1.015.086 1.449.259.438.173.812.418 1.12.735.312.317.553.705.72 1.162.169.457.253.968.253 1.533 0 .57-.084 1.083-.252 1.54a3.273 3.273 0 0 1-.721 1.169c-.308.322-.682.57-1.12.742a3.888 3.888 0 0 1-1.45.259 3.963 3.963 0 0 1-1.462-.259 3.165 3.165 0 0 1-1.127-.742 3.41 3.41 0 0 1-.721-1.169 4.442 4.442 0 0 1-.252-1.54c0-.565.084-1.076.252-1.533.172-.457.413-.845.72-1.162a3.213 3.213 0 0 1 1.128-.735 3.963 3.963 0 0 1 1.463-.259zm0 6.069c.597 0 1.038-.2 1.323-.602.289-.401.434-.99.434-1.764 0-.775-.145-1.365-.434-1.771-.285-.406-.726-.609-1.323-.609-.607 0-1.057.205-1.351.616-.29.406-.434.994-.434 1.764s.144 1.358.434 1.764c.294.401.744.602 1.35.602zM26.568 75.7c.144-.145.296-.278.455-.399a2.791 2.791 0 0 1 1.092-.518c.205-.051.429-.077.672-.077.392 0 .74.068 1.043.203.303.13.555.317.756.56.205.238.359.525.462.861.107.331.16.698.16 1.099V82H29.48v-4.571c0-.439-.1-.777-.301-1.015-.201-.243-.507-.364-.917-.364a1.8 1.8 0 0 0-.84.203c-.262.135-.509.32-.742.553V82h-1.73v-7.182h1.058c.224 0 .37.105.44.315l.12.567zM35.478 78.234c.215 0 .401-.028.56-.084a1.1 1.1 0 0 0 .392-.245.94.94 0 0 0 .238-.371c.056-.145.084-.303.084-.476 0-.355-.107-.635-.322-.84-.21-.21-.527-.315-.952-.315-.425 0-.744.105-.959.315-.21.205-.315.485-.315.84 0 .168.026.324.077.469.056.145.135.27.238.378.107.103.24.184.399.245.163.056.35.084.56.084zm1.953 4.088a.478.478 0 0 0-.126-.343.8.8 0 0 0-.343-.203 2.376 2.376 0 0 0-.511-.112 7.86 7.86 0 0 0-.616-.049 26.603 26.603 0 0 0-.672-.035 7.816 7.816 0 0 1-.672-.056 1.668 1.668 0 0 0-.469.378.78.78 0 0 0-.084.854.813.813 0 0 0 .301.287c.14.08.32.14.539.182.22.047.488.07.805.07.322 0 .6-.026.833-.077.233-.047.425-.114.574-.203a.835.835 0 0 0 .336-.308.734.734 0 0 0 .105-.385zm1.722-7.259v.644c0 .205-.124.331-.371.378l-.644.119c.098.247.147.518.147.812a2.129 2.129 0 0 1-.805 1.694c-.252.2-.55.357-.896.469-.34.107-.71.161-1.106.161-.14 0-.275-.007-.406-.021a5.116 5.116 0 0 1-.385-.056c-.224.135-.336.287-.336.455 0 .145.065.252.196.322.135.065.313.112.532.14.22.028.469.047.749.056.28.005.567.019.861.042.294.023.581.065.861.126.28.056.53.147.749.273.22.126.394.299.525.518.135.215.203.492.203.833 0 .317-.08.625-.238.924-.154.299-.38.565-.679.798-.294.233-.658.42-1.092.56-.43.145-.92.217-1.47.217a5.512 5.512 0 0 1-1.414-.161 3.251 3.251 0 0 1-1.001-.42 1.783 1.783 0 0 1-.595-.602 1.42 1.42 0 0 1-.196-.714c0-.336.1-.616.301-.84.205-.229.485-.41.84-.546a1.206 1.206 0 0 1-.455-.392c-.112-.163-.168-.378-.168-.644 0-.107.019-.217.056-.329.042-.117.1-.231.175-.343a1.69 1.69 0 0 1 .294-.315c.117-.103.254-.194.413-.273a2.293 2.293 0 0 1-.861-.784c-.205-.327-.308-.71-.308-1.148 0-.355.07-.674.21-.959.145-.29.343-.534.595-.735.257-.205.558-.362.903-.469.35-.107.73-.161 1.141-.161.308 0 .597.033.868.098.27.06.518.152.742.273h2.065zM43.304 74.706c.532 0 1.015.086 1.45.259.438.173.812.418 1.12.735.312.317.552.705.72 1.162.169.457.252.968.252 1.533 0 .57-.083 1.083-.252 1.54a3.275 3.275 0 0 1-.72 1.169c-.309.322-.682.57-1.12.742a3.888 3.888 0 0 1-1.45.259 3.962 3.962 0 0 1-1.462-.259 3.164 3.164 0 0 1-1.127-.742 3.409 3.409 0 0 1-.722-1.169 4.442 4.442 0 0 1-.252-1.54c0-.565.084-1.076.252-1.533.173-.457.413-.845.721-1.162a3.211 3.211 0 0 1 1.128-.735 3.962 3.962 0 0 1 1.462-.259zm0 6.069c.598 0 1.039-.2 1.323-.602.29-.401.434-.99.434-1.764 0-.775-.144-1.365-.434-1.771-.284-.406-.725-.609-1.323-.609-.606 0-1.056.205-1.35.616-.29.406-.434.994-.434 1.764s.144 1.358.433 1.764c.294.401.745.602 1.351.602zM57.208 76.939c0 .742-.124 1.423-.371 2.044a4.696 4.696 0 0 1-1.043 1.603 4.666 4.666 0 0 1-1.617 1.043c-.63.247-1.33.371-2.1.371H48.22V71.878h3.857c.77 0 1.47.126 2.1.378.63.247 1.169.595 1.617 1.043.448.443.795.975 1.043 1.596.247.62.37 1.302.37 2.044zm-1.932 0c0-.555-.075-1.052-.224-1.491a2.994 2.994 0 0 0-.637-1.12 2.722 2.722 0 0 0-1.008-.707 3.43 3.43 0 0 0-1.33-.245H50.11v7.126h1.967a3.43 3.43 0 0 0 1.33-.245 2.76 2.76 0 0 0 1.008-.7c.28-.308.492-.681.637-1.12.15-.443.224-.943.224-1.498zM62.657 80.53c.35 0 .644-.042.882-.126.238-.084.427-.196.567-.336.145-.14.248-.303.308-.49a1.79 1.79 0 0 0 .098-.595c0-.22-.035-.415-.105-.588a1.08 1.08 0 0 0-.329-.448 1.507 1.507 0 0 0-.58-.287 3.178 3.178 0 0 0-.848-.098h-1.897v2.968h1.904zm-1.904-7.196v2.926h1.498c.644 0 1.13-.117 1.456-.35.331-.233.497-.604.497-1.113 0-.527-.15-.903-.448-1.127-.298-.224-.765-.336-1.4-.336h-1.603zm1.603-1.456c.663 0 1.23.063 1.701.189.471.126.856.306 1.155.539.303.233.525.516.665.847.14.331.21.705.21 1.12 0 .238-.035.467-.105.686-.07.215-.18.418-.329.609a2.385 2.385 0 0 1-.56.511 3.315 3.315 0 0 1-.805.392c1.39.313 2.086 1.064 2.086 2.254 0 .43-.081.826-.245 1.19a2.658 2.658 0 0 1-.714.945 3.448 3.448 0 0 1-1.155.616c-.457.15-.98.224-1.568.224H58.87V71.878h3.486z"/></mask><path d="M15.145 71.878V82h-1.659v-6.538c0-.261.014-.544.042-.847l-3.059 5.747c-.145.275-.366.413-.665.413h-.266c-.299 0-.52-.138-.665-.413l-3.094-5.768c.014.154.026.306.035.455.01.15.014.287.014.413V82H4.169V71.878H5.59c.084 0 .156.002.217.007.06.005.114.016.161.035a.324.324 0 0 1 .133.091.707.707 0 0 1 .119.168L9.251 77.8c.08.15.152.303.217.462.07.159.138.322.203.49a9.99 9.99 0 0 1 .203-.497c.07-.163.145-.32.224-.469l2.989-5.607a.706.706 0 0 1 .119-.168.399.399 0 0 1 .133-.091.63.63 0 0 1 .168-.035c.06-.005.133-.007.217-.007h1.421zM20.09 74.706c.532 0 1.015.086 1.449.259.438.173.812.418 1.12.735.312.317.553.705.72 1.162.169.457.253.968.253 1.533 0 .57-.084 1.083-.252 1.54a3.273 3.273 0 0 1-.721 1.169c-.308.322-.682.57-1.12.742a3.888 3.888 0 0 1-1.45.259 3.963 3.963 0 0 1-1.462-.259 3.165 3.165 0 0 1-1.127-.742 3.41 3.41 0 0 1-.721-1.169 4.442 4.442 0 0 1-.252-1.54c0-.565.084-1.076.252-1.533.172-.457.413-.845.72-1.162a3.213 3.213 0 0 1 1.128-.735 3.963 3.963 0 0 1 1.463-.259zm0 6.069c.597 0 1.038-.2 1.323-.602.289-.401.434-.99.434-1.764 0-.775-.145-1.365-.434-1.771-.285-.406-.726-.609-1.323-.609-.607 0-1.057.205-1.351.616-.29.406-.434.994-.434 1.764s.144 1.358.434 1.764c.294.401.744.602 1.35.602zM26.568 75.7c.144-.145.296-.278.455-.399a2.791 2.791 0 0 1 1.092-.518c.205-.051.429-.077.672-.077.392 0 .74.068 1.043.203.303.13.555.317.756.56.205.238.359.525.462.861.107.331.16.698.16 1.099V82H29.48v-4.571c0-.439-.1-.777-.301-1.015-.201-.243-.507-.364-.917-.364a1.8 1.8 0 0 0-.84.203c-.262.135-.509.32-.742.553V82h-1.73v-7.182h1.058c.224 0 .37.105.44.315l.12.567zM35.478 78.234c.215 0 .401-.028.56-.084a1.1 1.1 0 0 0 .392-.245.94.94 0 0 0 .238-.371c.056-.145.084-.303.084-.476 0-.355-.107-.635-.322-.84-.21-.21-.527-.315-.952-.315-.425 0-.744.105-.959.315-.21.205-.315.485-.315.84 0 .168.026.324.077.469.056.145.135.27.238.378.107.103.24.184.399.245.163.056.35.084.56.084zm1.953 4.088a.478.478 0 0 0-.126-.343.8.8 0 0 0-.343-.203 2.376 2.376 0 0 0-.511-.112 7.86 7.86 0 0 0-.616-.049 26.603 26.603 0 0 0-.672-.035 7.816 7.816 0 0 1-.672-.056 1.668 1.668 0 0 0-.469.378.78.78 0 0 0-.084.854.813.813 0 0 0 .301.287c.14.08.32.14.539.182.22.047.488.07.805.07.322 0 .6-.026.833-.077.233-.047.425-.114.574-.203a.835.835 0 0 0 .336-.308.734.734 0 0 0 .105-.385zm1.722-7.259v.644c0 .205-.124.331-.371.378l-.644.119c.098.247.147.518.147.812a2.129 2.129 0 0 1-.805 1.694c-.252.2-.55.357-.896.469-.34.107-.71.161-1.106.161-.14 0-.275-.007-.406-.021a5.116 5.116 0 0 1-.385-.056c-.224.135-.336.287-.336.455 0 .145.065.252.196.322.135.065.313.112.532.14.22.028.469.047.749.056.28.005.567.019.861.042.294.023.581.065.861.126.28.056.53.147.749.273.22.126.394.299.525.518.135.215.203.492.203.833 0 .317-.08.625-.238.924-.154.299-.38.565-.679.798-.294.233-.658.42-1.092.56-.43.145-.92.217-1.47.217a5.512 5.512 0 0 1-1.414-.161 3.251 3.251 0 0 1-1.001-.42 1.783 1.783 0 0 1-.595-.602 1.42 1.42 0 0 1-.196-.714c0-.336.1-.616.301-.84.205-.229.485-.41.84-.546a1.206 1.206 0 0 1-.455-.392c-.112-.163-.168-.378-.168-.644 0-.107.019-.217.056-.329.042-.117.1-.231.175-.343a1.69 1.69 0 0 1 .294-.315c.117-.103.254-.194.413-.273a2.293 2.293 0 0 1-.861-.784c-.205-.327-.308-.71-.308-1.148 0-.355.07-.674.21-.959.145-.29.343-.534.595-.735.257-.205.558-.362.903-.469.35-.107.73-.161 1.141-.161.308 0 .597.033.868.098.27.06.518.152.742.273h2.065zM43.304 74.706c.532 0 1.015.086 1.45.259.438.173.812.418 1.12.735.312.317.552.705.72 1.162.169.457.252.968.252 1.533 0 .57-.083 1.083-.252 1.54a3.275 3.275 0 0 1-.72 1.169c-.309.322-.682.57-1.12.742a3.888 3.888 0 0 1-1.45.259 3.962 3.962 0 0 1-1.462-.259 3.164 3.164 0 0 1-1.127-.742 3.409 3.409 0 0 1-.722-1.169 4.442 4.442 0 0 1-.252-1.54c0-.565.084-1.076.252-1.533.173-.457.413-.845.721-1.162a3.211 3.211 0 0 1 1.128-.735 3.962 3.962 0 0 1 1.462-.259zm0 6.069c.598 0 1.039-.2 1.323-.602.29-.401.434-.99.434-1.764 0-.775-.144-1.365-.434-1.771-.284-.406-.725-.609-1.323-.609-.606 0-1.056.205-1.35.616-.29.406-.434.994-.434 1.764s.144 1.358.433 1.764c.294.401.745.602 1.351.602zM57.208 76.939c0 .742-.124 1.423-.371 2.044a4.696 4.696 0 0 1-1.043 1.603 4.666 4.666 0 0 1-1.617 1.043c-.63.247-1.33.371-2.1.371H48.22V71.878h3.857c.77 0 1.47.126 2.1.378.63.247 1.169.595 1.617 1.043.448.443.795.975 1.043 1.596.247.62.37 1.302.37 2.044zm-1.932 0c0-.555-.075-1.052-.224-1.491a2.994 2.994 0 0 0-.637-1.12 2.722 2.722 0 0 0-1.008-.707 3.43 3.43 0 0 0-1.33-.245H50.11v7.126h1.967a3.43 3.43 0 0 0 1.33-.245 2.76 2.76 0 0 0 1.008-.7c.28-.308.492-.681.637-1.12.15-.443.224-.943.224-1.498zM62.657 80.53c.35 0 .644-.042.882-.126.238-.084.427-.196.567-.336.145-.14.248-.303.308-.49a1.79 1.79 0 0 0 .098-.595c0-.22-.035-.415-.105-.588a1.08 1.08 0 0 0-.329-.448 1.507 1.507 0 0 0-.58-.287 3.178 3.178 0 0 0-.848-.098h-1.897v2.968h1.904zm-1.904-7.196v2.926h1.498c.644 0 1.13-.117 1.456-.35.331-.233.497-.604.497-1.113 0-.527-.15-.903-.448-1.127-.298-.224-.765-.336-1.4-.336h-1.603zm1.603-1.456c.663 0 1.23.063 1.701.189.471.126.856.306 1.155.539.303.233.525.516.665.847.14.331.21.705.21 1.12 0 .238-.035.467-.105.686-.07.215-.18.418-.329.609a2.385 2.385 0 0 1-.56.511 3.315 3.315 0 0 1-.805.392c1.39.313 2.086 1.064 2.086 2.254 0 .43-.081.826-.245 1.19a2.658 2.658 0 0 1-.714.945 3.448 3.448 0 0 1-1.155.616c-.457.15-.98.224-1.568.224H58.87V71.878h3.486z" fill="#000"/><path d="M15.145 71.878V82h-1.659v-6.538c0-.261.014-.544.042-.847l-3.059 5.747c-.145.275-.366.413-.665.413h-.266c-.299 0-.52-.138-.665-.413l-3.094-5.768c.014.154.026.306.035.455.01.15.014.287.014.413V82H4.169V71.878H5.59c.084 0 .156.002.217.007.06.005.114.016.161.035a.324.324 0 0 1 .133.091.707.707 0 0 1 .119.168L9.251 77.8c.08.15.152.303.217.462.07.159.138.322.203.49a9.99 9.99 0 0 1 .203-.497c.07-.163.145-.32.224-.469l2.989-5.607a.706.706 0 0 1 .119-.168.399.399 0 0 1 .133-.091.63.63 0 0 1 .168-.035c.06-.005.133-.007.217-.007h1.421zM20.09 74.706c.532 0 1.015.086 1.449.259.438.173.812.418 1.12.735.312.317.553.705.72 1.162.169.457.253.968.253 1.533 0 .57-.084 1.083-.252 1.54a3.273 3.273 0 0 1-.721 1.169c-.308.322-.682.57-1.12.742a3.888 3.888 0 0 1-1.45.259 3.963 3.963 0 0 1-1.462-.259 3.165 3.165 0 0 1-1.127-.742 3.41 3.41 0 0 1-.721-1.169 4.442 4.442 0 0 1-.252-1.54c0-.565.084-1.076.252-1.533.172-.457.413-.845.72-1.162a3.213 3.213 0 0 1 1.128-.735 3.963 3.963 0 0 1 1.463-.259zm0 6.069c.597 0 1.038-.2 1.323-.602.289-.401.434-.99.434-1.764 0-.775-.145-1.365-.434-1.771-.285-.406-.726-.609-1.323-.609-.607 0-1.057.205-1.351.616-.29.406-.434.994-.434 1.764s.144 1.358.434 1.764c.294.401.744.602 1.35.602zM26.568 75.7c.144-.145.296-.278.455-.399a2.791 2.791 0 0 1 1.092-.518c.205-.051.429-.077.672-.077.392 0 .74.068 1.043.203.303.13.555.317.756.56.205.238.359.525.462.861.107.331.16.698.16 1.099V82H29.48v-4.571c0-.439-.1-.777-.301-1.015-.201-.243-.507-.364-.917-.364a1.8 1.8 0 0 0-.84.203c-.262.135-.509.32-.742.553V82h-1.73v-7.182h1.058c.224 0 .37.105.44.315l.12.567zM35.478 78.234c.215 0 .401-.028.56-.084a1.1 1.1 0 0 0 .392-.245.94.94 0 0 0 .238-.371c.056-.145.084-.303.084-.476 0-.355-.107-.635-.322-.84-.21-.21-.527-.315-.952-.315-.425 0-.744.105-.959.315-.21.205-.315.485-.315.84 0 .168.026.324.077.469.056.145.135.27.238.378.107.103.24.184.399.245.163.056.35.084.56.084zm1.953 4.088a.478.478 0 0 0-.126-.343.8.8 0 0 0-.343-.203 2.376 2.376 0 0 0-.511-.112 7.86 7.86 0 0 0-.616-.049 26.603 26.603 0 0 0-.672-.035 7.816 7.816 0 0 1-.672-.056 1.668 1.668 0 0 0-.469.378.78.78 0 0 0-.084.854.813.813 0 0 0 .301.287c.14.08.32.14.539.182.22.047.488.07.805.07.322 0 .6-.026.833-.077.233-.047.425-.114.574-.203a.835.835 0 0 0 .336-.308.734.734 0 0 0 .105-.385zm1.722-7.259v.644c0 .205-.124.331-.371.378l-.644.119c.098.247.147.518.147.812a2.129 2.129 0 0 1-.805 1.694c-.252.2-.55.357-.896.469-.34.107-.71.161-1.106.161-.14 0-.275-.007-.406-.021a5.116 5.116 0 0 1-.385-.056c-.224.135-.336.287-.336.455 0 .145.065.252.196.322.135.065.313.112.532.14.22.028.469.047.749.056.28.005.567.019.861.042.294.023.581.065.861.126.28.056.53.147.749.273.22.126.394.299.525.518.135.215.203.492.203.833 0 .317-.08.625-.238.924-.154.299-.38.565-.679.798-.294.233-.658.42-1.092.56-.43.145-.92.217-1.47.217a5.512 5.512 0 0 1-1.414-.161 3.251 3.251 0 0 1-1.001-.42 1.783 1.783 0 0 1-.595-.602 1.42 1.42 0 0 1-.196-.714c0-.336.1-.616.301-.84.205-.229.485-.41.84-.546a1.206 1.206 0 0 1-.455-.392c-.112-.163-.168-.378-.168-.644 0-.107.019-.217.056-.329.042-.117.1-.231.175-.343a1.69 1.69 0 0 1 .294-.315c.117-.103.254-.194.413-.273a2.293 2.293 0 0 1-.861-.784c-.205-.327-.308-.71-.308-1.148 0-.355.07-.674.21-.959.145-.29.343-.534.595-.735.257-.205.558-.362.903-.469.35-.107.73-.161 1.141-.161.308 0 .597.033.868.098.27.06.518.152.742.273h2.065zM43.304 74.706c.532 0 1.015.086 1.45.259.438.173.812.418 1.12.735.312.317.552.705.72 1.162.169.457.252.968.252 1.533 0 .57-.083 1.083-.252 1.54a3.275 3.275 0 0 1-.72 1.169c-.309.322-.682.57-1.12.742a3.888 3.888 0 0 1-1.45.259 3.962 3.962 0 0 1-1.462-.259 3.164 3.164 0 0 1-1.127-.742 3.409 3.409 0 0 1-.722-1.169 4.442 4.442 0 0 1-.252-1.54c0-.565.084-1.076.252-1.533.173-.457.413-.845.721-1.162a3.211 3.211 0 0 1 1.128-.735 3.962 3.962 0 0 1 1.462-.259zm0 6.069c.598 0 1.039-.2 1.323-.602.29-.401.434-.99.434-1.764 0-.775-.144-1.365-.434-1.771-.284-.406-.725-.609-1.323-.609-.606 0-1.056.205-1.35.616-.29.406-.434.994-.434 1.764s.144 1.358.433 1.764c.294.401.745.602 1.351.602zM57.208 76.939c0 .742-.124 1.423-.371 2.044a4.696 4.696 0 0 1-1.043 1.603 4.666 4.666 0 0 1-1.617 1.043c-.63.247-1.33.371-2.1.371H48.22V71.878h3.857c.77 0 1.47.126 2.1.378.63.247 1.169.595 1.617 1.043.448.443.795.975 1.043 1.596.247.62.37 1.302.37 2.044zm-1.932 0c0-.555-.075-1.052-.224-1.491a2.994 2.994 0 0 0-.637-1.12 2.722 2.722 0 0 0-1.008-.707 3.43 3.43 0 0 0-1.33-.245H50.11v7.126h1.967a3.43 3.43 0 0 0 1.33-.245 2.76 2.76 0 0 0 1.008-.7c.28-.308.492-.681.637-1.12.15-.443.224-.943.224-1.498zM62.657 80.53c.35 0 .644-.042.882-.126.238-.084.427-.196.567-.336.145-.14.248-.303.308-.49a1.79 1.79 0 0 0 .098-.595c0-.22-.035-.415-.105-.588a1.08 1.08 0 0 0-.329-.448 1.507 1.507 0 0 0-.58-.287 3.178 3.178 0 0 0-.848-.098h-1.897v2.968h1.904zm-1.904-7.196v2.926h1.498c.644 0 1.13-.117 1.456-.35.331-.233.497-.604.497-1.113 0-.527-.15-.903-.448-1.127-.298-.224-.765-.336-1.4-.336h-1.603zm1.603-1.456c.663 0 1.23.063 1.701.189.471.126.856.306 1.155.539.303.233.525.516.665.847.14.331.21.705.21 1.12 0 .238-.035.467-.105.686-.07.215-.18.418-.329.609a2.385 2.385 0 0 1-.56.511 3.315 3.315 0 0 1-.805.392c1.39.313 2.086 1.064 2.086 2.254 0 .43-.081.826-.245 1.19a2.658 2.658 0 0 1-.714.945 3.448 3.448 0 0 1-1.155.616c-.457.15-.98.224-1.568.224H58.87V71.878h3.486z" stroke="#fff" stroke-width="4" mask="url(#a)"/><path fill-rule="evenodd" clip-rule="evenodd" d="M47.77 22.744c.853 2.466 1.467 4.985 1.669 7.595.25 3.238.136 6.453-.547 9.638-.018.087-.058.17-.087.255-.214 0-.432-.026-.642.006-1.768.278-3.535.566-5.302.852-1.826.296-3.656.58-5.479.896-.646.112-1.445-.021-1.706.872-.008.025-.082.029-.125.043l.088-5.34-.09-12.884.851-.146c1.392-.228 2.784-.459 4.177-.68 1.662-.265 3.326-.521 4.99-.779.733-.114 1.468-.219 2.203-.328z" fill="#439934"/><path fill-rule="evenodd" clip-rule="evenodd" d="M33.794 58.466c-.898-.772-1.827-1.51-2.688-2.321-4.631-4.368-8.018-9.51-9.686-15.707-.46-1.706-.766-3.44-.865-5.202-.069-1.234-.169-2.479-.081-3.706.232-3.264.703-6.496 1.66-9.64l.053-.074c.093.124.227.233.274.373a2043.89 2043.89 0 0 1 2.785 8.262c2.9 8.66 5.796 17.32 8.7 25.978.057.169.204.307.31.46l-.462 1.577z" fill="#45A538"/><path fill-rule="evenodd" clip-rule="evenodd" d="M47.77 22.744c-.735.11-1.47.214-2.204.327-1.663.258-3.327.514-4.99.778-1.392.222-2.784.453-4.176.68l-.851.147-.007-.555c-.028-.456-.076-.912-.081-1.369-.037-2.91-.06-5.82-.096-8.73a667.715 667.715 0 0 0-.093-5.464 136.085 136.085 0 0 0-.098-3.394c-.028-.607-.126-1.211-.166-1.818-.022-.35.009-.7.016-1.052.434.841.858 1.689 1.305 2.523.705 1.32 1.828 2.292 2.839 3.353 3.996 4.193 6.834 9.068 8.602 14.574z" fill="#46A037"/><path fill-rule="evenodd" clip-rule="evenodd" d="M35.55 42.9c.043-.014.118-.018.125-.042.261-.894 1.06-.76 1.707-.872 1.823-.316 3.652-.6 5.478-.896 1.767-.287 3.534-.575 5.303-.853.21-.032.427-.005.642-.006-.33 1.18-.591 2.384-1.01 3.531-.476 1.301-1.052 2.571-1.664 3.816a26.107 26.107 0 0 1-3.375 5.186c-1.02 1.226-2.156 2.36-3.295 3.479-.63.619-1.371 1.123-2.062 1.68l-.179-.123-.645-.551-.667-1.463a21.995 21.995 0 0 1-.74-5.226l.012-.298.09-1.29c.03-.44.071-.879.09-1.32.068-1.584.128-3.168.19-4.752z" fill="#409433"/><path fill-rule="evenodd" clip-rule="evenodd" d="M35.55 42.9c-.062 1.584-.122 3.168-.19 4.753-.018.441-.058.88-.088 1.32l-.407.154c-.903-2.658-1.806-5.287-2.69-7.923-1.46-4.36-2.903-8.729-4.362-13.09-1.178-3.522-2.365-7.04-3.56-10.555-.055-.165-.216-.293-.327-.439l2.6-4.782c.09.155.208.3.264.467 1.205 3.56 2.403 7.123 3.596 10.687 1.549 4.638 3.088 9.28 4.636 13.918.062.186.164.357.261.564l.356-.414-.089 5.34z" fill="#4FAA41"/><path fill-rule="evenodd" clip-rule="evenodd" d="M23.926 17.12c.112.146.272.275.328.44 1.194 3.515 2.381 7.033 3.56 10.554 1.458 4.362 2.901 8.73 4.362 13.09.883 2.636 1.786 5.266 2.69 7.923l.406-.153-.09 1.289-.083.297c-.141 1.41-.26 2.825-.433 4.233-.086.705-.27 1.398-.41 2.096-.105-.152-.253-.29-.31-.46-2.904-8.657-5.8-17.318-8.7-25.978-.922-2.756-1.85-5.51-2.784-8.261-.047-.14-.18-.25-.274-.373l1.738-4.696z" fill="#4AA73C"/><path fill-rule="evenodd" clip-rule="evenodd" d="m35.639 37.56-.356.415c-.098-.208-.2-.38-.261-.564-1.548-4.639-3.088-9.28-4.637-13.918a3245.38 3245.38 0 0 0-3.596-10.688c-.055-.167-.173-.312-.263-.467l3.217-4.231c.101.135.246.256.298.408a1634.53 1634.53 0 0 1 2.658 7.851c.822 2.446 1.632 4.896 2.463 7.338.056.164.25.28.38.418l.006.555.09 12.883z" fill="#57AE47"/><path fill-rule="evenodd" clip-rule="evenodd" d="M35.542 24.12c-.13-.137-.323-.253-.379-.417-.831-2.442-1.64-4.892-2.463-7.338-.88-2.619-1.765-5.236-2.658-7.85-.052-.153-.197-.274-.298-.41 1.046-1.023 2.06-2.084 3.148-3.061.967-.868 1.745-1.8 1.78-3.17.002-.058.032-.115.077-.274l.276.694c-.007.351-.038.702-.015 1.051.04.607.137 1.212.165 1.819.05 1.13.075 2.262.098 3.393.037 1.822.07 3.643.093 5.464.036 2.91.059 5.82.096 8.73.004.458.052.913.08 1.37z" fill="#60B24F"/><path fill-rule="evenodd" clip-rule="evenodd" d="M34.255 56.889c.14-.699.324-1.392.41-2.097.173-1.407.291-2.822.433-4.233l.035-.005.035.006c.036 1.765.285 3.52.74 5.226-.093.123-.225.233-.275.372-.386 1.09-.75 2.187-1.138 3.276-.053.149-.201.265-.305.395l-.397-1.363.462-1.577z" fill="#A9AA88"/><path fill-rule="evenodd" clip-rule="evenodd" d="M34.19 59.83c.105-.13.253-.247.305-.395.389-1.09.753-2.186 1.139-3.276.05-.14.18-.25.275-.372l.667 1.463c-.132.187-.314.355-.387.563l-1.277 3.75c-.053.15-.232.257-.352.384l-.37-2.117z" fill="#B6B598"/><path fill-rule="evenodd" clip-rule="evenodd" d="M34.56 61.946c.12-.126.3-.233.352-.383l1.277-3.75c.073-.208.255-.377.387-.564l.645.551c-.312.308-.485.664-.38 1.114l-.197.642c-.089.11-.218.205-.262.331-.446 1.277-.871 2.56-1.32 3.837-.057.162-.215.289-.327.431-.057-.736-.116-1.472-.175-2.209z" fill="#C2C1A7"/><path fill-rule="evenodd" clip-rule="evenodd" d="M34.736 64.155c.111-.143.269-.27.326-.431.449-1.276.875-2.56 1.32-3.837.044-.125.173-.221.263-.331l-.27 2.946c-.073.083-.178.156-.212.253-.306.857-.593 1.721-.9 2.579-.063.177-.184.333-.279.498-.084-.11-.234-.216-.241-.331-.027-.447-.009-.897-.007-1.346z" fill="#CECDB7"/><path fill-rule="evenodd" clip-rule="evenodd" d="M34.983 65.832c.095-.166.216-.322.28-.498.306-.857.594-1.721.9-2.579.034-.097.14-.17.21-.253l.007 1.933-.647 1.66-.75-.263z" fill="#DBDAC7"/><path fill-rule="evenodd" clip-rule="evenodd" d="m35.733 66.096.647-1.66.133 1.963-.78-.303z" fill="#EBE9DC"/><path fill-rule="evenodd" clip-rule="evenodd" d="M36.84 58.915c-.104-.45.069-.807.381-1.114l.18.122-.56.992z" fill="#CECDB7"/><path fill-rule="evenodd" clip-rule="evenodd" d="m35.168 50.56-.035-.006-.035.006.082-.297-.012.297z" fill="#4FAA41"/></svg>