<svg width="60" height="81" viewBox="0 0 70 91" fill="none" xmlns="http://www.w3.org/2000/svg"><mask id="a" maskUnits="userSpaceOnUse" x="10.598" y="68.598" width="50" height="19" fill="#000"><path fill="#fff" d="M10.598 68.598h50v19h-50z"/><path d="M21.13 72.878V83h-.965a.911.911 0 0 1-.378-.07.935.935 0 0 1-.287-.252l-5.285-6.748c.028.308.042.593.042.854V83h-1.66V72.878h.988c.079 0 .147.005.203.014.06.005.112.019.154.042a.399.399 0 0 1 .133.091c.042.037.088.089.14.154l5.306 6.776a17.949 17.949 0 0 1-.035-.483 7.577 7.577 0 0 1-.014-.441v-6.153h1.659zM26.071 75.706c.532 0 1.015.086 1.45.259.438.173.811.418 1.12.735.312.317.552.705.72 1.162.168.457.252.968.252 1.533 0 .57-.084 1.083-.252 1.54a3.275 3.275 0 0 1-.72 1.169c-.309.322-.682.57-1.12.742a3.888 3.888 0 0 1-1.45.259 3.962 3.962 0 0 1-1.463-.259 3.164 3.164 0 0 1-1.127-.742 3.409 3.409 0 0 1-.72-1.169 4.442 4.442 0 0 1-.253-1.54c0-.565.084-1.076.252-1.533.173-.457.413-.845.721-1.162a3.211 3.211 0 0 1 1.127-.735 3.962 3.962 0 0 1 1.463-.259zm0 6.069c.597 0 1.038-.2 1.323-.602.29-.401.434-.99.434-1.764 0-.775-.145-1.365-.434-1.771-.285-.406-.726-.609-1.323-.609-.607 0-1.057.205-1.35.616-.29.406-.435.994-.435 1.764s.145 1.358.434 1.764c.294.401.744.602 1.351.602zM35.44 77.652a1.693 1.693 0 0 0-.644-.504 1.863 1.863 0 0 0-.742-.147c-.261 0-.497.049-.707.147-.21.098-.39.247-.539.448-.15.196-.264.448-.343.756-.08.303-.119.663-.119 1.078 0 .42.033.777.098 1.071.07.29.168.527.294.714.126.182.28.315.462.399.182.08.385.119.61.119.358 0 .664-.075.916-.224.252-.15.49-.362.714-.637v-3.22zm1.73-5.054V83h-1.058c-.229 0-.373-.105-.434-.315l-.147-.693c-.29.331-.623.6-1 .805-.374.205-.81.308-1.31.308-.392 0-.751-.082-1.078-.245a2.448 2.448 0 0 1-.847-.707 3.54 3.54 0 0 1-.546-1.155 5.917 5.917 0 0 1-.189-1.568c0-.532.073-1.027.217-1.484.145-.457.353-.854.623-1.19a2.87 2.87 0 0 1 .973-.784 2.781 2.781 0 0 1 1.274-.287c.401 0 .744.063 1.03.189.284.126.538.296.762.511v-3.787h1.73zM43.502 78.583a1.98 1.98 0 0 0-.098-.63c-.06-.2-.154-.376-.28-.525a1.28 1.28 0 0 0-.483-.35 1.584 1.584 0 0 0-.672-.133c-.499 0-.893.142-1.183.427-.284.285-.466.688-.546 1.211h3.262zm-3.297 1.043c.029.369.094.688.197.959a2 2 0 0 0 .405.665c.168.173.367.303.596.392.233.084.49.126.77.126s.52-.033.72-.098c.206-.065.383-.138.532-.217.155-.08.288-.152.4-.217a.689.689 0 0 1 .335-.098c.145 0 .253.054.323.161l.497.63a2.958 2.958 0 0 1-.644.567c-.239.15-.488.27-.75.364-.256.089-.52.152-.79.189a5.594 5.594 0 0 1-.777.056c-.5 0-.964-.082-1.393-.245a3.18 3.18 0 0 1-1.12-.735 3.493 3.493 0 0 1-.75-1.204c-.181-.48-.273-1.036-.273-1.666 0-.49.08-.95.239-1.379.158-.434.384-.81.678-1.127.3-.322.66-.576 1.086-.763.429-.187.912-.28 1.449-.28.452 0 .87.072 1.252.217.383.145.712.357.988.637.275.275.49.616.644 1.022.158.401.237.861.237 1.379 0 .261-.027.439-.084.532-.056.089-.163.133-.322.133h-4.444zM46.102 82.048c0-.145.026-.282.077-.413.056-.13.13-.243.224-.336a1.06 1.06 0 0 1 .756-.308 1.06 1.06 0 0 1 .98 1.477 1.023 1.023 0 0 1-.231.329.97.97 0 0 1-.336.217 1.005 1.005 0 0 1-.413.084c-.15 0-.29-.028-.42-.084a.97.97 0 0 1-.336-.217 1.082 1.082 0 0 1-.224-.329 1.14 1.14 0 0 1-.077-.42zM51.468 75.818v7.427c0 .313-.042.607-.126.882a1.84 1.84 0 0 1-.392.721c-.177.21-.413.373-.707.49-.29.121-.644.182-1.064.182-.163 0-.315-.012-.455-.035a2.615 2.615 0 0 1-.434-.098l.063-.931c.014-.093.052-.154.112-.182.06-.023.178-.035.35-.035.173 0 .318-.019.434-.056a.569.569 0 0 0 .287-.168.63.63 0 0 0 .147-.301c.033-.126.05-.282.05-.469v-7.427h1.735zm.238-2.093c0 .15-.03.29-.09.42-.061.13-.143.245-.246.343a1.139 1.139 0 0 1-.357.238 1.124 1.124 0 0 1-.854 0 1.188 1.188 0 0 1-.58-.581 1.124 1.124 0 0 1 0-.854 1.083 1.083 0 0 1 .581-.581 1.048 1.048 0 0 1 .854 0 1.102 1.102 0 0 1 .602.581c.06.135.09.28.09.434zM57.613 77.218a.501.501 0 0 1-.147.161.407.407 0 0 1-.196.042.64.64 0 0 1-.273-.07 8.111 8.111 0 0 0-.329-.154 2.735 2.735 0 0 0-.434-.161 2.023 2.023 0 0 0-.567-.07c-.34 0-.609.072-.805.217a.678.678 0 0 0-.287.567.56.56 0 0 0 .147.392c.103.103.236.194.399.273.168.08.357.152.567.217.21.06.422.128.637.203.22.075.434.161.644.259.21.093.397.215.56.364.168.145.301.32.399.525.103.205.154.453.154.742 0 .345-.063.665-.189.959-.121.29-.303.541-.546.756-.243.21-.544.376-.903.497a3.944 3.944 0 0 1-1.232.175c-.247 0-.49-.023-.728-.07a3.952 3.952 0 0 1-1.281-.462 2.986 2.986 0 0 1-.483-.35l.399-.658a.564.564 0 0 1 .182-.182.51.51 0 0 1 .266-.063c.107 0 .208.03.301.091.098.06.21.126.336.196.126.07.273.135.441.196.173.06.39.091.651.091.205 0 .38-.023.525-.07.15-.051.27-.117.364-.196a.684.684 0 0 0 .21-.273.819.819 0 0 0 .07-.329.573.573 0 0 0-.154-.413 1.261 1.261 0 0 0-.399-.28 3.457 3.457 0 0 0-.567-.21c-.21-.065-.427-.135-.651-.21a6.99 6.99 0 0 1-.651-.259 2.383 2.383 0 0 1-.567-.385 1.796 1.796 0 0 1-.399-.567 2.02 2.02 0 0 1-.147-.812c0-.294.058-.574.175-.84.117-.266.287-.497.511-.693.229-.2.511-.36.847-.476.34-.121.733-.182 1.176-.182.495 0 .945.082 1.351.245.406.163.744.378 1.015.644l-.392.623z"/></mask><path d="M21.13 72.878V83h-.965a.911.911 0 0 1-.378-.07.935.935 0 0 1-.287-.252l-5.285-6.748c.028.308.042.593.042.854V83h-1.66V72.878h.988c.079 0 .147.005.203.014.06.005.112.019.154.042a.399.399 0 0 1 .133.091c.042.037.088.089.14.154l5.306 6.776a17.949 17.949 0 0 1-.035-.483 7.577 7.577 0 0 1-.014-.441v-6.153h1.659zM26.071 75.706c.532 0 1.015.086 1.45.259.438.173.811.418 1.12.735.312.317.552.705.72 1.162.168.457.252.968.252 1.533 0 .57-.084 1.083-.252 1.54a3.275 3.275 0 0 1-.72 1.169c-.309.322-.682.57-1.12.742a3.888 3.888 0 0 1-1.45.259 3.962 3.962 0 0 1-1.463-.259 3.164 3.164 0 0 1-1.127-.742 3.409 3.409 0 0 1-.72-1.169 4.442 4.442 0 0 1-.253-1.54c0-.565.084-1.076.252-1.533.173-.457.413-.845.721-1.162a3.211 3.211 0 0 1 1.127-.735 3.962 3.962 0 0 1 1.463-.259zm0 6.069c.597 0 1.038-.2 1.323-.602.29-.401.434-.99.434-1.764 0-.775-.145-1.365-.434-1.771-.285-.406-.726-.609-1.323-.609-.607 0-1.057.205-1.35.616-.29.406-.435.994-.435 1.764s.145 1.358.434 1.764c.294.401.744.602 1.351.602zM35.44 77.652a1.693 1.693 0 0 0-.644-.504 1.863 1.863 0 0 0-.742-.147c-.261 0-.497.049-.707.147-.21.098-.39.247-.539.448-.15.196-.264.448-.343.756-.08.303-.119.663-.119 1.078 0 .42.033.777.098 1.071.07.29.168.527.294.714.126.182.28.315.462.399.182.08.385.119.61.119.358 0 .664-.075.916-.224.252-.15.49-.362.714-.637v-3.22zm1.73-5.054V83h-1.058c-.229 0-.373-.105-.434-.315l-.147-.693c-.29.331-.623.6-1 .805-.374.205-.81.308-1.31.308-.392 0-.751-.082-1.078-.245a2.448 2.448 0 0 1-.847-.707 3.54 3.54 0 0 1-.546-1.155 5.917 5.917 0 0 1-.189-1.568c0-.532.073-1.027.217-1.484.145-.457.353-.854.623-1.19a2.87 2.87 0 0 1 .973-.784 2.781 2.781 0 0 1 1.274-.287c.401 0 .744.063 1.03.189.284.126.538.296.762.511v-3.787h1.73zM43.502 78.583a1.98 1.98 0 0 0-.098-.63c-.06-.2-.154-.376-.28-.525a1.28 1.28 0 0 0-.483-.35 1.584 1.584 0 0 0-.672-.133c-.499 0-.893.142-1.183.427-.284.285-.466.688-.546 1.211h3.262zm-3.297 1.043c.029.369.094.688.197.959a2 2 0 0 0 .405.665c.168.173.367.303.596.392.233.084.49.126.77.126s.52-.033.72-.098c.206-.065.383-.138.532-.217.155-.08.288-.152.4-.217a.689.689 0 0 1 .335-.098c.145 0 .253.054.323.161l.497.63a2.958 2.958 0 0 1-.644.567c-.239.15-.488.27-.75.364-.256.089-.52.152-.79.189a5.594 5.594 0 0 1-.777.056c-.5 0-.964-.082-1.393-.245a3.18 3.18 0 0 1-1.12-.735 3.493 3.493 0 0 1-.75-1.204c-.181-.48-.273-1.036-.273-1.666 0-.49.08-.95.239-1.379.158-.434.384-.81.678-1.127.3-.322.66-.576 1.086-.763.429-.187.912-.28 1.449-.28.452 0 .87.072 1.252.217.383.145.712.357.988.637.275.275.49.616.644 1.022.158.401.237.861.237 1.379 0 .261-.027.439-.084.532-.056.089-.163.133-.322.133h-4.444zM46.102 82.048c0-.145.026-.282.077-.413.056-.13.13-.243.224-.336a1.06 1.06 0 0 1 .756-.308 1.06 1.06 0 0 1 .98 1.477 1.023 1.023 0 0 1-.231.329.97.97 0 0 1-.336.217 1.005 1.005 0 0 1-.413.084c-.15 0-.29-.028-.42-.084a.97.97 0 0 1-.336-.217 1.082 1.082 0 0 1-.224-.329 1.14 1.14 0 0 1-.077-.42zM51.468 75.818v7.427c0 .313-.042.607-.126.882a1.84 1.84 0 0 1-.392.721c-.177.21-.413.373-.707.49-.29.121-.644.182-1.064.182-.163 0-.315-.012-.455-.035a2.615 2.615 0 0 1-.434-.098l.063-.931c.014-.093.052-.154.112-.182.06-.023.178-.035.35-.035.173 0 .318-.019.434-.056a.569.569 0 0 0 .287-.168.63.63 0 0 0 .147-.301c.033-.126.05-.282.05-.469v-7.427h1.735zm.238-2.093c0 .15-.03.29-.09.42-.061.13-.143.245-.246.343a1.139 1.139 0 0 1-.357.238 1.124 1.124 0 0 1-.854 0 1.188 1.188 0 0 1-.58-.581 1.124 1.124 0 0 1 0-.854 1.083 1.083 0 0 1 .581-.581 1.048 1.048 0 0 1 .854 0 1.102 1.102 0 0 1 .602.581c.06.135.09.28.09.434zM57.613 77.218a.501.501 0 0 1-.147.161.407.407 0 0 1-.196.042.64.64 0 0 1-.273-.07 8.111 8.111 0 0 0-.329-.154 2.735 2.735 0 0 0-.434-.161 2.023 2.023 0 0 0-.567-.07c-.34 0-.609.072-.805.217a.678.678 0 0 0-.287.567.56.56 0 0 0 .147.392c.103.103.236.194.399.273.168.08.357.152.567.217.21.06.422.128.637.203.22.075.434.161.644.259.21.093.397.215.56.364.168.145.301.32.399.525.103.205.154.453.154.742 0 .345-.063.665-.189.959-.121.29-.303.541-.546.756-.243.21-.544.376-.903.497a3.944 3.944 0 0 1-1.232.175c-.247 0-.49-.023-.728-.07a3.952 3.952 0 0 1-1.281-.462 2.986 2.986 0 0 1-.483-.35l.399-.658a.564.564 0 0 1 .182-.182.51.51 0 0 1 .266-.063c.107 0 .208.03.301.091.098.06.21.126.336.196.126.07.273.135.441.196.173.06.39.091.651.091.205 0 .38-.023.525-.07.15-.051.27-.117.364-.196a.684.684 0 0 0 .21-.273.819.819 0 0 0 .07-.329.573.573 0 0 0-.154-.413 1.261 1.261 0 0 0-.399-.28 3.457 3.457 0 0 0-.567-.21c-.21-.065-.427-.135-.651-.21a6.99 6.99 0 0 1-.651-.259 2.383 2.383 0 0 1-.567-.385 1.796 1.796 0 0 1-.399-.567 2.02 2.02 0 0 1-.147-.812c0-.294.058-.574.175-.84.117-.266.287-.497.511-.693.229-.2.511-.36.847-.476.34-.121.733-.182 1.176-.182.495 0 .945.082 1.351.245.406.163.744.378 1.015.644l-.392.623z" fill="#000"/><path d="M21.13 72.878V83h-.965a.911.911 0 0 1-.378-.07.935.935 0 0 1-.287-.252l-5.285-6.748c.028.308.042.593.042.854V83h-1.66V72.878h.988c.079 0 .147.005.203.014.06.005.112.019.154.042a.399.399 0 0 1 .133.091c.042.037.088.089.14.154l5.306 6.776a17.949 17.949 0 0 1-.035-.483 7.577 7.577 0 0 1-.014-.441v-6.153h1.659zM26.071 75.706c.532 0 1.015.086 1.45.259.438.173.811.418 1.12.735.312.317.552.705.72 1.162.168.457.252.968.252 1.533 0 .57-.084 1.083-.252 1.54a3.275 3.275 0 0 1-.72 1.169c-.309.322-.682.57-1.12.742a3.888 3.888 0 0 1-1.45.259 3.962 3.962 0 0 1-1.463-.259 3.164 3.164 0 0 1-1.127-.742 3.409 3.409 0 0 1-.72-1.169 4.442 4.442 0 0 1-.253-1.54c0-.565.084-1.076.252-1.533.173-.457.413-.845.721-1.162a3.211 3.211 0 0 1 1.127-.735 3.962 3.962 0 0 1 1.463-.259zm0 6.069c.597 0 1.038-.2 1.323-.602.29-.401.434-.99.434-1.764 0-.775-.145-1.365-.434-1.771-.285-.406-.726-.609-1.323-.609-.607 0-1.057.205-1.35.616-.29.406-.435.994-.435 1.764s.145 1.358.434 1.764c.294.401.744.602 1.351.602zM35.44 77.652a1.693 1.693 0 0 0-.644-.504 1.863 1.863 0 0 0-.742-.147c-.261 0-.497.049-.707.147-.21.098-.39.247-.539.448-.15.196-.264.448-.343.756-.08.303-.119.663-.119 1.078 0 .42.033.777.098 1.071.07.29.168.527.294.714.126.182.28.315.462.399.182.08.385.119.61.119.358 0 .664-.075.916-.224.252-.15.49-.362.714-.637v-3.22zm1.73-5.054V83h-1.058c-.229 0-.373-.105-.434-.315l-.147-.693c-.29.331-.623.6-1 .805-.374.205-.81.308-1.31.308-.392 0-.751-.082-1.078-.245a2.448 2.448 0 0 1-.847-.707 3.54 3.54 0 0 1-.546-1.155 5.917 5.917 0 0 1-.189-1.568c0-.532.073-1.027.217-1.484.145-.457.353-.854.623-1.19a2.87 2.87 0 0 1 .973-.784 2.781 2.781 0 0 1 1.274-.287c.401 0 .744.063 1.03.189.284.126.538.296.762.511v-3.787h1.73zM43.502 78.583a1.98 1.98 0 0 0-.098-.63c-.06-.2-.154-.376-.28-.525a1.28 1.28 0 0 0-.483-.35 1.584 1.584 0 0 0-.672-.133c-.499 0-.893.142-1.183.427-.284.285-.466.688-.546 1.211h3.262zm-3.297 1.043c.029.369.094.688.197.959a2 2 0 0 0 .405.665c.168.173.367.303.596.392.233.084.49.126.77.126s.52-.033.72-.098c.206-.065.383-.138.532-.217.155-.08.288-.152.4-.217a.689.689 0 0 1 .335-.098c.145 0 .253.054.323.161l.497.63a2.958 2.958 0 0 1-.644.567c-.239.15-.488.27-.75.364-.256.089-.52.152-.79.189a5.594 5.594 0 0 1-.777.056c-.5 0-.964-.082-1.393-.245a3.18 3.18 0 0 1-1.12-.735 3.493 3.493 0 0 1-.75-1.204c-.181-.48-.273-1.036-.273-1.666 0-.49.08-.95.239-1.379.158-.434.384-.81.678-1.127.3-.322.66-.576 1.086-.763.429-.187.912-.28 1.449-.28.452 0 .87.072 1.252.217.383.145.712.357.988.637.275.275.49.616.644 1.022.158.401.237.861.237 1.379 0 .261-.027.439-.084.532-.056.089-.163.133-.322.133h-4.444zM46.102 82.048c0-.145.026-.282.077-.413.056-.13.13-.243.224-.336a1.06 1.06 0 0 1 .756-.308 1.06 1.06 0 0 1 .98 1.477 1.023 1.023 0 0 1-.231.329.97.97 0 0 1-.336.217 1.005 1.005 0 0 1-.413.084c-.15 0-.29-.028-.42-.084a.97.97 0 0 1-.336-.217 1.082 1.082 0 0 1-.224-.329 1.14 1.14 0 0 1-.077-.42zM51.468 75.818v7.427c0 .313-.042.607-.126.882a1.84 1.84 0 0 1-.392.721c-.177.21-.413.373-.707.49-.29.121-.644.182-1.064.182-.163 0-.315-.012-.455-.035a2.615 2.615 0 0 1-.434-.098l.063-.931c.014-.093.052-.154.112-.182.06-.023.178-.035.35-.035.173 0 .318-.019.434-.056a.569.569 0 0 0 .287-.168.63.63 0 0 0 .147-.301c.033-.126.05-.282.05-.469v-7.427h1.735zm.238-2.093c0 .15-.03.29-.09.42-.061.13-.143.245-.246.343a1.139 1.139 0 0 1-.357.238 1.124 1.124 0 0 1-.854 0 1.188 1.188 0 0 1-.58-.581 1.124 1.124 0 0 1 0-.854 1.083 1.083 0 0 1 .581-.581 1.048 1.048 0 0 1 .854 0 1.102 1.102 0 0 1 .602.581c.06.135.09.28.09.434zM57.613 77.218a.501.501 0 0 1-.147.161.407.407 0 0 1-.196.042.64.64 0 0 1-.273-.07 8.111 8.111 0 0 0-.329-.154 2.735 2.735 0 0 0-.434-.161 2.023 2.023 0 0 0-.567-.07c-.34 0-.609.072-.805.217a.678.678 0 0 0-.287.567.56.56 0 0 0 .147.392c.103.103.236.194.399.273.168.08.357.152.567.217.21.06.422.128.637.203.22.075.434.161.644.259.21.093.397.215.56.364.168.145.301.32.399.525.103.205.154.453.154.742 0 .345-.063.665-.189.959-.121.29-.303.541-.546.756-.243.21-.544.376-.903.497a3.944 3.944 0 0 1-1.232.175c-.247 0-.49-.023-.728-.07a3.952 3.952 0 0 1-1.281-.462 2.986 2.986 0 0 1-.483-.35l.399-.658a.564.564 0 0 1 .182-.182.51.51 0 0 1 .266-.063c.107 0 .208.03.301.091.098.06.21.126.336.196.126.07.273.135.441.196.173.06.39.091.651.091.205 0 .38-.023.525-.07.15-.051.27-.117.364-.196a.684.684 0 0 0 .21-.273.819.819 0 0 0 .07-.329.573.573 0 0 0-.154-.413 1.261 1.261 0 0 0-.399-.28 3.457 3.457 0 0 0-.567-.21c-.21-.065-.427-.135-.651-.21a6.99 6.99 0 0 1-.651-.259 2.383 2.383 0 0 1-.567-.385 1.796 1.796 0 0 1-.399-.567 2.02 2.02 0 0 1-.147-.812c0-.294.058-.574.175-.84.117-.266.287-.497.511-.693.229-.2.511-.36.847-.476.34-.121.733-.182 1.176-.182.495 0 .945.082 1.351.245.406.163.744.378 1.015.644l-.392.623z" stroke="#fff" stroke-width="4" mask="url(#a)"/><path d="M60.91 16.115 37.483 2.512c-1.477-.841-3.401-.841-4.89 0L8.916 16.115c-1.525.877-2.604 2.526-2.604 4.289v27.169c0 1.763 1.108 3.412 2.632 4.294L15.2 55.42c2.99 1.473 4.046 1.473 5.407 1.473 4.427 0 6.956-2.677 6.956-7.346V22.724c0-.38-.198-.943-.57-.943h-2.987c-.378 0-1.225.564-1.225.942v26.823c0 2.07-1.872 4.13-5.37 2.38L10.946 48.2a.734.734 0 0 1-.384-.627v-27.17c0-.255.294-.512.521-.644l23.6-13.579a.827.827 0 0 1 .765 0L58.76 19.756c.223.134.145.384.145.648v27.169c0 .26.097.511-.123.636L35.361 61.797c-.201.12-.45.12-.67 0l-6.007-3.586c-.181-.105-.396-.143-.57-.045-1.671.947-1.98 1.073-3.547 1.616-.386.135-.955.368.218 1.025l7.861 4.65c.75.434 1.602.662 2.469.662.872 0 1.726-.226 2.48-.662l23.313-13.59c1.525-.888 2.247-2.53 2.247-4.294v-27.17c0-1.762-.722-3.407-2.246-4.288zM42.39 43.268c-6.23 0-7.602-1.719-8.06-4.817-.052-.333-.336-.732-.675-.732H30.61c-.376 0-.68.457-.68.832 0 3.966 2.157 8.772 12.46 8.772 7.458 0 11.734-2.898 11.734-8.027 0-5.085-3.435-6.42-10.668-7.377-7.311-.966-8.054-1.454-8.054-3.167 0-1.412.63-3.296 6.043-3.296 4.837 0 6.62 1.038 7.353 4.299a.67.67 0 0 0 .659.526h3.057a.699.699 0 0 0 .5-.21.688.688 0 0 0 .177-.52c-.473-5.614-4.203-8.23-11.747-8.23-6.71 0-10.713 2.833-10.713 7.583 0 5.152 3.983 6.576 10.424 7.213 7.706.755 8.305 1.881 8.305 3.397 0 2.632-2.113 3.754-7.07 3.754z" fill="#83CD29"/></svg>