<svg width="60" height="81" viewBox="0 0 71 91" fill="none" xmlns="http://www.w3.org/2000/svg"><mask id="a" maskUnits="userSpaceOnUse" x=".282" y="70.598" width="71" height="17" fill="#000"><path fill="#fff" d="M.282 70.598h71v17h-71z"/><path d="M5.572 77.967c.346 0 .647-.042.903-.126a1.74 1.74 0 0 0 .637-.371c.173-.163.301-.36.385-.588a2.28 2.28 0 0 0 .126-.777c0-.27-.042-.516-.126-.735a1.453 1.453 0 0 0-.378-.56 1.645 1.645 0 0 0-.637-.35 2.936 2.936 0 0 0-.91-.126H4.165v3.633h1.407zm0-5.089c.677 0 1.263.08 1.757.238.495.159.903.38 1.225.665.322.285.56.625.714 1.022.159.397.238.83.238 1.302 0 .49-.081.94-.245 1.351a2.802 2.802 0 0 1-.735 1.05c-.326.294-.737.523-1.232.686-.49.163-1.064.245-1.722.245H4.165V83H2.282V72.878h3.29zM12.379 76.588c.28-.261.588-.474.924-.637.336-.163.73-.245 1.183-.245.392 0 .74.068 1.043.203.303.13.555.317.756.56.205.238.36.525.462.861.107.331.16.698.16 1.099V83H15.18v-4.571c0-.439-.1-.777-.301-1.015-.2-.243-.506-.364-.917-.364a1.8 1.8 0 0 0-.84.203 3.01 3.01 0 0 0-.742.553V83h-1.73V72.598h1.73v3.99zM21.73 75.706c.532 0 1.015.086 1.45.259.438.173.811.418 1.12.735.312.317.552.705.72 1.162.168.457.252.968.252 1.533 0 .57-.084 1.083-.252 1.54a3.275 3.275 0 0 1-.72 1.169c-.309.322-.682.57-1.12.742a3.888 3.888 0 0 1-1.45.259 3.962 3.962 0 0 1-1.463-.259 3.164 3.164 0 0 1-1.127-.742 3.409 3.409 0 0 1-.72-1.169 4.442 4.442 0 0 1-.253-1.54c0-.565.084-1.076.252-1.533.173-.457.413-.845.721-1.162a3.211 3.211 0 0 1 1.127-.735 3.962 3.962 0 0 1 1.463-.259zm0 6.069c.598 0 1.039-.2 1.323-.602.29-.401.434-.99.434-1.764 0-.775-.144-1.365-.434-1.771-.284-.406-.725-.609-1.323-.609-.606 0-1.057.205-1.35.616-.29.406-.435.994-.435 1.764s.145 1.358.434 1.764c.294.401.745.602 1.351.602zM28.849 83.112c-.626 0-1.106-.175-1.442-.525-.332-.355-.497-.842-.497-1.463v-4.011h-.735a.337.337 0 0 1-.238-.091c-.066-.06-.098-.152-.098-.273v-.686l1.155-.189.364-1.96a.384.384 0 0 1 .133-.217.396.396 0 0 1 .252-.077h.896v2.261h1.918v1.232h-1.918v3.892c0 .224.053.399.16.525a.578.578 0 0 0 .456.189.856.856 0 0 0 .266-.035c.074-.028.137-.056.189-.084.056-.028.105-.054.147-.077a.226.226 0 0 1 .126-.042c.05 0 .093.014.126.042.032.023.067.06.105.112l.518.84c-.252.21-.542.369-.868.476a3.232 3.232 0 0 1-1.015.161zM34.787 75.706c.532 0 1.015.086 1.449.259.439.173.812.418 1.12.735.313.317.553.705.72 1.162.169.457.253.968.253 1.533 0 .57-.084 1.083-.252 1.54a3.273 3.273 0 0 1-.721 1.169c-.308.322-.681.57-1.12.742a3.888 3.888 0 0 1-1.45.259 3.963 3.963 0 0 1-1.462-.259 3.164 3.164 0 0 1-1.127-.742 3.41 3.41 0 0 1-.721-1.169 4.442 4.442 0 0 1-.252-1.54c0-.565.084-1.076.252-1.533.173-.457.413-.845.72-1.162a3.212 3.212 0 0 1 1.128-.735 3.963 3.963 0 0 1 1.463-.259zm0 6.069c.597 0 1.038-.2 1.323-.602.29-.401.434-.99.434-1.764 0-.775-.145-1.365-.434-1.771-.285-.406-.726-.609-1.323-.609-.607 0-1.057.205-1.351.616-.29.406-.434.994-.434 1.764s.145 1.358.434 1.764c.294.401.744.602 1.35.602zM44.03 77.218a.501.501 0 0 1-.147.161.407.407 0 0 1-.196.042.64.64 0 0 1-.273-.07 8.111 8.111 0 0 0-.329-.154 2.735 2.735 0 0 0-.434-.161 2.023 2.023 0 0 0-.567-.07c-.34 0-.609.072-.805.217a.678.678 0 0 0-.287.567.56.56 0 0 0 .147.392c.103.103.236.194.399.273.168.08.357.152.567.217.21.06.422.128.637.203.22.075.434.161.644.259.21.093.397.215.56.364.168.145.301.32.399.525.103.205.154.453.154.742 0 .345-.063.665-.189.959-.121.29-.303.541-.546.756-.243.21-.544.376-.903.497a3.944 3.944 0 0 1-1.232.175c-.247 0-.49-.023-.728-.07a3.952 3.952 0 0 1-1.281-.462 2.986 2.986 0 0 1-.483-.35l.399-.658a.564.564 0 0 1 .182-.182.51.51 0 0 1 .266-.063c.107 0 .208.03.301.091.098.06.21.126.336.196.126.07.273.135.441.196.173.06.39.091.651.091.205 0 .38-.023.525-.07.15-.051.27-.117.364-.196a.684.684 0 0 0 .21-.273.819.819 0 0 0 .07-.329.573.573 0 0 0-.154-.413 1.261 1.261 0 0 0-.399-.28 3.457 3.457 0 0 0-.567-.21c-.21-.065-.427-.135-.651-.21a6.99 6.99 0 0 1-.651-.259 2.383 2.383 0 0 1-.567-.385 1.796 1.796 0 0 1-.399-.567 2.02 2.02 0 0 1-.147-.812c0-.294.058-.574.175-.84.117-.266.287-.497.511-.693.229-.2.511-.36.847-.476.34-.121.733-.182 1.176-.182.495 0 .945.082 1.351.245.406.163.744.378 1.015.644l-.392.623zM47.53 76.588c.28-.261.587-.474.923-.637.336-.163.73-.245 1.183-.245.392 0 .74.068 1.043.203.304.13.556.317.756.56.206.238.36.525.462.861.108.331.161.698.161 1.099V83H50.33v-4.571c0-.439-.1-.777-.3-1.015-.201-.243-.507-.364-.918-.364a1.8 1.8 0 0 0-.84.203 3.01 3.01 0 0 0-.742.553V83H45.8V72.598h1.73v3.99zM56.88 75.706c.533 0 1.016.086 1.45.259.438.173.812.418 1.12.735.312.317.553.705.72 1.162.169.457.253.968.253 1.533 0 .57-.084 1.083-.252 1.54a3.273 3.273 0 0 1-.721 1.169c-.308.322-.682.57-1.12.742a3.888 3.888 0 0 1-1.45.259 3.963 3.963 0 0 1-1.462-.259 3.165 3.165 0 0 1-1.127-.742 3.41 3.41 0 0 1-.721-1.169 4.442 4.442 0 0 1-.252-1.54c0-.565.084-1.076.252-1.533.172-.457.413-.845.72-1.162a3.213 3.213 0 0 1 1.128-.735 3.963 3.963 0 0 1 1.463-.259zm0 6.069c.598 0 1.039-.2 1.324-.602.289-.401.434-.99.434-1.764 0-.775-.145-1.365-.434-1.771-.285-.406-.726-.609-1.323-.609-.607 0-1.057.205-1.351.616-.29.406-.434.994-.434 1.764s.144 1.358.434 1.764c.294.401.744.602 1.35.602zM63.47 81.138c.197.238.409.406.638.504.233.098.485.147.756.147.261 0 .497-.049.707-.147.21-.098.387-.247.532-.448.149-.2.263-.453.343-.756.079-.308.119-.67.119-1.085a4.6 4.6 0 0 0-.105-1.064 2.018 2.018 0 0 0-.287-.714 1.141 1.141 0 0 0-.462-.399 1.406 1.406 0 0 0-.61-.126c-.359 0-.664.077-.916.231-.252.15-.49.362-.714.637v3.22zm-.09-4.34c.294-.331.627-.6 1-.805.374-.205.813-.308 1.317-.308.392 0 .749.082 1.07.245.327.163.607.401.84.714.239.308.42.69.547 1.148.13.453.196.973.196 1.561 0 .537-.073 1.034-.217 1.491a3.611 3.611 0 0 1-.623 1.19c-.266.336-.59.6-.973.791-.378.187-.803.28-1.274.28-.402 0-.745-.06-1.03-.182a2.568 2.568 0 0 1-.762-.518v2.94h-1.73v-9.527H62.8c.224 0 .37.105.44.315l.14.665z"/></mask><path d="M5.572 77.967c.346 0 .647-.042.903-.126a1.74 1.74 0 0 0 .637-.371c.173-.163.301-.36.385-.588a2.28 2.28 0 0 0 .126-.777c0-.27-.042-.516-.126-.735a1.453 1.453 0 0 0-.378-.56 1.645 1.645 0 0 0-.637-.35 2.936 2.936 0 0 0-.91-.126H4.165v3.633h1.407zm0-5.089c.677 0 1.263.08 1.757.238.495.159.903.38 1.225.665.322.285.56.625.714 1.022.159.397.238.83.238 1.302 0 .49-.081.94-.245 1.351a2.802 2.802 0 0 1-.735 1.05c-.326.294-.737.523-1.232.686-.49.163-1.064.245-1.722.245H4.165V83H2.282V72.878h3.29zM12.379 76.588c.28-.261.588-.474.924-.637.336-.163.73-.245 1.183-.245.392 0 .74.068 1.043.203.303.13.555.317.756.56.205.238.36.525.462.861.107.331.16.698.16 1.099V83H15.18v-4.571c0-.439-.1-.777-.301-1.015-.2-.243-.506-.364-.917-.364a1.8 1.8 0 0 0-.84.203 3.01 3.01 0 0 0-.742.553V83h-1.73V72.598h1.73v3.99zM21.73 75.706c.532 0 1.015.086 1.45.259.438.173.811.418 1.12.735.312.317.552.705.72 1.162.168.457.252.968.252 1.533 0 .57-.084 1.083-.252 1.54a3.275 3.275 0 0 1-.72 1.169c-.309.322-.682.57-1.12.742a3.888 3.888 0 0 1-1.45.259 3.962 3.962 0 0 1-1.463-.259 3.164 3.164 0 0 1-1.127-.742 3.409 3.409 0 0 1-.72-1.169 4.442 4.442 0 0 1-.253-1.54c0-.565.084-1.076.252-1.533.173-.457.413-.845.721-1.162a3.211 3.211 0 0 1 1.127-.735 3.962 3.962 0 0 1 1.463-.259zm0 6.069c.598 0 1.039-.2 1.323-.602.29-.401.434-.99.434-1.764 0-.775-.144-1.365-.434-1.771-.284-.406-.725-.609-1.323-.609-.606 0-1.057.205-1.35.616-.29.406-.435.994-.435 1.764s.145 1.358.434 1.764c.294.401.745.602 1.351.602zM28.849 83.112c-.626 0-1.106-.175-1.442-.525-.332-.355-.497-.842-.497-1.463v-4.011h-.735a.337.337 0 0 1-.238-.091c-.066-.06-.098-.152-.098-.273v-.686l1.155-.189.364-1.96a.384.384 0 0 1 .133-.217.396.396 0 0 1 .252-.077h.896v2.261h1.918v1.232h-1.918v3.892c0 .224.053.399.16.525a.578.578 0 0 0 .456.189.856.856 0 0 0 .266-.035c.074-.028.137-.056.189-.084.056-.028.105-.054.147-.077a.226.226 0 0 1 .126-.042c.05 0 .093.014.126.042.032.023.067.06.105.112l.518.84c-.252.21-.542.369-.868.476a3.232 3.232 0 0 1-1.015.161zM34.787 75.706c.532 0 1.015.086 1.449.259.439.173.812.418 1.12.735.313.317.553.705.72 1.162.169.457.253.968.253 1.533 0 .57-.084 1.083-.252 1.54a3.273 3.273 0 0 1-.721 1.169c-.308.322-.681.57-1.12.742a3.888 3.888 0 0 1-1.45.259 3.963 3.963 0 0 1-1.462-.259 3.164 3.164 0 0 1-1.127-.742 3.41 3.41 0 0 1-.721-1.169 4.442 4.442 0 0 1-.252-1.54c0-.565.084-1.076.252-1.533.173-.457.413-.845.72-1.162a3.212 3.212 0 0 1 1.128-.735 3.963 3.963 0 0 1 1.463-.259zm0 6.069c.597 0 1.038-.2 1.323-.602.29-.401.434-.99.434-1.764 0-.775-.145-1.365-.434-1.771-.285-.406-.726-.609-1.323-.609-.607 0-1.057.205-1.351.616-.29.406-.434.994-.434 1.764s.145 1.358.434 1.764c.294.401.744.602 1.35.602zM44.03 77.218a.501.501 0 0 1-.147.161.407.407 0 0 1-.196.042.64.64 0 0 1-.273-.07 8.111 8.111 0 0 0-.329-.154 2.735 2.735 0 0 0-.434-.161 2.023 2.023 0 0 0-.567-.07c-.34 0-.609.072-.805.217a.678.678 0 0 0-.287.567.56.56 0 0 0 .147.392c.103.103.236.194.399.273.168.08.357.152.567.217.21.06.422.128.637.203.22.075.434.161.644.259.21.093.397.215.56.364.168.145.301.32.399.525.103.205.154.453.154.742 0 .345-.063.665-.189.959-.121.29-.303.541-.546.756-.243.21-.544.376-.903.497a3.944 3.944 0 0 1-1.232.175c-.247 0-.49-.023-.728-.07a3.952 3.952 0 0 1-1.281-.462 2.986 2.986 0 0 1-.483-.35l.399-.658a.564.564 0 0 1 .182-.182.51.51 0 0 1 .266-.063c.107 0 .208.03.301.091.098.06.21.126.336.196.126.07.273.135.441.196.173.06.39.091.651.091.205 0 .38-.023.525-.07.15-.051.27-.117.364-.196a.684.684 0 0 0 .21-.273.819.819 0 0 0 .07-.329.573.573 0 0 0-.154-.413 1.261 1.261 0 0 0-.399-.28 3.457 3.457 0 0 0-.567-.21c-.21-.065-.427-.135-.651-.21a6.99 6.99 0 0 1-.651-.259 2.383 2.383 0 0 1-.567-.385 1.796 1.796 0 0 1-.399-.567 2.02 2.02 0 0 1-.147-.812c0-.294.058-.574.175-.84.117-.266.287-.497.511-.693.229-.2.511-.36.847-.476.34-.121.733-.182 1.176-.182.495 0 .945.082 1.351.245.406.163.744.378 1.015.644l-.392.623zM47.53 76.588c.28-.261.587-.474.923-.637.336-.163.73-.245 1.183-.245.392 0 .74.068 1.043.203.304.13.556.317.756.56.206.238.36.525.462.861.108.331.161.698.161 1.099V83H50.33v-4.571c0-.439-.1-.777-.3-1.015-.201-.243-.507-.364-.918-.364a1.8 1.8 0 0 0-.84.203 3.01 3.01 0 0 0-.742.553V83H45.8V72.598h1.73v3.99zM56.88 75.706c.533 0 1.016.086 1.45.259.438.173.812.418 1.12.735.312.317.553.705.72 1.162.169.457.253.968.253 1.533 0 .57-.084 1.083-.252 1.54a3.273 3.273 0 0 1-.721 1.169c-.308.322-.682.57-1.12.742a3.888 3.888 0 0 1-1.45.259 3.963 3.963 0 0 1-1.462-.259 3.165 3.165 0 0 1-1.127-.742 3.41 3.41 0 0 1-.721-1.169 4.442 4.442 0 0 1-.252-1.54c0-.565.084-1.076.252-1.533.172-.457.413-.845.72-1.162a3.213 3.213 0 0 1 1.128-.735 3.963 3.963 0 0 1 1.463-.259zm0 6.069c.598 0 1.039-.2 1.324-.602.289-.401.434-.99.434-1.764 0-.775-.145-1.365-.434-1.771-.285-.406-.726-.609-1.323-.609-.607 0-1.057.205-1.351.616-.29.406-.434.994-.434 1.764s.144 1.358.434 1.764c.294.401.744.602 1.35.602zM63.47 81.138c.197.238.409.406.638.504.233.098.485.147.756.147.261 0 .497-.049.707-.147.21-.098.387-.247.532-.448.149-.2.263-.453.343-.756.079-.308.119-.67.119-1.085a4.6 4.6 0 0 0-.105-1.064 2.018 2.018 0 0 0-.287-.714 1.141 1.141 0 0 0-.462-.399 1.406 1.406 0 0 0-.61-.126c-.359 0-.664.077-.916.231-.252.15-.49.362-.714.637v3.22zm-.09-4.34c.294-.331.627-.6 1-.805.374-.205.813-.308 1.317-.308.392 0 .749.082 1.07.245.327.163.607.401.84.714.239.308.42.69.547 1.148.13.453.196.973.196 1.561 0 .537-.073 1.034-.217 1.491a3.611 3.611 0 0 1-.623 1.19c-.266.336-.59.6-.973.791-.378.187-.803.28-1.274.28-.402 0-.745-.06-1.03-.182a2.568 2.568 0 0 1-.762-.518v2.94h-1.73v-9.527H62.8c.224 0 .37.105.44.315l.14.665z" fill="#000"/><path d="M5.572 77.967c.346 0 .647-.042.903-.126a1.74 1.74 0 0 0 .637-.371c.173-.163.301-.36.385-.588a2.28 2.28 0 0 0 .126-.777c0-.27-.042-.516-.126-.735a1.453 1.453 0 0 0-.378-.56 1.645 1.645 0 0 0-.637-.35 2.936 2.936 0 0 0-.91-.126H4.165v3.633h1.407zm0-5.089c.677 0 1.263.08 1.757.238.495.159.903.38 1.225.665.322.285.56.625.714 1.022.159.397.238.83.238 1.302 0 .49-.081.94-.245 1.351a2.802 2.802 0 0 1-.735 1.05c-.326.294-.737.523-1.232.686-.49.163-1.064.245-1.722.245H4.165V83H2.282V72.878h3.29zM12.379 76.588c.28-.261.588-.474.924-.637.336-.163.73-.245 1.183-.245.392 0 .74.068 1.043.203.303.13.555.317.756.56.205.238.36.525.462.861.107.331.16.698.16 1.099V83H15.18v-4.571c0-.439-.1-.777-.301-1.015-.2-.243-.506-.364-.917-.364a1.8 1.8 0 0 0-.84.203 3.01 3.01 0 0 0-.742.553V83h-1.73V72.598h1.73v3.99zM21.73 75.706c.532 0 1.015.086 1.45.259.438.173.811.418 1.12.735.312.317.552.705.72 1.162.168.457.252.968.252 1.533 0 .57-.084 1.083-.252 1.54a3.275 3.275 0 0 1-.72 1.169c-.309.322-.682.57-1.12.742a3.888 3.888 0 0 1-1.45.259 3.962 3.962 0 0 1-1.463-.259 3.164 3.164 0 0 1-1.127-.742 3.409 3.409 0 0 1-.72-1.169 4.442 4.442 0 0 1-.253-1.54c0-.565.084-1.076.252-1.533.173-.457.413-.845.721-1.162a3.211 3.211 0 0 1 1.127-.735 3.962 3.962 0 0 1 1.463-.259zm0 6.069c.598 0 1.039-.2 1.323-.602.29-.401.434-.99.434-1.764 0-.775-.144-1.365-.434-1.771-.284-.406-.725-.609-1.323-.609-.606 0-1.057.205-1.35.616-.29.406-.435.994-.435 1.764s.145 1.358.434 1.764c.294.401.745.602 1.351.602zM28.849 83.112c-.626 0-1.106-.175-1.442-.525-.332-.355-.497-.842-.497-1.463v-4.011h-.735a.337.337 0 0 1-.238-.091c-.066-.06-.098-.152-.098-.273v-.686l1.155-.189.364-1.96a.384.384 0 0 1 .133-.217.396.396 0 0 1 .252-.077h.896v2.261h1.918v1.232h-1.918v3.892c0 .224.053.399.16.525a.578.578 0 0 0 .456.189.856.856 0 0 0 .266-.035c.074-.028.137-.056.189-.084.056-.028.105-.054.147-.077a.226.226 0 0 1 .126-.042c.05 0 .093.014.126.042.032.023.067.06.105.112l.518.84c-.252.21-.542.369-.868.476a3.232 3.232 0 0 1-1.015.161zM34.787 75.706c.532 0 1.015.086 1.449.259.439.173.812.418 1.12.735.313.317.553.705.72 1.162.169.457.253.968.253 1.533 0 .57-.084 1.083-.252 1.54a3.273 3.273 0 0 1-.721 1.169c-.308.322-.681.57-1.12.742a3.888 3.888 0 0 1-1.45.259 3.963 3.963 0 0 1-1.462-.259 3.164 3.164 0 0 1-1.127-.742 3.41 3.41 0 0 1-.721-1.169 4.442 4.442 0 0 1-.252-1.54c0-.565.084-1.076.252-1.533.173-.457.413-.845.72-1.162a3.212 3.212 0 0 1 1.128-.735 3.963 3.963 0 0 1 1.463-.259zm0 6.069c.597 0 1.038-.2 1.323-.602.29-.401.434-.99.434-1.764 0-.775-.145-1.365-.434-1.771-.285-.406-.726-.609-1.323-.609-.607 0-1.057.205-1.351.616-.29.406-.434.994-.434 1.764s.145 1.358.434 1.764c.294.401.744.602 1.35.602zM44.03 77.218a.501.501 0 0 1-.147.161.407.407 0 0 1-.196.042.64.64 0 0 1-.273-.07 8.111 8.111 0 0 0-.329-.154 2.735 2.735 0 0 0-.434-.161 2.023 2.023 0 0 0-.567-.07c-.34 0-.609.072-.805.217a.678.678 0 0 0-.287.567.56.56 0 0 0 .147.392c.103.103.236.194.399.273.168.08.357.152.567.217.21.06.422.128.637.203.22.075.434.161.644.259.21.093.397.215.56.364.168.145.301.32.399.525.103.205.154.453.154.742 0 .345-.063.665-.189.959-.121.29-.303.541-.546.756-.243.21-.544.376-.903.497a3.944 3.944 0 0 1-1.232.175c-.247 0-.49-.023-.728-.07a3.952 3.952 0 0 1-1.281-.462 2.986 2.986 0 0 1-.483-.35l.399-.658a.564.564 0 0 1 .182-.182.51.51 0 0 1 .266-.063c.107 0 .208.03.301.091.098.06.21.126.336.196.126.07.273.135.441.196.173.06.39.091.651.091.205 0 .38-.023.525-.07.15-.051.27-.117.364-.196a.684.684 0 0 0 .21-.273.819.819 0 0 0 .07-.329.573.573 0 0 0-.154-.413 1.261 1.261 0 0 0-.399-.28 3.457 3.457 0 0 0-.567-.21c-.21-.065-.427-.135-.651-.21a6.99 6.99 0 0 1-.651-.259 2.383 2.383 0 0 1-.567-.385 1.796 1.796 0 0 1-.399-.567 2.02 2.02 0 0 1-.147-.812c0-.294.058-.574.175-.84.117-.266.287-.497.511-.693.229-.2.511-.36.847-.476.34-.121.733-.182 1.176-.182.495 0 .945.082 1.351.245.406.163.744.378 1.015.644l-.392.623zM47.53 76.588c.28-.261.587-.474.923-.637.336-.163.73-.245 1.183-.245.392 0 .74.068 1.043.203.304.13.556.317.756.56.206.238.36.525.462.861.108.331.161.698.161 1.099V83H50.33v-4.571c0-.439-.1-.777-.3-1.015-.201-.243-.507-.364-.918-.364a1.8 1.8 0 0 0-.84.203 3.01 3.01 0 0 0-.742.553V83H45.8V72.598h1.73v3.99zM56.88 75.706c.533 0 1.016.086 1.45.259.438.173.812.418 1.12.735.312.317.553.705.72 1.162.169.457.253.968.253 1.533 0 .57-.084 1.083-.252 1.54a3.273 3.273 0 0 1-.721 1.169c-.308.322-.682.57-1.12.742a3.888 3.888 0 0 1-1.45.259 3.963 3.963 0 0 1-1.462-.259 3.165 3.165 0 0 1-1.127-.742 3.41 3.41 0 0 1-.721-1.169 4.442 4.442 0 0 1-.252-1.54c0-.565.084-1.076.252-1.533.172-.457.413-.845.72-1.162a3.213 3.213 0 0 1 1.128-.735 3.963 3.963 0 0 1 1.463-.259zm0 6.069c.598 0 1.039-.2 1.324-.602.289-.401.434-.99.434-1.764 0-.775-.145-1.365-.434-1.771-.285-.406-.726-.609-1.323-.609-.607 0-1.057.205-1.351.616-.29.406-.434.994-.434 1.764s.144 1.358.434 1.764c.294.401.744.602 1.35.602zM63.47 81.138c.197.238.409.406.638.504.233.098.485.147.756.147.261 0 .497-.049.707-.147.21-.098.387-.247.532-.448.149-.2.263-.453.343-.756.079-.308.119-.67.119-1.085a4.6 4.6 0 0 0-.105-1.064 2.018 2.018 0 0 0-.287-.714 1.141 1.141 0 0 0-.462-.399 1.406 1.406 0 0 0-.61-.126c-.359 0-.664.077-.916.231-.252.15-.49.362-.714.637v3.22zm-.09-4.34c.294-.331.627-.6 1-.805.374-.205.813-.308 1.317-.308.392 0 .749.082 1.07.245.327.163.607.401.84.714.239.308.42.69.547 1.148.13.453.196.973.196 1.561 0 .537-.073 1.034-.217 1.491a3.611 3.611 0 0 1-.623 1.19c-.266.336-.59.6-.973.791-.378.187-.803.28-1.274.28-.402 0-.745-.06-1.03-.182a2.568 2.568 0 0 1-.762-.518v2.94h-1.73v-9.527H62.8c.224 0 .37.105.44.315l.14.665z" stroke="#fff" stroke-width="4" mask="url(#a)"/><path fill-rule="evenodd" clip-rule="evenodd" d="M68.052.386C48.81.38 29.652.381 10.407.381 7.655.38 4.855.379 2.103.387c-.174 0-.572.081-.572.125V67.47H68.47V.512c0-.044-.22-.126-.417-.126zm-6.766 60.53c-17.34-.02-34.675-.016-52.016-.016-.837 0-.833-.001-.833-.864V8.081c0-.853-.008-.643.838-.643h51.956c.87 0 .863-.21.863.685v25.945c0 8.67-.004 17.34.019 26.01.002.66-.154.839-.827.838zm-30.1-39.855c-3.543-.83-7.108-.42-10.67-.057-.756.078-.901.401-.899 1.072.023 8.079-.023 16.157-.023 24.236v.438h4.781v-9.489c2.656.2 5.087.152 7.463-.696 3.81-1.358 5.712-4.309 5.507-8.616-.166-3.479-2.351-5.996-6.16-6.888zm-1.038 11.87c-1.697.827-3.5.808-5.315.562-.141-.019-.359-.271-.36-.416-.021-2.832-.016-5.664-.016-8.574 1.664-.259 3.241-.385 4.814.01 1.952.49 3.084 1.763 3.295 3.675.231 2.1-.663 3.888-2.418 4.743zm17.691 3.775c-.78-.428-1.636-.715-2.447-1.09-.749-.347-1.505-.689-2.217-1.103-.497-.289-.723-.793-.723-1.387 0-1.006.688-1.816 1.862-1.912.876-.072 1.785.019 2.653.18.73.137 1.424.478 2.169.742l.938-3.33c-1.777-.863-3.585-1.188-5.464-1.122-1.597.056-3.088.463-4.437 1.381-2.52 1.716-3.749 6.273.027 8.721.96.622 2.069 1.012 3.109 1.51.647.31 1.322.573 1.934.94.771.465 1.034 1.221.9 2.094-.131.858-.707 1.401-1.507 1.527-.892.14-1.841.23-2.719.076-1.242-.218-2.443-.68-3.705-1.051-.226.845-.441 1.78-.735 2.688-.16.498-.066.744.423.94 2.984 1.185 6.02 1.428 9.074.38 2.283-.783 3.674-2.403 3.855-4.87.176-2.406-.907-4.172-2.99-5.314z" fill="#80B5E2"/></svg>