<svg id="svg" version="1.1" xmlns="http://www.w3.org/2000/svg" xmlns:xlink="http://www.w3.org/1999/xlink" width="400" height="266.44295302013427" viewBox="0, 0, 400,266.44295302013427"><g id="svgg"><path id="path0" d="M153.305 66.290 C 152.100 67.572,150.587 69.221,149.943 69.953 C 149.299 70.686,147.546 72.665,146.046 74.350 C 144.547 76.036,143.249 77.595,143.163 77.815 C 143.076 78.035,142.068 79.147,140.923 80.287 C 139.778 81.427,138.841 82.480,138.841 82.627 C 138.841 82.774,137.751 83.997,136.418 85.344 C 135.086 86.692,133.824 88.128,133.613 88.534 C 133.403 88.941,133.111 89.274,132.965 89.274 C 132.350 89.274,132.218 90.581,132.610 92.777 C 132.829 94.002,133.171 96.083,133.371 97.402 C 133.571 98.721,133.803 100.160,133.887 100.600 C 133.971 101.039,134.221 102.568,134.442 103.997 C 135.307 109.595,135.699 111.919,136.319 115.123 C 136.674 116.955,137.212 120.133,137.515 122.185 C 137.818 124.237,138.178 126.276,138.314 126.716 C 138.450 127.155,138.673 128.534,138.809 129.780 C 139.131 132.730,139.738 136.334,140.582 140.306 C 140.955 142.065,141.435 144.924,141.649 146.659 C 141.863 148.394,142.267 150.972,142.547 152.388 C 142.827 153.805,143.138 155.683,143.238 156.562 C 143.337 157.442,143.578 158.521,143.773 158.961 C 143.969 159.400,144.204 160.720,144.297 161.892 C 144.499 164.454,145.425 167.828,146.012 168.142 C 147.054 168.699,157.005 168.326,157.411 167.714 C 157.735 167.226,157.791 161.516,157.791 128.636 C 157.791 92.775,157.822 90.101,158.242 89.721 C 158.995 89.041,242.181 89.229,242.748 89.911 C 243.059 90.286,243.190 173.310,242.881 174.116 C 242.789 174.355,242.517 174.553,242.277 174.556 C 242.036 174.559,225.996 174.557,206.632 174.550 C 165.784 174.537,169.997 174.194,170.654 177.484 C 170.873 178.582,171.197 180.440,171.374 181.612 C 171.795 184.407,171.879 184.537,173.680 185.153 C 176.696 186.186,186.703 189.695,188.219 190.252 C 189.068 190.564,190.388 190.989,191.151 191.196 C 191.914 191.404,194.097 192.159,196.003 192.873 C 197.908 193.588,201.266 194.753,203.464 195.462 C 205.663 196.172,208.061 197.018,208.794 197.342 C 210.137 197.936,213.037 198.893,215.989 199.716 C 217.865 200.239,219.756 199.686,222.268 197.882 C 222.993 197.361,223.675 196.930,223.785 196.924 C 223.894 196.918,224.823 196.379,225.849 195.727 C 226.875 195.075,228.195 194.285,228.781 193.971 C 229.367 193.656,229.907 193.313,229.980 193.208 C 230.053 193.102,231.552 192.208,233.311 191.220 C 238.042 188.563,240.300 187.223,240.832 186.756 C 241.092 186.527,241.707 186.116,242.197 185.842 C 244.253 184.693,245.530 183.931,247.725 182.545 C 249.002 181.739,250.898 180.617,251.939 180.053 C 252.979 179.488,254.076 178.801,254.375 178.526 C 254.675 178.250,255.304 177.891,255.774 177.727 C 256.244 177.564,256.629 177.317,256.629 177.180 C 256.629 177.042,257.139 176.689,257.761 176.394 C 259.854 175.405,265.519 172.151,267.089 171.037 C 268.083 170.331,268.113 168.658,267.155 167.247 C 266.789 166.707,266.489 166.047,266.489 165.781 C 266.489 165.514,266.129 164.844,265.690 164.290 C 265.250 163.737,264.890 163.110,264.890 162.897 C 264.890 162.684,264.650 162.204,264.357 161.832 C 264.064 161.459,263.824 160.929,263.824 160.655 C 263.824 160.380,263.464 159.779,263.025 159.318 C 262.585 158.858,262.225 158.338,262.225 158.162 C 262.225 157.986,261.749 156.954,261.167 155.870 C 260.585 154.785,259.881 153.415,259.603 152.824 C 258.756 151.028,258.098 149.726,256.978 147.635 C 253.678 141.474,252.632 139.397,252.632 139.008 C 252.632 138.672,256.922 134.143,262.954 128.110 C 263.066 127.998,264.185 126.919,265.441 125.712 C 268.387 122.881,268.738 122.332,268.241 121.334 C 268.035 120.923,267.665 119.867,267.418 118.987 C 267.170 118.108,266.810 117.029,266.618 116.589 C 266.263 115.777,265.235 113.301,264.349 111.126 C 264.080 110.466,263.442 108.847,262.931 107.528 C 260.269 100.657,258.133 95.446,257.675 94.705 C 257.393 94.248,257.162 93.719,257.162 93.529 C 257.162 93.103,254.743 86.792,253.438 83.811 C 253.181 83.225,252.639 81.845,252.234 80.746 C 251.176 77.877,252.001 78.265,243.971 76.859 C 242.652 76.628,240.073 76.158,238.241 75.814 C 236.409 75.470,233.831 74.994,232.512 74.755 C 231.193 74.516,229.514 74.206,228.781 74.067 C 228.048 73.928,225.590 73.516,223.318 73.150 C 221.046 72.784,218.625 72.345,217.937 72.172 C 216.457 71.802,217.082 71.378,210.703 77.082 C 205.181 82.020,205.684 82.044,203.855 76.749 C 202.832 73.786,202.721 73.668,200.722 73.424 C 199.885 73.322,198.481 73.056,197.602 72.833 C 196.722 72.611,195.283 72.309,194.404 72.163 C 193.524 72.017,191.845 71.618,190.673 71.275 C 189.500 70.933,187.773 70.571,186.834 70.472 C 185.895 70.372,184.743 70.131,184.273 69.935 C 183.804 69.738,182.398 69.451,181.148 69.296 C 179.899 69.140,178.226 68.790,177.431 68.516 C 176.637 68.243,175.214 67.931,174.269 67.824 C 173.324 67.717,172.132 67.451,171.619 67.233 C 171.106 67.016,169.607 66.671,168.288 66.468 C 166.969 66.264,165.230 65.914,164.424 65.690 C 163.618 65.466,162.119 65.208,161.093 65.115 C 160.067 65.023,158.653 64.725,157.951 64.453 C 155.901 63.656,155.710 63.732,153.305 66.290 " stroke="none" fill="#b446d8" fill-rule="evenodd"></path><path id="path1" d="M0.000 133.245 L 0.000 266.489 200.000 266.489 L 400.000 266.489 400.000 133.245 L 400.000 0.000 200.000 0.000 L 0.000 0.000 0.000 133.245 M159.627 64.529 C 161.019 64.824,162.677 65.180,163.310 65.320 C 164.732 65.633,170.789 66.862,172.418 67.167 C 173.078 67.291,174.337 67.587,175.217 67.826 C 176.096 68.065,177.415 68.365,178.148 68.493 C 178.881 68.622,181.519 69.160,184.011 69.689 C 186.502 70.219,189.380 70.819,190.406 71.024 C 191.432 71.228,192.991 71.582,193.871 71.810 C 194.750 72.037,197.024 72.531,198.923 72.908 C 203.197 73.754,203.119 73.710,203.698 75.596 C 204.673 78.765,205.606 81.007,205.952 81.010 C 206.147 81.011,208.285 79.244,210.703 77.082 C 217.096 71.364,216.419 71.816,218.063 72.171 C 218.828 72.336,221.252 72.778,223.451 73.153 C 225.650 73.528,228.048 73.944,228.781 74.078 C 229.514 74.211,231.193 74.516,232.512 74.755 C 233.831 74.994,236.409 75.470,238.241 75.814 C 240.073 76.158,242.652 76.628,243.971 76.859 C 249.780 77.876,250.898 78.107,251.123 78.332 C 251.398 78.607,254.375 85.838,255.683 89.407 C 256.166 90.726,256.808 92.345,257.109 93.005 C 257.410 93.664,258.640 96.662,259.842 99.667 C 261.045 102.672,262.845 107.169,263.842 109.660 C 264.840 112.152,266.159 115.450,266.773 116.989 C 267.387 118.528,268.114 120.295,268.388 120.916 C 268.663 121.538,268.887 122.204,268.887 122.397 C 268.887 122.590,265.230 126.324,260.759 130.693 C 256.289 135.063,252.632 138.819,252.632 139.040 C 252.632 139.435,253.705 141.524,258.210 149.900 C 259.472 152.245,260.677 154.524,260.889 154.963 C 261.100 155.403,261.478 156.068,261.728 156.441 C 261.979 156.814,262.989 158.673,263.973 160.571 C 267.365 167.112,268.078 168.450,268.482 169.027 C 269.015 169.787,268.995 170.263,268.421 170.476 C 268.165 170.571,267.535 170.913,267.022 171.237 C 266.509 171.560,265.204 172.348,264.122 172.988 C 263.039 173.627,261.840 174.359,261.457 174.614 C 261.073 174.869,260.580 175.157,260.360 175.254 C 260.140 175.351,259.780 175.575,259.560 175.750 C 259.340 175.926,258.630 176.358,257.981 176.709 C 257.333 177.061,255.174 178.332,253.185 179.533 C 248.655 182.269,244.861 184.512,244.536 184.646 C 244.399 184.703,243.159 185.453,241.781 186.312 C 240.403 187.172,239.237 187.875,239.191 187.875 C 239.145 187.875,237.144 189.072,234.744 190.535 C 232.344 191.998,229.480 193.697,228.381 194.311 C 227.282 194.925,225.723 195.852,224.917 196.371 C 224.111 196.891,223.211 197.453,222.918 197.620 C 222.625 197.787,221.426 198.499,220.253 199.202 C 217.677 200.747,218.591 200.808,212.525 198.684 C 209.740 197.709,205.423 196.206,202.931 195.345 C 198.114 193.679,190.655 191.080,181.079 187.730 C 177.855 186.602,174.518 185.440,173.665 185.148 C 171.843 184.525,171.796 184.443,171.206 180.813 C 170.515 176.562,170.275 175.281,170.127 175.041 C 170.051 174.918,167.447 174.815,164.341 174.813 C 157.474 174.808,157.929 175.041,157.761 171.430 L 157.628 168.554 151.653 168.482 C 145.348 168.407,144.970 168.332,144.970 167.164 C 144.970 166.801,144.682 164.987,144.330 163.132 C 143.613 159.351,142.672 153.715,141.633 146.969 C 141.249 144.477,140.653 140.939,140.309 139.107 C 139.965 137.275,139.609 135.237,139.519 134.577 C 139.428 133.917,139.247 132.898,139.117 132.312 C 138.987 131.726,138.756 130.406,138.604 129.380 C 137.687 123.199,136.854 118.037,136.304 115.123 C 135.694 111.896,135.282 109.429,134.442 103.997 C 134.221 102.568,133.973 101.039,133.890 100.600 C 133.808 100.160,133.634 99.141,133.503 98.334 C 133.372 97.528,133.027 95.448,132.738 93.712 C 132.096 89.861,132.039 90.032,135.112 86.553 C 136.444 85.045,138.577 82.618,139.853 81.161 C 141.128 79.703,142.779 77.844,143.522 77.030 C 144.264 76.216,145.103 75.242,145.387 74.866 C 145.671 74.490,146.820 73.171,147.940 71.935 C 149.061 70.698,151.089 68.428,152.448 66.889 C 155.691 63.215,154.803 63.507,159.627 64.529 M205.776 101.018 C 199.685 102.217,196.033 108.318,197.884 114.204 C 199.019 117.813,201.615 119.383,210.660 121.932 C 215.406 123.269,216.808 124.803,215.836 127.592 C 214.562 131.247,206.731 130.901,201.550 126.961 C 201.084 126.606,200.537 126.316,200.335 126.316 C 199.656 126.316,196.225 130.609,196.521 131.089 C 197.063 131.966,200.291 133.773,203.464 134.975 C 214.463 139.143,223.960 133.954,222.930 124.339 C 222.460 119.949,219.756 117.773,211.827 115.404 C 205.525 113.522,204.676 112.975,204.477 110.668 C 204.107 106.373,209.961 105.369,215.866 108.715 C 218.278 110.082,218.162 110.100,219.616 108.128 C 221.779 105.194,221.877 104.877,220.853 104.099 C 217.254 101.363,210.764 100.037,205.776 101.018 M166.354 118.388 L 166.422 135.510 169.687 135.584 C 171.482 135.626,172.975 135.626,173.003 135.584 C 173.032 135.543,173.121 133.231,173.203 130.446 L 173.351 125.383 177.822 125.197 C 182.785 124.990,184.728 124.602,187.287 123.308 C 195.532 119.140,195.349 106.696,186.982 102.603 C 184.534 101.406,183.215 101.266,174.379 101.266 L 166.285 101.266 166.354 118.388 M183.245 107.958 C 187.628 110.213,186.891 117.094,182.112 118.526 C 180.115 119.124,173.829 118.966,173.477 118.308 C 172.904 117.236,173.252 107.959,173.884 107.483 C 174.838 106.765,181.593 107.107,183.245 107.958 M166.669 159.183 C 166.593 159.381,166.566 160.408,166.610 161.464 L 166.689 163.385 182.005 163.365 C 190.429 163.354,197.420 163.247,197.540 163.126 C 197.661 163.005,197.724 162.019,197.681 160.934 L 197.602 158.961 182.204 158.892 C 169.467 158.835,166.783 158.885,166.669 159.183 M210.127 205.975 C 211.682 206.670,213.308 209.157,212.774 210.022 C 212.357 210.696,210.766 210.262,210.395 209.373 C 209.233 206.591,204.024 206.744,204.024 209.559 C 204.024 210.881,204.158 210.968,207.619 211.895 C 212.975 213.330,214.681 215.840,212.439 218.987 C 209.708 222.822,200.748 220.779,201.250 216.435 C 201.421 214.955,202.860 215.300,203.704 217.024 C 204.564 218.782,205.468 219.200,207.925 218.977 C 211.913 218.616,212.065 215.177,208.128 214.405 C 202.908 213.381,201.398 212.086,201.857 209.025 C 202.331 205.866,206.470 204.339,210.127 205.975 M175.007 206.281 C 177.829 208.280,177.373 213.084,174.259 214.175 C 173.759 214.350,172.122 214.500,170.620 214.509 L 167.888 214.524 167.888 217.588 L 167.888 220.653 166.822 220.653 L 165.756 220.653 165.756 213.168 L 165.756 205.684 170.087 205.773 C 173.484 205.843,174.544 205.953,175.007 206.281 M180.889 208.161 L 180.966 210.459 181.945 209.960 C 185.883 207.952,187.608 209.914,187.608 216.397 L 187.608 220.685 186.609 220.602 L 185.610 220.520 185.476 216.389 C 185.313 211.340,184.882 210.676,182.428 211.702 C 181.145 212.238,181.092 212.413,180.946 216.656 L 180.813 220.520 179.813 220.602 L 178.814 220.685 178.814 213.191 L 178.814 205.697 179.813 205.780 L 180.813 205.863 180.889 208.161 M217.722 208.261 L 217.722 209.727 218.654 209.727 C 219.505 209.727,219.587 209.794,219.587 210.498 C 219.587 211.282,219.203 211.592,218.233 211.592 C 217.755 211.592,217.722 211.818,217.722 215.003 C 217.722 218.620,217.856 219.054,218.974 219.054 C 219.869 219.054,219.830 220.287,218.922 220.701 C 216.556 221.779,215.590 220.216,215.590 215.311 C 215.590 211.851,215.555 211.592,215.089 211.592 C 214.399 211.592,213.912 210.929,214.120 210.273 C 214.232 209.920,214.522 209.727,214.941 209.727 C 215.549 209.727,215.590 209.636,215.590 208.261 L 215.590 206.795 216.656 206.795 L 217.722 206.795 217.722 208.261 M167.888 210.127 L 167.888 212.392 170.523 212.392 C 174.039 212.392,175.473 211.139,174.376 209.025 C 173.807 207.929,173.617 207.870,170.620 207.866 L 167.888 207.861 167.888 210.127 M196.851 209.744 C 200.562 211.146,200.607 218.621,196.917 220.529 C 195.780 221.117,193.688 221.034,192.841 220.367 L 192.139 219.815 192.139 222.366 L 192.139 224.917 191.073 224.917 L 190.007 224.917 190.007 217.322 L 190.007 209.727 190.948 209.727 C 191.497 209.727,191.947 209.878,192.028 210.090 C 192.141 210.385,192.353 210.360,193.142 209.957 C 194.231 209.402,195.720 209.316,196.851 209.744 M228.339 210.184 C 232.715 213.425,230.470 220.922,225.125 220.918 C 219.867 220.915,218.269 212.409,223.058 209.910 C 224.300 209.262,227.304 209.418,228.339 210.184 M237.975 210.488 C 237.975 211.478,237.933 211.525,236.869 211.754 C 234.967 212.163,234.660 212.870,234.550 217.089 L 234.457 220.682 233.484 220.601 L 232.512 220.520 232.440 215.123 L 232.367 209.727 233.331 209.727 C 234.054 209.727,234.327 209.853,234.427 210.235 C 234.553 210.719,234.604 210.713,235.505 210.102 C 237.030 209.067,237.975 209.214,237.975 210.488 M245.669 209.755 C 246.133 209.917,246.645 210.296,246.807 210.597 C 247.079 211.107,247.118 211.112,247.361 210.677 C 247.974 209.582,250.332 209.160,251.984 209.851 C 253.456 210.466,253.698 211.387,253.698 216.381 L 253.698 220.653 252.632 220.653 L 251.566 220.653 251.566 216.422 C 251.566 211.698,251.508 211.539,249.808 211.539 C 247.968 211.539,247.721 212.096,247.568 216.596 L 247.435 220.520 246.369 220.520 L 245.303 220.520 245.170 216.141 L 245.037 211.763 244.370 211.590 C 242.049 210.986,241.386 212.128,241.230 217.003 L 241.111 220.681 240.143 220.601 L 239.174 220.520 239.174 215.190 L 239.174 209.860 240.173 209.777 C 240.936 209.714,241.173 209.793,241.173 210.110 C 241.173 210.627,241.118 210.632,242.372 209.993 C 243.553 209.391,244.441 209.327,245.669 209.755 M193.414 211.740 C 191.895 212.564,191.631 217.216,193.034 218.424 C 194.501 219.685,196.646 218.938,197.191 216.977 C 198.264 213.115,196.186 210.235,193.414 211.740 M223.909 211.742 C 222.534 212.704,221.971 216.248,222.957 217.729 C 225.240 221.158,229.130 218.122,228.137 213.687 C 227.674 211.620,225.506 210.623,223.909 211.742 " stroke="none" fill="#f4f3fb" fill-rule="evenodd"></path><path id="path2" d="M158.728 90.211 C 158.115 90.824,158.160 173.190,158.774 173.804 C 159.355 174.385,241.720 174.498,242.300 173.918 C 242.742 173.476,242.727 90.723,242.284 90.302 C 241.791 89.832,159.197 89.741,158.728 90.211 M215.442 100.729 C 219.161 101.916,222.681 104.079,222.433 105.027 C 221.868 107.188,217.912 111.282,217.318 110.320 C 216.253 108.597,209.272 106.914,206.918 107.813 C 202.885 109.353,204.747 112.815,210.393 114.278 C 220.122 116.799,223.335 119.494,223.542 125.308 C 223.735 130.740,221.262 134.448,216.389 136.033 C 215.583 136.295,214.648 136.614,214.311 136.742 C 210.750 138.098,202.060 135.976,197.408 132.615 C 195.269 131.070,195.271 131.022,197.629 128.074 C 200.030 125.071,199.829 125.113,202.914 126.974 C 209.090 130.700,215.323 130.367,215.323 126.312 C 215.323 124.494,214.557 123.935,210.182 122.563 C 200.805 119.623,199.300 118.791,197.781 115.715 C 192.971 105.973,203.603 96.951,215.442 100.729 M185.022 101.078 C 190.843 103.063,194.004 107.220,194.004 112.889 C 194.004 121.091,188.821 125.429,178.681 125.716 C 173.257 125.870,173.760 125.312,173.755 131.170 C 173.751 135.395,173.702 135.916,173.284 136.130 C 172.724 136.418,167.972 136.532,166.677 136.289 L 165.756 136.117 165.756 118.469 C 165.756 108.763,165.845 100.733,165.953 100.625 C 166.376 100.202,183.657 100.613,185.022 101.078 M174.217 108.075 C 174.107 108.190,174.017 110.482,174.017 113.169 L 174.017 118.055 177.825 118.055 C 181.244 118.055,181.754 117.993,182.819 117.455 C 186.514 115.589,186.517 110.085,182.824 108.521 C 181.788 108.083,174.569 107.709,174.217 108.075 M198.212 160.920 C 198.261 162.528,198.179 163.544,197.979 163.784 C 197.556 164.294,166.851 164.346,166.342 163.837 C 166.001 163.496,165.878 158.794,166.202 158.470 C 166.301 158.371,173.526 158.321,182.258 158.359 L 198.135 158.428 198.212 160.920 M205.726 205.698 C 203.451 206.168,201.999 207.841,201.999 209.992 C 201.999 212.108,202.972 212.872,206.782 213.750 C 209.617 214.402,210.888 215.147,211.013 216.230 C 211.453 220.037,204.121 220.634,203.354 216.854 C 203.139 215.790,201.466 215.348,201.466 216.355 C 201.466 221.261,211.124 222.502,212.678 217.796 C 213.627 214.919,212.294 213.396,207.859 212.292 C 204.579 211.475,203.598 210.851,203.598 209.583 C 203.598 206.685,209.307 206.133,210.477 208.918 C 211.043 210.266,212.392 210.530,212.392 209.292 C 212.392 206.967,208.844 205.054,205.726 205.698 M166.023 213.191 L 166.023 220.386 166.813 220.386 L 167.604 220.386 167.679 217.388 L 167.755 214.390 170.819 214.235 C 175.368 214.004,176.500 213.154,176.533 209.947 C 176.566 206.809,175.187 205.997,169.820 205.996 L 166.023 205.996 166.023 213.191 M178.992 206.174 C 178.894 206.271,178.814 209.509,178.814 213.369 L 178.814 220.386 179.614 220.386 L 180.413 220.386 180.415 217.388 C 180.417 212.812,181.267 211.059,183.483 211.059 C 185.476 211.059,185.805 211.763,185.952 216.343 L 186.082 220.386 186.873 220.386 L 187.665 220.386 187.560 216.322 C 187.447 211.987,187.194 211.013,185.952 210.143 C 184.998 209.475,182.854 209.601,181.688 210.393 C 180.359 211.296,180.413 211.375,180.413 208.528 C 180.413 205.997,179.944 205.221,178.992 206.174 M215.803 208.328 C 215.732 209.685,215.654 209.870,215.123 209.945 C 214.747 209.999,214.524 210.215,214.524 210.526 C 214.524 210.838,214.747 211.054,215.123 211.107 C 215.709 211.191,215.726 211.288,215.856 215.350 C 216.010 220.136,216.110 220.386,217.887 220.386 C 219.326 220.386,219.545 219.623,218.247 219.133 L 217.440 218.828 217.514 215.010 L 217.588 211.193 218.321 211.108 C 218.829 211.050,219.054 210.871,219.054 210.526 C 219.054 210.182,218.829 210.003,218.321 209.944 C 217.627 209.865,217.584 209.778,217.508 208.328 C 217.430 206.833,217.410 206.795,216.656 206.795 C 215.902 206.795,215.881 206.833,215.803 208.328 M173.338 207.706 C 175.458 208.591,175.321 211.989,173.144 212.534 C 172.818 212.615,171.472 212.646,170.153 212.603 L 167.755 212.525 167.675 210.529 C 167.546 207.278,167.507 207.328,170.167 207.328 C 171.520 207.328,172.800 207.481,173.338 207.706 M193.097 210.393 C 191.917 211.194,191.968 211.188,191.795 210.526 C 191.701 210.166,191.431 209.993,190.964 209.993 L 190.273 209.993 190.273 217.322 L 190.273 224.650 191.073 224.650 L 191.872 224.650 191.872 222.119 C 191.872 220.726,191.925 219.587,191.990 219.587 C 192.055 219.587,192.540 219.842,193.067 220.153 C 195.055 221.325,197.599 220.471,198.734 218.249 C 201.174 213.475,197.041 207.716,193.097 210.393 M223.051 210.297 C 220.954 211.575,220.011 214.927,220.956 217.748 C 222.332 221.854,228.187 221.701,229.806 217.516 C 231.725 212.557,227.229 207.752,223.051 210.297 M235.328 210.674 L 234.244 211.654 234.244 210.824 C 234.244 210.079,234.162 209.993,233.444 209.993 L 232.645 209.993 232.645 215.190 L 232.645 220.386 233.444 220.386 L 234.244 220.386 234.244 217.228 C 234.244 212.920,235.031 211.326,237.158 211.326 C 237.640 211.326,237.729 211.196,237.659 210.593 C 237.530 209.469,236.628 209.500,235.328 210.674 M242.012 210.528 L 240.906 211.329 240.906 210.661 C 240.906 210.097,240.782 209.993,240.107 209.993 L 239.307 209.993 239.307 215.190 L 239.307 220.386 240.107 220.386 L 240.906 220.386 240.906 217.047 C 240.906 213.235,241.218 212.125,242.471 211.477 C 244.975 210.182,245.703 211.284,245.703 216.377 L 245.703 220.386 246.502 220.386 L 247.302 220.386 247.302 216.776 C 247.302 211.995,248.064 210.658,250.484 211.189 C 251.698 211.456,251.832 211.971,251.832 216.372 L 251.832 220.386 252.765 220.386 L 253.698 220.386 253.698 217.068 C 253.698 212.837,253.378 211.286,252.324 210.399 C 251.060 209.336,248.677 209.590,247.587 210.904 C 247.283 211.270,247.134 211.226,246.279 210.522 C 244.954 209.429,243.526 209.431,242.012 210.528 M196.371 211.494 C 199.066 213.381,197.772 219.337,194.673 219.312 C 192.709 219.295,191.872 218.104,191.872 215.327 C 191.872 211.812,194.107 209.908,196.371 211.494 M227.573 211.849 C 229.414 213.820,228.691 218.559,226.435 219.303 C 223.287 220.342,221.095 216.430,222.765 212.752 C 223.649 210.807,226.159 210.335,227.573 211.849 " stroke="none" fill="#0b080e" fill-rule="evenodd"></path><path id="path3" d="M154.047 65.090 C 152.313 66.954,151.235 68.411,152.716 66.889 C 153.358 66.229,154.331 65.240,154.879 64.690 C 155.427 64.141,155.757 63.691,155.612 63.691 C 155.467 63.691,154.762 64.320,154.047 65.090 M158.140 64.495 C 158.862 64.800,159.821 65.012,160.272 64.965 C 160.980 64.891,160.893 64.833,159.632 64.541 C 157.025 63.938,156.808 63.931,158.140 64.495 M165.889 66.089 C 166.183 66.215,166.722 66.315,167.089 66.310 L 167.755 66.303 167.089 66.089 C 166.722 65.972,166.183 65.872,165.889 65.868 L 165.356 65.860 165.889 66.089 M172.019 67.422 C 172.312 67.548,172.911 67.651,173.351 67.651 C 174.033 67.651,174.072 67.617,173.618 67.422 C 173.324 67.296,172.725 67.193,172.285 67.193 C 171.604 67.193,171.564 67.226,172.019 67.422 M178.179 68.749 C 178.490 68.875,179.329 69.046,180.045 69.129 L 181.346 69.280 180.013 68.889 C 178.497 68.444,177.174 68.343,178.179 68.749 M184.677 70.087 C 184.897 70.229,185.436 70.335,185.876 70.322 C 186.660 70.300,186.662 70.296,186.009 70.087 C 184.990 69.760,184.172 69.760,184.677 70.087 M191.472 71.560 C 193.011 72.067,194.216 72.053,192.805 71.545 C 192.219 71.333,191.439 71.171,191.073 71.185 C 190.538 71.204,190.617 71.278,191.472 71.560 M147.082 72.951 C 145.628 74.487,144.846 75.416,145.008 75.416 C 145.074 75.416,145.879 74.577,146.798 73.551 C 148.701 71.425,148.875 71.058,147.082 72.951 M198.268 73.018 C 198.634 73.135,199.234 73.229,199.600 73.226 C 200.199 73.222,200.185 73.201,199.467 73.018 C 198.340 72.731,197.372 72.731,198.268 73.018 M203.393 75.499 C 203.709 76.471,204.017 77.218,204.076 77.158 C 204.218 77.017,203.332 74.290,203.042 73.974 C 202.919 73.840,203.077 74.527,203.393 75.499 M142.406 78.281 C 139.913 81.188,139.699 81.515,141.453 79.742 C 142.361 78.823,143.105 77.991,143.105 77.893 C 143.105 77.796,143.365 77.438,143.684 77.099 C 144.003 76.760,144.193 76.482,144.106 76.482 C 144.020 76.482,143.255 77.292,142.406 78.281 M204.809 79.480 C 204.908 79.810,205.100 80.197,205.234 80.340 C 205.368 80.484,205.343 80.214,205.178 79.741 C 204.840 78.773,204.529 78.553,204.809 79.480 M138.041 83.145 C 137.153 84.267,137.296 84.639,138.222 83.611 C 138.729 83.047,139.214 82.079,138.988 82.079 C 138.932 82.079,138.506 82.558,138.041 83.145 M206.082 100.591 C 201.888 101.425,197.398 105.351,197.483 108.111 C 197.491 108.377,197.703 108.115,197.952 107.528 C 199.980 102.771,203.526 100.733,209.774 100.733 C 213.977 100.733,218.055 101.972,220.853 104.099 C 221.877 104.877,221.779 105.194,219.616 108.128 C 218.162 110.100,218.278 110.082,215.866 108.715 C 209.961 105.369,204.107 106.373,204.477 110.668 C 204.676 112.975,205.525 113.522,211.827 115.404 C 218.157 117.295,220.288 118.529,221.919 121.250 C 222.395 122.045,222.785 122.548,222.785 122.368 C 222.785 121.865,221.462 119.865,220.638 119.121 C 218.641 117.319,216.457 116.351,210.926 114.818 C 206.133 113.489,204.664 112.415,204.664 110.242 C 204.664 106.683,210.332 106.055,215.810 109.007 C 218.400 110.404,218.394 110.405,220.320 107.684 C 222.552 104.530,222.553 104.537,219.318 102.769 C 215.227 100.532,210.384 99.735,206.082 100.591 M166.289 100.994 C 165.831 101.283,165.623 134.545,166.074 135.443 C 166.277 135.847,172.977 136.219,173.270 135.843 C 173.298 135.806,173.388 133.498,173.469 130.713 L 173.618 125.650 178.015 125.494 C 184.369 125.269,188.143 124.010,190.577 121.302 C 191.797 119.946,193.213 117.368,193.193 116.539 C 193.187 116.273,192.893 116.752,192.540 117.602 C 190.376 122.812,186.451 124.837,177.822 125.197 L 173.351 125.383 173.203 130.446 C 173.121 133.231,173.032 135.543,173.003 135.584 C 172.975 135.626,171.482 135.626,169.687 135.584 L 166.422 135.510 166.354 118.388 L 166.285 101.266 174.379 101.266 C 183.215 101.266,184.534 101.406,186.982 102.603 C 191.258 104.695,193.256 108.155,193.275 113.502 C 193.284 115.935,193.298 115.993,193.554 114.724 C 194.852 108.297,190.015 102.120,182.811 101.005 C 180.608 100.664,166.826 100.654,166.289 100.994 M173.884 107.483 C 173.252 107.959,172.904 117.236,173.477 118.308 C 173.829 118.966,180.115 119.124,182.112 118.526 C 186.891 117.094,187.628 110.213,183.245 107.958 C 181.593 107.107,174.838 106.765,173.884 107.483 M182.337 107.940 C 186.756 109.167,187.157 115.679,182.943 117.788 C 181.707 118.407,181.337 118.454,177.748 118.454 L 173.884 118.454 173.811 113.399 C 173.771 110.619,173.798 108.191,173.870 108.003 C 174.034 107.575,180.840 107.524,182.337 107.940 M197.315 111.392 C 197.459 117.426,199.227 118.873,210.660 122.309 C 214.870 123.574,216.091 124.667,215.724 126.840 C 215.026 130.971,207.793 130.814,201.532 126.532 C 200.155 125.590,200.146 125.594,197.897 128.305 C 195.556 131.127,195.517 130.917,198.801 133.086 C 202.851 135.760,211.131 137.607,213.857 136.444 C 214.175 136.309,213.506 136.278,212.204 136.368 C 207.780 136.674,202.270 135.110,198.218 132.397 C 195.960 130.885,195.946 131.006,198.769 127.715 C 200.130 126.128,200.369 126.063,201.550 126.961 C 206.731 130.901,214.562 131.247,215.836 127.592 C 216.808 124.803,215.406 123.269,210.660 121.932 C 199.928 118.908,197.897 117.267,197.447 111.259 L 197.248 108.594 197.315 111.392 M267.821 120.511 C 267.821 120.707,268.006 121.131,268.232 121.453 C 268.603 121.983,268.600 122.103,268.201 122.712 C 267.726 123.437,268.069 123.649,268.628 122.976 C 268.903 122.645,268.900 122.364,268.614 121.497 C 268.253 120.406,267.821 119.868,267.821 120.511 M222.917 125.729 C 222.919 130.979,220.775 133.824,215.323 135.812 C 214.810 135.999,214.608 136.158,214.874 136.164 C 215.600 136.182,219.062 134.505,220.078 133.644 C 222.494 131.596,224.144 125.961,223.099 123.326 C 222.999 123.074,222.917 124.155,222.917 125.729 M265.918 125.323 C 264.986 126.243,263.921 127.232,263.550 127.521 C 263.180 127.811,262.590 128.468,262.240 128.981 C 261.889 129.494,263.002 128.537,264.712 126.855 C 266.422 125.172,267.821 123.763,267.821 123.723 C 267.821 123.500,267.449 123.813,265.918 125.323 M257.814 133.319 L 255.430 135.776 257.820 133.511 C 259.135 132.265,260.264 131.216,260.330 131.179 C 260.395 131.143,260.392 131.056,260.324 130.988 C 260.255 130.919,259.126 131.968,257.814 133.319 M141.031 143.238 C 141.034 143.531,141.127 144.131,141.239 144.570 C 141.422 145.288,141.443 145.302,141.448 144.704 C 141.450 144.337,141.357 143.738,141.239 143.371 C 141.072 142.849,141.027 142.820,141.031 143.238 M259.564 152.869 C 259.562 153.036,259.807 153.455,260.108 153.801 C 260.539 154.296,260.598 154.316,260.384 153.897 C 259.921 152.993,259.569 152.551,259.564 152.869 M261.636 156.762 C 261.923 157.239,262.231 157.945,262.322 158.332 C 262.413 158.719,262.662 159.102,262.876 159.184 C 263.154 159.291,263.216 159.205,263.095 158.880 C 262.855 158.237,261.406 155.896,261.248 155.896 C 261.175 155.896,261.350 156.286,261.636 156.762 M166.469 158.737 C 166.148 159.058,166.269 163.231,166.609 163.571 C 167.086 164.048,196.909 164.030,197.562 163.553 C 197.950 163.269,198.012 162.850,197.946 160.954 L 197.868 158.694 182.258 158.625 C 173.673 158.588,166.568 158.638,166.469 158.737 M197.681 160.934 C 197.724 162.019,197.661 163.005,197.540 163.126 C 197.420 163.247,190.429 163.354,182.005 163.365 L 166.689 163.385 166.610 161.464 C 166.566 160.408,166.593 159.381,166.669 159.183 C 166.783 158.885,169.467 158.835,182.204 158.892 L 197.602 158.961 197.681 160.934 M143.669 159.678 C 143.748 161.213,144.106 161.948,144.139 160.642 C 144.156 159.954,144.051 159.318,143.904 159.227 C 143.753 159.134,143.651 159.329,143.669 159.678 M263.824 160.893 C 263.824 161.020,263.998 161.357,264.211 161.641 C 264.583 162.140,264.592 162.137,264.445 161.555 C 264.293 160.953,263.824 160.453,263.824 160.893 M264.890 163.032 C 264.890 163.195,265.201 163.665,265.581 164.076 L 266.271 164.823 265.667 163.891 C 264.880 162.676,264.890 162.687,264.890 163.032 M266.501 165.811 C 266.494 166.061,266.789 166.707,267.155 167.247 C 267.996 168.486,267.996 168.125,267.155 166.556 C 266.802 165.896,266.508 165.561,266.501 165.811 M144.990 166.969 C 144.968 167.854,145.374 168.423,146.023 168.417 C 146.382 168.413,146.385 168.381,146.042 168.164 C 145.825 168.027,145.505 167.519,145.329 167.035 L 145.011 166.156 144.990 166.969 M157.301 167.871 C 157.050 168.273,157.065 168.403,157.374 168.522 C 157.677 168.638,157.761 169.250,157.761 171.325 C 157.761 175.035,157.354 174.817,164.294 174.817 C 167.864 174.817,170.051 174.918,170.156 175.088 C 170.248 175.237,170.437 175.288,170.576 175.202 C 171.374 174.709,169.956 174.550,164.741 174.546 C 157.793 174.541,158.389 174.865,158.244 171.015 C 158.124 167.805,157.870 166.960,157.301 167.871 M152.765 168.345 C 153.168 168.406,153.827 168.406,154.231 168.345 C 154.634 168.284,154.304 168.234,153.498 168.234 C 152.692 168.234,152.362 168.284,152.765 168.345 M267.830 169.367 C 267.825 169.961,267.672 170.596,267.489 170.778 C 267.306 170.962,267.544 170.918,268.022 170.679 C 269.021 170.181,269.095 169.796,268.363 168.917 L 267.839 168.288 267.830 169.367 M259.827 175.334 C 259.314 175.618,258.354 176.112,257.695 176.432 C 257.035 176.751,256.631 177.064,256.796 177.125 C 256.962 177.187,257.681 176.875,258.395 176.432 C 259.109 175.989,259.963 175.507,260.293 175.361 C 260.623 175.216,260.893 175.034,260.893 174.957 C 260.893 174.753,260.849 174.768,259.827 175.334 M254.578 178.421 L 253.831 179.095 254.830 178.528 C 255.839 177.957,256.039 177.748,255.578 177.748 C 255.439 177.748,254.990 178.051,254.578 178.421 M250.856 180.626 C 249.353 181.434,245.436 183.909,245.436 184.050 C 245.436 184.126,245.826 183.949,246.302 183.658 C 246.779 183.367,247.768 182.761,248.501 182.312 C 249.234 181.863,250.283 181.250,250.833 180.949 C 251.382 180.648,251.832 180.345,251.832 180.274 C 251.832 180.103,251.821 180.107,250.856 180.626 M218.283 199.838 C 217.543 200.138,217.254 200.368,217.498 200.461 C 217.710 200.543,218.357 200.323,218.935 199.973 C 220.170 199.225,219.921 199.174,218.283 199.838 M206.596 205.380 C 206.852 205.447,207.272 205.447,207.528 205.380 C 207.785 205.313,207.575 205.258,207.062 205.258 C 206.549 205.258,206.339 205.313,206.596 205.380 M180.734 208.328 C 180.679 210.800,180.833 211.194,181.513 210.326 C 181.843 209.906,181.834 209.895,181.423 210.217 C 181.002 210.547,180.961 210.396,180.878 208.218 L 180.789 205.863 180.734 208.328 M202.915 206.862 L 202.132 207.728 202.998 206.945 C 203.474 206.515,203.864 206.125,203.864 206.079 C 203.864 205.874,203.644 206.055,202.915 206.862 M215.672 208.261 C 215.674 209.141,215.723 209.468,215.783 208.989 C 215.842 208.510,215.841 207.791,215.780 207.390 C 215.719 206.990,215.671 207.382,215.672 208.261 M169.163 207.792 C 169.937 207.846,171.136 207.845,171.828 207.790 C 172.519 207.736,171.885 207.692,170.420 207.692 C 168.954 207.693,168.388 207.738,169.163 207.792 M191.783 210.193 C 191.965 210.914,192.220 210.951,192.693 210.326 C 192.990 209.934,192.988 209.911,192.681 210.184 C 192.392 210.442,192.247 210.414,191.975 210.051 C 191.667 209.640,191.648 209.655,191.783 210.193 M219.382 210.526 C 219.382 211.039,219.437 211.249,219.504 210.993 C 219.571 210.736,219.571 210.316,219.504 210.060 C 219.437 209.803,219.382 210.013,219.382 210.526 M232.491 215.057 C 232.491 218.061,232.530 219.290,232.577 217.788 C 232.625 216.286,232.625 213.827,232.577 212.325 C 232.530 210.823,232.491 212.052,232.491 215.057 M240.937 210.193 C 240.900 210.912,241.493 210.987,241.993 210.326 C 242.293 209.930,242.290 209.910,241.972 210.193 C 241.464 210.647,241.234 210.612,241.090 210.060 C 240.998 209.709,240.960 209.742,240.937 210.193 M228.115 210.077 C 228.115 210.123,228.504 210.512,228.981 210.943 L 229.847 211.726 229.064 210.859 C 228.334 210.052,228.115 209.871,228.115 210.077 M234.275 210.639 L 234.244 211.419 234.910 210.793 C 235.684 210.066,235.825 209.685,235.067 210.372 C 234.583 210.810,234.551 210.809,234.431 210.347 C 234.353 210.042,234.294 210.151,234.275 210.639 M239.153 215.190 C 239.152 218.121,239.191 219.357,239.239 217.936 C 239.287 216.514,239.287 214.116,239.240 212.606 C 239.192 211.096,239.153 212.258,239.153 215.190 M214.009 210.540 C 213.985 211.084,214.513 211.592,215.103 211.592 C 215.529 211.592,215.584 211.964,215.660 215.390 L 215.744 219.187 215.734 215.335 C 215.723 211.488,215.722 211.482,215.081 211.331 C 214.728 211.248,214.347 210.943,214.234 210.653 C 214.090 210.285,214.023 210.251,214.009 210.540 M224.983 211.243 C 225.240 211.310,225.660 211.310,225.916 211.243 C 226.173 211.176,225.963 211.121,225.450 211.121 C 224.937 211.121,224.727 211.176,224.983 211.243 M205.730 211.580 C 205.949 211.729,206.359 211.852,206.640 211.855 C 207.322 211.860,207.109 211.708,206.129 211.488 C 205.545 211.358,205.438 211.383,205.730 211.580 M235.063 212.561 C 234.759 212.947,234.521 213.517,234.533 213.827 C 234.551 214.271,234.605 214.228,234.784 213.629 C 234.910 213.210,235.218 212.640,235.469 212.363 C 235.720 212.086,235.856 211.859,235.770 211.859 C 235.685 211.859,235.366 212.175,235.063 212.561 M168.887 212.587 C 169.510 212.643,170.530 212.643,171.153 212.587 C 171.775 212.531,171.266 212.485,170.020 212.485 C 168.774 212.485,168.264 212.531,168.887 212.587 M245.219 216.307 C 245.192 218.533,245.260 220.411,245.370 220.479 C 245.480 220.548,245.538 219.326,245.500 217.763 C 245.375 212.712,245.270 212.165,245.219 216.307 M185.526 216.573 C 185.499 218.653,185.566 220.411,185.676 220.479 C 185.786 220.548,185.844 219.446,185.805 218.030 C 185.675 213.281,185.575 212.763,185.526 216.573 M251.615 216.722 C 251.588 218.884,251.656 220.653,251.765 220.653 C 251.875 220.654,251.934 219.485,251.895 218.055 C 251.764 213.240,251.665 212.768,251.615 216.722 M180.678 216.976 C 180.606 218.985,180.640 220.534,180.754 220.419 C 180.869 220.304,180.928 218.661,180.887 216.767 L 180.811 213.324 180.678 216.976 M247.405 217.055 C 247.406 218.961,247.448 219.705,247.500 218.710 C 247.551 217.714,247.551 216.155,247.499 215.245 C 247.447 214.335,247.405 215.150,247.405 217.055 M191.955 215.456 C 191.956 216.336,192.006 216.663,192.065 216.184 C 192.125 215.705,192.123 214.986,192.062 214.586 C 192.002 214.185,191.953 214.577,191.955 215.456 M197.536 214.923 C 197.539 215.510,197.593 215.718,197.657 215.387 C 197.721 215.055,197.718 214.575,197.651 214.321 C 197.585 214.066,197.533 214.337,197.536 214.923 M169.420 214.454 C 170.190 214.507,171.449 214.507,172.219 214.454 C 172.988 214.400,172.358 214.356,170.819 214.356 C 169.280 214.356,168.651 214.400,169.420 214.454 M222.314 215.323 C 222.314 215.836,222.369 216.046,222.436 215.789 C 222.503 215.533,222.503 215.113,222.436 214.857 C 222.369 214.600,222.314 214.810,222.314 215.323 M201.799 215.773 C 202.055 215.840,202.475 215.840,202.732 215.773 C 202.988 215.706,202.778 215.651,202.265 215.651 C 201.752 215.651,201.542 215.706,201.799 215.773 M219.289 219.795 C 219.201 220.325,219.240 220.573,219.388 220.426 C 219.522 220.291,219.587 219.898,219.533 219.551 C 219.449 219.018,219.411 219.055,219.289 219.795 M224.983 219.238 C 225.240 219.305,225.660 219.305,225.916 219.238 C 226.173 219.171,225.963 219.116,225.450 219.116 C 224.937 219.116,224.727 219.171,224.983 219.238 M221.697 219.684 C 222.052 220.121,223.051 220.782,223.051 220.579 C 223.051 220.528,222.662 220.201,222.185 219.853 C 221.649 219.460,221.463 219.396,221.697 219.684 M228.248 220.020 C 227.769 220.428,227.671 220.590,228.003 220.425 C 228.492 220.182,229.408 219.305,229.147 219.330 C 229.092 219.335,228.688 219.646,228.248 220.020 M191.969 222.385 C 191.970 223.851,192.015 224.416,192.069 223.642 C 192.123 222.868,192.122 221.668,192.068 220.977 C 192.013 220.286,191.969 220.919,191.969 222.385 " stroke="none" fill="#9b95b0" fill-rule="evenodd"></path><path id="path4" d="M159.220 89.235 C 157.673 89.512,157.777 86.419,157.881 129.077 C 157.980 169.642,158.066 174.139,158.745 174.400 C 159.019 174.505,232.731 174.641,242.277 174.554 C 242.517 174.552,242.789 174.357,242.879 174.120 C 243.188 173.315,243.059 90.287,242.748 89.912 C 242.520 89.637,237.793 89.541,219.232 89.438 C 175.389 89.194,159.745 89.141,159.220 89.235 M242.284 90.302 C 242.727 90.723,242.742 173.476,242.300 173.918 C 241.720 174.498,159.355 174.385,158.774 173.804 C 158.160 173.190,158.115 90.824,158.728 90.211 C 159.197 89.741,241.791 89.832,242.284 90.302 M205.059 100.414 C 198.151 102.465,194.760 109.595,197.781 115.715 C 199.300 118.791,200.805 119.623,210.182 122.563 C 214.557 123.935,215.323 124.494,215.323 126.312 C 215.323 130.367,209.090 130.700,202.914 126.974 C 199.829 125.113,200.030 125.071,197.629 128.074 C 195.271 131.022,195.269 131.070,197.408 132.615 C 202.060 135.976,210.750 138.098,214.311 136.742 C 214.648 136.614,215.583 136.295,216.389 136.033 C 221.262 134.448,223.735 130.740,223.542 125.308 C 223.335 119.494,220.122 116.799,210.393 114.278 C 204.747 112.815,202.885 109.353,206.918 107.813 C 209.272 106.914,216.253 108.597,217.318 110.320 C 217.828 111.146,218.699 110.519,220.481 108.045 C 222.727 104.924,222.784 104.735,221.742 103.858 C 218.021 100.727,209.752 99.020,205.059 100.414 M212.925 100.586 C 217.013 101.267,221.985 103.655,221.985 104.938 C 221.985 105.583,218.694 110.037,218.208 110.049 C 217.963 110.055,216.884 109.586,215.810 109.007 C 210.332 106.055,204.664 106.683,204.664 110.242 C 204.664 112.415,206.133 113.489,210.926 114.818 C 220.437 117.455,223.318 120.028,223.318 125.889 C 223.318 137.175,207.650 140.504,196.602 131.564 C 195.864 130.967,196.024 130.563,197.897 128.305 C 200.146 125.594,200.155 125.590,201.532 126.532 C 207.793 130.814,215.026 130.971,215.724 126.840 C 216.091 124.667,214.870 123.574,210.660 122.309 C 198.996 118.803,197.338 117.395,197.338 110.993 C 197.336 103.190,203.569 99.029,212.925 100.586 M165.953 100.625 C 165.845 100.733,165.766 101.072,165.777 101.377 C 165.792 101.768,165.843 101.814,165.950 101.532 C 166.234 100.786,166.685 100.741,173.884 100.739 C 187.823 100.735,192.173 103.046,193.514 111.168 C 194.935 119.768,189.167 125.099,178.015 125.494 L 173.618 125.650 173.469 130.713 C 173.388 133.498,173.298 135.806,173.270 135.843 C 172.979 136.218,166.279 135.847,166.044 135.443 C 165.798 135.021,165.772 135.031,165.764 135.547 C 165.754 136.286,166.733 136.477,170.208 136.416 C 174.011 136.348,173.750 136.733,173.755 131.170 C 173.760 125.312,173.257 125.870,178.681 125.716 C 188.821 125.429,194.004 121.091,194.004 112.889 C 194.004 107.220,190.843 103.063,185.022 101.078 C 183.657 100.613,166.376 100.202,165.953 100.625 M165.829 104.197 C 165.829 104.857,165.881 105.127,165.944 104.797 C 166.008 104.467,166.008 103.927,165.944 103.598 C 165.881 103.268,165.829 103.538,165.829 104.197 M173.870 108.003 C 173.798 108.191,173.771 110.619,173.811 113.399 L 173.884 118.454 177.748 118.454 C 181.337 118.454,181.707 118.407,182.943 117.788 C 187.157 115.679,186.756 109.167,182.337 107.940 C 180.840 107.524,174.034 107.575,173.870 108.003 M182.824 108.521 C 186.517 110.085,186.514 115.589,182.819 117.455 C 181.754 117.993,181.244 118.055,177.825 118.055 L 174.017 118.055 174.017 113.169 C 174.017 110.482,174.107 108.190,174.217 108.075 C 174.569 107.709,181.788 108.083,182.824 108.521 M165.869 121.519 C 165.869 124.670,165.908 125.959,165.955 124.384 C 166.002 122.808,166.002 120.230,165.955 118.654 C 165.908 117.079,165.869 118.368,165.869 121.519 M166.202 158.470 C 165.878 158.794,166.001 163.496,166.342 163.837 C 166.851 164.346,197.556 164.294,197.979 163.784 C 198.179 163.544,198.261 162.528,198.212 160.920 L 198.135 158.428 182.258 158.359 C 173.526 158.321,166.301 158.371,166.202 158.470 M197.946 160.954 C 198.012 162.850,197.950 163.269,197.562 163.553 C 196.909 164.030,167.086 164.048,166.609 163.571 C 166.269 163.231,166.148 159.058,166.469 158.737 C 166.568 158.638,173.673 158.588,182.258 158.625 L 197.868 158.694 197.946 160.954 M165.876 206.067 C 165.805 206.252,165.779 209.580,165.818 213.462 L 165.889 220.520 166.822 220.520 L 167.755 220.520 167.888 217.413 C 167.961 215.704,167.931 214.362,167.821 214.431 C 167.712 214.499,167.622 215.867,167.622 217.471 L 167.622 220.386 166.822 220.386 L 166.023 220.386 166.023 213.199 L 166.023 206.011 169.820 205.929 L 173.618 205.847 169.812 205.788 C 166.944 205.744,165.974 205.813,165.876 206.067 M178.814 205.950 C 178.814 206.071,179.174 206.117,179.614 206.053 L 180.413 205.936 180.413 208.497 C 180.413 209.906,180.503 211.060,180.613 211.060 C 180.723 211.060,180.775 209.861,180.728 208.395 L 180.644 205.730 179.729 205.730 C 179.226 205.730,178.814 205.829,178.814 205.950 M206.599 207.253 C 207.004 207.314,207.604 207.313,207.932 207.250 C 208.259 207.186,207.928 207.136,207.195 207.138 C 206.462 207.140,206.194 207.192,206.599 207.253 M217.563 208.394 C 217.587 209.788,217.624 209.864,218.321 209.944 C 218.829 210.003,219.054 210.182,219.054 210.526 C 219.054 210.871,218.829 211.050,218.321 211.108 L 217.588 211.193 217.514 214.902 C 217.473 216.943,217.533 218.706,217.647 218.820 C 217.761 218.935,217.819 217.296,217.774 215.177 L 217.694 211.326 218.507 211.326 C 219.233 211.326,219.320 211.240,219.320 210.526 C 219.320 209.819,219.230 209.727,218.535 209.727 C 217.778 209.727,217.745 209.675,217.643 208.328 L 217.537 206.929 217.563 208.394 M169.021 207.524 C 169.717 207.579,170.856 207.579,171.552 207.524 C 172.249 207.469,171.679 207.425,170.286 207.425 C 168.894 207.425,168.324 207.469,169.021 207.524 M208.683 207.409 C 208.744 207.453,209.154 207.700,209.594 207.958 L 210.393 208.426 209.764 207.877 C 209.418 207.575,209.008 207.328,208.853 207.328 C 208.699 207.328,208.622 207.365,208.683 207.409 M167.716 210.127 C 167.715 211.446,167.760 212.019,167.816 211.400 C 167.872 210.782,167.873 209.703,167.818 209.002 C 167.763 208.301,167.717 208.807,167.716 210.127 M212.392 209.532 C 212.392 209.815,212.098 209.996,211.526 210.067 L 210.660 210.175 211.534 210.217 C 212.365 210.258,212.978 209.691,212.558 209.271 C 212.467 209.180,212.392 209.297,212.392 209.532 M224.850 209.648 C 225.180 209.712,225.720 209.712,226.049 209.648 C 226.379 209.585,226.109 209.533,225.450 209.533 C 224.790 209.533,224.520 209.585,224.850 209.648 M237.242 209.748 C 237.977 210.177,237.844 211.267,237.039 211.407 C 236.425 211.514,236.431 211.521,237.105 211.491 C 237.659 211.467,237.863 211.307,237.929 210.845 C 238.022 210.187,237.568 209.455,237.076 209.468 C 236.911 209.473,236.985 209.599,237.242 209.748 M190.127 210.064 C 190.056 210.249,190.030 213.637,190.069 217.592 L 190.140 224.783 190.939 224.808 C 191.694 224.832,191.697 224.827,191.006 224.725 L 190.273 224.616 190.273 217.275 L 190.273 209.933 191.059 210.048 C 191.491 210.112,191.783 210.065,191.709 209.945 C 191.495 209.599,190.270 209.692,190.127 210.064 M192.672 210.393 C 192.175 210.759,191.846 211.059,191.942 211.059 C 192.037 211.059,192.557 210.759,193.097 210.393 C 193.637 210.027,193.965 209.727,193.826 209.727 C 193.688 209.727,193.168 210.027,192.672 210.393 M197.225 210.334 C 197.721 210.668,198.396 211.418,198.726 212.000 C 199.388 213.170,199.562 213.072,198.944 211.877 C 198.522 211.062,197.073 209.727,196.609 209.727 C 196.452 209.727,196.729 210.000,197.225 210.334 M214.354 210.127 C 214.111 210.759,214.422 211.244,215.160 211.385 C 215.534 211.457,215.777 211.413,215.699 211.287 C 215.622 211.162,215.325 211.059,215.041 211.059 C 214.287 211.059,214.359 210.062,215.123 209.915 L 215.723 209.799 215.115 209.763 C 214.781 209.743,214.438 209.907,214.354 210.127 M222.748 210.276 L 222.119 210.824 222.918 210.356 C 223.970 209.740,223.986 209.727,223.658 209.727 C 223.503 209.727,223.094 209.974,222.748 210.276 M227.071 209.808 C 227.132 209.852,227.542 210.099,227.981 210.356 L 228.781 210.824 228.152 210.276 C 227.806 209.974,227.396 209.727,227.241 209.727 C 227.086 209.727,227.010 209.763,227.071 209.808 M232.978 209.911 C 233.235 209.978,233.654 209.978,233.911 209.911 C 234.167 209.844,233.957 209.789,233.444 209.789 C 232.931 209.789,232.722 209.844,232.978 209.911 M235.029 210.726 L 234.111 211.726 235.174 210.793 C 235.758 210.280,236.288 209.830,236.351 209.793 C 236.413 209.757,236.348 209.727,236.206 209.727 C 236.064 209.727,235.534 210.177,235.029 210.726 M239.640 209.911 C 239.897 209.978,240.316 209.978,240.573 209.911 C 240.829 209.844,240.620 209.789,240.107 209.789 C 239.594 209.789,239.384 209.844,239.640 209.911 M246.236 210.474 C 247.137 211.253,247.186 211.264,247.702 210.806 C 247.995 210.546,248.474 210.200,248.767 210.038 C 249.061 209.876,249.160 209.739,248.988 209.735 C 248.816 209.730,248.320 210.026,247.886 210.391 C 247.185 210.981,247.059 211.009,246.755 210.643 C 246.567 210.416,246.163 210.104,245.858 209.950 C 245.553 209.795,245.723 210.031,246.236 210.474 M251.588 209.793 C 251.649 209.830,252.059 210.160,252.498 210.526 L 253.298 211.193 252.652 210.460 C 252.296 210.057,251.887 209.727,251.741 209.727 C 251.596 209.727,251.527 209.757,251.588 209.793 M186.438 210.513 C 186.601 210.740,186.867 211.166,187.030 211.459 C 187.193 211.752,187.329 211.849,187.334 211.674 C 187.338 211.499,187.072 211.073,186.742 210.728 C 186.412 210.383,186.276 210.286,186.438 210.513 M204.239 210.993 C 204.518 211.322,204.937 211.583,205.171 211.571 C 205.532 211.553,205.536 211.528,205.197 211.403 C 204.977 211.322,204.557 211.062,204.264 210.825 C 203.735 210.397,203.735 210.398,204.239 210.993 M182.130 211.479 C 181.845 211.710,181.792 211.804,182.012 211.688 C 182.232 211.572,182.891 211.399,183.478 211.302 L 184.544 211.126 183.595 211.093 C 183.074 211.074,182.414 211.248,182.130 211.479 M195.783 211.448 C 196.249 211.651,196.814 212.156,197.038 212.571 C 197.263 212.985,197.452 213.165,197.458 212.971 C 197.473 212.447,195.986 211.058,195.424 211.070 C 195.114 211.076,195.245 211.214,195.783 211.448 M226.271 211.140 C 226.332 211.184,226.742 211.431,227.182 211.689 L 227.981 212.157 227.352 211.608 C 227.006 211.306,226.596 211.059,226.442 211.059 C 226.287 211.059,226.210 211.096,226.271 211.140 M184.975 211.726 C 185.213 212.019,185.473 212.438,185.554 212.658 C 185.679 212.998,185.704 212.994,185.722 212.633 C 185.733 212.399,185.473 211.979,185.143 211.700 C 184.549 211.197,184.547 211.197,184.975 211.726 M229.632 212.255 C 229.876 212.766,230.123 213.137,230.181 213.079 C 230.303 212.957,229.494 211.326,229.311 211.326 C 229.244 211.326,229.389 211.744,229.632 212.255 M245.037 211.819 C 245.183 212.031,245.363 214.076,245.436 216.362 L 245.570 220.520 246.369 220.544 C 247.123 220.568,247.127 220.563,246.436 220.461 L 245.703 220.353 245.703 216.402 C 245.703 213.010,245.637 212.379,245.237 211.942 C 244.980 211.663,244.890 211.607,245.037 211.819 M209.327 212.658 C 209.620 212.784,210.040 212.887,210.260 212.887 C 210.512 212.887,210.463 212.803,210.127 212.658 C 209.833 212.532,209.414 212.429,209.194 212.429 C 208.942 212.429,208.991 212.514,209.327 212.658 M240.964 216.839 L 240.906 220.353 240.040 220.460 L 239.174 220.568 240.048 220.610 C 241.181 220.666,241.205 220.575,241.106 216.641 L 241.021 213.324 240.964 216.839 M199.410 214.923 C 199.412 215.656,199.464 215.924,199.525 215.519 C 199.586 215.114,199.585 214.515,199.521 214.187 C 199.458 213.859,199.408 214.191,199.410 214.923 M220.472 215.323 C 220.472 216.276,220.520 216.666,220.579 216.189 C 220.638 215.713,220.638 214.933,220.579 214.457 C 220.520 213.981,220.472 214.370,220.472 215.323 M228.461 215.057 C 228.461 215.863,228.511 216.193,228.572 215.789 C 228.633 215.386,228.633 214.727,228.572 214.324 C 228.511 213.921,228.461 214.250,228.461 215.057 M234.301 216.972 L 234.244 220.353 233.378 220.460 L 232.512 220.568 233.386 220.610 C 234.516 220.665,234.544 220.563,234.443 216.773 L 234.358 213.591 234.301 216.972 M180.470 217.104 L 180.413 220.351 179.680 220.462 L 178.947 220.573 179.689 220.613 C 180.665 220.666,180.713 220.476,180.612 216.906 L 180.527 213.857 180.470 217.104 M185.863 217.255 L 185.876 220.520 186.612 220.552 C 187.270 220.581,187.278 220.572,186.687 220.469 C 186.032 220.354,186.025 220.321,185.938 217.171 L 185.850 213.990 185.863 217.255 M201.999 218.604 C 201.999 218.650,202.388 219.040,202.865 219.470 L 203.731 220.253 202.948 219.387 C 202.219 218.580,201.999 218.398,201.999 218.604 M207.662 219.238 C 207.918 219.305,208.338 219.305,208.594 219.238 C 208.851 219.171,208.641 219.116,208.128 219.116 C 207.615 219.116,207.405 219.171,207.662 219.238 M218.588 219.238 C 219.548 219.489,219.126 220.348,217.986 220.464 L 216.918 220.572 218.053 220.546 C 219.085 220.522,219.195 220.453,219.272 219.787 C 219.343 219.167,219.261 219.059,218.739 219.085 C 218.287 219.107,218.247 219.149,218.588 219.238 M227.492 220.299 C 227.394 220.397,226.504 220.568,225.515 220.678 L 223.718 220.879 225.516 220.820 C 226.505 220.788,227.458 220.617,227.634 220.440 C 227.810 220.264,227.891 220.120,227.813 220.120 C 227.734 220.120,227.590 220.200,227.492 220.299 M194.473 220.841 C 194.805 220.905,195.285 220.903,195.539 220.836 C 195.794 220.769,195.523 220.717,194.937 220.720 C 194.350 220.723,194.142 220.778,194.473 220.841 M207.662 220.837 C 207.918 220.904,208.338 220.904,208.594 220.837 C 208.851 220.770,208.641 220.715,208.128 220.715 C 207.615 220.715,207.405 220.770,207.662 220.837 " stroke="none" fill="#747474" fill-rule="evenodd"></path></g></svg>