<svg width="60" height="81" viewBox="0 0 70 91" fill="none" xmlns="http://www.w3.org/2000/svg"><mask id="a" maskUnits="userSpaceOnUse" x="6.886" y="70.878" width="57" height="15" fill="#000"><path fill="#fff" d="M6.886 70.878h57v15h-57z"/><path d="M12.176 77.967c.345 0 .646-.042.903-.126a1.74 1.74 0 0 0 .637-.371c.173-.163.3-.36.385-.588a2.28 2.28 0 0 0 .126-.777c0-.27-.042-.516-.126-.735a1.453 1.453 0 0 0-.378-.56 1.645 1.645 0 0 0-.637-.35 2.936 2.936 0 0 0-.91-.126h-1.407v3.633h1.407zm0-5.089c.676 0 1.262.08 1.757.238.495.159.903.38 1.225.665.322.285.56.625.714 1.022.159.397.238.83.238 1.302 0 .49-.082.94-.245 1.351a2.801 2.801 0 0 1-.735 1.05c-.327.294-.738.523-1.232.686-.49.163-1.064.245-1.722.245h-1.407V83H8.886V72.878h3.29zM20.13 75.706c.533 0 1.016.086 1.45.259.438.173.812.418 1.12.735.312.317.553.705.72 1.162.169.457.253.968.253 1.533 0 .57-.084 1.083-.252 1.54a3.273 3.273 0 0 1-.721 1.169c-.308.322-.682.57-1.12.742a3.888 3.888 0 0 1-1.45.259 3.963 3.963 0 0 1-1.462-.259 3.165 3.165 0 0 1-1.127-.742 3.41 3.41 0 0 1-.721-1.169 4.442 4.442 0 0 1-.252-1.54c0-.565.084-1.076.252-1.533.172-.457.413-.845.72-1.162a3.213 3.213 0 0 1 1.128-.735 3.963 3.963 0 0 1 1.463-.259zm0 6.069c.598 0 1.039-.2 1.324-.602.289-.401.434-.99.434-1.764 0-.775-.145-1.365-.434-1.771-.285-.406-.726-.609-1.323-.609-.607 0-1.057.205-1.351.616-.29.406-.434.994-.434 1.764s.144 1.358.434 1.764c.294.401.744.602 1.35.602zM29.374 77.218a.501.501 0 0 1-.147.161.407.407 0 0 1-.196.042.64.64 0 0 1-.273-.07 8.048 8.048 0 0 0-.33-.154 2.735 2.735 0 0 0-.433-.161 2.023 2.023 0 0 0-.567-.07c-.341 0-.61.072-.805.217a.678.678 0 0 0-.287.567.56.56 0 0 0 .147.392c.102.103.235.194.399.273.168.08.357.152.567.217.21.06.422.128.637.203.219.075.434.161.644.259.21.093.396.215.56.364.168.145.3.32.399.525.102.205.154.453.154.742 0 .345-.063.665-.19.959-.12.29-.303.541-.545.756-.243.21-.544.376-.903.497a3.943 3.943 0 0 1-1.232.175c-.248 0-.49-.023-.728-.07a3.956 3.956 0 0 1-1.281-.462 2.986 2.986 0 0 1-.483-.35l.399-.658a.564.564 0 0 1 .182-.182.51.51 0 0 1 .266-.063c.107 0 .207.03.3.091.099.06.21.126.337.196.126.07.273.135.44.196.173.06.39.091.652.091.205 0 .38-.023.525-.07.149-.051.27-.117.364-.196a.684.684 0 0 0 .21-.273.817.817 0 0 0 .07-.329.573.573 0 0 0-.154-.413 1.261 1.261 0 0 0-.4-.28 3.45 3.45 0 0 0-.566-.21c-.21-.065-.427-.135-.651-.21a7.012 7.012 0 0 1-.651-.259 2.383 2.383 0 0 1-.567-.385 1.8 1.8 0 0 1-.4-.567 2.02 2.02 0 0 1-.146-.812c0-.294.058-.574.175-.84.116-.266.287-.497.51-.693.23-.2.512-.36.848-.476.34-.121.732-.182 1.176-.182.494 0 .945.082 1.35.245.407.163.745.378 1.016.644l-.392.623zM33.538 83.112c-.625 0-1.106-.175-1.442-.525-.331-.355-.497-.842-.497-1.463v-4.011h-.735a.337.337 0 0 1-.238-.091c-.065-.06-.098-.152-.098-.273v-.686l1.155-.189.364-1.96a.384.384 0 0 1 .133-.217.396.396 0 0 1 .252-.077h.896v2.261h1.918v1.232h-1.918v3.892c0 .224.054.399.161.525a.578.578 0 0 0 .455.189.856.856 0 0 0 .266-.035c.075-.028.138-.056.19-.084l.146-.077a.226.226 0 0 1 .126-.042c.051 0 .093.014.126.042.033.023.068.06.105.112l.518.84c-.252.21-.541.369-.868.476a3.232 3.232 0 0 1-1.015.161zM36.353 83v-7.182h1.057c.224 0 .371.105.441.315l.112.532c.126-.14.257-.268.392-.385a2.356 2.356 0 0 1 1.54-.574c.453 0 .824.124 1.113.371.294.243.513.567.658.973a2.252 2.252 0 0 1 .973-1.029c.2-.107.413-.187.637-.238.229-.051.457-.077.686-.077.397 0 .749.06 1.057.182.308.121.567.299.777.532.21.233.369.518.476.854.112.336.168.721.168 1.155V83h-1.729v-4.571c0-.457-.1-.8-.301-1.029-.2-.233-.495-.35-.882-.35-.177 0-.343.03-.497.091-.15.06-.282.15-.399.266-.112.112-.2.254-.266.427a1.675 1.675 0 0 0-.098.595V83h-1.736v-4.571c0-.48-.098-.83-.294-1.05-.191-.22-.474-.329-.847-.329-.252 0-.488.063-.707.189-.215.121-.415.29-.602.504V83h-1.729zM51.877 79.934c-.499.023-.919.068-1.26.133-.34.06-.613.14-.819.238-.205.098-.352.212-.44.343a.745.745 0 0 0-.133.427c0 .303.088.52.265.651.182.13.418.196.707.196.355 0 .66-.063.917-.189.262-.13.516-.327.764-.588v-1.211zm-3.962-3.115c.827-.756 1.82-1.134 2.983-1.134.42 0 .795.07 1.127.21.33.135.61.327.84.574.228.243.4.534.517.875.122.34.183.714.183 1.12V83h-.784a.826.826 0 0 1-.378-.07c-.09-.051-.16-.152-.21-.301l-.154-.518c-.183.163-.36.308-.532.434a3.273 3.273 0 0 1-.54.308 2.747 2.747 0 0 1-.602.189 3.23 3.23 0 0 1-.7.07c-.303 0-.583-.04-.84-.119a1.889 1.889 0 0 1-.665-.371 1.65 1.65 0 0 1-.433-.609 2.16 2.16 0 0 1-.154-.847 1.654 1.654 0 0 1 .385-1.057c.14-.163.32-.317.538-.462.22-.145.488-.27.805-.378a6.864 6.864 0 0 1 1.12-.259c.425-.07.91-.112 1.456-.126v-.42c0-.48-.102-.835-.308-1.064-.205-.233-.501-.35-.889-.35-.28 0-.513.033-.7.098a2.73 2.73 0 0 0-.482.224c-.14.08-.269.152-.386.217a.737.737 0 0 1-.378.098.512.512 0 0 1-.308-.091.835.835 0 0 1-.203-.224l-.307-.553zM56.81 76.7c.145-.145.296-.278.455-.399a2.791 2.791 0 0 1 1.092-.518c.205-.051.43-.077.672-.077.392 0 .74.068 1.043.203.303.13.555.317.756.56.205.238.36.525.462.861.107.331.16.698.16 1.099V83h-1.728v-4.571c0-.439-.1-.777-.301-1.015-.2-.243-.506-.364-.917-.364a1.8 1.8 0 0 0-.84.203c-.261.135-.509.32-.742.553V83h-1.73v-7.182h1.058c.224 0 .37.105.44.315l.12.567z"/></mask><path d="M12.176 77.967c.345 0 .646-.042.903-.126a1.74 1.74 0 0 0 .637-.371c.173-.163.3-.36.385-.588a2.28 2.28 0 0 0 .126-.777c0-.27-.042-.516-.126-.735a1.453 1.453 0 0 0-.378-.56 1.645 1.645 0 0 0-.637-.35 2.936 2.936 0 0 0-.91-.126h-1.407v3.633h1.407zm0-5.089c.676 0 1.262.08 1.757.238.495.159.903.38 1.225.665.322.285.56.625.714 1.022.159.397.238.83.238 1.302 0 .49-.082.94-.245 1.351a2.801 2.801 0 0 1-.735 1.05c-.327.294-.738.523-1.232.686-.49.163-1.064.245-1.722.245h-1.407V83H8.886V72.878h3.29zM20.13 75.706c.533 0 1.016.086 1.45.259.438.173.812.418 1.12.735.312.317.553.705.72 1.162.169.457.253.968.253 1.533 0 .57-.084 1.083-.252 1.54a3.273 3.273 0 0 1-.721 1.169c-.308.322-.682.57-1.12.742a3.888 3.888 0 0 1-1.45.259 3.963 3.963 0 0 1-1.462-.259 3.165 3.165 0 0 1-1.127-.742 3.41 3.41 0 0 1-.721-1.169 4.442 4.442 0 0 1-.252-1.54c0-.565.084-1.076.252-1.533.172-.457.413-.845.72-1.162a3.213 3.213 0 0 1 1.128-.735 3.963 3.963 0 0 1 1.463-.259zm0 6.069c.598 0 1.039-.2 1.324-.602.289-.401.434-.99.434-1.764 0-.775-.145-1.365-.434-1.771-.285-.406-.726-.609-1.323-.609-.607 0-1.057.205-1.351.616-.29.406-.434.994-.434 1.764s.144 1.358.434 1.764c.294.401.744.602 1.35.602zM29.374 77.218a.501.501 0 0 1-.147.161.407.407 0 0 1-.196.042.64.64 0 0 1-.273-.07 8.048 8.048 0 0 0-.33-.154 2.735 2.735 0 0 0-.433-.161 2.023 2.023 0 0 0-.567-.07c-.341 0-.61.072-.805.217a.678.678 0 0 0-.287.567.56.56 0 0 0 .147.392c.102.103.235.194.399.273.168.08.357.152.567.217.21.06.422.128.637.203.219.075.434.161.644.259.21.093.396.215.56.364.168.145.3.32.399.525.102.205.154.453.154.742 0 .345-.063.665-.19.959-.12.29-.303.541-.545.756-.243.21-.544.376-.903.497a3.943 3.943 0 0 1-1.232.175c-.248 0-.49-.023-.728-.07a3.956 3.956 0 0 1-1.281-.462 2.986 2.986 0 0 1-.483-.35l.399-.658a.564.564 0 0 1 .182-.182.51.51 0 0 1 .266-.063c.107 0 .207.03.3.091.099.06.21.126.337.196.126.07.273.135.44.196.173.06.39.091.652.091.205 0 .38-.023.525-.07.149-.051.27-.117.364-.196a.684.684 0 0 0 .21-.273.817.817 0 0 0 .07-.329.573.573 0 0 0-.154-.413 1.261 1.261 0 0 0-.4-.28 3.45 3.45 0 0 0-.566-.21c-.21-.065-.427-.135-.651-.21a7.012 7.012 0 0 1-.651-.259 2.383 2.383 0 0 1-.567-.385 1.8 1.8 0 0 1-.4-.567 2.02 2.02 0 0 1-.146-.812c0-.294.058-.574.175-.84.116-.266.287-.497.51-.693.23-.2.512-.36.848-.476.34-.121.732-.182 1.176-.182.494 0 .945.082 1.35.245.407.163.745.378 1.016.644l-.392.623zM33.538 83.112c-.625 0-1.106-.175-1.442-.525-.331-.355-.497-.842-.497-1.463v-4.011h-.735a.337.337 0 0 1-.238-.091c-.065-.06-.098-.152-.098-.273v-.686l1.155-.189.364-1.96a.384.384 0 0 1 .133-.217.396.396 0 0 1 .252-.077h.896v2.261h1.918v1.232h-1.918v3.892c0 .224.054.399.161.525a.578.578 0 0 0 .455.189.856.856 0 0 0 .266-.035c.075-.028.138-.056.19-.084l.146-.077a.226.226 0 0 1 .126-.042c.051 0 .093.014.126.042.033.023.068.06.105.112l.518.84c-.252.21-.541.369-.868.476a3.232 3.232 0 0 1-1.015.161zM36.353 83v-7.182h1.057c.224 0 .371.105.441.315l.112.532c.126-.14.257-.268.392-.385a2.356 2.356 0 0 1 1.54-.574c.453 0 .824.124 1.113.371.294.243.513.567.658.973a2.252 2.252 0 0 1 .973-1.029c.2-.107.413-.187.637-.238.229-.051.457-.077.686-.077.397 0 .749.06 1.057.182.308.121.567.299.777.532.21.233.369.518.476.854.112.336.168.721.168 1.155V83h-1.729v-4.571c0-.457-.1-.8-.301-1.029-.2-.233-.495-.35-.882-.35-.177 0-.343.03-.497.091-.15.06-.282.15-.399.266-.112.112-.2.254-.266.427a1.675 1.675 0 0 0-.098.595V83h-1.736v-4.571c0-.48-.098-.83-.294-1.05-.191-.22-.474-.329-.847-.329-.252 0-.488.063-.707.189-.215.121-.415.29-.602.504V83h-1.729zM51.877 79.934c-.499.023-.919.068-1.26.133-.34.06-.613.14-.819.238-.205.098-.352.212-.44.343a.745.745 0 0 0-.133.427c0 .303.088.52.265.651.182.13.418.196.707.196.355 0 .66-.063.917-.189.262-.13.516-.327.764-.588v-1.211zm-3.962-3.115c.827-.756 1.82-1.134 2.983-1.134.42 0 .795.07 1.127.21.33.135.61.327.84.574.228.243.4.534.517.875.122.34.183.714.183 1.12V83h-.784a.826.826 0 0 1-.378-.07c-.09-.051-.16-.152-.21-.301l-.154-.518c-.183.163-.36.308-.532.434a3.273 3.273 0 0 1-.54.308 2.747 2.747 0 0 1-.602.189 3.23 3.23 0 0 1-.7.07c-.303 0-.583-.04-.84-.119a1.889 1.889 0 0 1-.665-.371 1.65 1.65 0 0 1-.433-.609 2.16 2.16 0 0 1-.154-.847 1.654 1.654 0 0 1 .385-1.057c.14-.163.32-.317.538-.462.22-.145.488-.27.805-.378a6.864 6.864 0 0 1 1.12-.259c.425-.07.91-.112 1.456-.126v-.42c0-.48-.102-.835-.308-1.064-.205-.233-.501-.35-.889-.35-.28 0-.513.033-.7.098a2.73 2.73 0 0 0-.482.224c-.14.08-.269.152-.386.217a.737.737 0 0 1-.378.098.512.512 0 0 1-.308-.091.835.835 0 0 1-.203-.224l-.307-.553zM56.81 76.7c.145-.145.296-.278.455-.399a2.791 2.791 0 0 1 1.092-.518c.205-.051.43-.077.672-.077.392 0 .74.068 1.043.203.303.13.555.317.756.56.205.238.36.525.462.861.107.331.16.698.16 1.099V83h-1.728v-4.571c0-.439-.1-.777-.301-1.015-.2-.243-.506-.364-.917-.364a1.8 1.8 0 0 0-.84.203c-.261.135-.509.32-.742.553V83h-1.73v-7.182h1.058c.224 0 .37.105.44.315l.12.567z" fill="#000"/><path d="M12.176 77.967c.345 0 .646-.042.903-.126a1.74 1.74 0 0 0 .637-.371c.173-.163.3-.36.385-.588a2.28 2.28 0 0 0 .126-.777c0-.27-.042-.516-.126-.735a1.453 1.453 0 0 0-.378-.56 1.645 1.645 0 0 0-.637-.35 2.936 2.936 0 0 0-.91-.126h-1.407v3.633h1.407zm0-5.089c.676 0 1.262.08 1.757.238.495.159.903.38 1.225.665.322.285.56.625.714 1.022.159.397.238.83.238 1.302 0 .49-.082.94-.245 1.351a2.801 2.801 0 0 1-.735 1.05c-.327.294-.738.523-1.232.686-.49.163-1.064.245-1.722.245h-1.407V83H8.886V72.878h3.29zM20.13 75.706c.533 0 1.016.086 1.45.259.438.173.812.418 1.12.735.312.317.553.705.72 1.162.169.457.253.968.253 1.533 0 .57-.084 1.083-.252 1.54a3.273 3.273 0 0 1-.721 1.169c-.308.322-.682.57-1.12.742a3.888 3.888 0 0 1-1.45.259 3.963 3.963 0 0 1-1.462-.259 3.165 3.165 0 0 1-1.127-.742 3.41 3.41 0 0 1-.721-1.169 4.442 4.442 0 0 1-.252-1.54c0-.565.084-1.076.252-1.533.172-.457.413-.845.72-1.162a3.213 3.213 0 0 1 1.128-.735 3.963 3.963 0 0 1 1.463-.259zm0 6.069c.598 0 1.039-.2 1.324-.602.289-.401.434-.99.434-1.764 0-.775-.145-1.365-.434-1.771-.285-.406-.726-.609-1.323-.609-.607 0-1.057.205-1.351.616-.29.406-.434.994-.434 1.764s.144 1.358.434 1.764c.294.401.744.602 1.35.602zM29.374 77.218a.501.501 0 0 1-.147.161.407.407 0 0 1-.196.042.64.64 0 0 1-.273-.07 8.048 8.048 0 0 0-.33-.154 2.735 2.735 0 0 0-.433-.161 2.023 2.023 0 0 0-.567-.07c-.341 0-.61.072-.805.217a.678.678 0 0 0-.287.567.56.56 0 0 0 .147.392c.102.103.235.194.399.273.168.08.357.152.567.217.21.06.422.128.637.203.219.075.434.161.644.259.21.093.396.215.56.364.168.145.3.32.399.525.102.205.154.453.154.742 0 .345-.063.665-.19.959-.12.29-.303.541-.545.756-.243.21-.544.376-.903.497a3.943 3.943 0 0 1-1.232.175c-.248 0-.49-.023-.728-.07a3.956 3.956 0 0 1-1.281-.462 2.986 2.986 0 0 1-.483-.35l.399-.658a.564.564 0 0 1 .182-.182.51.51 0 0 1 .266-.063c.107 0 .207.03.3.091.099.06.21.126.337.196.126.07.273.135.44.196.173.06.39.091.652.091.205 0 .38-.023.525-.07.149-.051.27-.117.364-.196a.684.684 0 0 0 .21-.273.817.817 0 0 0 .07-.329.573.573 0 0 0-.154-.413 1.261 1.261 0 0 0-.4-.28 3.45 3.45 0 0 0-.566-.21c-.21-.065-.427-.135-.651-.21a7.012 7.012 0 0 1-.651-.259 2.383 2.383 0 0 1-.567-.385 1.8 1.8 0 0 1-.4-.567 2.02 2.02 0 0 1-.146-.812c0-.294.058-.574.175-.84.116-.266.287-.497.51-.693.23-.2.512-.36.848-.476.34-.121.732-.182 1.176-.182.494 0 .945.082 1.35.245.407.163.745.378 1.016.644l-.392.623zM33.538 83.112c-.625 0-1.106-.175-1.442-.525-.331-.355-.497-.842-.497-1.463v-4.011h-.735a.337.337 0 0 1-.238-.091c-.065-.06-.098-.152-.098-.273v-.686l1.155-.189.364-1.96a.384.384 0 0 1 .133-.217.396.396 0 0 1 .252-.077h.896v2.261h1.918v1.232h-1.918v3.892c0 .224.054.399.161.525a.578.578 0 0 0 .455.189.856.856 0 0 0 .266-.035c.075-.028.138-.056.19-.084l.146-.077a.226.226 0 0 1 .126-.042c.051 0 .093.014.126.042.033.023.068.06.105.112l.518.84c-.252.21-.541.369-.868.476a3.232 3.232 0 0 1-1.015.161zM36.353 83v-7.182h1.057c.224 0 .371.105.441.315l.112.532c.126-.14.257-.268.392-.385a2.356 2.356 0 0 1 1.54-.574c.453 0 .824.124 1.113.371.294.243.513.567.658.973a2.252 2.252 0 0 1 .973-1.029c.2-.107.413-.187.637-.238.229-.051.457-.077.686-.077.397 0 .749.06 1.057.182.308.121.567.299.777.532.21.233.369.518.476.854.112.336.168.721.168 1.155V83h-1.729v-4.571c0-.457-.1-.8-.301-1.029-.2-.233-.495-.35-.882-.35-.177 0-.343.03-.497.091-.15.06-.282.15-.399.266-.112.112-.2.254-.266.427a1.675 1.675 0 0 0-.098.595V83h-1.736v-4.571c0-.48-.098-.83-.294-1.05-.191-.22-.474-.329-.847-.329-.252 0-.488.063-.707.189-.215.121-.415.29-.602.504V83h-1.729zM51.877 79.934c-.499.023-.919.068-1.26.133-.34.06-.613.14-.819.238-.205.098-.352.212-.44.343a.745.745 0 0 0-.133.427c0 .303.088.52.265.651.182.13.418.196.707.196.355 0 .66-.063.917-.189.262-.13.516-.327.764-.588v-1.211zm-3.962-3.115c.827-.756 1.82-1.134 2.983-1.134.42 0 .795.07 1.127.21.33.135.61.327.84.574.228.243.4.534.517.875.122.34.183.714.183 1.12V83h-.784a.826.826 0 0 1-.378-.07c-.09-.051-.16-.152-.21-.301l-.154-.518c-.183.163-.36.308-.532.434a3.273 3.273 0 0 1-.54.308 2.747 2.747 0 0 1-.602.189 3.23 3.23 0 0 1-.7.07c-.303 0-.583-.04-.84-.119a1.889 1.889 0 0 1-.665-.371 1.65 1.65 0 0 1-.433-.609 2.16 2.16 0 0 1-.154-.847 1.654 1.654 0 0 1 .385-1.057c.14-.163.32-.317.538-.462.22-.145.488-.27.805-.378a6.864 6.864 0 0 1 1.12-.259c.425-.07.91-.112 1.456-.126v-.42c0-.48-.102-.835-.308-1.064-.205-.233-.501-.35-.889-.35-.28 0-.513.033-.7.098a2.73 2.73 0 0 0-.482.224c-.14.08-.269.152-.386.217a.737.737 0 0 1-.378.098.512.512 0 0 1-.308-.091.835.835 0 0 1-.203-.224l-.307-.553zM56.81 76.7c.145-.145.296-.278.455-.399a2.791 2.791 0 0 1 1.092-.518c.205-.051.43-.077.672-.077.392 0 .74.068 1.043.203.303.13.555.317.756.56.205.238.36.525.462.861.107.331.16.698.16 1.099V83h-1.728v-4.571c0-.439-.1-.777-.301-1.015-.2-.243-.506-.364-.917-.364a1.8 1.8 0 0 0-.84.203c-.261.135-.509.32-.742.553V83h-1.73v-7.182h1.058c.224 0 .37.105.44.315l.12.567z" stroke="#fff" stroke-width="4" mask="url(#a)"/><g clip-path="url(#b)"><path d="M61.91 13.218a34 34 0 1 0-6.121 47.685c14.854-11.48 17.595-32.826 6.12-47.685z" fill="#FF6C37"/><path d="M46.468 21.662 32.13 36.112l-4.051-4.165c14.11-14.11 15.526-12.835 18.389-10.285h-.001z" fill="#fff"/><path d="M32.131 36.508a.51.51 0 0 1-.34-.142l-4.08-4.08a.51.51 0 0 1 0-.709c13.912-13.91 15.81-13.26 19.097-10.285.111.09.174.226.17.37a.399.399 0 0 1-.142.368L32.5 36.367a.538.538 0 0 1-.369.142v-.002zm-3.343-4.562 3.343 3.344 13.6-13.6a3.06 3.06 0 0 0-4.023-.68c-2.465 1.105-6.432 4.476-12.92 10.936z" fill="#FF6C37"/><path d="m36.24 40.107-3.91-3.995 14.336-14.167c3.854 3.769-1.87 10.059-10.426 18.161v.001z" fill="#fff"/><path d="M36.24 40.617a.595.595 0 0 1-.34-.141l-3.995-3.91a.595.595 0 0 1 0-.454.549.549 0 0 1 0-.368L46.24 21.407a.538.538 0 0 1 .736 0 4.395 4.395 0 0 1 1.417 3.372c0 3.825-4.364 8.64-11.786 15.668a.594.594 0 0 1-.37.17h.002zm-3.174-4.505 3.201 3.2c5.667-5.354 11.08-10.88 11.107-14.62a3.23 3.23 0 0 0-.736-2.18l-13.572 13.6z" fill="#FF6C37"/><path d="m28.193 32.032 2.833 2.834a.173.173 0 0 1 .058.127.17.17 0 0 1-.058.128l-5.978 1.275a.567.567 0 0 1-.51-.964l3.485-3.456s.113 0 .17.056z" fill="#fff"/><path d="M24.906 36.962a1.105 1.105 0 0 1-.935-.538 1.077 1.077 0 0 1 .199-1.275l3.456-3.485a.68.68 0 0 1 .907 0l2.833 2.833c.168.16.234.4.17.624a.657.657 0 0 1-.481.454l-5.979 1.275-.17.112zm3.174-4.306-3.201 3.201 5.298-1.133-2.097-2.068z" fill="#FF6C37"/><path d="M54.09 13.7a5.499 5.499 0 0 0-7.423-.195 5.498 5.498 0 0 0 6.431 8.865l-3.853-3.854L54.09 13.7z" fill="#fff"/><path d="M50.265 23.672a6.004 6.004 0 0 1-5.478-3.727 6.02 6.02 0 0 1 1.275-6.5 6.066 6.066 0 0 1 8.5 0 .481.481 0 0 1 0 .737l-4.59 4.335 3.485 3.429a.48.48 0 0 1 .141.425.51.51 0 0 1-.226.369 6.162 6.162 0 0 1-3.117.935l.01-.003zm0-10.993a4.966 4.966 0 0 0-4.583 3.081 5.006 5.006 0 0 0 1.07 5.419 4.956 4.956 0 0 0 5.497 1.049l-3.344-3.344a.454.454 0 0 1 0-.709l4.42-4.449a5.084 5.084 0 0 0-3.06-1.048z" fill="#FF6C37"/><path d="M54.175 13.785 49.33 18.6l3.854 3.854a5.87 5.87 0 0 0 1.076-.794 5.667 5.667 0 0 0-.085-7.876z" fill="#fff"/><path d="M53.098 22.88a.426.426 0 0 1-.34-.141l-3.854-3.854a.454.454 0 0 1 0-.709l4.816-4.731a.51.51 0 0 1 .85 0 5.95 5.95 0 0 1 0 8.5 5.188 5.188 0 0 1-1.133.906.457.457 0 0 1-.34.029zm-3.117-4.363 3.202 3.202c.22-.155.428-.325.623-.51a5.015 5.015 0 0 0 1.474-3.542 4.866 4.866 0 0 0-1.219-3.23l-4.08 4.08z" fill="#FF6C37"/><path d="M47.063 22.257a2.07 2.07 0 0 0-2.834 0L31.395 35.062l2.125 2.154 13.571-11.9a2.101 2.101 0 0 0-.029-3.06v.001z" fill="#fff"/><path d="M33.406 37.727a.51.51 0 0 1-.34-.141l-2.153-2.154a.51.51 0 0 1 0-.708l12.835-12.78a2.607 2.607 0 0 1 4.448 1.927 2.667 2.667 0 0 1-.878 1.87l-13.572 11.9c-.099.07-.22.1-.34.085v.001zm-1.501-2.664 1.416 1.444L46.638 24.92c.329-.287.526-.697.538-1.134a1.52 1.52 0 0 0-.481-1.161 1.587 1.587 0 0 0-2.239 0L31.905 35.063z" fill="#FF6C37"/><path d="M21.45 49.655a.287.287 0 0 0 0 .34l.566 2.465a.73.73 0 0 1-.352.744.69.69 0 0 1-.81-.082l-3.881-3.74L29.07 37.188h4.194l2.834 2.833a64.325 64.325 0 0 1-14.65 9.634z" fill="#fff"/><path d="M21.195 53.82a1.197 1.197 0 0 1-.85-.369l-3.711-3.711a.454.454 0 0 1 0-.709L28.816 36.82a.478.478 0 0 1 .255-.141h4.222a.51.51 0 0 1 .34 0l2.833 2.833c.11.101.163.25.142.397a.456.456 0 0 1-.17.368l-.227.199a69.414 69.414 0 0 1-14.535 9.321l.539 2.295a1.222 1.222 0 0 1-1.161 1.502l.141.226zm-3.456-4.449 3.342 3.371a.17.17 0 0 0 .227 0 .17.17 0 0 0 0-.198l-.567-2.465a.79.79 0 0 1 .425-.907 69.656 69.656 0 0 0 14.167-9.123l-2.324-2.324h-3.796L17.739 49.371z" fill="#FF6C37"/><path d="m14.055 52.29 2.834-2.834 4.363 4.364-6.941-.481a.568.568 0 0 1-.255-1.048l-.001-.001z" fill="#fff"/><path d="m21.336 54.245-6.913-.481a1.094 1.094 0 0 1-.908-.694 1.083 1.083 0 0 1 .227-1.12l2.834-2.834a.51.51 0 0 1 .709 0l4.335 4.335a.48.48 0 0 1 0 .566.538.538 0 0 1-.284.227zm-6.913-1.586 5.666.368-3.116-2.918-2.55 2.55z" fill="#FF6C37"/><path d="m33.661 37.53-5.723.878 3.315-3.286 2.408 2.408z" fill="#fff"/><path d="M27.938 38.945a.485.485 0 0 1-.454-.284.478.478 0 0 1 0-.566l3.286-3.315a.537.537 0 0 1 .736 0l2.41 2.407a.478.478 0 0 1 0 .51.5.5 0 0 1-.396.37l-5.666.878h.084zm3.315-3.089-1.842 1.841 3.174-.48-1.332-1.36z" fill="#FF6C37"/><path d="m33.661 37.528-3.995.51a.51.51 0 0 1-.481-.85l2.069-2.07 2.407 2.41z" fill="#fff"/><path d="M29.553 38.577a1.048 1.048 0 0 1-.907-.538 1.02 1.02 0 0 1 .17-1.22l2.069-2.068a.537.537 0 0 1 .736 0l2.409 2.409a.508.508 0 0 1-.311.879l-3.967.51-.2.028zm0-1.048 3.003-.37-1.331-1.33-1.7 1.7h.028zm24.65-20.485a.426.426 0 0 0-.54-.17.392.392 0 0 0-.197.233c-.032.101-.021.21.028.305.199.418.143.912-.141 1.275a.36.36 0 0 0-.107.27c.001.099.04.194.107.268a.308.308 0 0 0 .226 0 .372.372 0 0 0 .369-.114 1.955 1.955 0 0 0 .255-2.069v.002z" fill="#FF6C37"/></g><defs><clipPath id="b"><path fill="#fff" transform="translate(1)" d="M0 0h68v68H0z"/></clipPath></defs></svg>