<svg width="60" height="81" viewBox="0 0 70 91" fill="none" xmlns="http://www.w3.org/2000/svg"><mask id="a" maskUnits="userSpaceOnUse" x="16.586" y="70.878" width="39" height="15" fill="#000"><path fill="#fff" d="M16.586 70.878h39v15h-39z"/><path d="M21.645 77.694c.355 0 .663-.044.924-.133.266-.089.483-.21.651-.364.173-.159.301-.345.385-.56.084-.215.126-.45.126-.707 0-.513-.17-.908-.511-1.183-.336-.275-.852-.413-1.547-.413h-1.204v3.36h1.176zM26.489 83h-1.701c-.322 0-.555-.126-.7-.378l-2.128-3.241a.735.735 0 0 0-.266-.259c-.093-.051-.233-.077-.42-.077h-.805V83h-1.883V72.878h3.087c.686 0 1.274.072 1.764.217.495.14.898.338 1.211.595.317.257.55.565.7.924.15.355.224.747.224 1.176 0 .34-.051.663-.154.966a2.692 2.692 0 0 1-.434.826c-.187.247-.42.464-.7.651-.275.187-.59.334-.945.441.121.07.233.154.336.252.103.093.196.205.28.336L26.489 83zM31.471 78.583c0-.224-.032-.434-.098-.63-.06-.2-.154-.376-.28-.525a1.28 1.28 0 0 0-.483-.35 1.583 1.583 0 0 0-.672-.133c-.5 0-.893.142-1.183.427-.284.285-.466.688-.546 1.211h3.262zm-3.297 1.043c.028.369.094.688.196.959a2 2 0 0 0 .406.665c.168.173.367.303.595.392.234.084.49.126.77.126s.52-.033.721-.098c.206-.065.383-.138.532-.217.154-.08.287-.152.4-.217a.689.689 0 0 1 .335-.098c.145 0 .252.054.322.161l.497.63a2.958 2.958 0 0 1-.644.567c-.238.15-.487.27-.749.364-.256.089-.52.152-.79.189a5.594 5.594 0 0 1-.778.056c-.5 0-.963-.082-1.393-.245a3.182 3.182 0 0 1-1.12-.735 3.493 3.493 0 0 1-.749-1.204c-.182-.48-.273-1.036-.273-1.666 0-.49.08-.95.238-1.379.159-.434.385-.81.68-1.127.298-.322.66-.576 1.084-.763.43-.187.913-.28 1.45-.28.452 0 .87.072 1.252.217.383.145.712.357.987.637.276.275.49.616.644 1.022.159.401.238.861.238 1.379 0 .261-.028.439-.084.532-.056.089-.163.133-.322.133h-4.445zM38.117 79.934c-.5.023-.92.068-1.26.133-.34.06-.614.14-.82.238-.205.098-.352.212-.44.343a.745.745 0 0 0-.133.427c0 .303.088.52.266.651.182.13.417.196.707.196.354 0 .66-.063.917-.189.261-.13.515-.327.763-.588v-1.211zm-3.962-3.115c.826-.756 1.82-1.134 2.982-1.134.42 0 .795.07 1.127.21.331.135.611.327.84.574.228.243.401.534.518.875.121.34.182.714.182 1.12V83h-.784a.826.826 0 0 1-.378-.07c-.089-.051-.159-.152-.21-.301l-.154-.518a6.84 6.84 0 0 1-.532.434 3.277 3.277 0 0 1-.54.308 2.749 2.749 0 0 1-.601.189c-.21.047-.444.07-.7.07-.304 0-.584-.04-.84-.119a1.888 1.888 0 0 1-.665-.371 1.648 1.648 0 0 1-.434-.609 2.16 2.16 0 0 1-.154-.847 1.654 1.654 0 0 1 .385-1.057c.14-.163.32-.317.539-.462.22-.145.487-.27.805-.378a6.864 6.864 0 0 1 1.12-.259c.424-.07.91-.112 1.456-.126v-.42c0-.48-.103-.835-.308-1.064-.206-.233-.502-.35-.89-.35-.28 0-.513.033-.7.098a2.73 2.73 0 0 0-.482.224l-.385.217a.737.737 0 0 1-.378.098.512.512 0 0 1-.308-.091.835.835 0 0 1-.203-.224l-.308-.553zM46.577 77.337a.796.796 0 0 1-.154.154c-.047.037-.117.056-.21.056a.491.491 0 0 1-.259-.077 4.581 4.581 0 0 0-.3-.182 1.953 1.953 0 0 0-.42-.182 1.807 1.807 0 0 0-.596-.084c-.303 0-.57.056-.798.168-.229.107-.42.264-.574.469-.15.205-.261.455-.336.749-.075.29-.112.618-.112.987 0 .383.04.723.12 1.022.083.299.202.55.356.756.154.2.34.355.56.462.22.103.467.154.742.154.276 0 .497-.033.665-.098.173-.07.317-.145.434-.224.117-.084.217-.159.301-.224a.464.464 0 0 1 .294-.105c.14 0 .245.054.315.161l.497.63a3.219 3.219 0 0 1-.623.567 3.57 3.57 0 0 1-.7.364 3.6 3.6 0 0 1-.742.189 5.157 5.157 0 0 1-.756.056c-.443 0-.86-.082-1.253-.245A3 3 0 0 1 42 82.132a3.512 3.512 0 0 1-.7-1.162c-.168-.462-.252-.987-.252-1.575 0-.527.075-1.015.224-1.463.154-.453.378-.842.672-1.169.294-.331.658-.59 1.092-.777.434-.187.934-.28 1.498-.28.537 0 1.006.086 1.407.259.406.173.77.42 1.092.742l-.455.63zM50.58 83.112c-.625 0-1.106-.175-1.442-.525-.331-.355-.497-.842-.497-1.463v-4.011h-.735a.337.337 0 0 1-.238-.091c-.065-.06-.098-.152-.098-.273v-.686l1.155-.189.364-1.96a.385.385 0 0 1 .133-.217.396.396 0 0 1 .252-.077h.896v2.261h1.918v1.232H50.37v3.892c0 .224.054.399.161.525a.578.578 0 0 0 .455.189.855.855 0 0 0 .266-.035c.075-.028.138-.056.189-.084.056-.028.105-.054.147-.077a.226.226 0 0 1 .126-.042c.051 0 .093.014.126.042.033.023.068.06.105.112l.518.84c-.252.21-.541.369-.868.476a3.231 3.231 0 0 1-1.015.161z"/></mask><path d="M21.645 77.694c.355 0 .663-.044.924-.133.266-.089.483-.21.651-.364.173-.159.301-.345.385-.56.084-.215.126-.45.126-.707 0-.513-.17-.908-.511-1.183-.336-.275-.852-.413-1.547-.413h-1.204v3.36h1.176zM26.489 83h-1.701c-.322 0-.555-.126-.7-.378l-2.128-3.241a.735.735 0 0 0-.266-.259c-.093-.051-.233-.077-.42-.077h-.805V83h-1.883V72.878h3.087c.686 0 1.274.072 1.764.217.495.14.898.338 1.211.595.317.257.55.565.7.924.15.355.224.747.224 1.176 0 .34-.051.663-.154.966a2.692 2.692 0 0 1-.434.826c-.187.247-.42.464-.7.651-.275.187-.59.334-.945.441.121.07.233.154.336.252.103.093.196.205.28.336L26.489 83zM31.471 78.583c0-.224-.032-.434-.098-.63-.06-.2-.154-.376-.28-.525a1.28 1.28 0 0 0-.483-.35 1.583 1.583 0 0 0-.672-.133c-.5 0-.893.142-1.183.427-.284.285-.466.688-.546 1.211h3.262zm-3.297 1.043c.028.369.094.688.196.959a2 2 0 0 0 .406.665c.168.173.367.303.595.392.234.084.49.126.77.126s.52-.033.721-.098c.206-.065.383-.138.532-.217.154-.08.287-.152.4-.217a.689.689 0 0 1 .335-.098c.145 0 .252.054.322.161l.497.63a2.958 2.958 0 0 1-.644.567c-.238.15-.487.27-.749.364-.256.089-.52.152-.79.189a5.594 5.594 0 0 1-.778.056c-.5 0-.963-.082-1.393-.245a3.182 3.182 0 0 1-1.12-.735 3.493 3.493 0 0 1-.749-1.204c-.182-.48-.273-1.036-.273-1.666 0-.49.08-.95.238-1.379.159-.434.385-.81.68-1.127.298-.322.66-.576 1.084-.763.43-.187.913-.28 1.45-.28.452 0 .87.072 1.252.217.383.145.712.357.987.637.276.275.49.616.644 1.022.159.401.238.861.238 1.379 0 .261-.028.439-.084.532-.056.089-.163.133-.322.133h-4.445zM38.117 79.934c-.5.023-.92.068-1.26.133-.34.06-.614.14-.82.238-.205.098-.352.212-.44.343a.745.745 0 0 0-.133.427c0 .303.088.52.266.651.182.13.417.196.707.196.354 0 .66-.063.917-.189.261-.13.515-.327.763-.588v-1.211zm-3.962-3.115c.826-.756 1.82-1.134 2.982-1.134.42 0 .795.07 1.127.21.331.135.611.327.84.574.228.243.401.534.518.875.121.34.182.714.182 1.12V83h-.784a.826.826 0 0 1-.378-.07c-.089-.051-.159-.152-.21-.301l-.154-.518a6.84 6.84 0 0 1-.532.434 3.277 3.277 0 0 1-.54.308 2.749 2.749 0 0 1-.601.189c-.21.047-.444.07-.7.07-.304 0-.584-.04-.84-.119a1.888 1.888 0 0 1-.665-.371 1.648 1.648 0 0 1-.434-.609 2.16 2.16 0 0 1-.154-.847 1.654 1.654 0 0 1 .385-1.057c.14-.163.32-.317.539-.462.22-.145.487-.27.805-.378a6.864 6.864 0 0 1 1.12-.259c.424-.07.91-.112 1.456-.126v-.42c0-.48-.103-.835-.308-1.064-.206-.233-.502-.35-.89-.35-.28 0-.513.033-.7.098a2.73 2.73 0 0 0-.482.224l-.385.217a.737.737 0 0 1-.378.098.512.512 0 0 1-.308-.091.835.835 0 0 1-.203-.224l-.308-.553zM46.577 77.337a.796.796 0 0 1-.154.154c-.047.037-.117.056-.21.056a.491.491 0 0 1-.259-.077 4.581 4.581 0 0 0-.3-.182 1.953 1.953 0 0 0-.42-.182 1.807 1.807 0 0 0-.596-.084c-.303 0-.57.056-.798.168-.229.107-.42.264-.574.469-.15.205-.261.455-.336.749-.075.29-.112.618-.112.987 0 .383.04.723.12 1.022.083.299.202.55.356.756.154.2.34.355.56.462.22.103.467.154.742.154.276 0 .497-.033.665-.098.173-.07.317-.145.434-.224.117-.084.217-.159.301-.224a.464.464 0 0 1 .294-.105c.14 0 .245.054.315.161l.497.63a3.219 3.219 0 0 1-.623.567 3.57 3.57 0 0 1-.7.364 3.6 3.6 0 0 1-.742.189 5.157 5.157 0 0 1-.756.056c-.443 0-.86-.082-1.253-.245A3 3 0 0 1 42 82.132a3.512 3.512 0 0 1-.7-1.162c-.168-.462-.252-.987-.252-1.575 0-.527.075-1.015.224-1.463.154-.453.378-.842.672-1.169.294-.331.658-.59 1.092-.777.434-.187.934-.28 1.498-.28.537 0 1.006.086 1.407.259.406.173.77.42 1.092.742l-.455.63zM50.58 83.112c-.625 0-1.106-.175-1.442-.525-.331-.355-.497-.842-.497-1.463v-4.011h-.735a.337.337 0 0 1-.238-.091c-.065-.06-.098-.152-.098-.273v-.686l1.155-.189.364-1.96a.385.385 0 0 1 .133-.217.396.396 0 0 1 .252-.077h.896v2.261h1.918v1.232H50.37v3.892c0 .224.054.399.161.525a.578.578 0 0 0 .455.189.855.855 0 0 0 .266-.035c.075-.028.138-.056.189-.084.056-.028.105-.054.147-.077a.226.226 0 0 1 .126-.042c.051 0 .093.014.126.042.033.023.068.06.105.112l.518.84c-.252.21-.541.369-.868.476a3.231 3.231 0 0 1-1.015.161z" fill="#000"/><path d="M21.645 77.694c.355 0 .663-.044.924-.133.266-.089.483-.21.651-.364.173-.159.301-.345.385-.56.084-.215.126-.45.126-.707 0-.513-.17-.908-.511-1.183-.336-.275-.852-.413-1.547-.413h-1.204v3.36h1.176zM26.489 83h-1.701c-.322 0-.555-.126-.7-.378l-2.128-3.241a.735.735 0 0 0-.266-.259c-.093-.051-.233-.077-.42-.077h-.805V83h-1.883V72.878h3.087c.686 0 1.274.072 1.764.217.495.14.898.338 1.211.595.317.257.55.565.7.924.15.355.224.747.224 1.176 0 .34-.051.663-.154.966a2.692 2.692 0 0 1-.434.826c-.187.247-.42.464-.7.651-.275.187-.59.334-.945.441.121.07.233.154.336.252.103.093.196.205.28.336L26.489 83zM31.471 78.583c0-.224-.032-.434-.098-.63-.06-.2-.154-.376-.28-.525a1.28 1.28 0 0 0-.483-.35 1.583 1.583 0 0 0-.672-.133c-.5 0-.893.142-1.183.427-.284.285-.466.688-.546 1.211h3.262zm-3.297 1.043c.028.369.094.688.196.959a2 2 0 0 0 .406.665c.168.173.367.303.595.392.234.084.49.126.77.126s.52-.033.721-.098c.206-.065.383-.138.532-.217.154-.08.287-.152.4-.217a.689.689 0 0 1 .335-.098c.145 0 .252.054.322.161l.497.63a2.958 2.958 0 0 1-.644.567c-.238.15-.487.27-.749.364-.256.089-.52.152-.79.189a5.594 5.594 0 0 1-.778.056c-.5 0-.963-.082-1.393-.245a3.182 3.182 0 0 1-1.12-.735 3.493 3.493 0 0 1-.749-1.204c-.182-.48-.273-1.036-.273-1.666 0-.49.08-.95.238-1.379.159-.434.385-.81.68-1.127.298-.322.66-.576 1.084-.763.43-.187.913-.28 1.45-.28.452 0 .87.072 1.252.217.383.145.712.357.987.637.276.275.49.616.644 1.022.159.401.238.861.238 1.379 0 .261-.028.439-.084.532-.056.089-.163.133-.322.133h-4.445zM38.117 79.934c-.5.023-.92.068-1.26.133-.34.06-.614.14-.82.238-.205.098-.352.212-.44.343a.745.745 0 0 0-.133.427c0 .303.088.52.266.651.182.13.417.196.707.196.354 0 .66-.063.917-.189.261-.13.515-.327.763-.588v-1.211zm-3.962-3.115c.826-.756 1.82-1.134 2.982-1.134.42 0 .795.07 1.127.21.331.135.611.327.84.574.228.243.401.534.518.875.121.34.182.714.182 1.12V83h-.784a.826.826 0 0 1-.378-.07c-.089-.051-.159-.152-.21-.301l-.154-.518a6.84 6.84 0 0 1-.532.434 3.277 3.277 0 0 1-.54.308 2.749 2.749 0 0 1-.601.189c-.21.047-.444.07-.7.07-.304 0-.584-.04-.84-.119a1.888 1.888 0 0 1-.665-.371 1.648 1.648 0 0 1-.434-.609 2.16 2.16 0 0 1-.154-.847 1.654 1.654 0 0 1 .385-1.057c.14-.163.32-.317.539-.462.22-.145.487-.27.805-.378a6.864 6.864 0 0 1 1.12-.259c.424-.07.91-.112 1.456-.126v-.42c0-.48-.103-.835-.308-1.064-.206-.233-.502-.35-.89-.35-.28 0-.513.033-.7.098a2.73 2.73 0 0 0-.482.224l-.385.217a.737.737 0 0 1-.378.098.512.512 0 0 1-.308-.091.835.835 0 0 1-.203-.224l-.308-.553zM46.577 77.337a.796.796 0 0 1-.154.154c-.047.037-.117.056-.21.056a.491.491 0 0 1-.259-.077 4.581 4.581 0 0 0-.3-.182 1.953 1.953 0 0 0-.42-.182 1.807 1.807 0 0 0-.596-.084c-.303 0-.57.056-.798.168-.229.107-.42.264-.574.469-.15.205-.261.455-.336.749-.075.29-.112.618-.112.987 0 .383.04.723.12 1.022.083.299.202.55.356.756.154.2.34.355.56.462.22.103.467.154.742.154.276 0 .497-.033.665-.098.173-.07.317-.145.434-.224.117-.084.217-.159.301-.224a.464.464 0 0 1 .294-.105c.14 0 .245.054.315.161l.497.63a3.219 3.219 0 0 1-.623.567 3.57 3.57 0 0 1-.7.364 3.6 3.6 0 0 1-.742.189 5.157 5.157 0 0 1-.756.056c-.443 0-.86-.082-1.253-.245A3 3 0 0 1 42 82.132a3.512 3.512 0 0 1-.7-1.162c-.168-.462-.252-.987-.252-1.575 0-.527.075-1.015.224-1.463.154-.453.378-.842.672-1.169.294-.331.658-.59 1.092-.777.434-.187.934-.28 1.498-.28.537 0 1.006.086 1.407.259.406.173.77.42 1.092.742l-.455.63zM50.58 83.112c-.625 0-1.106-.175-1.442-.525-.331-.355-.497-.842-.497-1.463v-4.011h-.735a.337.337 0 0 1-.238-.091c-.065-.06-.098-.152-.098-.273v-.686l1.155-.189.364-1.96a.385.385 0 0 1 .133-.217.396.396 0 0 1 .252-.077h.896v2.261h1.918v1.232H50.37v3.892c0 .224.054.399.161.525a.578.578 0 0 0 .455.189.855.855 0 0 0 .266-.035c.075-.028.138-.056.189-.084.056-.028.105-.054.147-.077a.226.226 0 0 1 .126-.042c.051 0 .093.014.126.042.033.023.068.06.105.112l.518.84c-.252.21-.541.369-.868.476a3.231 3.231 0 0 1-1.015.161z" stroke="#fff" stroke-width="4" mask="url(#a)"/><path d="M35 40.056a6.056 6.056 0 1 0 0-12.112 6.056 6.056 0 0 0 0 12.112z" fill="#61DAFB"/><path d="M58.003 24.012a59.251 59.251 0 0 0-3.666-1.221c.32-1.275.585-2.55.797-3.772 1.116-7.013-.106-11.953-3.506-13.866-1.01-.584-2.125-.85-3.4-.85-3.719 0-8.447 2.763-13.228 7.385-4.781-4.622-9.51-7.385-13.228-7.385-1.275 0-2.39.266-3.4.85-3.4 1.966-4.622 6.906-3.506 13.866a53.27 53.27 0 0 0 .796 3.772c-1.275.372-2.496.743-3.665 1.221C5.357 26.563 1.744 30.07 1.744 34c0 3.931 3.665 7.438 10.253 9.987 1.169.425 2.39.85 3.665 1.222a53.26 53.26 0 0 0-.796 3.772c-1.116 7.013.106 11.953 3.506 13.866 1.01.584 2.125.85 3.4.85 3.772 0 8.5-2.763 13.228-7.385 4.781 4.622 9.51 7.385 13.228 7.385 1.275 0 2.39-.266 3.4-.85 3.4-1.966 4.622-6.906 3.506-13.866a53.316 53.316 0 0 0-.797-3.772c1.275-.372 2.497-.743 3.666-1.222 6.64-2.55 10.253-6.056 10.253-9.987s-3.612-7.438-10.253-9.988zM50.141 7.81c2.178 1.275 2.922 5.207 2.018 10.785-.159 1.115-.425 2.284-.743 3.506-2.763-.638-5.685-1.063-8.766-1.328a76.642 76.642 0 0 0-5.525-6.906c3.931-3.878 7.916-6.535 11.156-6.535.69 0 1.328.16 1.86.478zm-5.95 31.503c-.957 1.7-2.072 3.4-3.241 5.1-1.966.16-3.931.213-5.95.213-2.072 0-4.038-.053-5.95-.212a66.897 66.897 0 0 1-3.188-5.1A85.577 85.577 0 0 1 23.047 34a85.577 85.577 0 0 1 2.816-5.313c.956-1.7 2.071-3.4 3.24-5.1 1.966-.159 3.931-.212 5.95-.212 2.072 0 4.038.053 5.95.212 1.169 1.7 2.231 3.4 3.188 5.1A85.577 85.577 0 0 1 47.006 34c-.903 1.753-1.806 3.506-2.815 5.313zM48.6 37.56c.797 1.86 1.434 3.666 2.019 5.472-1.806.425-3.719.744-5.738 1.01.638-1.01 1.328-2.072 1.913-3.188.637-1.116 1.222-2.231 1.806-3.294zM35 51.956a59.732 59.732 0 0 1-3.666-4.41 84.46 84.46 0 0 0 3.666.107c1.222 0 2.444-.053 3.666-.106A59.732 59.732 0 0 1 35 51.957zm-9.881-7.969c-2.019-.265-3.931-.584-5.738-1.009.585-1.753 1.222-3.612 2.019-5.472.584 1.063 1.169 2.178 1.806 3.24.638 1.17 1.275 2.179 1.913 3.241zM21.4 30.441c-.797-1.86-1.434-3.666-2.019-5.472 1.806-.425 3.719-.744 5.738-1.01-.638 1.01-1.328 2.072-1.913 3.188-.637 1.116-1.222 2.231-1.806 3.294zM35 16.044a59.71 59.71 0 0 1 3.666 4.41c-1.222-.054-2.444-.107-3.666-.107a84.46 84.46 0 0 0-3.666.106A59.71 59.71 0 0 1 35 16.043zM46.794 27.2l-1.913-3.188c2.019.266 3.931.585 5.738 1.01-.585 1.753-1.222 3.612-2.019 5.472-.584-1.116-1.169-2.232-1.806-3.294zM17.84 18.594c-.904-5.578-.16-9.51 2.018-10.785.532-.318 1.17-.478 1.86-.478 3.187 0 7.172 2.603 11.156 6.535-1.86 2.018-3.719 4.356-5.525 6.906-3.081.266-6.003.744-8.766 1.328-.318-1.222-.53-2.39-.743-3.506zM4.719 34c0-2.497 3.028-5.153 8.34-7.119a31.86 31.86 0 0 1 3.4-1.115 77.427 77.427 0 0 0 3.188 8.287c-1.275 2.816-2.39 5.578-3.188 8.235C9.13 40.163 4.72 36.974 4.72 34zm15.14 26.19c-2.178-1.274-2.922-5.206-2.018-10.784.159-1.115.425-2.284.743-3.506 2.763.638 5.685 1.063 8.766 1.328a76.642 76.642 0 0 0 5.525 6.906c-3.931 3.879-7.916 6.535-11.156 6.535-.69 0-1.328-.16-1.86-.478zm32.3-10.784c.904 5.578.16 9.51-2.018 10.785-.532.318-1.17.478-1.86.478-3.187 0-7.172-2.603-11.156-6.535 1.86-2.018 3.719-4.356 5.525-6.906 3.081-.266 6.003-.744 8.766-1.328.318 1.222.53 2.39.743 3.506zm4.782-8.287a31.86 31.86 0 0 1-3.4 1.115 77.427 77.427 0 0 0-3.188-8.287c1.275-2.816 2.39-5.578 3.188-8.235 7.33 2.125 11.74 5.313 11.74 8.288 0 2.497-3.081 5.153-8.34 7.119z" fill="#61DAFB"/></svg>