<svg width="60" height="81" viewBox="0 0 70 91" fill="none" xmlns="http://www.w3.org/2000/svg"><mask id="a" maskUnits="userSpaceOnUse" x="7.061" y="70.598" width="55" height="15" fill="#000"><path fill="#fff" d="M7.061 70.598h55v15h-55z"/><path d="M19.938 72.878 15.85 83h-1.701L10.06 72.878h1.512c.163 0 .296.04.399.119a.73.73 0 0 1 .23.308l2.388 6.174c.079.2.154.422.224.665.074.238.144.488.21.749.056-.261.116-.511.182-.749.065-.243.137-.464.217-.665l2.373-6.174a.67.67 0 0 1 .217-.294.634.634 0 0 1 .406-.133h1.519zM26.13 74.719a.67.67 0 0 1-.183.217.397.397 0 0 1-.23.063.636.636 0 0 1-.323-.105 6.168 6.168 0 0 0-.406-.245 3.156 3.156 0 0 0-.56-.238 2.24 2.24 0 0 0-.749-.112c-.261 0-.49.033-.686.098-.196.06-.361.147-.497.259-.13.112-.228.247-.294.406a1.294 1.294 0 0 0-.098.511c0 .238.066.436.196.595.136.159.313.294.532.406.22.112.47.212.75.301s.566.184.86.287c.294.098.581.215.861.35.28.13.53.299.75.504.219.2.394.448.524.742.136.294.203.651.203 1.071 0 .457-.08.887-.238 1.288a2.942 2.942 0 0 1-.686 1.043 3.264 3.264 0 0 1-1.099.7c-.434.168-.93.252-1.49.252-.323 0-.64-.033-.953-.098a4.907 4.907 0 0 1-.903-.266 4.88 4.88 0 0 1-.805-.42 3.895 3.895 0 0 1-.672-.546l.553-.903a.552.552 0 0 1 .182-.161.441.441 0 0 1 .238-.07c.117 0 .243.049.378.147.136.093.297.198.483.315.187.117.404.224.651.322.252.093.553.14.903.14.537 0 .952-.126 1.246-.378.294-.257.441-.623.441-1.099 0-.266-.067-.483-.203-.651a1.537 1.537 0 0 0-.525-.42 3.794 3.794 0 0 0-.749-.294c-.28-.08-.564-.166-.854-.259a7.348 7.348 0 0 1-.854-.336c-.28-.13-.53-.301-.749-.511a2.373 2.373 0 0 1-.532-.784c-.13-.317-.196-.707-.196-1.169 0-.369.073-.728.217-1.078.15-.35.364-.66.644-.931.28-.27.626-.488 1.036-.651.41-.163.882-.245 1.414-.245.598 0 1.148.093 1.652.28a3.73 3.73 0 0 1 1.288.784l-.469.889zM35.374 80.613c.102 0 .194.04.273.119l.742.805c-.41.509-.917.898-1.52 1.169-.596.27-1.315.406-2.155.406-.752 0-1.428-.128-2.03-.385a4.474 4.474 0 0 1-1.533-1.071 4.73 4.73 0 0 1-.98-1.638 6.207 6.207 0 0 1-.336-2.079c0-.76.121-1.456.364-2.086a4.821 4.821 0 0 1 1.022-1.638c.443-.457.97-.812 1.582-1.064a5.193 5.193 0 0 1 2.03-.385c.737 0 1.39.121 1.96.364a4.67 4.67 0 0 1 1.463.952l-.63.875a.552.552 0 0 1-.147.147.39.39 0 0 1-.238.063.484.484 0 0 1-.217-.056 5.593 5.593 0 0 1-.245-.147 6.208 6.208 0 0 0-.308-.196 2.351 2.351 0 0 0-.406-.189 2.881 2.881 0 0 0-.54-.147 3.447 3.447 0 0 0-.7-.063c-.452 0-.867.082-1.245.245a2.652 2.652 0 0 0-.966.7c-.27.303-.48.677-.63 1.12a4.66 4.66 0 0 0-.224 1.505c0 .57.08 1.076.238 1.519.163.443.383.817.658 1.12.275.303.6.537.973.7.373.159.774.238 1.204.238.257 0 .488-.014.693-.042.21-.028.401-.072.574-.133a2.55 2.55 0 0 0 .497-.231c.158-.098.315-.217.469-.357a.574.574 0 0 1 .147-.098.332.332 0 0 1 .16-.042zM40.433 75.706c.532 0 1.015.086 1.45.259.438.173.811.418 1.12.735.312.317.552.705.72 1.162.168.457.252.968.252 1.533 0 .57-.084 1.083-.252 1.54a3.273 3.273 0 0 1-.72 1.169c-.309.322-.682.57-1.12.742a3.888 3.888 0 0 1-1.45.259 3.963 3.963 0 0 1-1.463-.259 3.165 3.165 0 0 1-1.127-.742 3.41 3.41 0 0 1-.72-1.169 4.442 4.442 0 0 1-.253-1.54c0-.565.084-1.076.252-1.533.173-.457.413-.845.721-1.162a3.213 3.213 0 0 1 1.127-.735 3.963 3.963 0 0 1 1.463-.259zm0 6.069c.598 0 1.039-.2 1.323-.602.29-.401.434-.99.434-1.764 0-.775-.144-1.365-.434-1.771-.284-.406-.725-.609-1.323-.609-.606 0-1.057.205-1.35.616-.29.406-.435.994-.435 1.764s.145 1.358.434 1.764c.294.401.745.602 1.351.602zM49.802 77.652a1.694 1.694 0 0 0-.644-.504 1.864 1.864 0 0 0-.742-.147c-.26 0-.497.049-.707.147-.21.098-.39.247-.539.448a2.1 2.1 0 0 0-.343.756c-.079.303-.119.663-.119 1.078 0 .42.033.777.098 1.071.07.29.168.527.294.714.126.182.28.315.462.399.182.08.385.119.61.119.359 0 .664-.075.916-.224.252-.15.49-.362.714-.637v-3.22zm1.73-5.054V83h-1.058c-.228 0-.373-.105-.434-.315l-.147-.693c-.289.331-.623.6-1 .805-.374.205-.81.308-1.31.308-.392 0-.75-.082-1.078-.245a2.447 2.447 0 0 1-.847-.707 3.54 3.54 0 0 1-.546-1.155 5.917 5.917 0 0 1-.189-1.568c0-.532.073-1.027.217-1.484.145-.457.353-.854.623-1.19a2.87 2.87 0 0 1 .973-.784 2.781 2.781 0 0 1 1.274-.287c.402 0 .745.063 1.03.189.284.126.538.296.762.511v-3.787h1.73zM57.865 78.583a1.98 1.98 0 0 0-.098-.63c-.06-.2-.154-.376-.28-.525a1.28 1.28 0 0 0-.483-.35 1.584 1.584 0 0 0-.672-.133c-.5 0-.894.142-1.183.427-.285.285-.467.688-.546 1.211h3.262zm-3.297 1.043c.028.369.093.688.196.959a2 2 0 0 0 .406.665c.168.173.366.303.595.392.233.084.49.126.77.126s.52-.033.72-.098c.206-.065.383-.138.533-.217.154-.08.287-.152.399-.217a.688.688 0 0 1 .336-.098c.144 0 .252.054.322.161l.497.63a2.96 2.96 0 0 1-.644.567c-.238.15-.488.27-.75.364-.256.089-.52.152-.79.189a5.594 5.594 0 0 1-.777.056c-.5 0-.964-.082-1.393-.245a3.18 3.18 0 0 1-1.12-.735 3.491 3.491 0 0 1-.75-1.204c-.181-.48-.272-1.036-.272-1.666 0-.49.08-.95.238-1.379.158-.434.385-.81.679-1.127.298-.322.66-.576 1.085-.763.43-.187.912-.28 1.449-.28.452 0 .87.072 1.253.217.382.145.711.357.987.637.275.275.49.616.644 1.022.158.401.238.861.238 1.379 0 .261-.028.439-.084.532-.056.089-.164.133-.322.133h-4.445z"/></mask><path d="M19.938 72.878 15.85 83h-1.701L10.06 72.878h1.512c.163 0 .296.04.399.119a.73.73 0 0 1 .23.308l2.388 6.174c.079.2.154.422.224.665.074.238.144.488.21.749.056-.261.116-.511.182-.749.065-.243.137-.464.217-.665l2.373-6.174a.67.67 0 0 1 .217-.294.634.634 0 0 1 .406-.133h1.519zM26.13 74.719a.67.67 0 0 1-.183.217.397.397 0 0 1-.23.063.636.636 0 0 1-.323-.105 6.168 6.168 0 0 0-.406-.245 3.156 3.156 0 0 0-.56-.238 2.24 2.24 0 0 0-.749-.112c-.261 0-.49.033-.686.098-.196.06-.361.147-.497.259-.13.112-.228.247-.294.406a1.294 1.294 0 0 0-.098.511c0 .238.066.436.196.595.136.159.313.294.532.406.22.112.47.212.75.301s.566.184.86.287c.294.098.581.215.861.35.28.13.53.299.75.504.219.2.394.448.524.742.136.294.203.651.203 1.071 0 .457-.08.887-.238 1.288a2.942 2.942 0 0 1-.686 1.043 3.264 3.264 0 0 1-1.099.7c-.434.168-.93.252-1.49.252-.323 0-.64-.033-.953-.098a4.907 4.907 0 0 1-.903-.266 4.88 4.88 0 0 1-.805-.42 3.895 3.895 0 0 1-.672-.546l.553-.903a.552.552 0 0 1 .182-.161.441.441 0 0 1 .238-.07c.117 0 .243.049.378.147.136.093.297.198.483.315.187.117.404.224.651.322.252.093.553.14.903.14.537 0 .952-.126 1.246-.378.294-.257.441-.623.441-1.099 0-.266-.067-.483-.203-.651a1.537 1.537 0 0 0-.525-.42 3.794 3.794 0 0 0-.749-.294c-.28-.08-.564-.166-.854-.259a7.348 7.348 0 0 1-.854-.336c-.28-.13-.53-.301-.749-.511a2.373 2.373 0 0 1-.532-.784c-.13-.317-.196-.707-.196-1.169 0-.369.073-.728.217-1.078.15-.35.364-.66.644-.931.28-.27.626-.488 1.036-.651.41-.163.882-.245 1.414-.245.598 0 1.148.093 1.652.28a3.73 3.73 0 0 1 1.288.784l-.469.889zM35.374 80.613c.102 0 .194.04.273.119l.742.805c-.41.509-.917.898-1.52 1.169-.596.27-1.315.406-2.155.406-.752 0-1.428-.128-2.03-.385a4.474 4.474 0 0 1-1.533-1.071 4.73 4.73 0 0 1-.98-1.638 6.207 6.207 0 0 1-.336-2.079c0-.76.121-1.456.364-2.086a4.821 4.821 0 0 1 1.022-1.638c.443-.457.97-.812 1.582-1.064a5.193 5.193 0 0 1 2.03-.385c.737 0 1.39.121 1.96.364a4.67 4.67 0 0 1 1.463.952l-.63.875a.552.552 0 0 1-.147.147.39.39 0 0 1-.238.063.484.484 0 0 1-.217-.056 5.593 5.593 0 0 1-.245-.147 6.208 6.208 0 0 0-.308-.196 2.351 2.351 0 0 0-.406-.189 2.881 2.881 0 0 0-.54-.147 3.447 3.447 0 0 0-.7-.063c-.452 0-.867.082-1.245.245a2.652 2.652 0 0 0-.966.7c-.27.303-.48.677-.63 1.12a4.66 4.66 0 0 0-.224 1.505c0 .57.08 1.076.238 1.519.163.443.383.817.658 1.12.275.303.6.537.973.7.373.159.774.238 1.204.238.257 0 .488-.014.693-.042.21-.028.401-.072.574-.133a2.55 2.55 0 0 0 .497-.231c.158-.098.315-.217.469-.357a.574.574 0 0 1 .147-.098.332.332 0 0 1 .16-.042zM40.433 75.706c.532 0 1.015.086 1.45.259.438.173.811.418 1.12.735.312.317.552.705.72 1.162.168.457.252.968.252 1.533 0 .57-.084 1.083-.252 1.54a3.273 3.273 0 0 1-.72 1.169c-.309.322-.682.57-1.12.742a3.888 3.888 0 0 1-1.45.259 3.963 3.963 0 0 1-1.463-.259 3.165 3.165 0 0 1-1.127-.742 3.41 3.41 0 0 1-.72-1.169 4.442 4.442 0 0 1-.253-1.54c0-.565.084-1.076.252-1.533.173-.457.413-.845.721-1.162a3.213 3.213 0 0 1 1.127-.735 3.963 3.963 0 0 1 1.463-.259zm0 6.069c.598 0 1.039-.2 1.323-.602.29-.401.434-.99.434-1.764 0-.775-.144-1.365-.434-1.771-.284-.406-.725-.609-1.323-.609-.606 0-1.057.205-1.35.616-.29.406-.435.994-.435 1.764s.145 1.358.434 1.764c.294.401.745.602 1.351.602zM49.802 77.652a1.694 1.694 0 0 0-.644-.504 1.864 1.864 0 0 0-.742-.147c-.26 0-.497.049-.707.147-.21.098-.39.247-.539.448a2.1 2.1 0 0 0-.343.756c-.079.303-.119.663-.119 1.078 0 .42.033.777.098 1.071.07.29.168.527.294.714.126.182.28.315.462.399.182.08.385.119.61.119.359 0 .664-.075.916-.224.252-.15.49-.362.714-.637v-3.22zm1.73-5.054V83h-1.058c-.228 0-.373-.105-.434-.315l-.147-.693c-.289.331-.623.6-1 .805-.374.205-.81.308-1.31.308-.392 0-.75-.082-1.078-.245a2.447 2.447 0 0 1-.847-.707 3.54 3.54 0 0 1-.546-1.155 5.917 5.917 0 0 1-.189-1.568c0-.532.073-1.027.217-1.484.145-.457.353-.854.623-1.19a2.87 2.87 0 0 1 .973-.784 2.781 2.781 0 0 1 1.274-.287c.402 0 .745.063 1.03.189.284.126.538.296.762.511v-3.787h1.73zM57.865 78.583a1.98 1.98 0 0 0-.098-.63c-.06-.2-.154-.376-.28-.525a1.28 1.28 0 0 0-.483-.35 1.584 1.584 0 0 0-.672-.133c-.5 0-.894.142-1.183.427-.285.285-.467.688-.546 1.211h3.262zm-3.297 1.043c.028.369.093.688.196.959a2 2 0 0 0 .406.665c.168.173.366.303.595.392.233.084.49.126.77.126s.52-.033.72-.098c.206-.065.383-.138.533-.217.154-.08.287-.152.399-.217a.688.688 0 0 1 .336-.098c.144 0 .252.054.322.161l.497.63a2.96 2.96 0 0 1-.644.567c-.238.15-.488.27-.75.364-.256.089-.52.152-.79.189a5.594 5.594 0 0 1-.777.056c-.5 0-.964-.082-1.393-.245a3.18 3.18 0 0 1-1.12-.735 3.491 3.491 0 0 1-.75-1.204c-.181-.48-.272-1.036-.272-1.666 0-.49.08-.95.238-1.379.158-.434.385-.81.679-1.127.298-.322.66-.576 1.085-.763.43-.187.912-.28 1.449-.28.452 0 .87.072 1.253.217.382.145.711.357.987.637.275.275.49.616.644 1.022.158.401.238.861.238 1.379 0 .261-.028.439-.084.532-.056.089-.164.133-.322.133h-4.445z" fill="#000"/><path d="M19.938 72.878 15.85 83h-1.701L10.06 72.878h1.512c.163 0 .296.04.399.119a.73.73 0 0 1 .23.308l2.388 6.174c.079.2.154.422.224.665.074.238.144.488.21.749.056-.261.116-.511.182-.749.065-.243.137-.464.217-.665l2.373-6.174a.67.67 0 0 1 .217-.294.634.634 0 0 1 .406-.133h1.519zM26.13 74.719a.67.67 0 0 1-.183.217.397.397 0 0 1-.23.063.636.636 0 0 1-.323-.105 6.168 6.168 0 0 0-.406-.245 3.156 3.156 0 0 0-.56-.238 2.24 2.24 0 0 0-.749-.112c-.261 0-.49.033-.686.098-.196.06-.361.147-.497.259-.13.112-.228.247-.294.406a1.294 1.294 0 0 0-.098.511c0 .238.066.436.196.595.136.159.313.294.532.406.22.112.47.212.75.301s.566.184.86.287c.294.098.581.215.861.35.28.13.53.299.75.504.219.2.394.448.524.742.136.294.203.651.203 1.071 0 .457-.08.887-.238 1.288a2.942 2.942 0 0 1-.686 1.043 3.264 3.264 0 0 1-1.099.7c-.434.168-.93.252-1.49.252-.323 0-.64-.033-.953-.098a4.907 4.907 0 0 1-.903-.266 4.88 4.88 0 0 1-.805-.42 3.895 3.895 0 0 1-.672-.546l.553-.903a.552.552 0 0 1 .182-.161.441.441 0 0 1 .238-.07c.117 0 .243.049.378.147.136.093.297.198.483.315.187.117.404.224.651.322.252.093.553.14.903.14.537 0 .952-.126 1.246-.378.294-.257.441-.623.441-1.099 0-.266-.067-.483-.203-.651a1.537 1.537 0 0 0-.525-.42 3.794 3.794 0 0 0-.749-.294c-.28-.08-.564-.166-.854-.259a7.348 7.348 0 0 1-.854-.336c-.28-.13-.53-.301-.749-.511a2.373 2.373 0 0 1-.532-.784c-.13-.317-.196-.707-.196-1.169 0-.369.073-.728.217-1.078.15-.35.364-.66.644-.931.28-.27.626-.488 1.036-.651.41-.163.882-.245 1.414-.245.598 0 1.148.093 1.652.28a3.73 3.73 0 0 1 1.288.784l-.469.889zM35.374 80.613c.102 0 .194.04.273.119l.742.805c-.41.509-.917.898-1.52 1.169-.596.27-1.315.406-2.155.406-.752 0-1.428-.128-2.03-.385a4.474 4.474 0 0 1-1.533-1.071 4.73 4.73 0 0 1-.98-1.638 6.207 6.207 0 0 1-.336-2.079c0-.76.121-1.456.364-2.086a4.821 4.821 0 0 1 1.022-1.638c.443-.457.97-.812 1.582-1.064a5.193 5.193 0 0 1 2.03-.385c.737 0 1.39.121 1.96.364a4.67 4.67 0 0 1 1.463.952l-.63.875a.552.552 0 0 1-.147.147.39.39 0 0 1-.238.063.484.484 0 0 1-.217-.056 5.593 5.593 0 0 1-.245-.147 6.208 6.208 0 0 0-.308-.196 2.351 2.351 0 0 0-.406-.189 2.881 2.881 0 0 0-.54-.147 3.447 3.447 0 0 0-.7-.063c-.452 0-.867.082-1.245.245a2.652 2.652 0 0 0-.966.7c-.27.303-.48.677-.63 1.12a4.66 4.66 0 0 0-.224 1.505c0 .57.08 1.076.238 1.519.163.443.383.817.658 1.12.275.303.6.537.973.7.373.159.774.238 1.204.238.257 0 .488-.014.693-.042.21-.028.401-.072.574-.133a2.55 2.55 0 0 0 .497-.231c.158-.098.315-.217.469-.357a.574.574 0 0 1 .147-.098.332.332 0 0 1 .16-.042zM40.433 75.706c.532 0 1.015.086 1.45.259.438.173.811.418 1.12.735.312.317.552.705.72 1.162.168.457.252.968.252 1.533 0 .57-.084 1.083-.252 1.54a3.273 3.273 0 0 1-.72 1.169c-.309.322-.682.57-1.12.742a3.888 3.888 0 0 1-1.45.259 3.963 3.963 0 0 1-1.463-.259 3.165 3.165 0 0 1-1.127-.742 3.41 3.41 0 0 1-.72-1.169 4.442 4.442 0 0 1-.253-1.54c0-.565.084-1.076.252-1.533.173-.457.413-.845.721-1.162a3.213 3.213 0 0 1 1.127-.735 3.963 3.963 0 0 1 1.463-.259zm0 6.069c.598 0 1.039-.2 1.323-.602.29-.401.434-.99.434-1.764 0-.775-.144-1.365-.434-1.771-.284-.406-.725-.609-1.323-.609-.606 0-1.057.205-1.35.616-.29.406-.435.994-.435 1.764s.145 1.358.434 1.764c.294.401.745.602 1.351.602zM49.802 77.652a1.694 1.694 0 0 0-.644-.504 1.864 1.864 0 0 0-.742-.147c-.26 0-.497.049-.707.147-.21.098-.39.247-.539.448a2.1 2.1 0 0 0-.343.756c-.079.303-.119.663-.119 1.078 0 .42.033.777.098 1.071.07.29.168.527.294.714.126.182.28.315.462.399.182.08.385.119.61.119.359 0 .664-.075.916-.224.252-.15.49-.362.714-.637v-3.22zm1.73-5.054V83h-1.058c-.228 0-.373-.105-.434-.315l-.147-.693c-.289.331-.623.6-1 .805-.374.205-.81.308-1.31.308-.392 0-.75-.082-1.078-.245a2.447 2.447 0 0 1-.847-.707 3.54 3.54 0 0 1-.546-1.155 5.917 5.917 0 0 1-.189-1.568c0-.532.073-1.027.217-1.484.145-.457.353-.854.623-1.19a2.87 2.87 0 0 1 .973-.784 2.781 2.781 0 0 1 1.274-.287c.402 0 .745.063 1.03.189.284.126.538.296.762.511v-3.787h1.73zM57.865 78.583a1.98 1.98 0 0 0-.098-.63c-.06-.2-.154-.376-.28-.525a1.28 1.28 0 0 0-.483-.35 1.584 1.584 0 0 0-.672-.133c-.5 0-.894.142-1.183.427-.285.285-.467.688-.546 1.211h3.262zm-3.297 1.043c.028.369.093.688.196.959a2 2 0 0 0 .406.665c.168.173.366.303.595.392.233.084.49.126.77.126s.52-.033.72-.098c.206-.065.383-.138.533-.217.154-.08.287-.152.399-.217a.688.688 0 0 1 .336-.098c.144 0 .252.054.322.161l.497.63a2.96 2.96 0 0 1-.644.567c-.238.15-.488.27-.75.364-.256.089-.52.152-.79.189a5.594 5.594 0 0 1-.777.056c-.5 0-.964-.082-1.393-.245a3.18 3.18 0 0 1-1.12-.735 3.491 3.491 0 0 1-.75-1.204c-.181-.48-.272-1.036-.272-1.666 0-.49.08-.95.238-1.379.158-.434.385-.81.679-1.127.298-.322.66-.576 1.085-.763.43-.187.912-.28 1.449-.28.452 0 .87.072 1.253.217.382.145.711.357.987.637.275.275.49.616.644 1.022.158.401.238.861.238 1.379 0 .261-.028.439-.084.532-.056.089-.164.133-.322.133h-4.445z" stroke="#fff" stroke-width="4" mask="url(#a)"/><path d="M2.942 23.93s-1.608-1.165.324-2.717l4.499-4.035s1.289-1.359 2.65-.174l41.53 31.518v15.114s-.02 2.374-3.058 2.113L2.942 23.929z" fill="#2489CA"/><path d="M13.649 33.67 2.941 43.425s-1.1.82 0 2.288l4.97 4.53s1.181 1.272 2.927-.175l11.347-8.626-8.537-7.772z" fill="#1070B3"/><path d="m32.441 33.75 19.632-15.026-.127-15.032S51.108.41 48.31 2.12L22.186 25.952l10.255 7.799z" fill="#0877B9"/><path d="M48.887 65.767c1.14 1.17 2.522.786 2.522.786l15.298-7.555c1.959-1.339 1.685-2.999 1.685-2.999V10.872c0-1.984-2.025-2.669-2.025-2.669l-13.26-6.407C50.208 0 48.31 2.12 48.31 2.12s2.44-1.762 3.636 1.572v59.669c0 .41-.087.812-.261 1.176-.349.707-1.109 1.365-2.925 1.09l.127.14z" fill="#3C99D4"/></svg>