<svg width="60" height="81" viewBox="0 0 70 91" fill="none" xmlns="http://www.w3.org/2000/svg"><mask id="a" maskUnits="userSpaceOnUse" x="2.827" y="70.598" width="66" height="17" fill="#000"><path fill="#fff" d="M2.827 70.598h66v17h-66z"/><path d="M20.303 72.878 17.16 83h-1.701l-2.212-6.916a4.737 4.737 0 0 1-.168-.616c-.028.117-.056.226-.084.329a3.467 3.467 0 0 1-.091.287L10.671 83H8.963L5.827 72.878h1.575c.163 0 .299.04.406.119a.536.536 0 0 1 .224.308l1.722 6.055c.037.15.072.313.105.49.037.173.075.355.112.546.037-.196.077-.38.119-.553.047-.173.096-.334.147-.483l1.988-6.055a.672.672 0 0 1 .217-.294.634.634 0 0 1 .406-.133h.553c.163 0 .296.04.399.119.103.08.18.182.231.308l1.981 6.055c.098.29.187.623.266 1.001.06-.369.128-.702.203-1.001l1.722-6.055a.528.528 0 0 1 .21-.301.688.688 0 0 1 .413-.126h1.477zM25.052 78.583a1.98 1.98 0 0 0-.098-.63c-.06-.2-.154-.376-.28-.525a1.28 1.28 0 0 0-.483-.35 1.583 1.583 0 0 0-.672-.133c-.499 0-.893.142-1.183.427-.284.285-.466.688-.546 1.211h3.262zm-3.297 1.043c.028.369.094.688.196.959a2 2 0 0 0 .406.665c.168.173.367.303.595.392.234.084.49.126.77.126s.52-.033.721-.098a3.22 3.22 0 0 0 .532-.217c.154-.08.287-.152.4-.217a.689.689 0 0 1 .335-.098c.145 0 .252.054.322.161l.497.63a2.958 2.958 0 0 1-.644.567c-.238.15-.487.27-.749.364a4.15 4.15 0 0 1-.79.189 5.594 5.594 0 0 1-.778.056c-.499 0-.963-.082-1.393-.245a3.18 3.18 0 0 1-1.12-.735 3.493 3.493 0 0 1-.749-1.204c-.182-.48-.273-1.036-.273-1.666 0-.49.08-.95.238-1.379.159-.434.385-.81.68-1.127.298-.322.66-.576 1.084-.763.43-.187.913-.28 1.45-.28.452 0 .87.072 1.252.217.383.145.712.357.987.637.276.275.49.616.644 1.022.159.401.238.861.238 1.379 0 .261-.028.439-.084.532-.056.089-.163.133-.322.133h-4.445zM29.633 81.138c.196.238.408.406.637.504.233.098.478.147.735.147.266 0 .504-.047.714-.14.214-.098.396-.247.546-.448.15-.205.264-.464.343-.777a4.72 4.72 0 0 0 .119-1.134c0-.789-.13-1.358-.392-1.708-.261-.355-.637-.532-1.127-.532-.331 0-.62.077-.868.231-.247.15-.483.362-.707.637v3.22zm0-4.438c.29-.303.609-.544.959-.721a2.615 2.615 0 0 1 1.21-.273 2.5 2.5 0 0 1 1.12.245c.337.163.622.399.855.707.238.303.42.672.546 1.106.126.434.189.922.189 1.463a5.45 5.45 0 0 1-.217 1.589 3.652 3.652 0 0 1-.623 1.225 2.801 2.801 0 0 1-.966.784c-.378.187-.798.28-1.26.28-.224 0-.427-.023-.61-.07a2.154 2.154 0 0 1-.93-.469 4.114 4.114 0 0 1-.364-.385l-.077.483c-.028.121-.077.208-.147.259a.432.432 0 0 1-.273.077h-1.141V72.598h1.729V76.7zM37.576 81.138c.196.238.408.406.637.504.233.098.486.147.756.147.261 0 .497-.049.707-.147.21-.098.387-.247.532-.448.15-.2.264-.453.343-.756.08-.308.12-.67.12-1.085a4.6 4.6 0 0 0-.106-1.064 2.02 2.02 0 0 0-.287-.714 1.141 1.141 0 0 0-.462-.399 1.407 1.407 0 0 0-.609-.126c-.36 0-.665.077-.917.231-.252.15-.49.362-.714.637v3.22zm-.09-4.34c.293-.331.627-.6 1-.805.373-.205.812-.308 1.316-.308.392 0 .75.082 1.071.245.327.163.607.401.84.714.238.308.42.69.546 1.148.13.453.196.973.196 1.561 0 .537-.072 1.034-.217 1.491a3.611 3.611 0 0 1-.623 1.19c-.266.336-.59.6-.973.791-.378.187-.803.28-1.274.28-.401 0-.744-.06-1.029-.182a2.568 2.568 0 0 1-.763-.518v2.94h-1.729v-9.527h1.057c.224 0 .371.105.441.315l.14.665zM47.598 79.934c-.5.023-.92.068-1.26.133-.34.06-.614.14-.819.238-.205.098-.352.212-.44.343a.745.745 0 0 0-.134.427c0 .303.089.52.266.651.182.13.418.196.707.196.355 0 .66-.063.917-.189.261-.13.516-.327.763-.588v-1.211zm-3.962-3.115c.826-.756 1.82-1.134 2.982-1.134.42 0 .796.07 1.127.21.332.135.611.327.84.574.229.243.401.534.518.875.121.34.182.714.182 1.12V83h-.784a.826.826 0 0 1-.378-.07c-.088-.051-.158-.152-.21-.301l-.154-.518c-.182.163-.36.308-.532.434a3.273 3.273 0 0 1-.539.308 2.747 2.747 0 0 1-.602.189 3.23 3.23 0 0 1-.7.07c-.303 0-.583-.04-.84-.119a1.889 1.889 0 0 1-.665-.371 1.65 1.65 0 0 1-.434-.609 2.16 2.16 0 0 1-.154-.847 1.654 1.654 0 0 1 .385-1.057c.14-.163.32-.317.54-.462.218-.145.487-.27.804-.378a6.864 6.864 0 0 1 1.12-.259c.425-.07.91-.112 1.456-.126v-.42c0-.48-.102-.835-.308-1.064-.205-.233-.502-.35-.889-.35-.28 0-.513.033-.7.098a2.73 2.73 0 0 0-.483.224l-.385.217a.737.737 0 0 1-.378.098.512.512 0 0 1-.308-.091.835.835 0 0 1-.203-.224l-.308-.553zM56.059 77.337a.799.799 0 0 1-.154.154c-.047.037-.117.056-.21.056a.49.49 0 0 1-.26-.077 4.581 4.581 0 0 0-.3-.182 1.957 1.957 0 0 0-.42-.182 1.808 1.808 0 0 0-.595-.084c-.304 0-.57.056-.798.168a1.51 1.51 0 0 0-.574.469c-.15.205-.262.455-.336.749-.075.29-.112.618-.112.987 0 .383.04.723.119 1.022.084.299.203.55.357.756.154.2.34.355.56.462.219.103.466.154.742.154.275 0 .497-.033.665-.098.172-.07.317-.145.434-.224.116-.084.217-.159.3-.224a.464.464 0 0 1 .295-.105c.14 0 .245.054.315.161l.497.63a3.219 3.219 0 0 1-.623.567 3.57 3.57 0 0 1-.7.364 3.6 3.6 0 0 1-.742.189 5.157 5.157 0 0 1-.756.056c-.444 0-.861-.082-1.253-.245a3 3 0 0 1-1.03-.728 3.512 3.512 0 0 1-.7-1.162c-.167-.462-.251-.987-.251-1.575 0-.527.074-1.015.224-1.463.154-.453.378-.842.672-1.169.294-.331.658-.59 1.092-.777.434-.187.933-.28 1.498-.28.536 0 1.005.086 1.407.259.406.173.77.42 1.092.742l-.455.63zM59.397 72.598v5.957h.322a.712.712 0 0 0 .273-.042.592.592 0 0 0 .21-.189l1.785-2.205a.843.843 0 0 1 .244-.224.736.736 0 0 1 .358-.077h1.582l-2.234 2.667c-.158.21-.33.371-.517.483.097.07.184.152.258.245.08.093.155.194.225.301L64.296 83h-1.56a.885.885 0 0 1-.35-.063.563.563 0 0 1-.245-.245l-1.834-2.723a.517.517 0 0 0-.204-.21.777.777 0 0 0-.315-.049h-.391V83h-1.73V72.598h1.73z"/></mask><path d="M20.303 72.878 17.16 83h-1.701l-2.212-6.916a4.737 4.737 0 0 1-.168-.616c-.028.117-.056.226-.084.329a3.467 3.467 0 0 1-.091.287L10.671 83H8.963L5.827 72.878h1.575c.163 0 .299.04.406.119a.536.536 0 0 1 .224.308l1.722 6.055c.037.15.072.313.105.49.037.173.075.355.112.546.037-.196.077-.38.119-.553.047-.173.096-.334.147-.483l1.988-6.055a.672.672 0 0 1 .217-.294.634.634 0 0 1 .406-.133h.553c.163 0 .296.04.399.119.103.08.18.182.231.308l1.981 6.055c.098.29.187.623.266 1.001.06-.369.128-.702.203-1.001l1.722-6.055a.528.528 0 0 1 .21-.301.688.688 0 0 1 .413-.126h1.477zM25.052 78.583a1.98 1.98 0 0 0-.098-.63c-.06-.2-.154-.376-.28-.525a1.28 1.28 0 0 0-.483-.35 1.583 1.583 0 0 0-.672-.133c-.499 0-.893.142-1.183.427-.284.285-.466.688-.546 1.211h3.262zm-3.297 1.043c.028.369.094.688.196.959a2 2 0 0 0 .406.665c.168.173.367.303.595.392.234.084.49.126.77.126s.52-.033.721-.098a3.22 3.22 0 0 0 .532-.217c.154-.08.287-.152.4-.217a.689.689 0 0 1 .335-.098c.145 0 .252.054.322.161l.497.63a2.958 2.958 0 0 1-.644.567c-.238.15-.487.27-.749.364a4.15 4.15 0 0 1-.79.189 5.594 5.594 0 0 1-.778.056c-.499 0-.963-.082-1.393-.245a3.18 3.18 0 0 1-1.12-.735 3.493 3.493 0 0 1-.749-1.204c-.182-.48-.273-1.036-.273-1.666 0-.49.08-.95.238-1.379.159-.434.385-.81.68-1.127.298-.322.66-.576 1.084-.763.43-.187.913-.28 1.45-.28.452 0 .87.072 1.252.217.383.145.712.357.987.637.276.275.49.616.644 1.022.159.401.238.861.238 1.379 0 .261-.028.439-.084.532-.056.089-.163.133-.322.133h-4.445zM29.633 81.138c.196.238.408.406.637.504.233.098.478.147.735.147.266 0 .504-.047.714-.14.214-.098.396-.247.546-.448.15-.205.264-.464.343-.777a4.72 4.72 0 0 0 .119-1.134c0-.789-.13-1.358-.392-1.708-.261-.355-.637-.532-1.127-.532-.331 0-.62.077-.868.231-.247.15-.483.362-.707.637v3.22zm0-4.438c.29-.303.609-.544.959-.721a2.615 2.615 0 0 1 1.21-.273 2.5 2.5 0 0 1 1.12.245c.337.163.622.399.855.707.238.303.42.672.546 1.106.126.434.189.922.189 1.463a5.45 5.45 0 0 1-.217 1.589 3.652 3.652 0 0 1-.623 1.225 2.801 2.801 0 0 1-.966.784c-.378.187-.798.28-1.26.28-.224 0-.427-.023-.61-.07a2.154 2.154 0 0 1-.93-.469 4.114 4.114 0 0 1-.364-.385l-.077.483c-.028.121-.077.208-.147.259a.432.432 0 0 1-.273.077h-1.141V72.598h1.729V76.7zM37.576 81.138c.196.238.408.406.637.504.233.098.486.147.756.147.261 0 .497-.049.707-.147.21-.098.387-.247.532-.448.15-.2.264-.453.343-.756.08-.308.12-.67.12-1.085a4.6 4.6 0 0 0-.106-1.064 2.02 2.02 0 0 0-.287-.714 1.141 1.141 0 0 0-.462-.399 1.407 1.407 0 0 0-.609-.126c-.36 0-.665.077-.917.231-.252.15-.49.362-.714.637v3.22zm-.09-4.34c.293-.331.627-.6 1-.805.373-.205.812-.308 1.316-.308.392 0 .75.082 1.071.245.327.163.607.401.84.714.238.308.42.69.546 1.148.13.453.196.973.196 1.561 0 .537-.072 1.034-.217 1.491a3.611 3.611 0 0 1-.623 1.19c-.266.336-.59.6-.973.791-.378.187-.803.28-1.274.28-.401 0-.744-.06-1.029-.182a2.568 2.568 0 0 1-.763-.518v2.94h-1.729v-9.527h1.057c.224 0 .371.105.441.315l.14.665zM47.598 79.934c-.5.023-.92.068-1.26.133-.34.06-.614.14-.819.238-.205.098-.352.212-.44.343a.745.745 0 0 0-.134.427c0 .303.089.52.266.651.182.13.418.196.707.196.355 0 .66-.063.917-.189.261-.13.516-.327.763-.588v-1.211zm-3.962-3.115c.826-.756 1.82-1.134 2.982-1.134.42 0 .796.07 1.127.21.332.135.611.327.84.574.229.243.401.534.518.875.121.34.182.714.182 1.12V83h-.784a.826.826 0 0 1-.378-.07c-.088-.051-.158-.152-.21-.301l-.154-.518c-.182.163-.36.308-.532.434a3.273 3.273 0 0 1-.539.308 2.747 2.747 0 0 1-.602.189 3.23 3.23 0 0 1-.7.07c-.303 0-.583-.04-.84-.119a1.889 1.889 0 0 1-.665-.371 1.65 1.65 0 0 1-.434-.609 2.16 2.16 0 0 1-.154-.847 1.654 1.654 0 0 1 .385-1.057c.14-.163.32-.317.54-.462.218-.145.487-.27.804-.378a6.864 6.864 0 0 1 1.12-.259c.425-.07.91-.112 1.456-.126v-.42c0-.48-.102-.835-.308-1.064-.205-.233-.502-.35-.889-.35-.28 0-.513.033-.7.098a2.73 2.73 0 0 0-.483.224l-.385.217a.737.737 0 0 1-.378.098.512.512 0 0 1-.308-.091.835.835 0 0 1-.203-.224l-.308-.553zM56.059 77.337a.799.799 0 0 1-.154.154c-.047.037-.117.056-.21.056a.49.49 0 0 1-.26-.077 4.581 4.581 0 0 0-.3-.182 1.957 1.957 0 0 0-.42-.182 1.808 1.808 0 0 0-.595-.084c-.304 0-.57.056-.798.168a1.51 1.51 0 0 0-.574.469c-.15.205-.262.455-.336.749-.075.29-.112.618-.112.987 0 .383.04.723.119 1.022.084.299.203.55.357.756.154.2.34.355.56.462.219.103.466.154.742.154.275 0 .497-.033.665-.098.172-.07.317-.145.434-.224.116-.084.217-.159.3-.224a.464.464 0 0 1 .295-.105c.14 0 .245.054.315.161l.497.63a3.219 3.219 0 0 1-.623.567 3.57 3.57 0 0 1-.7.364 3.6 3.6 0 0 1-.742.189 5.157 5.157 0 0 1-.756.056c-.444 0-.861-.082-1.253-.245a3 3 0 0 1-1.03-.728 3.512 3.512 0 0 1-.7-1.162c-.167-.462-.251-.987-.251-1.575 0-.527.074-1.015.224-1.463.154-.453.378-.842.672-1.169.294-.331.658-.59 1.092-.777.434-.187.933-.28 1.498-.28.536 0 1.005.086 1.407.259.406.173.77.42 1.092.742l-.455.63zM59.397 72.598v5.957h.322a.712.712 0 0 0 .273-.042.592.592 0 0 0 .21-.189l1.785-2.205a.843.843 0 0 1 .244-.224.736.736 0 0 1 .358-.077h1.582l-2.234 2.667c-.158.21-.33.371-.517.483.097.07.184.152.258.245.08.093.155.194.225.301L64.296 83h-1.56a.885.885 0 0 1-.35-.063.563.563 0 0 1-.245-.245l-1.834-2.723a.517.517 0 0 0-.204-.21.777.777 0 0 0-.315-.049h-.391V83h-1.73V72.598h1.73z" fill="#000"/><path d="M20.303 72.878 17.16 83h-1.701l-2.212-6.916a4.737 4.737 0 0 1-.168-.616c-.028.117-.056.226-.084.329a3.467 3.467 0 0 1-.091.287L10.671 83H8.963L5.827 72.878h1.575c.163 0 .299.04.406.119a.536.536 0 0 1 .224.308l1.722 6.055c.037.15.072.313.105.49.037.173.075.355.112.546.037-.196.077-.38.119-.553.047-.173.096-.334.147-.483l1.988-6.055a.672.672 0 0 1 .217-.294.634.634 0 0 1 .406-.133h.553c.163 0 .296.04.399.119.103.08.18.182.231.308l1.981 6.055c.098.29.187.623.266 1.001.06-.369.128-.702.203-1.001l1.722-6.055a.528.528 0 0 1 .21-.301.688.688 0 0 1 .413-.126h1.477zM25.052 78.583a1.98 1.98 0 0 0-.098-.63c-.06-.2-.154-.376-.28-.525a1.28 1.28 0 0 0-.483-.35 1.583 1.583 0 0 0-.672-.133c-.499 0-.893.142-1.183.427-.284.285-.466.688-.546 1.211h3.262zm-3.297 1.043c.028.369.094.688.196.959a2 2 0 0 0 .406.665c.168.173.367.303.595.392.234.084.49.126.77.126s.52-.033.721-.098a3.22 3.22 0 0 0 .532-.217c.154-.08.287-.152.4-.217a.689.689 0 0 1 .335-.098c.145 0 .252.054.322.161l.497.63a2.958 2.958 0 0 1-.644.567c-.238.15-.487.27-.749.364a4.15 4.15 0 0 1-.79.189 5.594 5.594 0 0 1-.778.056c-.499 0-.963-.082-1.393-.245a3.18 3.18 0 0 1-1.12-.735 3.493 3.493 0 0 1-.749-1.204c-.182-.48-.273-1.036-.273-1.666 0-.49.08-.95.238-1.379.159-.434.385-.81.68-1.127.298-.322.66-.576 1.084-.763.43-.187.913-.28 1.45-.28.452 0 .87.072 1.252.217.383.145.712.357.987.637.276.275.49.616.644 1.022.159.401.238.861.238 1.379 0 .261-.028.439-.084.532-.056.089-.163.133-.322.133h-4.445zM29.633 81.138c.196.238.408.406.637.504.233.098.478.147.735.147.266 0 .504-.047.714-.14.214-.098.396-.247.546-.448.15-.205.264-.464.343-.777a4.72 4.72 0 0 0 .119-1.134c0-.789-.13-1.358-.392-1.708-.261-.355-.637-.532-1.127-.532-.331 0-.62.077-.868.231-.247.15-.483.362-.707.637v3.22zm0-4.438c.29-.303.609-.544.959-.721a2.615 2.615 0 0 1 1.21-.273 2.5 2.5 0 0 1 1.12.245c.337.163.622.399.855.707.238.303.42.672.546 1.106.126.434.189.922.189 1.463a5.45 5.45 0 0 1-.217 1.589 3.652 3.652 0 0 1-.623 1.225 2.801 2.801 0 0 1-.966.784c-.378.187-.798.28-1.26.28-.224 0-.427-.023-.61-.07a2.154 2.154 0 0 1-.93-.469 4.114 4.114 0 0 1-.364-.385l-.077.483c-.028.121-.077.208-.147.259a.432.432 0 0 1-.273.077h-1.141V72.598h1.729V76.7zM37.576 81.138c.196.238.408.406.637.504.233.098.486.147.756.147.261 0 .497-.049.707-.147.21-.098.387-.247.532-.448.15-.2.264-.453.343-.756.08-.308.12-.67.12-1.085a4.6 4.6 0 0 0-.106-1.064 2.02 2.02 0 0 0-.287-.714 1.141 1.141 0 0 0-.462-.399 1.407 1.407 0 0 0-.609-.126c-.36 0-.665.077-.917.231-.252.15-.49.362-.714.637v3.22zm-.09-4.34c.293-.331.627-.6 1-.805.373-.205.812-.308 1.316-.308.392 0 .75.082 1.071.245.327.163.607.401.84.714.238.308.42.69.546 1.148.13.453.196.973.196 1.561 0 .537-.072 1.034-.217 1.491a3.611 3.611 0 0 1-.623 1.19c-.266.336-.59.6-.973.791-.378.187-.803.28-1.274.28-.401 0-.744-.06-1.029-.182a2.568 2.568 0 0 1-.763-.518v2.94h-1.729v-9.527h1.057c.224 0 .371.105.441.315l.14.665zM47.598 79.934c-.5.023-.92.068-1.26.133-.34.06-.614.14-.819.238-.205.098-.352.212-.44.343a.745.745 0 0 0-.134.427c0 .303.089.52.266.651.182.13.418.196.707.196.355 0 .66-.063.917-.189.261-.13.516-.327.763-.588v-1.211zm-3.962-3.115c.826-.756 1.82-1.134 2.982-1.134.42 0 .796.07 1.127.21.332.135.611.327.84.574.229.243.401.534.518.875.121.34.182.714.182 1.12V83h-.784a.826.826 0 0 1-.378-.07c-.088-.051-.158-.152-.21-.301l-.154-.518c-.182.163-.36.308-.532.434a3.273 3.273 0 0 1-.539.308 2.747 2.747 0 0 1-.602.189 3.23 3.23 0 0 1-.7.07c-.303 0-.583-.04-.84-.119a1.889 1.889 0 0 1-.665-.371 1.65 1.65 0 0 1-.434-.609 2.16 2.16 0 0 1-.154-.847 1.654 1.654 0 0 1 .385-1.057c.14-.163.32-.317.54-.462.218-.145.487-.27.804-.378a6.864 6.864 0 0 1 1.12-.259c.425-.07.91-.112 1.456-.126v-.42c0-.48-.102-.835-.308-1.064-.205-.233-.502-.35-.889-.35-.28 0-.513.033-.7.098a2.73 2.73 0 0 0-.483.224l-.385.217a.737.737 0 0 1-.378.098.512.512 0 0 1-.308-.091.835.835 0 0 1-.203-.224l-.308-.553zM56.059 77.337a.799.799 0 0 1-.154.154c-.047.037-.117.056-.21.056a.49.49 0 0 1-.26-.077 4.581 4.581 0 0 0-.3-.182 1.957 1.957 0 0 0-.42-.182 1.808 1.808 0 0 0-.595-.084c-.304 0-.57.056-.798.168a1.51 1.51 0 0 0-.574.469c-.15.205-.262.455-.336.749-.075.29-.112.618-.112.987 0 .383.04.723.119 1.022.084.299.203.55.357.756.154.2.34.355.56.462.219.103.466.154.742.154.275 0 .497-.033.665-.098.172-.07.317-.145.434-.224.116-.084.217-.159.3-.224a.464.464 0 0 1 .295-.105c.14 0 .245.054.315.161l.497.63a3.219 3.219 0 0 1-.623.567 3.57 3.57 0 0 1-.7.364 3.6 3.6 0 0 1-.742.189 5.157 5.157 0 0 1-.756.056c-.444 0-.861-.082-1.253-.245a3 3 0 0 1-1.03-.728 3.512 3.512 0 0 1-.7-1.162c-.167-.462-.251-.987-.251-1.575 0-.527.074-1.015.224-1.463.154-.453.378-.842.672-1.169.294-.331.658-.59 1.092-.777.434-.187.933-.28 1.498-.28.536 0 1.005.086 1.407.259.406.173.77.42 1.092.742l-.455.63zM59.397 72.598v5.957h.322a.712.712 0 0 0 .273-.042.592.592 0 0 0 .21-.189l1.785-2.205a.843.843 0 0 1 .244-.224.736.736 0 0 1 .358-.077h1.582l-2.234 2.667c-.158.21-.33.371-.517.483.097.07.184.152.258.245.08.093.155.194.225.301L64.296 83h-1.56a.885.885 0 0 1-.35-.063.563.563 0 0 1-.245-.245l-1.834-2.723a.517.517 0 0 0-.204-.21.777.777 0 0 0-.315-.049h-.391V83h-1.73V72.598h1.73z" stroke="#fff" stroke-width="4" mask="url(#a)"/><path d="M63.31 52.116 36.19 67.469V55.51l16.873-9.291 10.247 5.897zm1.86-1.68V18.356l-9.924 5.737V44.71l9.918 5.722.006.005zm-58.48 1.68 27.093 15.342V55.51L16.906 46.22 6.69 52.116zm-1.86-1.68V18.356l9.924 5.737V44.71L4.83 50.437zm1.164-34.159L33.81.531v11.56l-17.823 9.802-.144.08-9.85-5.695zm58.002 0L36.19.531v11.56l17.823 9.796.144.08 9.85-5.69h-.011z" fill="#8ED6FB"/><path d="m33.81 52.79-16.676-9.174V25.457l16.676 9.605V52.79zm2.38 0 16.676-9.164V25.458L36.19 35.063V52.79zM18.266 23.375 35 14.163l16.734 9.212L35 33.023l-16.734-9.648z" fill="#1C78C0"/></svg>